<svg width="24" height="24" viewBox="0 0 24 24" fill="black" xmlns="http://www.w3.org/2000/svg">
<path d="M17 2H7C5.34 2 4 3.34 4 5V19C4 20.66 5.34 22 7 22H17C18.66 22 20 20.66 20 19V5C20 3.34 18.66 2 17 2ZM13.57 7.83C13.78 7.73 14.02 7.66 14.27 7.64C15.35 7.55 16.31 8.35 16.4 9.44C16.49 10.51 15.73 11.44 14.68 11.57H14.65C14.65 11.57 14.58 11.57 14.56 11.58C14.03 11.61 13.54 11.44 13.17 11.12C13.74 10.61 14.06 9.85 13.99 9.03C13.95 8.58 13.8 8.18 13.57 7.83ZM10.36 6.5C11.8 6.5 12.97 7.67 12.97 9.11C12.97 10.52 11.86 11.67 10.46 11.72H10.42C10.42 11.72 10.34 11.72 10.3 11.72C8.86 11.67 7.76 10.53 7.76 9.11C7.76 7.69 8.93 6.5 10.37 6.5H10.36ZM13.15 16.72C12.38 17.24 11.37 17.5 10.36 17.5C9.35 17.5 8.34 17.24 7.57 16.72C6.88 16.26 6.49 15.63 6.49 14.95C6.49 14.27 6.87 13.64 7.57 13.17C9.11 12.15 11.61 12.15 13.14 13.17C13.83 13.63 14.21 14.26 14.22 14.94C14.22 15.62 13.84 16.25 13.14 16.72H13.15ZM16.54 15.83C15.99 16.13 15.3 16.28 14.61 16.26C15.01 15.9 15.24 15.46 15.28 14.98C15.33 14.3 15.01 13.64 14.36 13.12C13.99 12.83 13.56 12.6 13.1 12.43C14.31 12.08 15.84 12.31 16.78 13.07C17.28 13.48 17.54 13.99 17.49 14.52C17.45 15.05 17.11 15.52 16.53 15.83H16.54Z"/>
</svg>
