<svg width="24" height="24" viewBox="0 0 24 24" fill="black" xmlns="http://www.w3.org/2000/svg">
<path d="M9.87158 22C9.79381 22 9.71502 21.9845 9.63979 21.952C9.51229 21.897 9.40847 21.7985 9.34682 21.6741C9.28518 21.5497 9.26971 21.4074 9.30319 21.2727L11.2846 13.297H5.94593C5.85074 13.297 5.75699 13.2738 5.67277 13.2295C5.58856 13.1851 5.51642 13.1209 5.46261 13.0423C5.40879 12.9638 5.37492 12.8734 5.36391 12.7788C5.35291 12.6843 5.36511 12.5885 5.39945 12.4997L9.31592 2.37457C9.35858 2.26428 9.4336 2.16948 9.53114 2.10263C9.62868 2.03578 9.74416 2 9.8624 2H15.2515C15.4495 2 15.6341 2.1 15.7423 2.26586C15.7956 2.3475 15.8276 2.44113 15.8355 2.53827C15.8435 2.63541 15.827 2.73299 15.7877 2.82218L13.4686 8.08623H18.0553C18.1605 8.08623 18.2638 8.11456 18.3542 8.16823C18.4447 8.22191 18.5191 8.29895 18.5695 8.39127C18.6199 8.48359 18.6446 8.58779 18.6408 8.69292C18.6371 8.79805 18.6051 8.90024 18.5483 8.98876L10.3649 21.7306C10.3118 21.8133 10.2388 21.8812 10.1526 21.9283C10.0664 21.9754 9.96979 22 9.87158 22Z"/>
</svg>
