<svg width="24" height="24" viewBox="0 0 24 24" fill="black" xmlns="http://www.w3.org/2000/svg">
<path d="M19 4H17V3C17 2.45 16.55 2 16 2C15.45 2 15 2.45 15 3V4H9V3C9 2.45 8.55 2 8 2C7.45 2 7 2.45 7 3V4H5C3.35 4 2 5.35 2 7V19C2 20.65 3.35 22 5 22H19C20.65 22 22 20.65 22 19V7C22 5.35 20.65 4 19 4ZM15.75 15.55C16.08 15.88 16.08 16.42 15.75 16.75C15.42 17.08 14.88 17.08 14.55 16.75L12.01 14.2L9.47 16.75C9.14 17.08 8.6 17.08 8.27 16.75C7.94 16.42 7.94 15.88 8.27 15.55L10.81 13.01L8.27 10.46C7.94 10.13 7.94 9.58 8.27 9.25C8.6 8.92 9.15 8.92 9.48 9.25L12.02 11.8L14.56 9.25C14.89 8.92 15.43 8.92 15.76 9.25C16.09 9.58 16.09 10.12 15.76 10.45L13.22 13L15.76 15.55H15.75Z"/>
</svg>
