<svg width="24" height="24" viewBox="0 0 24 24" fill="black" xmlns="http://www.w3.org/2000/svg">
<path fill-rule="evenodd" clip-rule="evenodd" d="M7.63419 11.07L7.8763 11.7218L7.98805 12.0105L8.58402 11.7777L8.23016 10.8465L7.63419 11.07Z"/>
<path fill-rule="evenodd" clip-rule="evenodd" d="M17.9333 4.45839C14.6648 1.18054 9.35692 1.18054 6.08838 4.45839C2.81053 7.72692 2.81053 13.0348 6.08838 16.3033L10.0367 21.1829C11.1262 22.2724 12.8955 22.2724 13.985 21.1829L14.6555 20.5124C14.6555 20.5124 14.6462 20.5217 14.6741 20.4938L17.9333 16.3033C21.2019 13.0348 21.2019 7.72692 17.9333 4.44907V4.45839ZM14.7579 13.3607L15.5867 13.0441C15.7916 12.9696 16.0151 13.0721 16.0989 13.2676C16.1734 13.4725 16.0709 13.7053 15.8754 13.7798L14.6741 14.2361C14.6276 14.2547 14.581 14.264 14.5344 14.264C14.4972 14.264 14.4599 14.264 14.4227 14.2454C14.3109 14.2081 14.2178 14.1243 14.1713 14.0033L13.3239 11.7777L10.2974 12.9231C10.1578 12.9789 10.0181 12.9976 9.8784 12.9976C9.71078 12.9976 9.55247 12.9603 9.38486 12.8951C9.1893 12.8113 9.02169 12.6716 8.90063 12.4947L8.2581 12.7461C8.31397 12.9417 8.21154 13.1465 8.02529 13.221C7.97873 13.2397 7.93217 13.249 7.88561 13.249C7.73662 13.249 7.60625 13.1652 7.53175 13.0255L6.61917 10.6044H6.62848C6.57261 10.4088 6.67504 10.2039 6.86129 10.1294C7.05684 10.0643 7.2617 10.1574 7.35483 10.3343L7.99736 10.0922C7.96942 9.88732 7.99736 9.67315 8.09048 9.46828C8.22085 9.17961 8.46296 8.95612 8.75164 8.84437L13.9757 6.8609C14.2737 6.74916 14.5996 6.75847 14.8883 6.88884C15.177 7.01921 15.4005 7.25201 15.5122 7.54999L16.2199 9.41241C16.4527 10.027 16.1454 10.7161 15.5308 10.9489L14.0688 11.4983L14.7672 13.3514L14.7579 13.3607Z"/>
</svg>
