<svg width="24" height="24" viewBox="0 0 24 24" fill="black" xmlns="http://www.w3.org/2000/svg">
<path d="M12 4.65C7.21999 4.65 3.32999 8.54 3.32999 13.32C3.32999 18.1 7.21999 22 12 22C16.78 22 20.67 18.11 20.67 13.33C20.67 8.55 16.78 4.65 12 4.65ZM12.75 13C12.75 13.41 12.41 13.75 12 13.75C11.59 13.75 11.25 13.41 11.25 13V8C11.25 7.59 11.59 7.25 12 7.25C12.41 7.25 12.75 7.59 12.75 8V13Z"/>
<path d="M14.89 3.45H9.10999C8.70999 3.45 8.38999 3.13 8.38999 2.73C8.38999 2.33 8.70999 2 9.10999 2H14.89C15.29 2 15.61 2.32 15.61 2.72C15.61 3.12 15.29 3.45 14.89 3.45Z"/>
</svg>
