<svg width="24" height="24" viewBox="0 0 24 24" fill="black" xmlns="http://www.w3.org/2000/svg">
<path d="M14.225 3.45H8.44501C8.04501 3.45 7.72501 3.13 7.72501 2.73C7.72501 2.33 8.04501 2 8.44501 2H14.225C14.625 2 14.945 2.32 14.945 2.72C14.945 3.12 14.625 3.45 14.225 3.45Z"/>
<path d="M19.305 15H16.365C15.095 15 14.335 15.76 14.335 17.03V19.97C14.335 21.24 15.095 22 16.365 22H19.305C20.575 22 21.335 21.24 21.335 19.97V17.03C21.335 15.76 20.575 15 19.305 15ZM19.025 19.46L17.845 20.14C17.605 20.28 17.365 20.35 17.145 20.35C16.975 20.35 16.825 20.31 16.685 20.23C16.365 20.04 16.185 19.67 16.185 19.18V17.82C16.185 17.33 16.365 16.96 16.685 16.77C17.005 16.58 17.415 16.62 17.845 16.86L19.025 17.54C19.445 17.79 19.685 18.13 19.685 18.5C19.685 18.87 19.455 19.21 19.025 19.46Z"/>
<path d="M13.335 19.97V17.03C13.335 15.22 14.555 14 16.365 14H19.305C19.535 14 19.755 14.02 19.965 14.06C19.985 13.82 20.005 13.58 20.005 13.33C20.005 8.54 16.115 4.65 11.335 4.65C6.55501 4.65 2.66501 8.54 2.66501 13.33C2.66501 18.11 6.55501 22 11.335 22C12.185 22 12.995 21.86 13.775 21.64C13.495 21.17 13.335 20.61 13.335 19.97ZM12.085 13C12.085 13.41 11.745 13.75 11.335 13.75C10.925 13.75 10.585 13.41 10.585 13V8C10.585 7.59 10.925 7.25 11.335 7.25C11.745 7.25 12.085 7.59 12.085 8V13Z"/>
</svg>
