<svg width="24" height="24" viewBox="0 0 24 24" fill="black" xmlns="http://www.w3.org/2000/svg">
<path d="M8.01451 13.5657C8.79657 14.3445 9.79921 14.8837 10.8921 15.0934C11.985 15.313 13.1179 15.2032 14.1406 14.7738C15.1633 14.3545 16.0456 13.6355 16.6673 12.7069C17.2889 11.7883 17.6198 10.6999 17.6198 9.59161C17.6198 8.10384 17.0182 6.68597 15.9654 5.63754C14.9127 4.5991 13.4789 4 11.995 4C10.8821 4 9.79921 4.32951 8.86675 4.94858C7.94433 5.56765 7.22243 6.43635 6.79129 7.4648C6.37018 8.48327 6.24987 9.61158 6.47045 10.6999C6.69103 11.7883 7.22243 12.7868 8.01451 13.5657Z"/>
<path d="M21.0789 18.648C20.5274 17.8293 19.8156 17.1403 18.9834 16.6111C18.1512 16.0919 17.2187 15.7524 16.2361 15.6126C15.9855 15.5826 15.7348 15.6425 15.5243 15.7823C14.5016 16.5312 13.2583 16.9306 11.995 16.9306C10.7317 16.9306 9.47836 16.5312 8.45567 15.7823C8.35541 15.7124 8.23509 15.6525 8.11478 15.6226C7.99446 15.5926 7.86412 15.5926 7.7438 15.6126C6.77124 15.7524 5.82876 16.0919 4.99657 16.6111C4.16438 17.1303 3.45251 17.8293 2.90106 18.648C2.75066 18.8677 2.62032 19.0974 2.5 19.347C4.69578 22.1727 8.14485 24 12.015 24C15.8852 24 19.3042 22.1927 21.5 19.3869C21.3797 19.1273 21.2393 18.8777 21.0789 18.648Z"/>
</svg>
