<svg width="24" height="24" viewBox="0 0 24 24" fill="black" xmlns="http://www.w3.org/2000/svg">
<path fill-rule="evenodd" clip-rule="evenodd" d="M19 4H17V3C17 2.45 16.55 2 16 2C15.45 2 15 2.45 15 3V4H9V3C9 2.45 8.55 2 8 2C7.45 2 7 2.45 7 3V4H5C3.35 4 2 5.35 2 7V19C2 20.65 3.35 22 5 22H19C20.65 22 22 20.65 22 19V7C22 5.35 20.65 4 19 4ZM16.55 12.88L14.65 14.26L15.38 16.5C15.67 17.38 14.66 18.11 13.91 17.57L12.01 16.19L10.11 17.57C9.36 18.11 8.35 17.38 8.64 16.5L9.37 14.26L7.47 12.88C6.72 12.34 7.11 11.15 8.03 11.15H10.38L11.11 8.91C11.4 8.03 12.64 8.03 12.93 8.91L13.66 11.15H16.01C16.94 11.15 17.32 12.34 16.57 12.88H16.55Z"/>
</svg>
