<svg width="24" height="24" viewBox="0 0 24 24" fill="black" xmlns="http://www.w3.org/2000/svg">
<path d="M8.36446 11.0798C9.87035 11.0798 11.0911 9.86053 11.0911 8.35652C11.0911 6.85251 9.87035 5.63327 8.36446 5.63327C6.85857 5.63327 5.63781 6.85251 5.63781 8.35652C5.63781 9.86053 6.85857 11.0798 8.36446 11.0798Z"/>
<path d="M21.7342 2.26552C21.3797 1.91149 20.8071 1.91149 20.4526 2.26552L19.5528 3.16419C18.3985 2.37445 16.8625 2.00227 14.7357 2.00227H9.28244C4.24722 2.00227 2.00227 4.24441 2.00227 9.26427V14.7108C2.00227 16.8258 2.37491 18.369 3.16564 19.5309L2.26585 20.4296C1.91138 20.7836 1.91138 21.3555 2.26585 21.7095C2.44763 21.8911 2.67485 21.9728 2.91116 21.9728C3.14747 21.9728 3.37469 21.882 3.55646 21.7095L21.7342 3.55452C22.0886 3.2005 22.0886 2.62862 21.7342 2.27459V2.26552ZM4.49262 18.2056C4.04726 17.3796 3.82004 16.2267 3.82004 14.7108V9.26427C3.82004 5.24294 5.24699 3.81777 9.27335 3.81777H14.7267C16.2627 3.81777 17.3988 4.05378 18.2168 4.49858L4.49262 18.2056Z"/>
<path d="M21.007 7.43969C20.5072 7.46692 20.1254 7.90264 20.1527 8.40191C20.1709 8.67423 20.18 8.96471 20.18 9.26427V10.753C19.1438 9.79076 17.4079 9.79984 16.399 10.8074L11.8273 15.3825C11.391 15.8182 8.00091 19.1769 6.80118 20.2662C6.77392 20.2934 6.75574 20.3297 6.73756 20.357C6.69212 20.4024 6.65576 20.4568 6.6194 20.5113C6.59214 20.5658 6.57396 20.6202 6.55578 20.6838C6.54669 20.7201 6.51943 20.7564 6.51034 20.7927C6.51034 20.8108 6.51034 20.829 6.51034 20.8472C6.51034 20.9107 6.51034 20.9742 6.51034 21.0378C6.51034 21.0922 6.51034 21.1467 6.53761 21.2012C6.55578 21.2556 6.58305 21.301 6.61032 21.3555C6.63758 21.41 6.66485 21.4644 6.71029 21.5189C6.71938 21.528 6.72847 21.5461 6.73756 21.5643C6.76483 21.5915 6.79209 21.6006 6.81936 21.6278C6.87389 21.6732 6.92843 21.7186 6.99205 21.7549C7.04658 21.7821 7.10111 21.8003 7.15565 21.8184C7.192 21.8275 7.22836 21.8548 7.26471 21.8638C7.8464 21.9546 8.5008 22 9.26426 22H14.7176C19.7437 22 21.9886 19.7579 21.9886 14.738V9.2915C21.9886 8.95563 21.9796 8.62884 21.9614 8.32021C21.9341 7.82095 21.4888 7.43969 20.998 7.46692L21.007 7.43969Z"/>
</svg>
