<svg width="24" height="24" viewBox="0 0 24 24" fill="black" xmlns="http://www.w3.org/2000/svg">
<path d="M14.8093 12C14.8093 10.912 14.1107 10.096 13.044 10.096C11.9773 10.096 11.284 10.912 11.284 12C11.284 13.088 11.972 13.904 13.044 13.904C14.116 13.904 14.8093 13.0773 14.8093 12Z"/>
<path d="M17.9933 7.792V3.73333C17.9933 2.77867 17.2147 2 16.26 2H7.72667C6.772 2 5.99334 2.77867 5.99334 3.73333V7.792C5.11867 9.02933 4.66 10.48 4.66 12C4.66 13.52 5.11867 14.9707 5.99334 16.208V20.2667C5.99334 21.2213 6.772 22 7.72667 22H16.26C17.2147 22 17.9933 21.2213 17.9933 20.2667V16.208C18.868 14.9707 19.3267 13.52 19.3267 12C19.3267 10.48 18.868 9.02933 17.9933 7.792ZM16.66 20.2667C16.66 20.4853 16.4787 20.6667 16.26 20.6667H7.72667C7.508 20.6667 7.32667 20.4853 7.32667 20.2667V17.6533C8.63334 18.7413 10.276 19.3333 11.9933 19.3333C13.7107 19.3333 15.348 18.736 16.66 17.6533V20.2667ZM7.908 14.2827V9.712C7.908 9.37067 8.18534 9.09333 8.52667 9.09333C8.868 9.09333 9.14534 9.37067 9.14534 9.712V14.2827C9.14534 14.624 8.868 14.9013 8.52667 14.9013C8.18534 14.9013 7.908 14.624 7.908 14.2827ZM10.0147 12C10.0147 10.2507 11.2947 8.99733 13.044 8.99733C14.7933 8.99733 16.084 10.2507 16.084 12C16.084 13.7493 14.804 15.0027 13.044 15.0027C11.284 15.0027 10.0147 13.7493 10.0147 12ZM16.66 6.34667C15.3427 5.25867 13.7 4.66133 11.9933 4.66133C10.2867 4.66133 8.63867 5.25867 7.32667 6.34133V3.73333C7.32667 3.51467 7.508 3.33333 7.72667 3.33333H16.26C16.4787 3.33333 16.66 3.51467 16.66 3.73333V6.352V6.34667Z"/>
</svg>
