<svg width="24" height="24" viewBox="0 0 24 24" fill="black" xmlns="http://www.w3.org/2000/svg">
<path d="M16.164 14.892H17.736V6.264H16.536V8.472C16.536 9.132 15.996 9.672 15.336 9.672C14.676 9.672 14.136 9.132 14.136 8.472V6.264H13.2V8.472C13.2 9.132 12.66 9.672 12 9.672C11.34 9.672 10.8 9.132 10.8 8.472V6.264H9.864V8.472C9.864 9.132 9.324 9.672 8.664 9.672C8.004 9.672 7.464 9.132 7.464 8.472V6.264H6.264V14.892H7.836C8.532 14.892 9.108 15.468 9.108 16.164V17.736H14.892V16.164C14.892 15.468 15.468 14.892 16.164 14.892Z"/>
<path fill-rule="evenodd" clip-rule="evenodd" d="M2 5C2 3.34315 3.34315 2 5 2H19C20.6569 2 22 3.34315 22 5V19C22 20.6569 20.6569 22 19 22H5C3.34315 22 2 20.6569 2 19V5ZM5.772 4.5H18.228C18.924 4.5 19.5 5.076 19.5 5.772V15.384C19.5 16.08 18.924 16.656 18.228 16.656H16.656V18.228C16.656 18.936 16.08 19.5 15.384 19.5H8.616C7.92 19.5 7.344 18.924 7.344 18.228V16.656H5.772C5.076 16.656 4.5 16.08 4.5 15.384V5.772C4.5 5.076 5.076 4.5 5.772 4.5Z"/>
</svg>
