<svg width="24" height="24" viewBox="0 0 24 24" fill="black" xmlns="http://www.w3.org/2000/svg">
<path d="M4.00098 20V14C4.00098 9.58172 7.5827 6 12.001 6C16.4193 6 20.001 9.58172 20.001 14V20C20.5533 20 21.001 20.4477 21.001 21C21.001 21.5523 20.5533 22 20.001 22H4.00099C3.4487 22 3.00098 21.5523 3.00098 21C3.00098 20.4477 3.4487 20 4.00098 20ZM11.001 3C11.001 2.44772 11.4487 2 12.001 2C12.5533 2 13.001 2.44772 13.001 3V4C13.001 4.55228 12.5533 5 12.001 5C11.4487 5 11.001 4.55228 11.001 4V3ZM19.0721 5.5147C19.4626 5.12418 20.0958 5.12419 20.4863 5.51472C20.8768 5.90525 20.8768 6.53841 20.4863 6.92894L19.7792 7.63604C19.3887 8.02657 18.7555 8.02658 18.365 7.63606C17.9744 7.24553 17.9744 6.61233 18.365 6.22179L19.0721 5.5147ZM3.5157 6.92894C3.12518 6.53841 3.12518 5.90525 3.5157 5.51472C3.90623 5.12419 4.5394 5.12419 4.92992 5.51472L5.63702 6.22182C6.02755 6.61235 6.02755 7.24551 5.63702 7.63604C5.2465 8.02657 4.61333 8.02657 4.2228 7.63604L3.5157 6.92894Z"/>
</svg>
