<svg width="24" height="24" viewBox="0 0 24 24" fill="black" xmlns="http://www.w3.org/2000/svg">
<path d="M20.5947 18.218L19.1132 19.6995L15.4105 15.9969L15.3333 16.0741L14.5926 19.7778L13.1111 21.2593L8.66667 16.8149L4.22222 21.2593C3.81313 21.6684 3.14985 21.6684 2.74075 21.2593C2.33165 20.8502 2.33165 20.1869 2.74075 19.7778L7.18519 15.3334L2.74074 10.8889L4.22222 9.40742L7.92594 8.66667L8.00316 8.58946L5.03911 5.62541C4.63001 5.21631 4.63001 4.55302 5.03911 4.14392C5.44821 3.73482 6.11149 3.73482 6.52059 4.14392L20.5947 18.218ZM18.3736 13.0339L19.7778 11.6296C20.1869 12.0387 20.8502 12.0387 21.2593 11.6296C21.6684 11.2205 21.6684 10.5572 21.2593 10.1481L13.8519 2.74074C13.4428 2.33164 12.7795 2.33165 12.3704 2.74075C11.9613 3.14985 11.9613 3.81313 12.3704 4.22222L10.9661 5.62649L18.3736 13.0339Z"/>
</svg>
