<svg width="24" height="24" viewBox="0 0 24 24" fill="black" xmlns="http://www.w3.org/2000/svg">
<path d="M12.3704 2.74075C12.7795 2.33165 13.4428 2.33164 13.8519 2.74074L21.2593 10.1481C21.6684 10.5572 21.6684 11.2205 21.2593 11.6296C20.8502 12.0387 20.1869 12.0387 19.7778 11.6296L15.3333 16.0741L14.5926 19.7778L13.1111 21.2593L8.66667 16.8149L4.22222 21.2593C3.81313 21.6684 3.14985 21.6684 2.74075 21.2593C2.33165 20.8502 2.33165 20.1869 2.74075 19.7778L7.18519 15.3334L2.74074 10.8889L4.22222 9.40742L7.92594 8.66667L12.3704 4.22222C11.9613 3.81313 11.9613 3.14985 12.3704 2.74075Z"/>
</svg>
