<svg width="20" height="20" viewBox="0 0 20 20" fill="black" xmlns="http://www.w3.org/2000/svg">
<path d="M8.44524 14.8321C8.75209 15.0367 9.14664 15.0558 9.4718 14.8817C9.79695 14.7077 9.99994 14.3689 9.99994 14.0001L9.99994 11.2019L15.4452 14.8321C15.7521 15.0367 16.1466 15.0558 16.4718 14.8817C16.797 14.7077 16.9999 14.3689 16.9999 14.0001V6.00006C16.9999 5.63127 16.797 5.29241 16.4718 5.11839C16.1466 4.94437 15.7521 4.96344 15.4452 5.16801L9.99994 8.79821V6.00006C9.99994 5.63127 9.79695 5.29241 9.4718 5.11839C9.14664 4.94437 8.7521 4.96344 8.44524 5.16801L2.44524 9.16801C2.16704 9.35348 1.99994 9.66571 1.99994 10.0001C1.99994 10.3344 2.16704 10.6466 2.44524 10.8321L8.44524 14.8321Z"/>
</svg>
