<svg width="24" height="24" viewBox="0 0 24 24" fill="black" xmlns="http://www.w3.org/2000/svg">
<path fill-rule="evenodd" clip-rule="evenodd" d="M21.71 7.3L16.71 2.3C16.52 2.11 16.26 2 15.99 2H5C4.21 2 3.45 2.32 2.88 2.88C2.32 3.44 2 4.21 2 5V19C2 19.8 2.32 20.56 2.88 21.12C3.45 21.69 4.21 22 5 22H7C7.55 22 8 21.55 8 21V15C8 14.45 8.45 14 9 14H15C15.55 14 16 14.45 16 15V21C16 21.55 16.45 22 17 22H19C19.98 22 20.9 21.54 21.48 20.7C21.85 20.18 22 19.54 22 18.9V8C22 7.74 21.9 7.48 21.71 7.3Z"/>
</svg>
