<svg width="24" height="24" viewBox="0 0 24 24" fill="black" xmlns="http://www.w3.org/2000/svg">
<path fill-rule="evenodd" clip-rule="evenodd" d="M19 2H9C7.34 2 6 3.34 6 5V15C6 16.66 7.34 18 9 18H19C20.66 18 22 16.66 22 15V5C22 3.34 20.66 2 19 2ZM18.21 8.21L13.21 13.21C12.82 13.6 12.19 13.6 11.8 13.21L9.8 11.21C9.41 10.82 9.41 10.19 9.8 9.8C10.19 9.41 10.82 9.41 11.21 9.8L12.5 11.09L16.79 6.8C17.18 6.41 17.81 6.41 18.2 6.8C18.59 7.19 18.59 7.82 18.2 8.21H18.21Z"/>
<path fill-rule="evenodd" clip-rule="evenodd" d="M17 20H5C4.45 20 4 19.55 4 19V7C4 6.45 3.55 6 3 6C2.45 6 2 6.45 2 7V19C2 20.66 3.34 22 5 22H17C17.55 22 18 21.55 18 21C18 20.45 17.55 20 17 20Z"/>
</svg>
