<svg width="24" height="24" viewBox="0 0 24 24" fill="black" xmlns="http://www.w3.org/2000/svg">
<path d="M2.9727 2.26509C2.84097 2.22689 2.70136 2.22501 2.56865 2.25965C2.43594 2.29429 2.31507 2.36416 2.21881 2.46187C2.12256 2.55958 2.05451 2.68149 2.02186 2.81471C1.98922 2.94792 1.99319 3.08748 2.03337 3.21862L4.50038 11.2374H13.139C13.3408 11.2374 13.5343 11.3176 13.6769 11.4603C13.8196 11.6029 13.8998 11.7965 13.8998 11.9982C13.8998 12.2 13.8196 12.3935 13.6769 12.5362C13.5343 12.6789 13.3408 12.759 13.139 12.759H4.50038L2.03337 20.7778C1.99319 20.909 1.98922 21.0485 2.02186 21.1818C2.05451 21.315 2.12256 21.4369 2.21881 21.5346C2.31507 21.6323 2.43594 21.7022 2.56865 21.7368C2.70136 21.7714 2.84097 21.7696 2.9727 21.7314C9.6829 19.78 16.0107 16.6972 21.6832 12.616C21.7813 12.5455 21.8611 12.4528 21.9162 12.3453C21.9713 12.2379 22 12.1189 22 11.9982C22 11.8775 21.9713 11.7585 21.9162 11.6511C21.8611 11.5437 21.7813 11.4509 21.6832 11.3805C16.0107 7.29919 9.68291 4.21643 2.9727 2.26509Z"/>
</svg>
