<svg width="24" height="24" viewBox="0 0 24 24" fill="black" xmlns="http://www.w3.org/2000/svg">
<path d="M12.75 18.6917C12.675 18.6917 12.6 18.75 12.6083 18.8583V19.0083L12.925 18.9833V18.8333C12.9083 18.7583 12.85 18.6833 12.75 18.6917Z"/>
<path d="M15.3917 5.925C15.3917 5.88333 15.4083 5.84167 15.4083 5.79167C15.375 5.81667 15.3417 5.85 15.3 5.875C15.2667 5.9 15.2333 5.93333 15.2 5.95833L15.3667 6.05C15.3667 6.00833 15.3833 5.95833 15.3917 5.91667V5.925Z"/>
<path d="M7.51667 17.0167C7.44167 16.95 7.35 16.975 7.3 17.0333C7.25833 17.0917 7.24167 17.175 7.31667 17.2417L7.50833 17.4167L7.70833 17.1917L7.51667 17.0167Z"/>
<path d="M14.575 18.225L14.1167 18.3833C13.9667 18.4333 13.9333 18.5667 13.9667 18.6917C13.9667 18.6917 13.9833 18.7417 13.9833 18.75L14.8167 18.4583L14.7667 18.3167C14.7417 18.25 14.6667 18.1917 14.575 18.225Z"/>
<path d="M12.05 5.06667C12.1 5.06667 12.1333 5.05833 12.1583 5.03333C12.1833 5.00833 12.1917 4.975 12.2 4.925C12.2 4.89167 12.2 4.86667 12.1917 4.85C12.1917 4.83333 12.175 4.81667 12.1667 4.80833C12.15 4.8 12.1417 4.79167 12.1167 4.79167C12.1 4.79167 12.075 4.79167 12.0417 4.79167C12.0417 4.88333 12.0417 4.98333 12.0417 5.075C12.0417 5.075 12.0417 5.075 12.05 5.075C12.05 5.075 12.05 5.075 12.0583 5.075L12.05 5.06667Z"/>
<path d="M10.4833 5.23333C10.4833 5.23333 10.4833 5.23333 10.4917 5.23333C10.5333 5.225 10.5667 5.20833 10.5833 5.175C10.6 5.15 10.6083 5.10833 10.5917 5.05833C10.5917 5.025 10.575 5.00833 10.5667 4.99167C10.5583 4.975 10.5417 4.96667 10.5333 4.95833C10.5167 4.95833 10.5 4.95 10.4833 4.95833C10.4667 4.95833 10.4417 4.95833 10.4083 4.96667C10.425 5.05833 10.4417 5.15 10.4667 5.24167H10.475L10.4833 5.23333Z"/>
<path d="M10.325 18.5333L9.825 18.375C9.65833 18.325 9.58333 18.4583 9.53333 18.6L10.375 18.8667L10.425 18.725C10.45 18.6583 10.425 18.5667 10.325 18.5333Z"/>
<path d="M5.63333 9.25833C5.63333 9.25833 5.63333 9.25833 5.63333 9.25C5.65 9.20833 5.65833 9.175 5.64167 9.14167C5.625 9.10833 5.6 9.08333 5.55 9.06667C5.525 9.05 5.5 9.05 5.48333 9.04167C5.46667 9.04167 5.45 9.04167 5.43333 9.05C5.41667 9.05 5.40833 9.06667 5.4 9.09167C5.39167 9.10833 5.375 9.13333 5.36667 9.15833C5.45 9.2 5.54167 9.23333 5.625 9.275C5.625 9.275 5.625 9.275 5.625 9.26667L5.63333 9.25833Z"/>
<path d="M6.05833 15.15C6.025 15.0833 5.94167 15.0417 5.85 15.0833L5.71667 15.15L5.78333 15.2833C5.83333 15.375 5.925 15.3833 5.98333 15.35C6.05 15.3167 6.09167 15.2333 6.05 15.1417L6.05833 15.15Z"/>
<path d="M7.83333 6.21667L7.86667 6.26667L7.9 6.30833L8.06667 6.55833C8.06667 6.55833 8.09167 6.59167 8.1 6.6C8.10833 6.61667 8.11667 6.625 8.11667 6.625C8.125 6.625 8.13333 6.61667 8.15 6.60833C8.16667 6.60833 8.175 6.59167 8.19167 6.575C8.25833 6.53333 8.29167 6.475 8.3 6.4C8.3 6.33333 8.28333 6.25 8.21667 6.15833C8.19167 6.125 8.16667 6.09167 8.13333 6.075C8.10833 6.05 8.075 6.04167 8.04167 6.03333C8.00833 6.03333 7.98333 6.025 7.95 6.03333C7.91667 6.03333 7.89167 6.05 7.85833 6.075C7.84167 6.09167 7.825 6.1 7.80833 6.10833C7.8 6.11667 7.78333 6.125 7.775 6.14167C7.775 6.14167 7.78333 6.15833 7.79167 6.16667C7.8 6.18333 7.80833 6.2 7.825 6.21667H7.83333Z"/>
<path d="M12 4.23333C7.71667 4.23333 4.23333 7.71667 4.23333 12C4.23333 16.2833 7.71667 19.7667 12 19.7667C16.2833 19.7667 19.7667 16.2833 19.7667 12C19.7667 7.71667 16.2833 4.23333 12 4.23333ZM19.2417 11.1583C19.2417 11.1583 19.2417 11.1917 19.2417 11.2167C19.2417 11.2333 19.2417 11.2583 19.2417 11.275C19.2417 11.2917 19.2417 11.3167 19.2333 11.3333C19.2333 11.35 19.225 11.3667 19.2167 11.375C19.2 11.375 19.1833 11.375 19.1583 11.3667C19.1417 11.3667 19.125 11.3667 19.1083 11.3667V11.35C19.1083 11.35 19.1583 11.2917 19.1667 11.2583C19.175 11.225 19.1833 11.1917 19.1667 11.1583C19.1667 11.1333 19.15 11.1 19.1333 11.075C19.1167 11.05 19.0917 11.025 19.0667 11.0083C19.0417 10.9917 19 10.975 18.9583 10.9667C18.9167 10.9583 18.8667 10.9583 18.8167 10.9667C18.7667 10.9667 18.7167 10.9833 18.6833 11.0083C18.65 11.025 18.6167 11.05 18.6 11.075C18.5833 11.1 18.5667 11.1333 18.5583 11.1583C18.5583 11.1917 18.55 11.2167 18.5583 11.25C18.5583 11.2667 18.5583 11.2833 18.5667 11.3C18.5667 11.3167 18.5833 11.3333 18.5917 11.35C18.6 11.3667 18.6083 11.3833 18.625 11.3917C18.6333 11.4083 18.65 11.4167 18.6583 11.425V11.4417C18.6583 11.4417 18.625 11.4417 18.6083 11.4333C18.5917 11.4333 18.575 11.4333 18.5667 11.4333C18.5333 11.3833 18.5083 11.3167 18.5 11.225C18.5 11.1667 18.5 11.1083 18.5 11.0583C18.5083 11.0083 18.525 10.9667 18.5583 10.9333C18.5833 10.9 18.6167 10.8667 18.6583 10.8417C18.7 10.8167 18.7417 10.8083 18.7917 10.8C18.8667 10.7917 18.925 10.8 18.975 10.8083C19.025 10.825 19.075 10.85 19.1083 10.8833C19.1417 10.9167 19.175 10.9583 19.1917 11.0083C19.2167 11.0583 19.225 11.1083 19.2333 11.1583H19.2417ZM18.9917 10.0083C18.9917 10.0083 19 10.0333 19.0083 10.05C18.9417 10.1417 18.8833 10.2333 18.825 10.325C18.7667 10.4167 18.7 10.5083 18.6417 10.6083L18.725 10.5833L18.825 10.5583C18.825 10.5583 18.8917 10.5417 18.925 10.5333C18.9583 10.5333 18.9833 10.5167 19.0167 10.5083C19.0417 10.5083 19.0667 10.4917 19.0833 10.4917C19.1 10.4917 19.1167 10.4833 19.125 10.475C19.125 10.4917 19.125 10.5083 19.125 10.525C19.125 10.5333 19.1333 10.55 19.1417 10.5667C19.0833 10.575 19.025 10.5917 18.975 10.6C18.925 10.6083 18.875 10.6167 18.8333 10.6333C18.7917 10.6417 18.75 10.65 18.7 10.6667C18.6583 10.675 18.6083 10.6917 18.5667 10.7L18.4417 10.7333C18.4417 10.7333 18.4417 10.7083 18.4417 10.6917C18.4417 10.675 18.4417 10.6667 18.4333 10.65C18.5583 10.475 18.6833 10.2833 18.8083 10.0833C18.7917 10.0833 18.7667 10.0917 18.75 10.1C18.7333 10.1 18.7083 10.1083 18.6917 10.1167L18.575 10.15C18.575 10.15 18.5 10.1667 18.475 10.175C18.45 10.175 18.425 10.1917 18.4 10.1917C18.3833 10.1917 18.3667 10.2 18.35 10.2083C18.3417 10.2083 18.325 10.2083 18.325 10.2167C18.325 10.2083 18.325 10.2 18.325 10.1917C18.325 10.1917 18.325 10.175 18.325 10.1667C18.325 10.15 18.3167 10.1333 18.3083 10.1167C18.3083 10.1167 18.3333 10.1167 18.3667 10.1083C18.4 10.1083 18.4417 10.0917 18.4917 10.0833C18.5417 10.075 18.5917 10.0667 18.65 10.05C18.7083 10.0417 18.7583 10.025 18.8083 10.0083C18.8583 10 18.8917 9.98333 18.925 9.975C18.9583 9.96667 18.9833 9.95833 19.0083 9.95C19.0083 9.96667 19.0083 9.98333 19.0083 10L18.9917 10.0083ZM18.825 9.49167C18.825 9.49167 18.8417 9.55 18.85 9.58333C18.8667 9.63333 18.8833 9.675 18.9 9.70833C18.9167 9.74167 18.925 9.76667 18.9333 9.78333C18.925 9.78333 18.9083 9.78333 18.8917 9.79167C18.8833 9.79167 18.875 9.79167 18.8667 9.8C18.8667 9.8 18.8583 9.8 18.85 9.80833C18.85 9.79167 18.8417 9.76667 18.8333 9.74167C18.8333 9.71667 18.8167 9.7 18.8167 9.675C18.8167 9.65 18.8083 9.63333 18.8 9.61667C18.7917 9.6 18.7917 9.58333 18.7917 9.58333C18.7583 9.59167 18.7167 9.60833 18.6833 9.61667C18.65 9.625 18.6083 9.64167 18.575 9.65C18.5917 9.69167 18.6083 9.73333 18.6167 9.76667C18.6333 9.8 18.6417 9.83333 18.6583 9.875C18.65 9.875 18.6417 9.875 18.6333 9.875C18.6333 9.875 18.625 9.875 18.6167 9.875C18.6167 9.875 18.6083 9.875 18.6 9.875C18.6 9.875 18.5833 9.875 18.575 9.88333C18.5583 9.80833 18.5333 9.73333 18.5083 9.65833C18.4833 9.65833 18.4667 9.675 18.4417 9.68333C18.4167 9.68333 18.4 9.7 18.375 9.70833C18.3333 9.725 18.2917 9.74167 18.25 9.75833C18.2667 9.79167 18.275 9.83333 18.2917 9.86667C18.3083 9.9 18.325 9.94167 18.3417 9.975H18.325C18.325 9.975 18.3083 9.975 18.3 9.975C18.2917 9.975 18.2833 9.975 18.275 9.98333C18.275 9.98333 18.2667 9.98333 18.2583 9.99167C18.2583 9.975 18.2417 9.95 18.2333 9.925C18.225 9.9 18.2083 9.86667 18.2 9.81667C18.1833 9.775 18.175 9.74167 18.1667 9.71667C18.1583 9.69167 18.15 9.675 18.15 9.65833C18.15 9.64167 18.1417 9.63333 18.1417 9.625C18.1417 9.625 18.1417 9.60833 18.1333 9.60833C18.175 9.6 18.2167 9.58333 18.2583 9.56667C18.3 9.55 18.35 9.53333 18.4 9.51667L18.5333 9.46667C18.5917 9.45 18.6333 9.43333 18.675 9.41667C18.7167 9.4 18.7583 9.38333 18.8 9.36667C18.8083 9.4 18.8167 9.425 18.825 9.45833V9.49167ZM18.1167 14.1583L18.05 14.1917C18.05 14.1917 18.0333 14.1583 18.025 14.1333C17.9333 14.1583 17.825 14.075 17.8667 13.9667L17.8917 13.8833C17.8917 13.8833 17.95 13.8833 17.9667 13.8833L17.9333 13.9917C17.9083 14.0667 18.025 14.1083 18.05 14.0333L18.1083 13.8667L18.1667 13.925L18.1083 14.1C18.1083 14.1 18.1083 14.15 18.125 14.1667L18.1167 14.1583ZM18.4083 8.74167C18.4583 8.76667 18.5 8.79167 18.5333 8.83333C18.575 8.875 18.6 8.925 18.625 8.975C18.65 9.025 18.6583 9.06667 18.6667 9.10833C18.6667 9.15 18.675 9.19167 18.6667 9.23333C18.65 9.23333 18.6333 9.23333 18.6083 9.23333C18.5917 9.23333 18.575 9.23333 18.5583 9.24167V9.225C18.5583 9.225 18.5833 9.15833 18.5833 9.11667C18.5833 9.075 18.5833 9.04167 18.5583 8.99167C18.5417 8.96667 18.525 8.93333 18.5 8.91667C18.475 8.89167 18.4417 8.875 18.4083 8.86667C18.375 8.85833 18.3333 8.85 18.2917 8.85833C18.25 8.86667 18.2 8.875 18.15 8.9C18.1167 8.91667 18.0833 8.94167 18.05 8.96667C18.025 8.99167 18 9.01667 17.9917 9.05C17.975 9.08333 17.9667 9.11667 17.9667 9.15C17.9667 9.18333 17.975 9.21667 17.9917 9.25833C17.9917 9.25833 18 9.275 18.0083 9.28333C18.0083 9.29167 18.0167 9.3 18.025 9.30833C18.025 9.31667 18.0333 9.325 18.0417 9.33333C18.0417 9.33333 18.05 9.34167 18.0583 9.35C18.0583 9.35 18.075 9.35 18.0833 9.34167C18.0917 9.34167 18.1083 9.33333 18.125 9.325C18.175 9.3 18.2167 9.28333 18.2333 9.26667C18.2583 9.25 18.275 9.24167 18.2833 9.24167C18.2833 9.24167 18.2833 9.25833 18.2833 9.26667C18.2833 9.275 18.2917 9.29167 18.3 9.30833C18.3083 9.33333 18.3167 9.35 18.325 9.35833C18.325 9.36667 18.3333 9.375 18.3417 9.38333C18.3417 9.38333 18.325 9.38333 18.3167 9.38333C18.3083 9.38333 18.2917 9.39167 18.275 9.4C18.2583 9.4 18.2417 9.41667 18.225 9.41667C18.2083 9.41667 18.1917 9.43333 18.175 9.44167L18.1417 9.45833C18.1417 9.45833 18.1083 9.475 18.1 9.48333C18.0833 9.48333 18.075 9.49167 18.075 9.5C18.0417 9.46667 18.0167 9.425 17.9917 9.38333C17.9667 9.34167 17.9417 9.3 17.925 9.26667C17.9 9.21667 17.8833 9.15833 17.875 9.10833C17.875 9.05833 17.875 9.00833 17.875 8.95833C17.8833 8.91667 17.9083 8.875 17.9417 8.83333C17.975 8.8 18.0083 8.76667 18.0583 8.74167C18.1167 8.71667 18.175 8.7 18.225 8.7C18.275 8.7 18.325 8.70833 18.375 8.73333L18.4083 8.74167ZM18.075 8.23333C18.125 8.23333 18.1667 8.21667 18.2083 8.20833V8.225C18.2083 8.225 18.2083 8.23333 18.2167 8.24167C18.2167 8.24167 18.2167 8.25 18.225 8.25833C18.225 8.25833 18.2333 8.26667 18.2417 8.275C18.2 8.325 18.1583 8.375 18.1167 8.43333C18.075 8.49167 18.025 8.55 17.9833 8.6C17.9417 8.65833 17.9 8.70833 17.8667 8.75833C17.8333 8.80833 17.8 8.85 17.775 8.89167C17.775 8.875 17.7583 8.86667 17.75 8.85C17.75 8.83333 17.7333 8.825 17.725 8.80833C17.725 8.79167 17.7083 8.78333 17.7 8.76667C17.7 8.75 17.6833 8.74167 17.675 8.73333C17.7 8.70833 17.725 8.675 17.75 8.65C17.775 8.625 17.8 8.59167 17.825 8.56667C17.8167 8.55 17.8 8.525 17.7917 8.50833C17.7833 8.49167 17.7667 8.46667 17.7583 8.45C17.75 8.43333 17.7417 8.41667 17.7333 8.4C17.725 8.38333 17.7167 8.36667 17.7083 8.35833C17.675 8.35833 17.6333 8.375 17.6 8.38333C17.5667 8.38333 17.525 8.4 17.4917 8.40833C17.4917 8.40833 17.4917 8.39167 17.4833 8.38333C17.4833 8.38333 17.475 8.36667 17.4667 8.35833C17.4667 8.35833 17.4583 8.34167 17.45 8.33333C17.45 8.33333 17.4417 8.31667 17.4333 8.30833C17.45 8.30833 17.4833 8.30833 17.5167 8.3C17.55 8.3 17.5917 8.29167 17.6333 8.28333C17.675 8.28333 17.725 8.26667 17.775 8.25833C17.825 8.25833 17.875 8.24167 17.925 8.23333C17.975 8.23333 18.025 8.21667 18.075 8.20833V8.23333ZM17.3917 7.39167C17.4083 7.35 17.425 7.30833 17.4417 7.275C17.4583 7.24167 17.4667 7.21667 17.475 7.2C17.4833 7.21667 17.4917 7.225 17.5 7.24167C17.5083 7.25833 17.5167 7.26667 17.525 7.28333C17.5333 7.29167 17.5417 7.30833 17.5583 7.31667C17.5667 7.325 17.575 7.34167 17.5917 7.35C17.575 7.375 17.5667 7.4 17.55 7.43333C17.5333 7.46667 17.525 7.49167 17.5083 7.525C17.4917 7.55833 17.4833 7.58333 17.475 7.60833C17.4667 7.63333 17.4583 7.65 17.45 7.66667C17.45 7.66667 17.5 7.66667 17.5333 7.65833C17.5583 7.65833 17.5917 7.65 17.6167 7.64167C17.65 7.64167 17.675 7.625 17.7083 7.61667C17.7417 7.61667 17.7667 7.6 17.7917 7.59167C17.7917 7.59167 17.7917 7.60833 17.8 7.60833C17.8 7.60833 17.8083 7.625 17.8167 7.625C17.8167 7.625 17.825 7.64167 17.8333 7.64167C17.8333 7.64167 17.8417 7.65 17.85 7.65833C17.825 7.65833 17.8 7.65833 17.7667 7.675C17.7333 7.675 17.6917 7.69167 17.65 7.69167C17.6083 7.69167 17.5667 7.70833 17.525 7.71667C17.4833 7.725 17.4417 7.73333 17.4083 7.74167C17.3917 7.75 17.3833 7.75833 17.3667 7.775C17.35 7.78333 17.3417 7.79167 17.325 7.80833C17.3 7.83333 17.2667 7.85 17.2417 7.875C17.2167 7.9 17.1917 7.925 17.1667 7.95C17.1667 7.94167 17.15 7.925 17.1417 7.91667C17.1333 7.90833 17.125 7.89167 17.1167 7.88333C17.1083 7.875 17.1 7.85833 17.0917 7.85C17.0833 7.84167 17.075 7.825 17.0583 7.81667C17.0833 7.8 17.1083 7.775 17.1417 7.75833C17.1667 7.74167 17.2 7.71667 17.225 7.7C17.2417 7.69167 17.25 7.68333 17.2667 7.66667C17.275 7.65833 17.2917 7.64167 17.3 7.63333C17.3167 7.6 17.3333 7.55833 17.35 7.51667C17.3667 7.475 17.3833 7.43333 17.4083 7.39167H17.3917ZM16.975 6.88333C16.975 6.88333 17.0333 6.81667 17.0667 6.78333C17.0667 6.79167 17.0833 6.8 17.0917 6.81667C17.1 6.825 17.1083 6.84167 17.125 6.85C17.1417 6.86667 17.15 6.875 17.175 6.89167C17.1917 6.90833 17.2167 6.925 17.2417 6.95C17.2583 6.96667 17.275 6.98333 17.2833 7C17.2917 7.01667 17.3083 7.025 17.3083 7.04167C17.3083 7.05 17.325 7.06667 17.325 7.075C17.325 7.08333 17.325 7.1 17.3333 7.10833C17.3333 7.13333 17.3333 7.15833 17.3333 7.18333C17.3333 7.20833 17.3083 7.23333 17.2917 7.25C17.2583 7.28333 17.2167 7.3 17.175 7.30833C17.1333 7.30833 17.0917 7.3 17.0417 7.26667C17.025 7.33333 17.0083 7.4 16.9917 7.46667C16.975 7.53333 16.9583 7.6 16.95 7.66667C16.9417 7.65 16.9333 7.64167 16.9167 7.63333C16.9083 7.625 16.8917 7.60833 16.8833 7.6C16.875 7.59167 16.8583 7.575 16.85 7.56667C16.8417 7.55833 16.825 7.54167 16.8167 7.53333L16.925 7.175L16.8917 7.2C16.85 7.24167 16.8167 7.275 16.7833 7.30833C16.75 7.34167 16.725 7.375 16.6917 7.40833C16.6917 7.4 16.675 7.39167 16.6667 7.38333C16.6583 7.375 16.65 7.35833 16.6333 7.35C16.625 7.33333 16.6083 7.325 16.6 7.31667C16.5917 7.30833 16.5833 7.3 16.575 7.29167C16.6083 7.26667 16.6417 7.23333 16.675 7.20833C16.7083 7.175 16.7417 7.14167 16.7833 7.1L16.8833 7C16.8833 7 16.9583 6.925 16.9917 6.89167L16.975 6.88333ZM16.5 6.30833C16.55 6.325 16.6 6.35 16.6417 6.39167C16.6833 6.425 16.7167 6.46667 16.75 6.50833C16.775 6.55 16.7917 6.59167 16.8 6.64167C16.8 6.69167 16.8 6.73333 16.7917 6.78333C16.775 6.83333 16.75 6.88333 16.7083 6.925C16.675 6.96667 16.6333 7 16.5917 7.01667C16.55 7.04167 16.5 7.05 16.45 7.05833C16.4 7.05833 16.35 7.05833 16.3 7.04167C16.25 7.025 16.2 7 16.1583 6.95833C16.1167 6.925 16.0833 6.88333 16.05 6.84167C16.025 6.8 16 6.75833 15.9917 6.70833C15.9917 6.65833 15.9917 6.61667 16 6.56667C16.0167 6.51667 16.0417 6.46667 16.0833 6.41667C16.1167 6.375 16.15 6.35 16.2 6.325C16.2417 6.3 16.2917 6.29167 16.3417 6.28333C16.3917 6.28333 16.4417 6.28333 16.4917 6.3L16.5 6.30833ZM15.6583 6.4C15.6583 6.4 15.7167 6.325 15.7417 6.275L15.8833 6.05833C15.8833 6.05833 15.9083 6.025 15.9167 6.00833C15.925 5.99167 15.9333 5.98333 15.9333 5.975C15.925 5.975 15.9167 5.95833 15.9 5.95833C15.8833 5.95833 15.875 5.94167 15.8583 5.93333C15.8417 5.925 15.825 5.91667 15.8083 5.90833C15.7917 5.9 15.775 5.89167 15.7667 5.88333C15.7667 5.88333 15.775 5.875 15.7833 5.86667C15.7833 5.86667 15.7917 5.85833 15.8 5.85C15.8 5.85 15.8 5.83333 15.8083 5.83333C15.8083 5.83333 15.8083 5.81667 15.8167 5.80833C15.8333 5.825 15.85 5.83333 15.8667 5.84167C15.8833 5.85 15.9 5.86667 15.9167 5.875C15.9333 5.88333 15.95 5.9 15.9667 5.90833C15.9833 5.925 16.0083 5.93333 16.0333 5.95833C16.0583 5.975 16.0833 5.99167 16.1 6.00833C16.1167 6.025 16.1417 6.03333 16.15 6.04167C16.1667 6.05 16.1833 6.05833 16.2 6.075C16.2167 6.08333 16.2333 6.09167 16.25 6.10833C16.25 6.10833 16.2417 6.11667 16.2333 6.125C16.2333 6.125 16.225 6.13333 16.2167 6.14167C16.2167 6.14167 16.2167 6.15833 16.2083 6.15833C16.2083 6.15833 16.2083 6.175 16.2 6.18333C16.1917 6.175 16.175 6.16667 16.1667 6.15C16.15 6.14167 16.1417 6.125 16.125 6.11667C16.1083 6.10833 16.1 6.1 16.0833 6.09167C16.0667 6.08333 16.0583 6.075 16.05 6.06667C16.05 6.06667 16.05 6.06667 16.0417 6.075C16.0417 6.075 16.0417 6.08333 16.025 6.09167L15.9917 6.13333L15.85 6.35C15.8167 6.4 15.7917 6.44167 15.7667 6.475C15.7417 6.51667 15.7167 6.55 15.7 6.59167C15.6917 6.59167 15.6833 6.575 15.6667 6.56667C15.6583 6.56667 15.6417 6.55 15.625 6.54167C15.6083 6.53333 15.6 6.525 15.5833 6.51667C15.575 6.51667 15.5583 6.5 15.55 6.5C15.575 6.46667 15.6 6.43333 15.625 6.39167L15.6583 6.4ZM15.05 5.98333C15.05 5.98333 15.1167 5.925 15.1583 5.9C15.2 5.86667 15.2333 5.84167 15.275 5.80833C15.3167 5.775 15.35 5.74167 15.3917 5.71667C15.4333 5.68333 15.4667 5.65833 15.5 5.63333C15.5 5.63333 15.5083 5.64167 15.5167 5.65C15.5167 5.65 15.525 5.65 15.5333 5.65833C15.5333 5.65833 15.5417 5.65833 15.55 5.65833C15.55 5.65833 15.5583 5.65833 15.5667 5.65833C15.5583 5.71667 15.55 5.78333 15.5333 5.85833C15.525 5.93333 15.5167 6 15.5 6.06667C15.4917 6.13333 15.4833 6.2 15.475 6.26667C15.475 6.33333 15.4667 6.38333 15.4583 6.425C15.4417 6.41667 15.4333 6.40833 15.4167 6.4C15.4 6.4 15.3917 6.38333 15.375 6.375C15.3583 6.375 15.35 6.35833 15.3333 6.35C15.3167 6.35 15.3083 6.33333 15.2917 6.33333C15.2917 6.3 15.3083 6.26667 15.3083 6.225C15.3083 6.19167 15.325 6.15 15.325 6.11667C15.3083 6.10833 15.2833 6.09167 15.2667 6.08333C15.25 6.075 15.225 6.05833 15.2083 6.05C15.1917 6.04167 15.175 6.03333 15.1583 6.025C15.1417 6.01667 15.125 6.00833 15.1083 6C15.0833 6.025 15.05 6.05 15.025 6.075C15 6.1 14.975 6.125 14.95 6.15C14.95 6.15 14.9333 6.14167 14.9333 6.13333C14.9333 6.13333 14.9167 6.13333 14.9083 6.125C14.9083 6.125 14.8917 6.125 14.8833 6.11667C14.8833 6.11667 14.8667 6.11667 14.8583 6.10833C14.875 6.1 14.9 6.08333 14.925 6.05833C14.95 6.03333 14.9833 6.01667 15.0167 5.98333H15.05ZM14.675 5.54167C14.7 5.49167 14.7167 5.44167 14.7333 5.4C14.75 5.35833 14.7667 5.31667 14.7833 5.275C14.7917 5.275 14.8083 5.29167 14.8167 5.29167C14.825 5.29167 14.8417 5.30833 14.8583 5.30833C14.875 5.30833 14.8917 5.325 14.9 5.325C14.9167 5.325 14.925 5.33333 14.9333 5.34167C14.9083 5.38333 14.8917 5.425 14.875 5.45833C14.8583 5.5 14.8333 5.54167 14.8083 5.6L14.75 5.73333C14.75 5.73333 14.7167 5.80833 14.7083 5.84167C14.6917 5.875 14.6833 5.90833 14.6667 5.93333C14.7 5.95 14.7417 5.96667 14.775 5.975C14.8083 5.99167 14.85 6 14.8917 6.01667C14.8917 6.01667 14.8917 6.025 14.8833 6.03333C14.8833 6.03333 14.8833 6.05 14.875 6.05833C14.875 6.06667 14.875 6.075 14.8667 6.08333C14.8667 6.08333 14.8667 6.09167 14.8667 6.1C14.85 6.1 14.825 6.08333 14.8 6.06667C14.775 6.05833 14.7417 6.04167 14.7 6.01667C14.6583 6 14.6333 5.98333 14.6083 5.975C14.5833 5.96667 14.5667 5.95833 14.55 5.95C14.5333 5.95 14.525 5.94167 14.5167 5.93333H14.5C14.5167 5.89167 14.5417 5.85833 14.5583 5.81667C14.575 5.775 14.6 5.73333 14.625 5.675L14.6833 5.55L14.675 5.54167ZM13.8333 5.425C13.8333 5.425 13.85 5.375 13.8583 5.35833C13.8583 5.34167 13.875 5.31667 13.875 5.3C13.875 5.28333 13.8833 5.26667 13.8917 5.25C13.8917 5.23333 13.9 5.21667 13.9083 5.2C13.925 5.15 13.9417 5.1 13.95 5.06667C13.9583 5.03333 13.9667 5.00833 13.975 4.99167C13.9833 4.99167 14 5 14.0167 5.00833C14.0333 5.00833 14.0417 5.01667 14.0583 5.025C14.075 5.025 14.0833 5.025 14.1 5.03333C14.1167 5.03333 14.125 5.03333 14.1417 5.04167C14.1167 5.1 14.0917 5.15833 14.075 5.21667C14.0583 5.275 14.0333 5.325 14.0167 5.38333C14 5.44167 13.9833 5.49167 13.9833 5.53333C13.9833 5.575 13.9833 5.60833 13.9917 5.63333C14 5.65833 14.0167 5.675 14.0417 5.69167C14.0667 5.70833 14.0917 5.71667 14.125 5.73333C14.1667 5.75 14.2 5.75 14.225 5.73333C14.25 5.725 14.2833 5.7 14.3 5.675C14.325 5.64167 14.3417 5.60833 14.3583 5.56667C14.375 5.525 14.3917 5.48333 14.4083 5.43333C14.425 5.39167 14.4417 5.34167 14.45 5.3C14.4667 5.25833 14.475 5.20833 14.4917 5.15833C14.5 5.15833 14.5083 5.16667 14.5167 5.16667C14.5167 5.16667 14.5333 5.16667 14.5417 5.175C14.55 5.175 14.5583 5.175 14.5667 5.175C14.575 5.175 14.5833 5.175 14.5917 5.175C14.5917 5.19167 14.575 5.20833 14.5667 5.23333C14.5583 5.25833 14.55 5.28333 14.5333 5.31667C14.525 5.35 14.5083 5.38333 14.4917 5.425C14.475 5.46667 14.4667 5.5 14.45 5.55C14.4083 5.66667 14.3583 5.74167 14.2917 5.775C14.225 5.80833 14.1417 5.80833 14.05 5.775C14.0083 5.75833 13.9667 5.74167 13.9333 5.725C13.9 5.7 13.875 5.675 13.85 5.65C13.8333 5.61667 13.8167 5.58333 13.8167 5.55C13.8167 5.50833 13.8167 5.46667 13.8333 5.425ZM13.0667 5.00833C13.1 4.96667 13.1333 4.93333 13.1833 4.90833C13.225 4.88333 13.275 4.86667 13.3333 4.86667C13.3917 4.86667 13.4417 4.86667 13.5083 4.875C13.5583 4.88333 13.6 4.9 13.6417 4.91667C13.675 4.93333 13.7083 4.95833 13.7417 4.98333C13.7333 5 13.725 5.01667 13.7167 5.03333C13.7083 5.05 13.7 5.06667 13.6917 5.08333H13.675C13.675 5.08333 13.6333 5.01667 13.6083 4.99167C13.5833 4.96667 13.5417 4.95 13.4917 4.94167C13.4583 4.94167 13.425 4.94167 13.3917 4.94167C13.3583 4.94167 13.325 4.96667 13.3 4.98333C13.2667 5.00833 13.2417 5.03333 13.225 5.075C13.2 5.10833 13.1833 5.15833 13.175 5.20833C13.175 5.25 13.1667 5.29167 13.175 5.325C13.175 5.35833 13.1917 5.39167 13.2083 5.425C13.225 5.45833 13.25 5.48333 13.275 5.5C13.3 5.51667 13.3333 5.53333 13.375 5.54167C13.3833 5.54167 13.3917 5.54167 13.4083 5.54167C13.4167 5.54167 13.4333 5.54167 13.4417 5.54167C13.45 5.54167 13.4667 5.54167 13.475 5.54167C13.4833 5.54167 13.4917 5.54167 13.5 5.54167C13.5 5.54167 13.5 5.525 13.5083 5.50833C13.5083 5.5 13.5083 5.48333 13.5167 5.46667C13.525 5.40833 13.5333 5.36667 13.5417 5.34167C13.5417 5.31667 13.5417 5.3 13.5417 5.29167C13.5417 5.29167 13.5583 5.29167 13.5667 5.3C13.575 5.3 13.5917 5.3 13.6167 5.30833C13.6417 5.30833 13.6583 5.30833 13.675 5.31667C13.6833 5.31667 13.7 5.31667 13.7 5.31667C13.7 5.31667 13.7 5.33333 13.6917 5.34167C13.6917 5.35 13.6917 5.36667 13.6833 5.38333C13.6833 5.4 13.6833 5.41667 13.675 5.43333C13.675 5.45 13.675 5.46667 13.6667 5.48333V5.51667C13.6667 5.51667 13.65 5.55 13.65 5.56667C13.65 5.58333 13.65 5.59167 13.65 5.6C13.6 5.6 13.5583 5.6 13.5083 5.6C13.4583 5.6 13.4167 5.6 13.3667 5.58333C13.3083 5.575 13.2583 5.55 13.2083 5.525C13.1583 5.5 13.125 5.46667 13.0917 5.43333C13.0583 5.4 13.0417 5.35833 13.0333 5.30833C13.025 5.25833 13.025 5.21667 13.0333 5.15833C13.05 5.09167 13.0667 5.04167 13.1 4.99167L13.0667 5.00833ZM12.475 5.325C12.475 5.28333 12.4833 5.23333 12.4917 5.175L12.5083 5.03333C12.5083 4.975 12.5167 4.925 12.525 4.88333C12.525 4.84167 12.525 4.79167 12.525 4.75C12.5583 4.75 12.5833 4.75 12.6167 4.75833C12.65 4.75833 12.675 4.75833 12.7083 4.76667C12.7583 4.76667 12.8083 4.775 12.8417 4.775C12.8833 4.775 12.9083 4.775 12.925 4.775C12.925 4.78333 12.925 4.8 12.9167 4.81667C12.9167 4.825 12.9167 4.83333 12.9167 4.84167C12.9167 4.84167 12.9167 4.85833 12.9167 4.86667C12.9 4.86667 12.875 4.86667 12.85 4.85833C12.825 4.85833 12.8 4.85833 12.7833 4.85C12.7583 4.85 12.7417 4.85 12.725 4.84167C12.7083 4.84167 12.6917 4.84167 12.6833 4.84167C12.6833 4.88333 12.675 4.91667 12.6667 4.95C12.6667 4.98333 12.6667 5.025 12.6583 5.06667C12.7 5.06667 12.7417 5.06667 12.7833 5.075C12.8167 5.075 12.8583 5.075 12.9 5.075C12.9 5.08333 12.9 5.09167 12.9 5.1V5.11667C12.9 5.11667 12.9 5.125 12.9 5.13333C12.9 5.13333 12.9 5.15 12.9 5.15833C12.825 5.14167 12.7417 5.13333 12.6667 5.125C12.6667 5.15 12.6667 5.16667 12.6667 5.19167C12.6667 5.21667 12.6667 5.23333 12.6667 5.25833C12.6667 5.3 12.6667 5.35 12.6583 5.39167C12.7 5.39167 12.7333 5.39167 12.775 5.4C12.8167 5.4 12.8583 5.4 12.8917 5.4V5.41667C12.8917 5.41667 12.8917 5.43333 12.8917 5.44167C12.8917 5.45 12.8917 5.45833 12.8917 5.46667C12.8917 5.46667 12.8917 5.475 12.8917 5.48333C12.875 5.48333 12.85 5.48333 12.825 5.475C12.8 5.475 12.7583 5.475 12.7167 5.46667C12.675 5.46667 12.6417 5.46667 12.6167 5.45833C12.5917 5.45833 12.5667 5.45833 12.5583 5.45833C12.5417 5.45833 12.5333 5.45833 12.525 5.45833H12.5083C12.5083 5.41667 12.525 5.375 12.525 5.325H12.475ZM11.8583 5.30833C11.8583 5.26667 11.8583 5.21667 11.8583 5.15833V5.01667C11.8583 4.95833 11.8583 4.90833 11.8583 4.86667C11.8583 4.825 11.8583 4.775 11.8583 4.73333C11.8667 4.73333 11.8833 4.73333 11.9 4.73333C11.9167 4.73333 11.9333 4.73333 11.95 4.73333C11.9667 4.73333 11.9917 4.73333 12.0167 4.73333C12.0417 4.73333 12.0667 4.73333 12.1083 4.73333C12.1333 4.73333 12.1583 4.73333 12.175 4.73333C12.1917 4.73333 12.2083 4.73333 12.225 4.73333C12.2417 4.73333 12.25 4.73333 12.2583 4.74167C12.2667 4.74167 12.275 4.75 12.2833 4.75833C12.3 4.775 12.3167 4.79167 12.3333 4.81667C12.3417 4.84167 12.35 4.86667 12.35 4.9C12.35 4.95 12.3333 4.99167 12.3083 5.025C12.2833 5.05833 12.2417 5.075 12.1917 5.09167C12.225 5.15 12.2583 5.20833 12.3 5.26667C12.3333 5.325 12.375 5.38333 12.4083 5.44167C12.3917 5.44167 12.375 5.44167 12.3583 5.44167C12.3417 5.44167 12.325 5.44167 12.3083 5.44167C12.2917 5.44167 12.275 5.44167 12.2583 5.44167C12.2417 5.44167 12.225 5.44167 12.2083 5.44167L12.025 5.10833H12.0167V5.15C12.0167 5.20833 12.0167 5.25833 12.0167 5.3C12.0167 5.34167 12.0167 5.39167 12.0167 5.43333C12.0083 5.43333 11.9917 5.43333 11.975 5.43333C11.9583 5.43333 11.9417 5.43333 11.925 5.43333C11.9083 5.43333 11.8917 5.43333 11.875 5.43333C11.8583 5.43333 11.85 5.43333 11.8333 5.43333C11.8333 5.39167 11.8333 5.35 11.8333 5.3L11.8583 5.30833ZM10.85 4.81667C10.85 4.81667 10.8833 4.81667 10.9 4.81667C10.9167 4.81667 10.9333 4.81667 10.9417 4.81667C10.9583 4.81667 10.975 4.81667 10.9833 4.80833C11 4.83333 11.0167 4.85833 11.0333 4.89167C11.05 4.91667 11.0667 4.95 11.0917 4.975C11.1083 5 11.125 5.025 11.1417 5.05C11.1583 5.075 11.1667 5.09167 11.175 5.1C11.175 5.1 11.2 5.05 11.2083 5.025C11.2167 5 11.225 4.96667 11.2417 4.94167C11.25 4.90833 11.2583 4.88333 11.2667 4.85C11.275 4.81667 11.2833 4.79167 11.2917 4.76667C11.2917 4.76667 11.3083 4.76667 11.3167 4.76667C11.325 4.76667 11.3333 4.76667 11.3417 4.76667C11.35 4.76667 11.3583 4.76667 11.3667 4.76667C11.3667 4.76667 11.3833 4.76667 11.3917 4.76667C11.3833 4.78333 11.3667 4.81667 11.3583 4.85C11.3417 4.88333 11.3333 4.91667 11.3167 4.95833C11.3 5 11.2833 5.03333 11.2667 5.075C11.25 5.11667 11.2333 5.15 11.225 5.19167C11.225 5.20833 11.225 5.225 11.225 5.24167C11.225 5.25833 11.225 5.275 11.225 5.29167C11.225 5.325 11.2333 5.35833 11.2417 5.39167C11.2417 5.425 11.2583 5.45833 11.2667 5.5C11.25 5.5 11.2333 5.5 11.225 5.5C11.2083 5.5 11.1917 5.5 11.1833 5.5C11.1667 5.5 11.1583 5.5 11.1417 5.5C11.125 5.5 11.1167 5.5 11.1 5.5C11.1 5.46667 11.1 5.43333 11.1 5.4C11.1 5.36667 11.1 5.33333 11.1 5.3C11.1 5.28333 11.1 5.26667 11.1 5.25C11.1 5.23333 11.1 5.21667 11.1 5.2C11.075 5.16667 11.05 5.13333 11.025 5.09167C11 5.05 10.9667 5.01667 10.9417 4.975C10.9167 4.94167 10.8917 4.9 10.8667 4.875C10.8417 4.84167 10.8333 4.825 10.8167 4.80833C10.8333 4.80833 10.85 4.80833 10.8667 4.80833L10.85 4.81667ZM10.2667 4.93333C10.2667 4.93333 10.2917 4.93333 10.3167 4.93333C10.3333 4.93333 10.3583 4.925 10.375 4.91667C10.4 4.91667 10.425 4.9 10.4583 4.89167C10.4833 4.89167 10.5083 4.88333 10.525 4.88333C10.5417 4.88333 10.5583 4.88333 10.575 4.88333C10.5917 4.88333 10.6 4.88333 10.6083 4.88333C10.6167 4.88333 10.6333 4.88333 10.6417 4.89167C10.6667 4.9 10.6833 4.91667 10.7 4.93333C10.7167 4.95 10.725 4.975 10.7333 5.00833C10.7417 5.05833 10.7333 5.1 10.7167 5.14167C10.7 5.175 10.6583 5.20833 10.6167 5.23333C10.6583 5.28333 10.7083 5.33333 10.7583 5.38333C10.8083 5.43333 10.8583 5.48333 10.9083 5.53333C10.8917 5.53333 10.875 5.53333 10.8583 5.53333C10.8417 5.53333 10.825 5.53333 10.8083 5.54167C10.7917 5.54167 10.775 5.54167 10.7583 5.55C10.7417 5.55 10.725 5.55 10.7083 5.55833L10.4583 5.275H10.45L10.4583 5.31667C10.4667 5.375 10.4833 5.425 10.4917 5.46667C10.5 5.50833 10.5167 5.55 10.525 5.59167C10.5167 5.59167 10.5 5.59167 10.4833 5.59167C10.4667 5.59167 10.4583 5.59167 10.4417 5.6C10.425 5.6 10.4083 5.6 10.4 5.60833C10.3833 5.60833 10.375 5.60833 10.3667 5.61667C10.3667 5.575 10.35 5.53333 10.3417 5.48333C10.3417 5.44167 10.325 5.39167 10.3083 5.33333L10.275 5.19167C10.2667 5.13333 10.25 5.08333 10.2417 5.04167C10.2333 5 10.2167 4.95833 10.2083 4.90833C10.2167 4.90833 10.2333 4.90833 10.25 4.90833L10.2667 4.93333ZM9.63333 5.11667C9.63333 5.11667 9.66667 5.10833 9.69167 5.1C9.70833 5.1 9.73333 5.09167 9.75 5.08333C9.76667 5.075 9.8 5.06667 9.83333 5.05833C9.86667 5.05 9.89167 5.04167 9.91667 5.03333C9.94167 5.03333 9.95833 5.01667 9.975 5.01667C9.99167 5.01667 10.0083 5.00833 10.025 5C10.0417 5 10.0583 4.99167 10.0833 4.98333C10.0833 4.98333 10.0833 5 10.0833 5.00833C10.0833 5.00833 10.0833 5.025 10.0833 5.03333C10.0833 5.03333 10.0833 5.05 10.0917 5.05833C10.0917 5.05833 10.0917 5.075 10.1 5.08333C10.0833 5.08333 10.075 5.08333 10.05 5.08333C10.0333 5.08333 10.0167 5.08333 10 5.09167C9.98333 5.09167 9.96667 5.09167 9.95 5.1C9.93333 5.1 9.925 5.1 9.91667 5.10833C9.91667 5.10833 9.91667 5.10833 9.91667 5.125C9.91667 5.125 9.91667 5.14167 9.91667 5.15L10.0083 5.45C10.025 5.50833 10.0417 5.55 10.0583 5.59167C10.075 5.63333 10.0917 5.675 10.1 5.71667C10.0917 5.71667 10.075 5.71667 10.0667 5.725C10.05 5.725 10.0417 5.73333 10.025 5.74167C10.0083 5.74167 9.99167 5.75 9.98333 5.75833C9.96667 5.75833 9.95833 5.76667 9.95 5.775C9.94167 5.73333 9.925 5.69167 9.91667 5.65C9.90833 5.60833 9.89167 5.55833 9.875 5.5L9.8 5.25C9.8 5.25 9.79167 5.21667 9.78333 5.2C9.78333 5.18333 9.775 5.175 9.76667 5.16667C9.75833 5.16667 9.74167 5.16667 9.73333 5.18333C9.71667 5.18333 9.7 5.19167 9.68333 5.2C9.66667 5.2 9.65 5.21667 9.63333 5.21667C9.61667 5.21667 9.6 5.23333 9.58333 5.23333C9.58333 5.23333 9.58333 5.21667 9.58333 5.20833C9.58333 5.20833 9.58333 5.19167 9.58333 5.18333C9.58333 5.18333 9.58333 5.16667 9.575 5.15833C9.575 5.15833 9.575 5.14167 9.56667 5.13333C9.59167 5.13333 9.60833 5.125 9.625 5.11667H9.63333ZM9.15 5.35C9.15 5.35 9.18333 5.3 9.2 5.28333C9.225 5.26667 9.25 5.25 9.275 5.23333C9.30833 5.21667 9.34167 5.20833 9.375 5.20833C9.40833 5.20833 9.43333 5.20833 9.45833 5.20833C9.45833 5.225 9.45833 5.24167 9.45833 5.25833C9.45833 5.275 9.45833 5.29167 9.45833 5.31667H9.44167C9.4 5.275 9.35 5.26667 9.29167 5.28333C9.25833 5.29167 9.24167 5.31667 9.23333 5.34167C9.225 5.36667 9.21667 5.39167 9.23333 5.41667C9.24167 5.44167 9.25833 5.45833 9.275 5.46667C9.29167 5.475 9.31667 5.48333 9.35 5.48333C9.375 5.48333 9.40833 5.48333 9.43333 5.48333C9.46667 5.48333 9.49167 5.48333 9.51667 5.5C9.54167 5.5 9.575 5.51667 9.59167 5.54167C9.61667 5.55833 9.63333 5.58333 9.65 5.625C9.66667 5.65833 9.66667 5.69167 9.66667 5.71667C9.66667 5.75 9.65833 5.775 9.64167 5.80833C9.625 5.83333 9.60833 5.85833 9.575 5.88333C9.55 5.90833 9.51667 5.925 9.475 5.94167C9.44167 5.95833 9.40833 5.96667 9.375 5.96667C9.34167 5.96667 9.31667 5.96667 9.3 5.96667C9.3 5.94167 9.3 5.91667 9.29167 5.9C9.29167 5.88333 9.29167 5.85833 9.275 5.83333H9.29167C9.29167 5.83333 9.30833 5.85 9.325 5.85833C9.33333 5.86667 9.35 5.875 9.36667 5.88333C9.38333 5.88333 9.4 5.88333 9.41667 5.88333C9.43333 5.88333 9.45 5.88333 9.475 5.86667C9.51667 5.85 9.54167 5.83333 9.55 5.8C9.55833 5.775 9.55833 5.75 9.55 5.71667C9.54167 5.69167 9.525 5.675 9.50833 5.66667C9.49167 5.65833 9.46667 5.65 9.44167 5.65C9.41667 5.65 9.39167 5.65 9.35833 5.65C9.325 5.65 9.3 5.65 9.275 5.63333C9.25 5.63333 9.225 5.61667 9.2 5.59167C9.175 5.575 9.15833 5.55 9.14167 5.50833C9.125 5.475 9.125 5.44167 9.125 5.40833C9.125 5.375 9.13333 5.35 9.15 5.325V5.35ZM8.375 5.68333C8.375 5.68333 8.4 5.675 8.41667 5.66667C8.43333 5.66667 8.44167 5.65 8.45 5.64167C8.46667 5.64167 8.475 5.625 8.48333 5.61667C8.50833 5.68333 8.53333 5.73333 8.55833 5.79167C8.58333 5.84167 8.60833 5.9 8.64167 5.95C8.66667 6.00833 8.7 6.05 8.725 6.08333C8.75 6.11667 8.775 6.13333 8.8 6.14167C8.825 6.15 8.85 6.15833 8.875 6.14167C8.9 6.14167 8.925 6.125 8.95833 6.10833C8.99167 6.09167 9.01667 6.06667 9.03333 6.03333C9.04167 6 9.05 5.975 9.04167 5.93333C9.04167 5.9 9.025 5.85833 9.00833 5.81667C8.99167 5.775 8.96667 5.73333 8.95 5.69167C8.925 5.65 8.90833 5.60833 8.88333 5.56667C8.85833 5.525 8.83333 5.48333 8.80833 5.44167C8.81667 5.44167 8.825 5.44167 8.83333 5.43333C8.84167 5.43333 8.85 5.43333 8.85833 5.425C8.85833 5.425 8.875 5.41667 8.88333 5.40833C8.88333 5.40833 8.9 5.4 8.90833 5.39167C8.90833 5.40833 8.925 5.425 8.93333 5.45C8.94167 5.475 8.95833 5.5 8.96667 5.53333C8.98333 5.56667 9 5.6 9.01667 5.63333C9.03333 5.66667 9.05 5.70833 9.075 5.75C9.13333 5.85833 9.15 5.94167 9.125 6.01667C9.1 6.08333 9.05 6.14167 8.95833 6.19167C8.91667 6.20833 8.88333 6.225 8.84167 6.23333C8.8 6.24167 8.76667 6.24167 8.73333 6.23333C8.7 6.23333 8.66667 6.21667 8.63333 6.19167C8.6 6.16667 8.575 6.13333 8.55 6.09167C8.53333 6.06667 8.525 6.04167 8.51667 6.025C8.50833 6.00833 8.5 5.98333 8.49167 5.975C8.48333 5.95833 8.475 5.94167 8.46667 5.925C8.46667 5.90833 8.45 5.89167 8.44167 5.875C8.41667 5.825 8.39167 5.78333 8.375 5.75833C8.35833 5.725 8.34167 5.70833 8.33333 5.69167C8.35 5.69167 8.35833 5.68333 8.375 5.675V5.68333ZM7.63333 6.16667C7.63333 6.16667 7.65833 6.15 7.675 6.14167C7.69167 6.125 7.71667 6.11667 7.73333 6.1C7.75833 6.08333 7.78333 6.05833 7.825 6.03333C7.875 6 7.925 5.975 7.96667 5.95833C8.01667 5.94167 8.05833 5.93333 8.1 5.93333C8.14167 5.93333 8.18333 5.95 8.225 5.975C8.26667 6 8.30833 6.04167 8.34167 6.09167C8.375 6.14167 8.39167 6.18333 8.40833 6.23333C8.41667 6.28333 8.41667 6.33333 8.40833 6.375C8.4 6.41667 8.38333 6.46667 8.35833 6.5C8.33333 6.54167 8.3 6.575 8.25833 6.6C8.21667 6.63333 8.175 6.65 8.15 6.675C8.11667 6.69167 8.09167 6.71667 8.06667 6.725C8.05 6.73333 8.04167 6.74167 8.025 6.75C8.01667 6.75 8 6.76667 7.99167 6.775C7.96667 6.74167 7.95 6.7 7.925 6.66667C7.9 6.625 7.875 6.58333 7.84167 6.54167L7.75833 6.425C7.725 6.375 7.7 6.33333 7.66667 6.3C7.64167 6.26667 7.61667 6.225 7.58333 6.19167C7.59167 6.19167 7.60833 6.18333 7.61667 6.175L7.63333 6.16667ZM6.98333 6.71667C6.98333 6.71667 7 6.7 7.01667 6.68333C7.125 6.7 7.24167 6.70833 7.35 6.71667C7.45833 6.725 7.56667 6.74167 7.68333 6.75L7.55833 6.60833C7.55833 6.60833 7.51667 6.55833 7.49167 6.53333C7.46667 6.50833 7.45 6.48333 7.43333 6.46667C7.41667 6.45 7.4 6.425 7.38333 6.41667C7.36667 6.4 7.35833 6.39167 7.35 6.39167C7.36667 6.38333 7.38333 6.375 7.39167 6.36667C7.4 6.36667 7.40833 6.35 7.425 6.33333C7.46667 6.38333 7.5 6.425 7.53333 6.46667C7.56667 6.50833 7.6 6.54167 7.625 6.575C7.65 6.60833 7.68333 6.64167 7.70833 6.675C7.73333 6.70833 7.76667 6.74167 7.8 6.78333L7.88333 6.875C7.88333 6.875 7.85833 6.89167 7.85 6.9C7.84167 6.90833 7.825 6.91667 7.825 6.925C7.60833 6.89167 7.38333 6.86667 7.15 6.85C7.16667 6.86667 7.175 6.88333 7.19167 6.9C7.20833 6.91667 7.21667 6.93333 7.23333 6.95L7.31667 7.04167C7.31667 7.04167 7.36667 7.1 7.38333 7.11667C7.4 7.14167 7.41667 7.15833 7.43333 7.175C7.45 7.19167 7.45833 7.2 7.46667 7.20833C7.475 7.21667 7.48333 7.225 7.49167 7.23333C7.49167 7.23333 7.475 7.24167 7.475 7.25C7.475 7.25 7.46667 7.25833 7.45833 7.26667C7.45 7.275 7.43333 7.29167 7.425 7.3C7.425 7.3 7.40833 7.275 7.39167 7.25C7.36667 7.225 7.34167 7.19167 7.31667 7.15C7.28333 7.10833 7.25 7.06667 7.21667 7.025C7.18333 6.98333 7.14167 6.94167 7.10833 6.9C7.075 6.86667 7.05 6.83333 7.025 6.80833C7 6.78333 6.98333 6.76667 6.96667 6.74167C6.98333 6.73333 7 6.725 7.00833 6.71667H6.98333ZM6.7 7.00833C6.7 7.00833 6.725 6.99167 6.73333 6.975C6.74167 6.96667 6.75833 6.95 6.76667 6.94167C6.775 6.93333 6.78333 6.91667 6.79167 6.90833C6.825 6.94167 6.85 6.975 6.88333 7.00833C6.91667 7.04167 6.95 7.075 6.99167 7.11667L7.09167 7.21667C7.09167 7.21667 7.16667 7.29167 7.2 7.325C7.23333 7.35833 7.26667 7.38333 7.3 7.40833C7.29167 7.40833 7.28333 7.425 7.275 7.43333C7.26667 7.44167 7.25833 7.45833 7.24167 7.46667C7.23333 7.48333 7.21667 7.49167 7.20833 7.5C7.2 7.50833 7.19167 7.51667 7.18333 7.525C7.15833 7.49167 7.125 7.45833 7.09167 7.43333C7.05833 7.4 7.025 7.36667 6.98333 7.325L6.88333 7.225C6.88333 7.225 6.80833 7.15 6.775 7.11667C6.74167 7.08333 6.70833 7.05833 6.675 7.025C6.68333 7.025 6.69167 7.00833 6.7 7V7.00833ZM6.825 15.325L6.89167 15.4167H6.825L6.73333 15.2917C6.73333 15.2917 6.71667 15.275 6.70833 15.275V15.2167C6.70833 15.2167 6.75833 15.2333 6.775 15.25C6.81667 15.1833 6.91667 15.15 6.975 15.2333L6.99167 15.2583C6.99167 15.2583 6.95833 15.2917 6.95 15.3083L6.91667 15.2667C6.875 15.2083 6.78333 15.2667 6.825 15.3333V15.325ZM6.04167 7.80833C6.04167 7.80833 6.05833 7.78333 6.075 7.775C6.08333 7.75833 6.09167 7.75 6.1 7.73333C6.10833 7.71667 6.11667 7.70833 6.125 7.69167C6.15 7.69167 6.18333 7.7 6.21667 7.70833C6.25 7.70833 6.28333 7.725 6.31667 7.725C6.35 7.725 6.375 7.73333 6.40833 7.74167C6.43333 7.74167 6.45833 7.74167 6.46667 7.75C6.46667 7.75 6.45 7.7 6.43333 7.675C6.425 7.65 6.40833 7.625 6.39167 7.59167C6.375 7.56667 6.36667 7.54167 6.35 7.50833C6.33333 7.48333 6.325 7.45833 6.30833 7.43333C6.30833 7.43333 6.31667 7.425 6.325 7.41667C6.325 7.41667 6.33333 7.40833 6.34167 7.4C6.34167 7.4 6.35 7.38333 6.35833 7.38333C6.35833 7.38333 6.35833 7.36667 6.375 7.35833C6.375 7.38333 6.39167 7.40833 6.40833 7.44167C6.425 7.475 6.44167 7.50833 6.45833 7.55C6.475 7.59167 6.49167 7.625 6.50833 7.66667C6.525 7.70833 6.54167 7.74167 6.55833 7.775C6.575 7.78333 6.58333 7.79167 6.6 7.80833C6.61667 7.81667 6.625 7.83333 6.64167 7.84167C6.66667 7.86667 6.7 7.88333 6.725 7.9C6.75 7.91667 6.78333 7.94167 6.81667 7.95833C6.80833 7.96667 6.8 7.98333 6.79167 7.99167C6.78333 8 6.775 8.01667 6.76667 8.025C6.75833 8.03333 6.75 8.05 6.74167 8.05833C6.73333 8.06667 6.725 8.08333 6.71667 8.09167C6.69167 8.075 6.66667 8.05 6.64167 8.025C6.61667 8 6.59167 7.98333 6.56667 7.95833C6.55 7.95 6.54167 7.94167 6.525 7.93333C6.50833 7.925 6.5 7.91667 6.48333 7.90833C6.44167 7.90833 6.4 7.89167 6.35833 7.88333C6.30833 7.88333 6.26667 7.86667 6.21667 7.85833C6.175 7.85833 6.13333 7.84167 6.09167 7.84167C6.05833 7.84167 6.025 7.83333 6.00833 7.83333C6.01667 7.825 6.03333 7.80833 6.04167 7.8V7.80833ZM5.70833 8.325C5.70833 8.325 5.73333 8.29167 5.74167 8.275C5.75 8.25833 5.76667 8.24167 5.775 8.21667C5.78333 8.2 5.8 8.175 5.81667 8.15C5.83333 8.125 5.85 8.1 5.85833 8.075C5.86667 8.05833 5.88333 8.03333 5.89167 8.01667C5.9 8 5.90833 7.98333 5.91667 7.96667C5.925 7.95 5.93333 7.93333 5.95 7.91667C5.95 7.91667 5.95833 7.925 5.96667 7.93333C5.96667 7.93333 5.975 7.94167 5.98333 7.95C5.98333 7.95 6 7.95 6 7.95833C6 7.95833 6.01667 7.95833 6.025 7.96667C6.01667 7.975 6.00833 7.99167 5.99167 8C5.98333 8.01667 5.96667 8.025 5.95833 8.04167C5.95 8.05833 5.94167 8.06667 5.93333 8.08333C5.925 8.1 5.91667 8.10833 5.90833 8.11667C5.90833 8.11667 5.90833 8.11667 5.91667 8.125C5.91667 8.125 5.925 8.125 5.93333 8.13333L5.98333 8.15833L6.2 8.3C6.25 8.33333 6.29167 8.35833 6.33333 8.375C6.375 8.4 6.40833 8.41667 6.45 8.44167C6.45 8.45 6.43333 8.45833 6.425 8.475C6.425 8.48333 6.40833 8.5 6.4 8.51667C6.39167 8.53333 6.38333 8.54167 6.375 8.55833C6.375 8.56667 6.35833 8.58333 6.35833 8.59167C6.325 8.56667 6.28333 8.54167 6.25 8.51667C6.21667 8.49167 6.16667 8.46667 6.125 8.43333L5.90833 8.3C5.90833 8.3 5.875 8.28333 5.85833 8.275C5.84167 8.26667 5.83333 8.25833 5.825 8.25833C5.825 8.26667 5.81667 8.275 5.80833 8.29167C5.80833 8.30833 5.79167 8.31667 5.78333 8.33333C5.78333 8.35 5.76667 8.36667 5.75833 8.38333C5.75833 8.4 5.74167 8.41667 5.73333 8.425C5.73333 8.425 5.725 8.41667 5.71667 8.40833C5.71667 8.40833 5.70833 8.4 5.7 8.39167C5.7 8.39167 5.68333 8.39167 5.68333 8.38333C5.68333 8.38333 5.66667 8.38333 5.65833 8.375C5.675 8.35833 5.68333 8.34167 5.69167 8.325H5.70833ZM5.55 8.625C5.55 8.625 5.56667 8.6 5.575 8.58333C5.575 8.56667 5.59167 8.55833 5.59167 8.54167C5.59167 8.525 5.6 8.51667 5.60833 8.50833C5.65 8.53333 5.68333 8.55833 5.725 8.575C5.76667 8.6 5.80833 8.625 5.85833 8.65L5.98333 8.71667C6.03333 8.74167 6.08333 8.76667 6.11667 8.78333C6.15833 8.8 6.2 8.825 6.23333 8.84167C6.23333 8.85 6.21667 8.85833 6.21667 8.875C6.21667 8.88333 6.2 8.9 6.19167 8.91667C6.19167 8.93333 6.175 8.94167 6.16667 8.95833C6.16667 8.96667 6.15833 8.98333 6.15 8.99167C6.11667 8.96667 6.075 8.95 6.03333 8.925C5.99167 8.9 5.95 8.875 5.9 8.85L5.775 8.78333C5.725 8.75833 5.675 8.73333 5.64167 8.71667C5.6 8.7 5.55833 8.675 5.51667 8.65833C5.51667 8.65 5.53333 8.64167 5.54167 8.625H5.55ZM6.24167 14.375L6.175 14.5167L6.03333 14.45L6.1 14.3083L6.24167 14.375ZM5.25833 9.24167C5.25833 9.24167 5.275 9.21667 5.275 9.2C5.275 9.18333 5.29167 9.16667 5.3 9.14167C5.30833 9.11667 5.31667 9.09167 5.33333 9.05833C5.34167 9.03333 5.35 9.01667 5.36667 9C5.375 8.98333 5.38333 8.96667 5.39167 8.95833C5.39167 8.95 5.40833 8.94167 5.41667 8.93333C5.41667 8.93333 5.43333 8.91667 5.44167 8.91667C5.46667 8.9 5.49167 8.9 5.51667 8.89167C5.54167 8.89167 5.56667 8.89167 5.6 8.90833C5.65 8.925 5.675 8.95833 5.7 9C5.71667 9.04167 5.725 9.08333 5.71667 9.13333C5.78333 9.13333 5.85 9.11667 5.925 9.10833C5.99167 9.1 6.05833 9.08333 6.13333 9.075C6.13333 9.09167 6.11667 9.1 6.10833 9.11667C6.10833 9.13333 6.09167 9.14167 6.09167 9.15833C6.09167 9.175 6.075 9.18333 6.075 9.2C6.075 9.21667 6.06667 9.225 6.05833 9.24167L5.68333 9.28333L5.725 9.30833C5.775 9.33333 5.825 9.35 5.86667 9.36667C5.90833 9.38333 5.95 9.4 5.99167 9.41667C5.99167 9.425 5.98333 9.44167 5.975 9.45C5.975 9.46667 5.96667 9.475 5.95833 9.49167C5.95833 9.50833 5.94167 9.525 5.94167 9.53333C5.94167 9.55 5.93333 9.55833 5.925 9.56667C5.88333 9.55 5.85 9.525 5.80833 9.50833C5.76667 9.49167 5.725 9.46667 5.66667 9.44167L5.53333 9.38333C5.48333 9.35833 5.43333 9.34167 5.39167 9.325C5.35 9.30833 5.30833 9.29167 5.26667 9.275C5.26667 9.26667 5.275 9.25 5.28333 9.24167H5.25833ZM5.68333 13.2917L5.76667 13.1667L5.89167 13.25L5.825 13.3583L5.93333 13.4333L5.85 13.5583L5.71667 13.475L5.79167 13.3667L5.68333 13.2917ZM4.98333 10.05C4.98333 10.05 4.99167 10.025 5 10.0083C5 9.99167 5 9.98333 5.00833 9.96667C5.00833 9.95 5.00833 9.94167 5.01667 9.925C5.075 9.95 5.13333 9.975 5.19167 9.99167C5.25 10.0083 5.3 10.0333 5.35833 10.05C5.41667 10.0667 5.46667 10.0833 5.50833 10.0833C5.55 10.0833 5.58333 10.0833 5.60833 10.075C5.63333 10.0667 5.65 10.05 5.66667 10.025C5.68333 10 5.69167 9.975 5.7 9.94167C5.71667 9.9 5.71667 9.86667 5.7 9.84167C5.68333 9.81667 5.66667 9.79167 5.63333 9.76667C5.60833 9.74167 5.56667 9.725 5.525 9.70833C5.48333 9.69167 5.44167 9.675 5.39167 9.65833C5.35 9.64167 5.3 9.63333 5.25833 9.61667C5.21667 9.6 5.16667 9.59167 5.11667 9.575C5.11667 9.56667 5.11667 9.55833 5.125 9.55C5.125 9.54167 5.125 9.53333 5.13333 9.525C5.13333 9.51667 5.13333 9.50833 5.13333 9.5C5.13333 9.49167 5.13333 9.48333 5.13333 9.475C5.15 9.475 5.16667 9.49167 5.19167 9.5C5.21667 9.50833 5.24167 9.51667 5.275 9.53333C5.30833 9.54167 5.34167 9.55833 5.38333 9.56667C5.425 9.58333 5.45833 9.59167 5.50833 9.60833C5.625 9.64167 5.7 9.7 5.73333 9.75833C5.76667 9.825 5.76667 9.90833 5.73333 10C5.71667 10.0417 5.7 10.0833 5.68333 10.1167C5.66667 10.15 5.64167 10.175 5.60833 10.2C5.575 10.2167 5.54167 10.2333 5.50833 10.2417C5.46667 10.2417 5.425 10.2417 5.38333 10.225C5.35833 10.2167 5.33333 10.2083 5.31667 10.2C5.3 10.2 5.275 10.1833 5.25833 10.1833C5.24167 10.1833 5.225 10.175 5.20833 10.1667C5.19167 10.1667 5.175 10.1583 5.15833 10.15C5.10833 10.1333 5.05833 10.1167 5.025 10.1083C4.99167 10.1 4.96667 10.0917 4.95 10.0833C4.95 10.0667 4.95833 10.0583 4.96667 10.0417L4.98333 10.05ZM4.86667 10.475C4.86667 10.475 4.875 10.4417 4.88333 10.4167C4.88333 10.4 4.9 10.3833 4.90833 10.3583C4.90833 10.3417 4.925 10.325 4.93333 10.3083C4.94167 10.2917 4.95 10.2833 4.95833 10.2667C4.975 10.275 4.99167 10.2833 5.00833 10.2917C5.025 10.2917 5.04167 10.3083 5.05833 10.3083V10.325C5.05833 10.325 4.99167 10.3667 4.96667 10.3917C4.95 10.4167 4.93333 10.45 4.925 10.4833C4.925 10.5083 4.925 10.5417 4.925 10.5667C4.925 10.6 4.94167 10.625 4.96667 10.65C4.98333 10.675 5.01667 10.7 5.05 10.725C5.08333 10.75 5.13333 10.7667 5.18333 10.775C5.23333 10.7833 5.28333 10.7833 5.325 10.775C5.36667 10.775 5.4 10.7583 5.425 10.7417C5.45 10.725 5.475 10.7 5.49167 10.675C5.50833 10.65 5.51667 10.6167 5.525 10.5917C5.525 10.575 5.525 10.5583 5.525 10.5417C5.525 10.525 5.525 10.5083 5.525 10.4917C5.525 10.475 5.525 10.4583 5.50833 10.4417C5.50833 10.425 5.49167 10.4083 5.48333 10.4H5.49167C5.49167 10.4 5.51667 10.4 5.53333 10.4083C5.55 10.4083 5.55833 10.425 5.575 10.425C5.59167 10.4833 5.59167 10.5583 5.575 10.6417C5.56667 10.7 5.54167 10.75 5.51667 10.7917C5.49167 10.8333 5.45833 10.8667 5.425 10.8917C5.39167 10.9167 5.35 10.9333 5.3 10.9417C5.25833 10.95 5.20833 10.9417 5.15833 10.9417C5.09167 10.925 5.03333 10.9083 4.98333 10.875C4.94167 10.8417 4.90833 10.8083 4.88333 10.7583C4.85833 10.7167 4.84167 10.6667 4.84167 10.6167C4.84167 10.5667 4.84167 10.5083 4.85 10.4583L4.86667 10.475ZM4.75 11.3167C4.75 11.3167 4.75833 11.2583 4.75833 11.225C4.75833 11.175 4.76667 11.125 4.775 11.0917C4.775 11.05 4.775 11.025 4.775 11.0083C4.78333 11.0083 4.8 11.0083 4.81667 11.0167C4.825 11.0167 4.83333 11.0167 4.84167 11.0167C4.85 11.0167 4.85833 11.0167 4.86667 11.0167C4.86667 11.0333 4.86667 11.0583 4.85833 11.0833C4.85833 11.1083 4.85833 11.1333 4.85 11.15C4.85 11.175 4.85 11.1917 4.84167 11.2083C4.84167 11.225 4.84167 11.2417 4.84167 11.25C4.88333 11.25 4.91667 11.2667 4.95 11.2667C4.98333 11.2667 5.025 11.275 5.06667 11.2833C5.06667 11.2417 5.06667 11.2 5.075 11.1583C5.08333 11.1167 5.075 11.0833 5.075 11.0417C5.08333 11.0417 5.09167 11.0417 5.1 11.0417H5.11667C5.11667 11.0417 5.125 11.0417 5.13333 11.0417C5.13333 11.0417 5.15 11.0417 5.15833 11.0417C5.14167 11.1167 5.13333 11.2 5.125 11.275C5.15 11.275 5.16667 11.275 5.19167 11.275C5.21667 11.275 5.23333 11.275 5.25833 11.275C5.3 11.275 5.35 11.2833 5.39167 11.2833C5.39167 11.2417 5.39167 11.2083 5.4 11.1667C5.4 11.125 5.4 11.0833 5.4 11.05H5.41667C5.41667 11.05 5.43333 11.05 5.44167 11.05C5.45 11.05 5.45833 11.05 5.46667 11.05C5.475 11.05 5.475 11.05 5.48333 11.05C5.48333 11.0667 5.48333 11.0917 5.475 11.1167C5.475 11.1417 5.475 11.1833 5.45833 11.225C5.45833 11.2667 5.45833 11.3 5.45 11.325C5.45 11.35 5.45 11.375 5.45 11.3833C5.45 11.4 5.45 11.4083 5.45 11.4167V11.4333C5.40833 11.4333 5.36667 11.4167 5.31667 11.4167C5.275 11.4167 5.225 11.4083 5.16667 11.4L5.025 11.3833C4.96667 11.3833 4.91667 11.375 4.875 11.3667C4.83333 11.3667 4.78333 11.3667 4.74167 11.3583C4.74167 11.325 4.75 11.3 4.75833 11.2667L4.75 11.3167ZM4.71667 11.8583C4.71667 11.8583 4.7 11.8 4.70833 11.7667C4.70833 11.725 4.70833 11.7 4.725 11.6667C4.73333 11.6417 4.75 11.6167 4.76667 11.5917C4.78333 11.5917 4.8 11.6083 4.80833 11.6083C4.825 11.6083 4.84167 11.6167 4.86667 11.625V11.6417C4.80833 11.6583 4.775 11.7 4.775 11.7667C4.775 11.8 4.775 11.825 4.8 11.8417C4.81667 11.8583 4.84167 11.875 4.86667 11.875C4.89167 11.875 4.91667 11.875 4.93333 11.85C4.95 11.8333 4.96667 11.8167 4.98333 11.7917C5 11.7667 5.00833 11.7417 5.025 11.7167C5.04167 11.6917 5.05 11.6667 5.075 11.6417C5.09167 11.6167 5.11667 11.6 5.14167 11.5833C5.16667 11.5667 5.2 11.5583 5.24167 11.5667C5.275 11.5667 5.30833 11.575 5.33333 11.5917C5.35833 11.6083 5.38333 11.625 5.40833 11.65C5.425 11.675 5.44167 11.7083 5.45 11.7417C5.45833 11.775 5.46667 11.8167 5.46667 11.8583C5.46667 11.8917 5.46667 11.9333 5.45 11.9583C5.44167 11.9833 5.43333 12.0083 5.41667 12.025C5.39167 12.025 5.36667 12.0083 5.35 12.0083C5.33333 12.0083 5.30833 12 5.28333 11.9917V11.975C5.28333 11.975 5.31667 11.975 5.325 11.9583C5.34167 11.9583 5.35 11.9417 5.35833 11.9333C5.36667 11.925 5.375 11.9083 5.38333 11.8917C5.38333 11.875 5.39167 11.8583 5.39167 11.8333C5.39167 11.7917 5.39167 11.7583 5.36667 11.7417C5.35 11.725 5.325 11.7083 5.29167 11.7083C5.26667 11.7083 5.24167 11.7083 5.225 11.7333C5.20833 11.75 5.19167 11.7667 5.175 11.7917C5.15833 11.8167 5.15 11.8417 5.13333 11.8667C5.11667 11.8917 5.10833 11.9167 5.08333 11.9417C5.06667 11.9667 5.04167 11.9833 5.01667 12C4.99167 12.0167 4.95833 12.025 4.91667 12.0167C4.88333 12.0167 4.85 12.0083 4.825 11.9917C4.8 11.975 4.775 11.9583 4.75833 11.9417C4.74167 11.9167 4.725 11.8917 4.71667 11.8667V11.8583ZM4.96667 14.4417L4.83333 14.3667L4.89167 14.25L4.775 14.1917L4.85 14.0583L4.98333 14.1333L4.925 14.25L5.04167 14.3083L4.96667 14.4417ZM5.65 15.3583L5.39167 14.8583C5.39167 14.8583 5.39167 14.8 5.4 14.775H5.375L5.21667 14.3667C5.20833 14.3417 5.21667 14.3167 5.225 14.3H5.19167L5.05 13.875L5.025 13.75C5.025 13.7083 5.04167 13.675 5.08333 13.6667L5.01667 13.6833L4.96667 13.425C4.925 13.2333 5.05 13.1083 5.19167 13.0833C5.33333 13.05 5.49167 13.1167 5.53333 13.3083L5.575 13.5C5.575 13.5 5.55833 13.575 5.51667 13.5833L5.58333 13.5667C5.6 13.625 5.63333 13.6667 5.65833 13.6917L5.21667 13.7833C5.21667 13.7833 5.18333 13.7833 5.175 13.8L5.29167 14.15L5.65 14.0417C5.65 14.0417 5.725 14.05 5.73333 14.0917L5.75 14.1583L5.325 14.2833L5.45 14.6167L5.8 14.4833C5.8 14.4833 5.875 14.4833 5.89167 14.525L5.91667 14.5917L5.49167 14.7583L5.64167 15.05L5.775 14.9833C5.95 14.8917 6.1 14.9833 6.16667 15.1083C6.25 15.275 6.175 15.425 6.05 15.5C5.91667 15.575 5.74167 15.5583 5.65 15.375V15.3583ZM5.86667 16.2667L5.81667 16.2L5.89167 16.0667L5.98333 16.1917C6.025 16.25 6.10833 16.2833 6.19167 16.2333L6.3 16.1583L6.15833 16.1833L6.1 16.1C6.025 16 6 15.825 6.20833 15.6833L6.7 15.3417C6.65833 15.4417 6.64167 15.5333 6.63333 15.6083L6.60833 15.575L6.25833 15.8167C6.175 15.875 6.18333 15.9667 6.225 16.025L6.30833 16.15L6.95 15.7C6.90833 15.8 6.89167 15.8917 6.88333 15.9667L6.85833 15.9333L6.26667 16.3417C6.10833 16.45 5.95 16.3917 5.85833 16.2667H5.86667ZM6.55833 16.6833L6.46667 16.575L7.175 15.975C7.14167 16.075 7.13333 16.175 7.13333 16.25L7.10833 16.2167L6.55833 16.6833ZM8.43333 17.7167L8.24167 17.5833C8.18333 17.5417 8.08333 17.5417 8.03333 17.625L7.95 17.75L8.38333 18.0417L8.25 18.1167L7.58333 17.6667C7.58333 17.6667 7.575 17.6667 7.56667 17.65L7.45833 17.5583C7.45833 17.5583 7.425 17.4917 7.45833 17.4583L7.40833 17.5083L7.21667 17.3333C7.075 17.2 7.09167 17.0333 7.19167 16.925C7.29167 16.8167 7.45833 16.775 7.6 16.9L7.74167 17.025C7.74167 17.025 7.775 17.0917 7.74167 17.125L7.79167 17.075C7.84167 17.1083 7.89167 17.125 7.925 17.1333L7.625 17.4667C7.625 17.4667 7.60833 17.4917 7.6 17.5083L7.825 17.6667L7.90833 17.5417C8.01667 17.3833 8.19167 17.3833 8.30833 17.4667L8.45833 17.5667C8.43333 17.6167 8.41667 17.6583 8.41667 17.7083L8.43333 17.7167ZM7.85833 16.6583V16.775H7.98333L7.99167 16.925H7.83333V16.8083H7.7V16.6583H7.85833ZM11.125 18.3917L11.0083 19.1L10.525 19.05C10.525 19.05 10.4833 19.025 10.475 19.0083V19.0417L9.15 18.6C9.11667 18.5917 9.1 18.5583 9.1 18.525L9.08333 18.5583L8.7 18.375L8.51667 18.275L8.96667 17.4667C8.96667 17.575 9 17.6667 9.025 17.7333L8.99167 17.7167L8.71667 18.2167C8.71667 18.2167 8.71667 18.2167 8.71667 18.225L9.03333 18.375L9.19167 18.0417C9.19167 18.0417 9.25 17.9917 9.28333 18.0083L9.35 18.0417L9.15 18.4583L9.25833 18.5083L9.40833 18.5667L9.50833 18.2333L9.65833 18.2083L9.625 18.3167C9.70833 18.2333 9.8 18.225 9.86667 18.25L10.3667 18.4083C10.55 18.4667 10.6 18.6333 10.5583 18.775L10.5083 18.925L10.9 18.9583L11.025 18.1833C11.0667 18.2833 11.125 18.3583 11.175 18.4167H11.1333L11.125 18.3917ZM9.28333 17.7167L9.43333 17.6667L9.48333 17.8167L9.33333 17.8667L9.28333 17.7167ZM11.4917 18.4333L11.425 19.15H11.2833L11.3667 18.2167C11.4167 18.3083 11.475 18.3833 11.525 18.4417H11.4833L11.4917 18.4333ZM10.8833 15.85C10.9667 15.8 11.0167 15.725 11.0167 15.625V13.1C11.2333 12.8583 11.55 12.6 11.725 12.475C11.6833 12.5167 11.6667 12.575 11.6667 12.65V15.625C11.6667 15.725 11.7083 15.8083 11.8 15.85H10.8833ZM12.0083 12.425H13.1C13.3583 12.425 13.575 12.45 13.7417 12.5083C13.9083 12.5667 14.0333 12.6333 14.1333 12.7167C14.2333 12.8 14.2917 12.8917 14.3333 12.9917C14.3667 13.0917 14.3833 13.1833 14.3833 13.2667C14.3833 13.4 14.3583 13.5167 14.3 13.625C14.2417 13.725 14.175 13.8167 14.0917 13.8833C14.0083 13.95 13.9167 14.0083 13.8167 14.0417C13.7167 14.075 13.625 14.1 13.5333 14.1083C13.6167 14.1167 13.6917 14.1417 13.7583 14.1667C13.95 14.2583 14.0833 14.4583 14.1 14.4833C14.1417 14.55 14.1833 14.6083 14.2167 14.675C15.2 12.5417 15.3917 10.7 14.5833 10.1917C13.825 9.71667 12.4083 10.525 11 12.0917C11.9167 10.9167 12.825 9.98333 13.6167 9.4C13.6333 8.75833 13.8167 8.23333 14.3083 7.91667C14.1417 7.975 13.975 8.025 13.6917 8.13333C13.8417 8.03333 14.0667 7.875 14.3 7.725C14.725 7.59167 15.0667 7.70833 15.1333 7.875C15.3833 6.925 14.3167 6.94167 14.175 6.95833C13.8917 6.63333 13.1667 6.54167 12.5333 6.73333C12.0083 6.89167 11.575 7.41667 11.2917 7.85833C11.3583 7.775 11.9333 7.43333 12.2667 7.3C10.8667 8.45 10.2333 9.55 9.725 11.075C9.75 10.9083 9.79167 10.7333 9.84167 10.55C9.675 10.375 9.5 10.2667 9.35 10.1833C9.025 10.0167 8.325 9.94167 8.04167 10.35C7.65833 10.8917 8.34167 11.5167 8.76667 11.85C9.28333 11.4 9.875 11 10.4333 10.6917C9.80833 11.125 9.29167 11.5417 8.88333 11.925C8.88333 11.925 8.71667 12.0917 8.58333 12.225C8.45 12.3583 8.31667 12.5 8.26667 12.575C6.99167 14.0917 7.375 15.0917 8.10833 15.425C9.15 15.8917 10.725 14.6417 8.925 13.1167C8.76667 12.9833 8.575 12.8333 8.38333 12.6667C8.55 12.45 8.825 12.1333 8.96667 11.975C9.01667 12.0083 9.05 12.0333 9.06667 12.05C9.85 12.7083 10.8417 13.5833 10.525 14.7333C10.2667 15.6833 9.3 15.95 8.675 15.875C7.38333 15.725 7.075 14.7333 7.24167 13.9917C7.36667 13.4667 7.69167 12.9417 8.14167 12.4583C7.75833 12.1 7.40833 11.6833 7.325 11.2167C7.15833 10.2833 7.84167 9.85 8.28333 9.75C9.00833 9.59167 9.56667 9.925 9.90833 10.3583C10.3917 8.75 11.5833 6.98333 12.3333 6.69167C13.1667 6.36667 13.9 6.50833 14.35 6.85833C15.7083 7.04167 15.3 8.18333 15.1667 8.35C15.25 8.06667 14.9667 7.84167 14.8917 7.94167C14.8167 8.04167 14.5333 8.125 14.3333 8.19167C14.0167 8.41667 13.8833 8.80833 13.9 9.18333C14.5917 8.73333 15.175 8.575 15.5417 8.80833C16.175 9.20833 16.0583 10.65 15.35 12.525C15.5583 13.0083 15.75 13.45 15.925 13.8583C16.05 14.1333 16.15 14.3583 16.2167 14.525C16.2917 14.6917 16.3583 14.85 16.425 15C16.4917 15.15 16.7917 15.8167 16.7917 15.8167H15.85C15.9167 15.7833 15.9583 15.7417 15.975 15.7083C15.9917 15.675 15.9917 15.625 15.975 15.575C15.975 15.5583 15.9583 15.5333 15.9417 15.4917C15.925 15.45 15.9 15.4 15.875 15.3333C15.85 15.2667 15.1083 13.5083 15.05 13.375C14.9833 13.5417 14.9167 13.7 14.8583 13.85C14.825 13.9417 14.7917 14.0167 14.7667 14.0833C14.7417 14.1417 14.7167 14.2083 14.6917 14.2667C14.675 14.3083 14.5333 14.65 14.4167 14.9417C14.4167 14.95 14.425 14.9583 14.4333 14.9667C14.4917 15.0583 14.5417 15.1333 14.5833 15.1917C14.625 15.25 14.6583 15.3083 14.7 15.3667C14.9583 15.7167 15.2667 15.9167 15.5583 15.775C15.3833 16.025 14.425 16.0167 14.1083 15.6C13.9917 15.4417 13.8833 15.275 13.775 15.1C13.6667 14.925 13.5667 14.775 13.475 14.6333C13.4417 14.5833 13.4083 14.5333 13.375 14.4833C13.3417 14.4333 13.1583 14.1333 12.9333 14.025C13.4083 14 13.6167 13.6917 13.6583 13.6C13.7 13.5083 13.725 13.4 13.725 13.275C13.725 13.2167 13.7167 13.15 13.6917 13.075C13.675 13 13.6333 12.9333 13.5917 12.8667C13.5417 12.8 13.475 12.75 13.3917 12.7C13.3083 12.6583 13.2083 12.6333 13.0833 12.6333C13.05 12.6333 13.0083 12.6333 12.975 12.6333C12.9417 12.6333 12.9083 12.6333 12.8833 12.6333C12.85 12.6333 12.8167 12.6333 12.7917 12.6333V15.575C12.7917 15.6333 12.8083 15.675 12.8333 15.7167C12.8583 15.75 12.8917 15.7833 12.9333 15.8083H12.0167C12.1083 15.7583 12.15 15.6833 12.15 15.5833V12.6083C12.15 12.5 12.1083 12.425 12.0167 12.3833L12.0083 12.425ZM13.8917 7.18333C13.9167 7.05833 13.8583 6.98333 13.7333 6.94167C13.75 6.96667 13.7583 6.99167 13.7583 7.025C13.775 7.175 13.6667 7.30833 13.5083 7.325C13.35 7.34167 13.2083 7.24167 13.1917 7.09167C13.1917 7.03333 13.1917 6.975 13.2333 6.925C12.85 6.95 12.4 7.075 12.0833 7.18333C12.8 6.78333 13.4167 6.7 13.8167 6.80833C14.0333 6.86667 14.0167 7.03333 13.9 7.18333H13.8917ZM13.9 7.34167C13.8333 7.51667 13.6 7.96667 13.275 8.20833C12.7667 8.575 12.2333 8.35 12.525 7.60833C12.7 8.14167 13.8 7.49167 13.9 7.35V7.34167ZM14.425 7.23333C14.425 7.23333 14.4 7.23333 14.3917 7.23333C14.3917 7.18333 14.4333 7.13333 14.4917 7.13333C14.55 7.13333 14.6083 7.15833 14.6083 7.20833C14.6083 7.25 14.575 7.29167 14.525 7.30833C14.525 7.30833 14.525 7.29167 14.525 7.28333C14.525 7.25 14.475 7.225 14.4167 7.225L14.425 7.23333ZM15.5167 17.2583L15.4833 17.4083L15.3583 17.375L15.325 17.5L15.175 17.4667L15.2083 17.3167L15.3333 17.35L15.3667 17.225L15.5167 17.2583ZM15.1 17.5167L15.05 17.6667L14.9 17.6167L14.95 17.4667L15.1 17.5167ZM14.2083 17.925L14.1417 18.0667L14 18L14.0667 17.8583L14.2083 17.925ZM13.5917 19.3667L13.4833 19.2917L13.4083 19.4L13.2833 19.3167L13.3667 19.1917L13.475 19.2667L13.55 19.1583L13.675 19.2417L13.5917 19.3667ZM15.5167 18.25C15.5167 18.25 15.45 18.2583 15.4333 18.2333L15.4583 18.275L15.0417 18.5167C15.0417 18.5167 14.9917 18.525 14.9667 18.5167L14.9833 18.55L14.0167 18.8833L13.9917 18.8167C13.9917 18.8167 13.9833 18.8917 13.95 18.9083L13.675 18.9833C13.675 18.9833 13.6 18.9833 13.5833 18.9417L13.5667 18.9L13.5833 18.9917L13.1333 19.0833C13.1333 19.0833 13.0583 19.0667 13.05 19.0333C13.05 19.075 13.025 19.1083 12.9833 19.1167L12.375 19.1583C12.3 19.1583 12.225 19.2167 12.2333 19.325V19.4833L12.1 19.425V19.3417C12.075 19.15 12.2167 19.0417 12.3583 19.0333H12.4583L12.45 18.875C12.4333 18.6833 12.5667 18.575 12.7167 18.5667C12.9083 18.55 13.0167 18.6833 13.025 18.8333V18.975L13.4083 18.9L13.3333 18.5333C13.3333 18.5333 13.35 18.4583 13.3917 18.45L13.4583 18.4333L13.55 18.8833L13.825 18.8083L13.5667 18.0667C13.65 18.1333 13.7333 18.175 13.8083 18.2L13.7667 18.2167L13.8667 18.5083C13.875 18.3917 13.95 18.3083 14.0417 18.275L14.5 18.1167C14.6833 18.05 14.825 18.1583 14.8667 18.3L14.9167 18.4417L15.2583 18.2417L15.0917 17.9083C15.0917 17.9083 15.0917 17.8333 15.125 17.8167L15.1833 17.7833L15.3917 18.1833L15.7 17.9833L15.5083 17.6667C15.5083 17.6667 15.5 17.5917 15.5333 17.5667L15.5917 17.5333L15.9 18.025L15.525 18.2667L15.5167 18.25ZM16.0417 16.7083H16.1667L16.175 16.5917H16.3333L16.325 16.7583H16.2L16.1917 16.875L16.0417 16.8583V16.7083ZM18.475 15.0583L18.4333 15.1333C18.4333 15.1333 18.375 15.1833 18.3417 15.1667L18.4 15.2L18.225 15.5333C18.225 15.5333 18.1667 15.5833 18.1333 15.5667L18.1917 15.6L17.9417 16.0417C17.9417 16.0417 17.875 16.1417 17.825 16.2083L17.6667 16.4C17.6667 16.4 17.6 16.4333 17.5667 16.4083L17.6167 16.45L17.375 16.7417C17.375 16.7417 17.3083 16.775 17.2833 16.7417L17.3333 16.7833C17.3333 16.7833 17.0417 17.1083 17 17.15L16.9 17.2417C16.9 17.2417 16.825 17.2667 16.8 17.2417L16.8417 17.2917L16.6417 17.4583C16.4917 17.5833 16.325 17.5417 16.2333 17.425C16.1333 17.3083 16.1167 17.1417 16.2667 17.0167L16.4167 16.8917C16.4167 16.8917 16.4917 16.8667 16.5167 16.8917L16.4667 16.8333C16.5083 16.7917 16.5333 16.7417 16.5417 16.7083L16.8333 17.05C16.8333 17.05 16.8667 17.0833 16.8833 17.0917C17.1333 16.8417 17.1417 16.7917 17.1417 16.7917L16.9583 16.6417L16.9917 16.4917L17.225 16.6917L17.4167 16.4583L17.15 16.2333L17.1833 16.0833L17.5 16.35L17.6917 16.1167L17.4917 15.95C17.4917 15.95 17.45 15.925 17.425 15.9167V15.7667C17.475 15.7667 17.5333 15.8 17.5833 15.8417L17.7917 16.0167L17.9 15.8333L18 15.6417L17.7917 15.5333V15.375L18.0667 15.5167L18.2083 15.25L17.9 15.0917V14.9333L18.275 15.125L18.3417 14.9917C18.375 14.925 18.3667 14.8333 18.275 14.7833L18.175 14.7333C18.175 14.7333 18.125 14.7167 18.1 14.7167L18.0583 14.575C18.0583 14.575 18.1167 14.575 18.15 14.575C18.1833 14.575 18.2167 14.5917 18.2417 14.6083L18.3417 14.6583C18.475 14.725 18.5167 14.85 18.4917 14.9583C18.4917 14.9917 18.475 15.025 18.4583 15.05L18.475 15.0583ZM19.0833 14.425C19.025 14.4083 18.975 14.4167 18.9417 14.425C18.975 14.3167 18.95 14.1833 18.8417 14.1167L18.8 14.25C18.7417 14.4333 18.575 14.4833 18.4333 14.4333C18.2917 14.3917 18.1833 14.25 18.25 14.0667C18.3083 13.8833 18.475 13.8333 18.6167 13.8833L18.7583 13.9333C18.7583 13.9333 18.7667 13.9333 18.775 13.9333L18.8417 13.6083L18.6917 13.575C18.5 13.5333 18.4333 13.375 18.4667 13.2333C18.5083 13.05 18.6583 12.9833 18.8 13.0083C18.95 13.0333 19.075 13.1583 19.0333 13.35L18.9333 13.8333V13.85C18.9333 13.875 18.9167 13.9 18.9167 13.9L18.8917 13.9667C19.075 14.0583 19.1333 14.2417 19.0917 14.4083L19.0833 14.425ZM19.0833 11.975C19.0833 11.975 19.0083 11.9333 18.9667 11.9167C18.925 11.9 18.8917 11.8833 18.8583 11.8667C18.8417 11.8667 18.825 11.8667 18.8083 11.8667C18.7917 11.8667 18.775 11.8667 18.7583 11.8667C18.725 11.8667 18.6917 11.8667 18.65 11.8667C18.6167 11.8667 18.575 11.8667 18.5417 11.875C18.5417 11.8583 18.5417 11.85 18.5417 11.8333C18.5417 11.8167 18.5417 11.8 18.5417 11.7917C18.5417 11.775 18.5417 11.7583 18.5417 11.75C18.5417 11.7333 18.5417 11.7167 18.5417 11.7083C18.575 11.7083 18.6083 11.7083 18.6417 11.7083C18.675 11.7083 18.7083 11.7083 18.7417 11.7083C18.7583 11.7083 18.775 11.7083 18.7917 11.7083C18.8083 11.7083 18.825 11.7083 18.8417 11.7083C18.875 11.6917 18.9167 11.6667 18.9583 11.6417C19 11.6167 19.0417 11.5917 19.0833 11.575C19.125 11.55 19.1583 11.5333 19.1917 11.5167C19.225 11.5 19.25 11.4833 19.2583 11.475C19.2583 11.4917 19.2583 11.5083 19.2583 11.525C19.2583 11.5417 19.2583 11.5583 19.2583 11.575C19.2583 11.5917 19.2583 11.6083 19.2583 11.625C19.2583 11.6417 19.2583 11.6583 19.2583 11.675C19.2333 11.6917 19.2083 11.7 19.175 11.7167C19.1417 11.7333 19.1167 11.75 19.0833 11.7667C19.0583 11.7833 19.025 11.8 19 11.8083C18.975 11.825 18.9583 11.8333 18.95 11.8417C18.95 11.8417 18.9917 11.8667 19.0167 11.8833C19.0417 11.9 19.0667 11.9083 19.1 11.925C19.1333 11.9417 19.1583 11.95 19.1833 11.9583C19.2083 11.9667 19.2417 11.9833 19.2667 11.9917C19.2667 11.9917 19.2667 12.0083 19.2667 12.0167C19.2667 12.0167 19.2667 12.0333 19.2667 12.0417C19.2667 12.0417 19.2667 12.0583 19.2667 12.0667C19.2667 12.0667 19.2667 12.0833 19.2667 12.0917C19.25 12.0833 19.225 12.0667 19.1917 12.05C19.1583 12.0333 19.125 12.0167 19.0833 12V11.975Z"/>
<path d="M17.875 8.51667C17.875 8.51667 17.9333 8.45 17.9583 8.41667C17.9833 8.38333 18.0083 8.35 18.0417 8.31667C18 8.31667 17.95 8.33333 17.9083 8.33333C17.8667 8.33333 17.825 8.35 17.775 8.35833L17.875 8.525V8.51667Z"/>
<path d="M16.1333 6.75833C16.1333 6.75833 16.1333 6.81667 16.1583 6.84167C16.175 6.86667 16.1917 6.89167 16.2083 6.90833C16.2333 6.925 16.2583 6.94167 16.2917 6.95C16.325 6.95 16.35 6.95833 16.3833 6.95C16.4167 6.95 16.45 6.925 16.4917 6.9C16.525 6.875 16.5667 6.84167 16.6 6.8C16.625 6.76667 16.65 6.73333 16.6667 6.7C16.6833 6.66667 16.6917 6.63333 16.6917 6.6C16.6917 6.56667 16.6917 6.54167 16.675 6.50833C16.6583 6.48333 16.6417 6.45833 16.6167 6.43333C16.5917 6.40833 16.5583 6.4 16.525 6.39167C16.4917 6.39167 16.4583 6.39167 16.425 6.39167C16.3917 6.4 16.3583 6.41667 16.325 6.44167C16.2917 6.46667 16.2583 6.49167 16.2333 6.525C16.2 6.56667 16.175 6.60833 16.1583 6.64167C16.1417 6.675 16.1333 6.70833 16.1333 6.74167V6.75833Z"/>
<path d="M5.4 13.325C5.38333 13.225 5.29167 13.1917 5.21667 13.2083C5.15 13.225 5.08333 13.2917 5.10833 13.3833L5.15833 13.6417L5.45833 13.5833L5.40833 13.325H5.4Z"/>
<path d="M12 2C6.475 2 2 6.475 2 12C2 17.525 6.475 22 12 22C17.525 22 22 17.525 22 12C22 6.475 17.525 2 12 2ZM12 20.3333C7.40833 20.3333 3.66667 16.5917 3.66667 12C3.66667 7.40833 7.40833 3.66667 12 3.66667C16.5917 3.66667 20.3333 7.40833 20.3333 12C20.3333 16.5917 16.5917 20.3333 12 20.3333Z"/>
<path d="M18.3833 14.1167C18.35 14.2083 18.4083 14.2833 18.4833 14.3083C18.55 14.3333 18.6417 14.3083 18.675 14.2083L18.725 14.0667L18.5833 14.0167C18.5167 13.9917 18.425 14.0167 18.3917 14.1167H18.3833Z"/>
<path d="M16.95 7.15C16.95 7.15 17.0167 7.2 17.05 7.2C17.0833 7.2 17.1167 7.18333 17.1583 7.15C17.1833 7.125 17.1917 7.10833 17.2 7.09167C17.2083 7.075 17.2083 7.05833 17.2083 7.04167C17.2083 7.025 17.2 7.00833 17.1833 6.99167C17.1667 6.975 17.1583 6.95833 17.1333 6.93333C17.0667 7 16.9917 7.05833 16.925 7.125C16.925 7.125 16.925 7.125 16.925 7.13333L16.95 7.15Z"/>
<path d="M18.7917 13.15C18.7167 13.1333 18.6333 13.1667 18.6083 13.2667C18.5917 13.3333 18.625 13.425 18.725 13.45L18.875 13.4833L18.9083 13.3333C18.925 13.2333 18.8583 13.1667 18.7917 13.15Z"/>
<path d="M16.375 17.1083C16.3 17.175 16.3083 17.275 16.3667 17.325C16.4167 17.375 16.5 17.4 16.575 17.3333L16.775 17.1667L16.575 16.9333L16.375 17.1V17.1083Z"/>
</svg>
