<svg width="24" height="24" viewBox="0 0 24 24" fill="black" xmlns="http://www.w3.org/2000/svg">
<path d="M2 6.01892C2 5.69908 2.27986 5.43921 2.6097 5.47919L4.95852 5.76904C6.84758 6.00892 8.76662 6.14885 10.6757 6.18883C10.9655 6.18883 11.1954 6.42871 11.1954 6.71857V10.6466C11.1954 10.9465 10.9555 11.1863 10.6557 11.1863H2.56972C2.26987 11.1863 2.02999 10.9465 2.02999 10.6566L2 6.01892Z"/>
<path d="M4.96852 18.2228L2.64968 18.5127C2.32984 18.5527 2.03998 18.3028 2.03998 17.9829V13.3453C2.03998 13.0454 2.27986 12.8055 2.57971 12.8055H10.6557C10.9555 12.8055 11.1954 13.0454 11.1954 13.3453V17.2733C11.1954 17.5631 10.9655 17.793 10.6757 17.803C8.77661 17.843 6.85757 17.9929 4.96852 18.2228Z"/>
<path d="M21.99 17.9829C21.99 18.3128 21.7101 18.5626 21.3803 18.5227L19.0215 18.2228C17.1324 17.9829 15.2234 17.843 13.3243 17.803C13.0345 17.803 12.8046 17.5631 12.8046 17.2733V13.3453C12.8046 13.0454 13.0445 12.8055 13.3443 12.8055H21.4303C21.7301 12.8055 21.97 13.0454 21.97 13.3353L22 17.9729L21.99 17.9829Z"/>
<path d="M12.8046 10.6566V6.72856C12.8046 6.43871 13.0345 6.20882 13.3243 6.19883C15.2334 6.15885 17.1424 6.00892 19.0415 5.77904L21.3503 5.47919C21.6702 5.43921 21.96 5.68908 21.96 6.00892V10.6466C21.96 10.9465 21.7201 11.1863 21.4203 11.1863H13.3443C13.0445 11.1863 12.8046 10.9465 12.8046 10.6466V10.6566Z"/>
</svg>
