<svg width="24" height="24" viewBox="0 0 24 24" fill="none" xmlns="http://www.w3.org/2000/svg">
<path d="M19.3944 7.0376C19.0442 6.52656 18.5994 6.08176 18.1168 5.81678L13.0631 3.00604C11.9748 2.40983 10.2145 2.40983 9.13567 3.01551L4.08202 5.81678C3.60884 6.08176 3.18297 6.50763 2.83281 7.00921C2.92745 7.01867 3.01262 7.04706 3.09779 7.09438L11.0947 11.7222L19.0347 7.12278C19.1483 7.05653 19.2713 7.0376 19.3849 7.0376H19.3944Z"/>
<path d="M10.3849 12.9524L2.37855 8.32467C2.3123 8.28682 2.26498 8.2395 2.21767 8.18271C2.07571 8.57073 2 8.96821 2 9.34676V14.6938C2 15.9998 2.93691 17.5897 4.08202 18.2238L9.13567 21.0345C9.51422 21.2427 9.97794 21.3752 10.4701 21.4414C10.4227 21.3468 10.3849 21.2427 10.3849 21.1197V12.9524Z"/>
<path d="M18.2493 12.1764C18.9401 12.1764 19.5931 12.3089 20.1988 12.555V9.34676C20.1988 8.96821 20.1136 8.56126 19.9717 8.15432C19.9149 8.23003 19.8392 8.30574 19.754 8.35306L11.8044 12.9524V21.1197C11.8044 21.2332 11.7761 21.3468 11.7193 21.4414C12.2114 21.3752 12.6846 21.2427 13.0631 21.0345L14.0663 20.4761C13.4227 19.6055 13.0442 18.5455 13.0442 17.3815C13.0442 14.5045 15.3723 12.1764 18.2493 12.1764Z"/>
<path d="M21.7698 18.0534L19.4512 13.8799C19.1388 13.3215 18.7035 13.0092 18.2303 13.0092C17.7571 13.0092 17.3218 13.3215 17.0095 13.8799L14.6909 18.0534C14.3975 18.5834 14.3691 19.0944 14.5962 19.5014C14.8328 19.9083 15.2966 20.126 15.9022 20.126H20.5395C21.1452 20.126 21.6089 19.9083 21.8455 19.5014C22.0821 19.0944 22.0442 18.5834 21.7508 18.0534H21.7698ZM17.7193 14.9398C17.7193 14.6559 17.9464 14.4288 18.2303 14.4288C18.5142 14.4288 18.7414 14.6559 18.7414 14.9398V16.7569C18.7414 17.0408 18.5142 17.2679 18.2303 17.2679C17.9464 17.2679 17.7193 17.0408 17.7193 16.7569V14.9398ZM18.6562 18.7726C18.6562 18.7726 18.6373 18.7916 18.6278 18.801L18.5805 18.8389C18.5142 18.8862 18.4764 18.9051 18.4385 18.9146C18.4291 18.9146 18.3817 18.943 18.3344 18.943C18.306 18.943 18.2682 18.943 18.2303 18.943C18.1925 18.943 18.1641 18.943 18.1262 18.943C18.0789 18.943 18.0316 18.9146 17.9843 18.8957C17.9843 18.8957 17.9464 18.8767 17.8991 18.8578C17.8896 18.8578 17.8045 18.7821 17.795 18.7726C17.6909 18.6591 17.6246 18.5077 17.6246 18.3562C17.6246 18.2048 17.6909 18.0534 17.795 17.9398L17.8707 17.8736C17.937 17.8263 17.9748 17.8073 18.0127 17.7979C18.0127 17.7979 18.0694 17.779 18.1168 17.7695C18.183 17.7506 18.2776 17.7506 18.3534 17.7695C18.3817 17.7695 18.4291 17.7884 18.4764 17.8073C18.4764 17.8073 18.5142 17.8263 18.5616 17.8452L18.6373 17.902C18.7698 18.0345 18.8265 18.1859 18.8265 18.3468C18.8265 18.5077 18.7698 18.6496 18.6562 18.7632V18.7726Z"/>
</svg>
