<svg width="24" height="24" viewBox="0 0 24 24" fill="black" xmlns="http://www.w3.org/2000/svg">
<path d="M21.1532 12.4229C21.1147 11.8748 20.9705 11.3748 20.7301 10.8651C19.9801 9.24972 19.7013 9.00933 19.3936 8.8651C18.9897 8.66317 17.4512 8.27855 16.9512 8.27855C16.5281 8.27855 16.1627 8.44201 14.605 9.9132C14.0761 10.394 13.5377 10.8459 12.9511 11.2498L12.1049 11.8171C11.7011 12.0959 11.5761 12.644 11.8645 13.0479C12.153 13.4517 12.6915 13.5767 13.0953 13.2883L13.9415 12.721C14.4511 12.3748 14.9511 11.9902 15.4415 11.5863L14.73 13.8941L12.5857 16.0191C12.0761 16.4999 11.7588 17.1345 11.6338 17.8172L11.1241 20.7307C11.0184 21.3173 11.403 21.8846 11.9895 21.9808C12.0472 22 12.1145 22 12.1722 22C12.6819 22 13.1434 21.6346 13.2203 21.1154L13.73 18.2018C13.7684 17.9614 13.8934 17.7403 14.0569 17.5768L15.8742 15.7979L15.7492 17.1922C15.6916 17.8364 15.8262 18.4903 16.1339 19.048L17.4031 21.4327C17.6051 21.7981 17.9704 22 18.3551 22C18.5185 22 18.7012 21.9615 18.8647 21.875C19.3936 21.5961 19.5955 20.9423 19.307 20.423L18.0378 18.0384C17.932 17.8364 17.8743 17.6153 17.8935 17.3941L18.1531 14.5479L19.2012 11.9805C19.2589 12.1825 19.3262 12.4036 19.3455 12.6056L19.5474 14.7883C19.5859 15.2499 19.9705 15.596 20.432 15.596H20.509C20.9897 15.5576 21.3551 15.1152 21.3167 14.6248L21.134 12.4229H21.1532Z"/>
<path d="M18.4224 7.99969C19.4224 8.4324 20.5955 7.97085 21.0282 6.96121C21.4609 5.96119 20.9994 4.78808 19.9897 4.35538C18.9897 3.92268 17.8166 4.38423 17.3839 5.39387C16.9512 6.39389 17.4127 7.56699 18.4224 7.99969Z"/>
<path d="M14.4223 8.74009C14.9031 8.66317 15.2492 8.21124 15.1723 7.73046C15.0954 7.24968 14.6434 6.90352 14.1627 6.98044L9.67219 7.64392C9.0664 7.72084 8.46062 7.78815 7.85484 7.78815C7.24906 7.78815 6.70097 7.82661 6.11442 7.89392L4.73939 8.05739C3.95091 8.16316 3.30666 8.74009 3.1432 9.50934L2.70088 11.4902C2.59511 11.9709 2.90281 12.4613 3.38359 12.5575C3.44128 12.5767 3.50859 12.5767 3.58552 12.5767C3.98937 12.5767 4.37399 12.2979 4.45092 11.8652L4.89324 9.88435C4.89324 9.88435 4.9317 9.82666 4.97016 9.82666L5.8548 9.72089L4.84516 12.8556C4.64323 13.4998 4.72016 14.1921 5.06632 14.7787L5.30671 15.1825L3.00858 20.5673C2.78742 21.0961 3.02781 21.7019 3.55667 21.9231C3.68167 21.9808 3.81629 22 3.96052 22C4.36438 22 4.749 21.7596 4.91247 21.375L6.56635 17.4518L6.38365 20.9038C6.36442 21.4711 6.78751 21.9519 7.35483 21.9904H7.41252C7.96061 21.9904 8.40293 21.5673 8.44139 21.0192L8.62409 17.5191C8.64332 17.0576 8.54716 16.5864 8.29716 16.2018L7.5856 15.0095L9.97027 9.39395L14.4127 8.73048L14.4223 8.74009Z"/>
<path d="M8.22985 7.22083C9.31641 7.33622 10.2972 6.55735 10.4126 5.47079C10.528 4.38423 9.74911 3.40344 8.66255 3.28805C7.57599 3.17266 6.5952 3.95153 6.47981 5.03809C6.36442 6.12465 7.14329 7.10544 8.22985 7.22083Z"/>
<path d="M12.028 5.74964L13.0953 6.09581H13.1723C13.3165 6.11504 13.48 6.0285 13.5184 5.88426C13.5857 5.71118 13.48 5.52849 13.3069 5.47079L12.8934 5.33617L13.2396 5.11502C13.403 5.00924 13.4415 4.80732 13.3261 4.6727L13.0184 4.17269L13.48 4.31692C13.5761 4.34577 13.653 4.33615 13.73 4.28807C13.8069 4.24961 13.8646 4.15346 13.8742 4.07653L14.0088 3.41305L14.2204 3.85537C14.2588 3.9323 14.3261 4.01884 14.4319 4.01884C14.5281 4.04768 14.6338 4.03807 14.7108 3.98999L15.2877 3.64383L15.1531 4.32654C15.1146 4.49962 15.2204 4.68231 15.4127 4.72078L15.5858 4.75924L14.9223 5.24963C14.7588 5.3554 14.7492 5.55733 14.855 5.7208C14.9608 5.88426 15.1627 5.89388 15.3262 5.78811L16.605 4.85539C16.7108 4.78808 16.7781 4.64385 16.7396 4.51885C16.7012 4.39385 16.6146 4.28807 16.4896 4.26884L15.9031 4.14384L16.1243 3.04766C16.1627 2.92266 16.0954 2.79766 16.0089 2.71112C15.8935 2.62458 15.7685 2.64381 15.6627 2.71112L14.7685 3.23036L14.2877 2.19187C14.2204 2.05726 14.0857 1.97072 13.9511 2.00918C13.7973 2.01879 13.6915 2.13418 13.653 2.27841L13.3934 3.54767L12.4511 3.25921C12.3261 3.22074 12.1819 3.25921 12.0953 3.37459C12.0088 3.48998 11.9992 3.64383 12.0953 3.7496L12.6242 4.74001L11.9895 5.15348C11.8838 5.22079 11.8261 5.33617 11.8357 5.46118C11.8453 5.58618 11.9415 5.69195 12.0569 5.73041L12.028 5.74964Z"/>
</svg>
