<svg width="24" height="24" viewBox="0 0 24 24" fill="none" xmlns="http://www.w3.org/2000/svg">
<path d="M16.6182 8.22727V13.3727C15.1273 13.8455 13.9364 15.0091 13.4182 16.4818C13.3091 16.2727 13.2545 16.0273 13.2545 15.7727V8.22727C13.2545 7.3 14.0182 6.54545 14.9364 6.54545C15.8545 6.54545 16.6182 7.3 16.6182 8.22727Z" fill="black"/>
<path d="M9.06365 17.4545C9.99092 17.4545 10.7455 16.7 10.7455 15.7727V12.8363C10.7455 11.909 9.99092 11.1545 9.06365 11.1545C8.13638 11.1545 7.38183 11.909 7.38183 12.8363V15.7727C7.38183 16.7 8.12729 17.4545 9.06365 17.4545Z" fill="black"/>
<path d="M18.1364 21.7727C20.1447 21.7727 21.7727 20.1447 21.7727 18.1364C21.7727 16.1281 20.1447 14.5 18.1364 14.5C16.1281 14.5 14.5 16.1281 14.5 18.1364C14.5 20.1447 16.1281 21.7727 18.1364 21.7727Z" fill="black"/>
<path d="M14.7273 2H9.27273C4.17273 2 2 4.17273 2 9.27273V14.7273C2 19.8273 4.17273 22 9.27273 22H12.9091C13.4091 22 13.8182 21.5909 13.8182 21.0909C13.8182 20.5909 13.4091 20.1818 12.9091 20.1818H9.27273C5.19091 20.1818 3.81818 18.8091 3.81818 14.7273V9.27273C3.81818 5.19091 5.19091 3.81818 9.27273 3.81818H14.7273C18.8091 3.81818 20.1818 5.19091 20.1818 9.27273V12.9091C20.1818 13.4091 20.5909 13.8182 21.0909 13.8182C21.5909 13.8182 22 13.4091 22 12.9091V9.27273C22 4.17273 19.8273 2 14.7273 2Z" fill="black"/>
</svg>
