<svg width="24" height="24" viewBox="0 0 24 24" fill="none" xmlns="http://www.w3.org/2000/svg">
<path d="M21.3302 15.2279C21.0605 14.9581 20.614 14.9581 20.3442 15.2279L18.2791 17.293L16.214 15.2279C15.9442 14.9581 15.4977 14.9581 15.2279 15.2279C14.9581 15.4977 14.9581 15.9442 15.2279 16.214L17.293 18.2791L15.2279 20.3442C14.9581 20.614 14.9581 21.0605 15.2279 21.3302C15.3674 21.4698 15.5442 21.5349 15.7209 21.5349C15.8977 21.5349 16.0744 21.4698 16.214 21.3302L18.2791 19.2651L20.3442 21.3302C20.4837 21.4698 20.6605 21.5349 20.8372 21.5349C21.014 21.5349 21.1907 21.4698 21.3302 21.3302C21.6 21.0605 21.6 20.614 21.3302 20.3442L19.2651 18.2791L21.3302 16.214C21.6 15.9442 21.6 15.4977 21.3302 15.2279Z" fill="black"/>
<path d="M14.7907 2H9.2093C4.15814 2 2 4.15814 2 9.2093V14.7907C2 19.8419 4.15814 22 9.2093 22H12.9302C13.3116 22 13.6279 21.6837 13.6279 21.3023C13.6279 20.9209 13.3116 20.6047 12.9302 20.6047H9.2093C4.92093 20.6047 3.39535 19.0791 3.39535 14.7907V9.2093C3.39535 4.92093 4.92093 3.39535 9.2093 3.39535H14.7907C19.0791 3.39535 20.6047 4.92093 20.6047 9.2093V12.9302C20.6047 13.3116 20.9209 13.6279 21.3023 13.6279C21.6837 13.6279 22 13.3116 22 12.9302V9.2093C22 4.15814 19.8419 2 14.7907 2Z" fill="black"/>
<path d="M16.7721 9.13488C16.4651 8.89302 16.0279 8.95814 15.7953 9.25581L13.6558 12.0186C13.5721 12.1209 13.4233 12.1395 13.3209 12.0651L11.6093 10.7163C11.2651 10.4465 10.8372 10.3349 10.4 10.3907C9.97209 10.4465 9.5814 10.6698 9.31163 11.014L7.09767 13.8884C6.86512 14.1953 6.92093 14.6326 7.22791 14.8651C7.35814 14.9674 7.50698 15.014 7.65581 15.014C7.86977 15.014 8.07442 14.9209 8.20465 14.7442L10.4186 11.8698C10.4651 11.8047 10.5302 11.786 10.5767 11.7767C10.614 11.7767 10.6884 11.7767 10.7442 11.8233L12.4465 13.1721C13.1535 13.7116 14.1767 13.5907 14.7349 12.893L16.8837 10.1209C17.1163 9.81395 17.0605 9.37674 16.7628 9.14419L16.7721 9.13488Z" fill="black"/>
</svg>
