<svg width="24" height="24" viewBox="0 0 24 24" fill="black" xmlns="http://www.w3.org/2000/svg">
<path d="M18.83 12.25C18.74 12.19 18.63 12.16 18.51 12.16C18.39 12.16 18.28 12.19 18.19 12.25C18.09 12.31 18.02 12.38 17.97 12.48C17.92 12.58 17.89 12.69 17.89 12.82C17.89 12.95 17.92 13.05 17.97 13.15C18.02 13.25 18.1 13.32 18.2 13.38C18.3 13.44 18.4 13.46 18.52 13.46C18.64 13.46 18.75 13.43 18.84 13.38C18.93 13.32 19.01 13.25 19.06 13.15C19.11 13.05 19.14 12.94 19.14 12.82C19.14 12.69 19.11 12.58 19.06 12.48C19.01 12.38 18.93 12.31 18.84 12.25H18.83Z"/>
<path d="M13.06 13.04C13.2 13.04 13.31 13 13.39 12.91C13.48 12.82 13.52 12.71 13.52 12.58C13.52 12.45 13.48 12.33 13.39 12.24C13.3 12.15 13.19 12.11 13.06 12.11C12.93 12.11 12.81 12.15 12.73 12.24C12.64 12.33 12.6 12.44 12.6 12.57C12.6 12.7 12.64 12.82 12.73 12.91C12.82 13 12.93 13.04 13.06 13.04Z"/>
<path d="M13.36 13.64C13.27 13.59 13.17 13.57 13.05 13.57C12.93 13.57 12.83 13.59 12.74 13.64C12.65 13.69 12.58 13.75 12.53 13.83C12.48 13.91 12.45 14.01 12.45 14.11C12.45 14.21 12.48 14.31 12.53 14.39C12.58 14.47 12.65 14.54 12.74 14.58C12.83 14.63 12.93 14.65 13.05 14.65C13.17 14.65 13.27 14.63 13.36 14.58C13.45 14.53 13.52 14.47 13.57 14.39C13.62 14.31 13.64 14.21 13.64 14.11C13.64 14.01 13.61 13.91 13.57 13.83C13.52 13.75 13.45 13.68 13.36 13.64Z"/>
<path d="M20.5 7H3.5C2.67 7 2 7.67 2 8.5V15.5C2 16.33 2.67 17 3.5 17H20.5C21.33 17 22 16.33 22 15.5V8.5C22 7.67 21.33 7 20.5 7ZM6.92 15.22L6.66 14.54H5.16L4.9 15.22H4.16L5.63 11.58H6.2L7.66 15.22H6.91H6.92ZM7 9.47C7 9.06 7.34 8.72 7.75 8.72C8.16 8.72 8.5 9.06 8.5 9.47C8.5 9.88 8.16 10.22 7.75 10.22C7.34 10.22 7 9.88 7 9.47ZM10.07 14.98C9.83 15.17 9.51 15.27 9.09 15.27C8.8 15.27 8.55 15.22 8.34 15.12C8.13 15.02 7.94 14.87 7.77 14.67L8.24 14.2C8.35 14.34 8.47 14.45 8.61 14.53C8.75 14.61 8.92 14.65 9.13 14.65C9.31 14.65 9.46 14.61 9.57 14.54C9.68 14.47 9.73 14.37 9.73 14.24C9.73 14.13 9.7 14.04 9.64 13.97C9.58 13.9 9.5 13.84 9.39 13.79C9.28 13.74 9.18 13.7 9.05 13.66C8.93 13.62 8.8 13.57 8.68 13.52C8.56 13.47 8.45 13.4 8.34 13.33C8.24 13.25 8.16 13.15 8.09 13.03C8.03 12.91 8 12.75 8 12.57C8 12.35 8.05 12.16 8.16 12.01C8.27 11.85 8.41 11.74 8.6 11.65C8.79 11.57 9 11.53 9.23 11.53C9.48 11.53 9.7 11.58 9.9 11.67C10.1 11.76 10.26 11.88 10.39 12.03L9.92 12.5C9.81 12.38 9.7 12.3 9.59 12.24C9.48 12.18 9.35 12.16 9.21 12.16C9.05 12.16 8.92 12.19 8.83 12.25C8.74 12.31 8.69 12.4 8.69 12.52C8.69 12.62 8.72 12.7 8.78 12.76C8.84 12.82 8.92 12.88 9.03 12.92C9.13 12.96 9.24 13.01 9.37 13.05C9.49 13.09 9.61 13.14 9.74 13.19C9.86 13.24 9.97 13.31 10.08 13.39C10.18 13.47 10.26 13.58 10.33 13.71C10.39 13.84 10.42 14 10.42 14.19C10.42 14.53 10.3 14.79 10.06 14.99L10.07 14.98ZM14.17 14.76C14.07 14.92 13.92 15.05 13.73 15.14C13.54 15.23 13.32 15.27 13.06 15.27C12.8 15.27 12.58 15.22 12.39 15.14C12.2 15.05 12.05 14.92 11.95 14.76C11.84 14.6 11.79 14.41 11.79 14.21C11.79 14.04 11.82 13.89 11.89 13.75C11.96 13.61 12.05 13.5 12.17 13.4C12.24 13.35 12.33 13.32 12.42 13.29C12.36 13.26 12.29 13.24 12.24 13.19C12.14 13.1 12.07 13 12.02 12.88C11.97 12.76 11.95 12.64 11.95 12.51C11.95 12.31 12 12.14 12.09 11.99C12.18 11.84 12.32 11.73 12.48 11.64C12.65 11.56 12.84 11.52 13.06 11.52C13.28 11.52 13.47 11.56 13.63 11.64C13.8 11.72 13.93 11.84 14.02 11.99C14.11 12.14 14.16 12.31 14.16 12.51C14.16 12.64 14.14 12.76 14.09 12.88C14.04 13 13.97 13.1 13.88 13.19C13.83 13.24 13.76 13.25 13.69 13.29C13.78 13.33 13.87 13.35 13.94 13.4C14.06 13.49 14.15 13.61 14.22 13.75C14.29 13.89 14.32 14.04 14.32 14.21C14.32 14.41 14.27 14.6 14.16 14.76H14.17ZM16.99 11.99L15.75 15.22H15.02L16.22 12.19H14.52V11.58H17V11.99H16.99ZM16.26 10.23C15.85 10.23 15.51 9.89 15.51 9.48C15.51 9.07 15.85 8.73 16.26 8.73C16.67 8.73 17.01 9.07 17.01 9.48C17.01 9.89 16.67 10.23 16.26 10.23ZM19.5 13.77L18.49 15.23H17.69L18.59 13.97C18.52 13.98 18.46 14 18.38 14C18.17 14 17.97 13.95 17.79 13.85C17.61 13.75 17.47 13.61 17.36 13.43C17.25 13.25 17.2 13.04 17.2 12.81C17.2 12.58 17.26 12.36 17.38 12.16C17.5 11.96 17.66 11.81 17.86 11.7C18.06 11.59 18.28 11.53 18.53 11.53C18.78 11.53 19 11.59 19.2 11.7C19.4 11.81 19.56 11.97 19.67 12.16C19.79 12.35 19.84 12.56 19.84 12.8C19.84 13.12 19.73 13.45 19.5 13.77Z"/>
<path d="M5.39 13.95H6.44L5.92 12.57L5.39 13.95Z"/>
</svg>
