<svg width="24" height="24" viewBox="0 0 24 24" fill="black" xmlns="http://www.w3.org/2000/svg">
<path d="M19.2727 4.27502H4.72727C3.22727 4.27502 2 5.5023 2 7.0023V17.0023C2 18.5023 3.22727 19.7296 4.72727 19.7296H19.2727C20.7727 19.7296 22 18.5023 22 17.0023V7.0023C22 5.5023 20.7727 4.27502 19.2727 4.27502ZM10.1818 9.72957H7.45455V12.0023C7.45455 12.5023 7.04545 12.9114 6.54545 12.9114C6.04545 12.9114 5.63636 12.5023 5.63636 12.0023V9.72957C5.63636 8.72957 6.45455 7.91139 7.45455 7.91139H10.1818C10.6818 7.91139 11.0909 8.32048 11.0909 8.82048C11.0909 9.32048 10.6818 9.72957 10.1818 9.72957ZM18.3636 14.275C18.3636 15.275 17.5455 16.0932 16.5455 16.0932H13.8182C13.3182 16.0932 12.9091 15.6841 12.9091 15.1841C12.9091 14.6841 13.3182 14.275 13.8182 14.275H16.5455V12.0023C16.5455 11.5023 16.9545 11.0932 17.4545 11.0932C17.9545 11.0932 18.3636 11.5023 18.3636 12.0023V14.275Z"/>
</svg>
