<svg width="24" height="24" viewBox="0 0 24 24" fill="black" xmlns="http://www.w3.org/2000/svg">
<path fill-rule="evenodd" clip-rule="evenodd" d="M21.7224 7.00111L20.7506 6.95153C20.711 6.86229 20.6415 6.79288 20.5523 6.77305L19.9673 6.57474L19.5409 6.48549C19.293 6.15828 18.9063 5.95996 18.4898 5.95996C18.0734 5.95996 17.6867 6.15828 17.4388 6.48549L16.6753 6.68381L16.4274 6.76313C16.3381 6.78297 16.2786 6.84246 16.239 6.94162L15.2672 6.9912C15.0987 6.9912 14.9698 7.13993 14.9797 7.3085C14.9797 7.47707 15.1284 7.60597 15.297 7.59605L16.2191 7.54648C16.2687 7.6853 16.3679 7.77454 16.4968 7.78445L17.0818 7.86378L17.5875 8.30999L16.5265 8.90493C16.1795 9.05366 16.0902 9.34122 16.0902 9.69819V14.1702C16.0902 14.775 16.4175 15.6774 17.3198 15.8459V14.1603C17.3198 13.5157 17.8453 12.9902 18.4998 13.0001C19.1443 13.01 19.6599 13.5257 19.6599 14.1603V15.8459C20.5721 15.6674 20.8894 14.775 20.8894 14.1702V9.7081C20.8894 9.36105 20.8101 9.06358 20.4531 8.91484L19.3922 8.3199L19.8979 7.87369L20.4829 7.79437C20.6217 7.78445 20.711 7.69521 20.7605 7.55639L21.6827 7.60597C21.8513 7.60597 21.9901 7.48698 22 7.31841C22 7.14985 21.881 7.01103 21.7124 7.00111H21.7224ZM18.4998 8.04226C18.0833 8.04226 17.7462 7.70513 17.7462 7.28867C17.7462 6.87221 18.0833 6.53507 18.4998 6.53507C18.9162 6.53507 19.2533 6.87221 19.2533 7.28867C19.2533 7.70513 18.9162 8.04226 18.4998 8.04226Z"/>
<path fill-rule="evenodd" clip-rule="evenodd" d="M18.4998 13.5356C18.1329 13.5356 17.8453 13.8132 17.8453 14.1702V17.3829C17.8453 17.7497 18.1329 18.0274 18.4898 18.0274C18.8468 18.0274 19.1344 17.7398 19.1344 17.3829V14.1702C19.1344 13.8132 18.8666 13.5356 18.4898 13.5356H18.4998Z"/>
<path fill-rule="evenodd" clip-rule="evenodd" d="M12.4809 6.11861H4.35994C3.96331 6.25743 3.66584 6.57474 3.46753 7.09035C2.97174 8.51822 2.51562 9.92625 2 11.3244L2.01983 16.2723V17.0457C2.01983 17.601 2.47595 18.0373 3.0114 18.0373C3.54685 18.0373 4.00297 17.601 4.00297 17.0457V16.2921H12.828V17.0457C12.828 17.601 13.2643 18.0373 13.8195 18.0373C14.3748 18.0373 14.8111 17.601 14.8111 17.0457V16.2723L14.8309 11.3244C14.3153 9.91633 13.8394 8.5083 13.3634 7.09035C13.1651 6.57474 12.8676 6.25743 12.471 6.11861H12.4809ZM4.43927 14.1999C3.82449 14.1999 3.30887 13.6843 3.30887 13.0695C3.30887 12.4548 3.82449 11.9391 4.43927 11.9391C5.05404 11.9391 5.56966 12.4349 5.56966 13.0695C5.56966 13.7041 5.07387 14.1999 4.43927 14.1999ZM12.3818 14.1999C11.767 14.1999 11.2514 13.6843 11.2514 13.0695C11.2514 12.4548 11.767 11.9391 12.3818 11.9391C12.9965 11.9391 13.5121 12.4349 13.5121 13.0695C13.5121 13.7041 13.0164 14.1999 12.3818 14.1999ZM3.42786 10.5509L4.59792 7.22917H12.2231L13.413 10.5609H3.42786V10.5509Z"/>
</svg>
