<svg width="24" height="24" viewBox="0 0 24 24" fill="black" xmlns="http://www.w3.org/2000/svg">
<path d="M11.9915 18.723C12.5152 18.723 12.9397 18.2985 12.9397 17.7748C12.9397 17.2511 12.5152 16.8266 11.9915 16.8266C11.4679 16.8266 11.0433 17.2511 11.0433 17.7748C11.0433 18.2985 11.4679 18.723 11.9915 18.723Z"/>
<path d="M12.5604 5.71373V3.52908L17.2635 4.18144C17.2635 4.18144 17.3166 4.18144 17.3394 4.18144C17.62 4.18144 17.8628 3.97663 17.9007 3.68838C17.9462 3.37737 17.7262 3.08912 17.4152 3.0436L9.90549 2.00438C9.59448 1.96645 9.30623 2.17885 9.26072 2.48986C9.2152 2.80087 9.43519 3.08912 9.74619 3.13463L11.4226 3.36978V5.71373C8.06978 6.00199 5.42999 8.81624 5.42999 12.2449V13.1855C5.42999 13.4966 5.6879 13.7545 5.99891 13.7545H6.31751V16.3184C6.31751 19.4512 8.86627 22 11.9991 22C15.132 22 17.6807 19.4512 17.6807 16.3184V13.7545H17.9993C18.3103 13.7545 18.5682 13.4966 18.5682 13.1855V12.2449C18.5682 8.81624 15.9285 6.00199 12.5756 5.71373H12.5604ZM11.9915 19.8609C10.8385 19.8609 9.90549 18.9278 9.90549 17.7748C9.90549 16.6218 10.8385 15.6888 11.9915 15.6888C13.1445 15.6888 14.0776 16.6218 14.0776 17.7748C14.0776 18.9278 13.1445 19.8609 11.9915 19.8609Z"/>
</svg>
