<svg width="24" height="24" viewBox="0 0 24 24" fill="none" xmlns="http://www.w3.org/2000/svg">
<path d="M2.51019 11.1924C2.9104 11.0423 3.34063 11.2324 3.52072 11.6026L4.85143 11.1023C4.8014 10.6721 4.85143 10.2319 5.04153 9.82166C5.31167 9.22134 5.80193 8.7611 6.41226 8.53098L17.208 4.4288C17.8183 4.19868 18.4887 4.21869 19.089 4.48884C19.6893 4.75898 20.1495 5.23923 20.3797 5.85956L21.8404 9.7116C22.3207 10.9823 21.6803 12.403 20.4097 12.8833L17.3981 14.0239L18.8488 17.8559L20.5598 17.2056C20.98 17.0455 21.4502 17.2556 21.6203 17.6758C21.7804 18.096 21.5703 18.5763 21.1501 18.7364L18.6688 19.6769C18.5687 19.7169 18.4787 19.7269 18.3786 19.7269C18.2986 19.7269 18.2185 19.7169 18.1385 19.6869C17.9083 19.6169 17.7082 19.4368 17.6182 19.1966L15.8773 14.5942L9.63396 16.9654C9.35381 17.0755 9.05366 17.1255 8.7635 17.1255C8.42332 17.1255 8.08314 17.0555 7.75297 16.9054C7.34275 16.7253 7.01257 16.4352 6.75244 16.075L5.42173 16.5852C5.53179 16.9855 5.33168 17.4157 4.93147 17.5658C4.83142 17.6058 4.74137 17.6158 4.64132 17.6158C4.34116 17.6158 4.06101 17.4357 3.91093 17.1555H3.90092L2.00992 12.1629H2.02993C1.91987 11.7527 2.11998 11.3325 2.52019 11.1824L2.51019 11.1924ZM4.63131 14.4741L4.85143 15.0644L6.09209 14.5942L5.3617 12.6632L4.12104 13.1334L4.63131 14.4741Z"/>
</svg>
