<svg width="24" height="24" viewBox="0 0 24 24" fill="black" xmlns="http://www.w3.org/2000/svg">
<path d="M16.2801 14.0331C15.9154 14.0331 15.6127 14.328 15.6127 14.7005C15.6127 15.073 15.9076 15.368 16.2801 15.368C16.6526 15.368 16.9476 15.073 16.9476 14.7005C16.9476 14.328 16.6526 14.0331 16.2801 14.0331Z"/>
<path d="M20.8048 7.87087H14.5339V8.67025H20.8048C21.0221 8.67025 21.2006 8.85651 21.2006 9.07382V10.8356C21.2006 11.0529 21.0221 11.2391 20.8048 11.2391H14.5339V15.0963C14.5339 15.7793 14.402 16.439 14.1691 17.0366C14.8055 17.3625 15.5195 17.541 16.2801 17.541C18.8956 17.541 21.0298 15.4068 21.0298 12.7913C21.0298 12.5352 21.0065 12.2791 20.96 12.023C21.5498 11.9454 21.9999 11.4409 21.9999 10.8356V9.07382C21.9999 8.41413 21.4644 7.87087 20.8048 7.87087ZM16.2801 16.1673C15.473 16.1673 14.8211 15.5077 14.8211 14.7005C14.8211 13.8934 15.473 13.2415 16.2801 13.2415C17.0873 13.2415 17.7469 13.8934 17.7469 14.7005C17.7469 15.5077 17.0873 16.1673 16.2801 16.1673Z"/>
<path d="M12.8265 6.09361C12.3608 6.11689 12.0271 6.53598 12.0271 7.00164V12.0695C12.0271 12.2015 11.9262 12.3024 11.7943 12.3024C11.6623 12.3024 11.5615 12.2015 11.5615 12.0695V6.07032C11.5615 5.60467 11.2277 5.19334 10.7621 5.16229C10.2731 5.13901 9.85404 5.52706 9.85404 6.016V12.0928C9.85404 12.2248 9.75315 12.3257 9.62121 12.3257C9.48928 12.3257 9.38838 12.2248 9.38838 12.0928V5.13901C9.38838 4.67335 9.0469 4.25426 8.58124 4.23098C8.0923 4.20769 7.67321 4.59574 7.67321 5.08468V12.0695C7.67321 12.2015 7.57232 12.3024 7.44038 12.3024C7.30845 12.3024 7.20755 12.2015 7.20755 12.0695V5.99271C7.20755 5.52706 6.87383 5.11573 6.40817 5.08468C5.91923 5.0614 5.50014 5.44945 5.50014 5.93839V13.645L4.02556 11.0839C3.7384 10.595 3.14857 10.3621 2.62859 10.595C2.03099 10.8511 1.82921 11.5806 2.13964 12.1239L4.62315 16.4467C5.22075 18.3637 7.00577 19.7607 9.10123 19.7607C11.6623 19.7607 13.7578 17.6885 13.7578 15.1041V6.9706C13.7578 6.48165 13.3465 6.09361 12.8265 6.09361Z"/>
</svg>
