<svg width="24" height="24" viewBox="0 0 24 24" fill="black" xmlns="http://www.w3.org/2000/svg">
<path d="M12.005 5.18C9.24501 5.18 7.00501 7.42 7.00501 10.17C7.00501 12.26 8.32501 14.14 10.285 14.85C10.845 15.06 11.405 15.16 11.975 15.16C12.545 15.16 13.135 15.06 13.655 14.86C15.665 14.15 17.005 12.27 17.005 10.17C17.005 7.42 14.755 5.18 12.005 5.18ZM12.505 11.57C12.325 11.64 12.155 11.67 11.985 11.67C11.825 11.67 11.675 11.64 11.535 11.59C10.905 11.36 10.495 10.79 10.495 10.17C10.495 9.34 11.175 8.67 12.005 8.67C12.835 8.67 13.505 9.34 13.505 10.17C13.505 10.79 13.105 11.36 12.505 11.57ZM12.005 5.18C9.24501 5.18 7.00501 7.42 7.00501 10.17C7.00501 12.26 8.32501 14.14 10.285 14.85C10.845 15.06 11.405 15.16 11.975 15.16C12.545 15.16 13.135 15.06 13.655 14.86C15.665 14.15 17.005 12.27 17.005 10.17C17.005 7.42 14.755 5.18 12.005 5.18ZM12.505 11.57C12.325 11.64 12.155 11.67 11.985 11.67C11.825 11.67 11.675 11.64 11.535 11.59C10.905 11.36 10.495 10.79 10.495 10.17C10.495 9.34 11.175 8.67 12.005 8.67C12.835 8.67 13.505 9.34 13.505 10.17C13.505 10.79 13.105 11.36 12.505 11.57ZM17.535 16.16C19.145 14.67 20.165 12.53 20.165 10.17C20.165 5.66 16.505 2 12.005 2C7.50501 2 3.83501 5.66 3.83501 10.17C3.83501 12.53 4.84501 14.67 6.45501 16.17L5.23501 17.92C4.70501 18.68 4.63501 19.58 5.05501 20.38C5.57501 21.39 6.70501 22 8.01501 22H15.985C17.285 22 18.425 21.39 18.945 20.38C19.365 19.58 19.295 18.68 18.765 17.92L17.535 16.16ZM5.50501 10.17C5.50501 6.59 8.41501 3.68 12.005 3.68C15.595 3.68 18.505 6.59 18.505 10.17C18.505 12.9 16.765 15.36 14.175 16.27C13.485 16.53 12.735 16.66 11.975 16.66C11.215 16.66 10.485 16.53 9.78501 16.26C7.24501 15.35 5.50501 12.89 5.50501 10.17ZM17.705 19.74C17.425 20.27 16.755 20.6 15.985 20.6H8.01501C7.23501 20.6 6.56501 20.27 6.29501 19.74C6.16501 19.51 6.08501 19.13 6.37501 18.72L7.56501 17.02C8.84501 17.85 10.365 18.33 12.005 18.33C13.645 18.33 15.165 17.85 16.435 17.02L17.625 18.72C17.905 19.13 17.825 19.51 17.705 19.74ZM10.285 14.85C10.845 15.06 11.405 15.16 11.975 15.16C12.545 15.16 13.135 15.06 13.655 14.86C15.665 14.15 17.005 12.27 17.005 10.17C17.005 7.42 14.755 5.18 12.005 5.18C9.25501 5.18 7.00501 7.42 7.00501 10.17C7.00501 12.26 8.32501 14.14 10.285 14.85ZM12.005 8.67C12.835 8.67 13.505 9.34 13.505 10.17C13.505 10.79 13.105 11.36 12.505 11.57C12.325 11.64 12.155 11.67 11.985 11.67C11.825 11.67 11.675 11.64 11.535 11.59C10.905 11.36 10.495 10.79 10.495 10.17C10.495 9.34 11.175 8.67 12.005 8.67Z"/>
</svg>
