<svg width="24" height="24" viewBox="0 0 24 24" fill="black" xmlns="http://www.w3.org/2000/svg">
<path d="M17.2113 7.63683C17.2797 7.62706 17.3481 7.62706 17.4164 7.63683C18.9307 7.58798 20.1323 6.3473 20.1421 4.8233C20.1421 3.26023 18.8721 2 17.3188 2C15.7655 2 14.4955 3.27 14.4955 4.8233C14.4955 6.3766 15.6971 7.58798 17.2113 7.63683Z"/>
<path d="M20.6012 10.6946C19.4973 9.9619 17.9635 9.68836 16.5177 9.88375C16.928 10.6946 17.1429 11.6227 17.1429 12.5996C17.1331 13.5374 16.9378 14.4264 16.5665 15.2275C17.9831 15.4131 19.5168 15.1396 20.611 14.4069C22.1447 13.3811 22.1447 11.7106 20.6012 10.6946Z"/>
<path d="M6.5824 7.63683C6.65079 7.62706 6.71917 7.62706 6.78755 7.63683C8.30178 7.58798 9.50339 6.3473 9.50339 4.8233C9.50339 3.2993 8.24317 2 6.68009 2C5.11702 2 3.86656 3.26023 3.86656 4.8233C3.86656 6.38637 5.06817 7.58798 6.5824 7.63683Z"/>
<path d="M3.39764 10.6946C1.85411 11.7204 1.85411 13.3909 3.39764 14.4167C4.45271 15.1103 5.88879 15.4033 7.26624 15.2568C6.89502 14.446 6.68986 13.5472 6.68986 12.5996C6.68986 11.652 6.90478 10.6848 7.30532 9.86421C5.91809 9.7079 4.44295 9.99121 3.39764 10.6946Z"/>
<path d="M11.8773 15.5499C11.9652 15.5401 12.0532 15.5401 12.1313 15.5499C13.9386 15.4913 15.3649 14.0161 15.3747 12.199C15.3747 10.3429 13.8702 8.83844 12.0141 8.83844C10.1579 8.83844 8.65347 10.3429 8.6437 12.199C8.6437 14.0161 10.0798 15.4913 11.8773 15.5499Z"/>
<path d="M15.0718 17.5721C13.4013 16.4487 10.6464 16.4487 8.95632 17.5721C7.48117 18.5588 7.48117 20.1805 8.95632 21.1574C10.6366 22.2809 13.3915 22.2809 15.0718 21.1574C16.547 20.1707 16.547 18.549 15.0718 17.5721Z"/>
</svg>
