<svg width="24" height="24" viewBox="0 0 24 24" fill="black" xmlns="http://www.w3.org/2000/svg">
<path d="M2.13889 11.482C2.23148 11.3258 2.3588 11.1927 2.52083 11.1059L10.7037 6.35473C11.375 5.967 12.2894 6.4126 12.2894 7.25172V11.0712L20.4144 6.35473C21.0799 5.96121 22 6.40681 22 7.24593V16.7482C22 17.5874 21.0799 18.033 20.4144 17.6452L12.2894 12.9288V16.7482C12.2894 17.5874 11.3692 18.033 10.7037 17.6452L2.52083 12.8941C2.36458 12.8015 2.23148 12.6742 2.13889 12.5179C2.0463 12.3617 2 12.1823 2 12.0029C2 11.8235 2.0463 11.6441 2.13889 11.4878V11.482Z"/>
</svg>
