<svg width="24" height="24" viewBox="0 0 24 24" fill="black" xmlns="http://www.w3.org/2000/svg">
<path d="M12 16.6527C12.6422 16.6527 13.1628 16.1321 13.1628 15.4899C13.1628 14.8477 12.6422 14.3271 12 14.3271C11.3578 14.3271 10.8372 14.8477 10.8372 15.4899C10.8372 16.1321 11.3578 16.6527 12 16.6527Z"/>
<path d="M19.907 3.55505H4.09302C2.93953 3.55505 2 4.49459 2 5.64808V8.73645C2 9.79691 2.7907 10.6713 3.81395 10.8109C3.73953 11.2574 3.70233 11.7039 3.70233 12.1504C3.70233 16.7271 7.42326 20.4481 12 20.4481C16.5767 20.4481 20.2977 16.7271 20.2977 12.1504C20.2977 11.7039 20.2605 11.2574 20.186 10.8109C21.2093 10.6713 22 9.79691 22 8.73645V5.64808C22 4.49459 21.0605 3.55505 19.907 3.55505ZM12 18.0481C10.586 18.0481 9.44186 16.9039 9.44186 15.4899C9.44186 14.076 10.586 12.9318 12 12.9318C13.414 12.9318 14.5581 14.076 14.5581 15.4899C14.5581 16.9039 13.414 18.0481 12 18.0481ZM20.6047 8.73645C20.6047 9.11784 20.2884 9.43412 19.907 9.43412H4.09302C3.71163 9.43412 3.39535 9.11784 3.39535 8.73645V5.64808C3.39535 5.26668 3.71163 4.9504 4.09302 4.9504H19.907C20.2884 4.9504 20.6047 5.26668 20.6047 5.64808V8.73645Z"/>
</svg>
