<svg width="24" height="24" viewBox="0 0 24 24" fill="black" xmlns="http://www.w3.org/2000/svg">
<path d="M21.98 14.3801V14.3201L19.72 3.41005C19.63 2.99005 19.26 2.68005 18.83 2.68005H5.2C4.77 2.68005 4.4 2.98005 4.31 3.40005L2.02 14.3101V14.3701C2.02 14.3701 2 14.4401 2 14.5001V20.4101C2 20.9101 2.41 21.3201 2.91 21.3201H21.09C21.59 21.3201 22 20.9101 22 20.4101V14.5001C22 14.5001 22 14.4201 21.98 14.3801ZM20.18 19.5001H3.82V15.4101H20.18V19.5001Z"/>
<path d="M17.23 18.8201C17.59 18.8201 17.94 18.6701 18.19 18.4201C18.44 18.1701 18.59 17.8201 18.59 17.4601C18.59 17.1001 18.44 16.7501 18.19 16.5001C17.67 15.9801 16.78 15.9801 16.26 16.5001C16.01 16.7501 15.86 17.1001 15.86 17.4601C15.86 17.8201 16.01 18.1701 16.26 18.4201C16.51 18.6701 16.86 18.8201 17.22 18.8201H17.23Z"/>
</svg>
