<svg width="24" height="24" viewBox="0 0 24 24" fill="black" xmlns="http://www.w3.org/2000/svg">
<path d="M21.375 15H20.7447V14.9684C20.7447 11.8059 19.0547 9.03469 16.5325 7.5H19.6734C19.89 7.87188 20.2887 8.125 20.75 8.125C21.4403 8.125 22 7.56531 22 6.875C22 6.18469 21.4403 5.625 20.75 5.625C20.2884 5.625 19.89 5.87812 19.6734 6.25H13.875V5.625C13.875 5.28 13.595 5 13.25 5H10.75C10.405 5 10.125 5.28 10.125 5.625V6.25H4.32656C4.11 5.87812 3.71152 5.625 3.25 5.625C2.55969 5.625 2 6.18469 2 6.875C2 7.56531 2.55969 8.125 3.25 8.125C3.71154 8.125 4.11 7.87188 4.32656 7.5H7.46719C4.945 9.035 3.25533 11.8059 3.25533 14.9684V15H2.625C2.28 15 2 15.28 2 15.625V18.125C2 18.47 2.28 18.75 2.625 18.75H5.125C5.47 18.75 5.75 18.47 5.75 18.125V15.625C5.75 15.28 5.47 15 5.125 15H4.50533V14.9684C4.50533 11.4831 6.89721 8.54906 10.125 7.71469V8.125C10.125 8.47 10.405 8.75 10.75 8.75H13.25C13.595 8.75 13.875 8.47 13.875 8.125V7.71469C17.1028 8.54938 19.4947 11.4834 19.4947 14.9684V15H18.875C18.53 15 18.25 15.28 18.25 15.625V18.125C18.25 18.47 18.53 18.75 18.875 18.75H21.375C21.72 18.75 22 18.47 22 18.125V15.625C22 15.28 21.72 15 21.375 15ZM4.5 17.5H3.25V16.25H4.5V17.5ZM12.625 7.5H11.375V6.25H12.625V7.5ZM20.75 17.5H19.5V16.25H20.75V17.5Z"/>
</svg>
