<svg width="24" height="24" viewBox="0 0 24 24" fill="black" xmlns="http://www.w3.org/2000/svg">
<path d="M8.32644 20.3908H4.18851C3.86667 20.3908 3.6092 20.1333 3.6092 19.8207V15.6828C3.6092 15.2414 3.25057 14.8736 2.8092 14.8736C2.36782 14.8736 2 15.2414 2 15.6828V19.8207C2 21.0253 2.98391 22 4.18851 22H8.32644C8.76782 22 9.12644 21.6414 9.12644 21.2C9.12644 20.7586 8.76782 20.3908 8.32644 20.3908Z"/>
<path d="M2.8092 9.12644C3.25057 9.12644 3.6092 8.76782 3.6092 8.32644V4.18851C3.6092 3.87586 3.86667 3.6092 4.18851 3.6092H8.32644C8.76782 3.6092 9.12644 3.25057 9.12644 2.8092C9.12644 2.36782 8.76782 2 8.32644 2H4.18851C2.98391 2 2 2.98391 2 4.18851V8.32644C2 8.76782 2.35862 9.12644 2.8092 9.12644Z"/>
<path d="M21.2 14.8736C20.7494 14.8736 20.3908 15.2414 20.3908 15.6828V19.8207C20.3908 20.1333 20.1333 20.3908 19.8207 20.3908H15.6828C15.2322 20.3908 14.8736 20.7586 14.8736 21.2C14.8736 21.6414 15.2322 22 15.6828 22H19.8207C21.0253 22 22 21.0253 22 19.8207V15.6828C22 15.2414 21.6414 14.8736 21.2 14.8736Z"/>
<path d="M19.8207 2H15.6828C15.2322 2 14.8736 2.36782 14.8736 2.8092C14.8736 3.25057 15.2322 3.6092 15.6828 3.6092H19.8207C20.1333 3.6092 20.3908 3.87586 20.3908 4.18851V8.32644C20.3908 8.76782 20.7494 9.12644 21.2 9.12644C21.6506 9.12644 22 8.76782 22 8.32644V4.18851C22 2.98391 21.0253 2 19.8207 2Z"/>
<path d="M17.9792 10.9904C17.9792 10.5724 17.9827 10.1544 17.9788 9.73636C17.9633 8.07509 17.2738 6.77383 15.8561 5.89959C14.3873 4.99442 12.7905 4.8011 11.1245 5.19075C10.4273 5.354 9.82885 5.69467 9.46326 6.35239C9.44178 6.39105 9.38335 6.41941 9.33652 6.4323C7.96051 6.81077 7.08413 7.86201 7.02699 9.29301C6.98489 10.3468 7.00121 11.4036 7.01367 12.4587C7.01797 12.8041 7.06608 13.1543 7.13869 13.4928C7.47291 15.0505 8.29861 16.3406 9.40182 17.4537C11.0721 19.1395 13.7485 19.1184 15.3862 17.6268C16.0147 17.0542 16.5023 16.3737 16.9503 15.6584C17.4813 14.8108 17.8452 13.9018 17.9264 12.9004C17.9779 12.2658 17.9771 11.6275 17.9999 10.9908C17.993 10.9908 17.9861 10.9908 17.9792 10.9904ZM16.5268 13.0692C16.3682 14.0448 15.8806 14.8658 15.3101 15.6421C15.0549 15.9892 14.7693 16.3251 14.4483 16.6113C13.3228 17.6148 11.6327 17.629 10.5184 16.6143C9.51309 15.6992 8.78835 14.5835 8.49365 13.2398C8.38925 12.7646 8.40601 12.262 8.37808 11.7714C8.37551 11.7284 8.44639 11.6601 8.49751 11.6378C8.99929 11.423 9.46798 11.1532 9.85677 10.7695C10.1132 10.5161 10.3358 10.2282 10.5828 9.94471C10.9239 10.4078 11.3294 10.8237 11.8196 11.1523C12.4679 11.5875 13.1836 11.8118 13.9629 11.8298C14.3813 11.8397 14.5978 11.6013 14.5566 11.1837C14.5643 11.1828 14.5751 11.1781 14.5798 11.1815C15.003 11.4891 15.4764 11.5922 15.9923 11.5488C16.1882 11.5325 16.3867 11.5463 16.5981 11.5463C16.611 12.0605 16.6088 12.5653 16.5268 13.0692Z"/>
<path d="M13.5651 14.4942C12.9039 15.0883 12.0795 15.0909 11.4218 14.5011C11.1774 14.282 10.8663 14.282 10.6631 14.5015C10.4642 14.7167 10.4818 15.0213 10.713 15.2473C11.207 15.7301 11.8016 15.9737 12.4941 15.9849C13.1823 15.9716 13.7769 15.7276 14.2701 15.2438C14.4973 15.0213 14.5119 14.7094 14.3122 14.4976C14.112 14.2854 13.7992 14.2837 13.5651 14.4942Z"/>
</svg>
