<svg width="24" height="24" viewBox="0 0 24 24" fill="black" xmlns="http://www.w3.org/2000/svg">
<path d="M13.087 22C13.7963 21.2607 14.3557 20.4515 14.6854 19.4925C15.3048 17.6743 15.1549 15.9261 14.1959 14.2577C13.4966 13.039 12.5376 12.05 11.3687 11.2807C11.2988 11.2308 11.2289 11.1908 11.1489 11.1508C11.129 11.1508 11.109 11.1508 11.049 11.1508C11.139 13.2188 10.8492 15.2268 10.11 17.2847C9.78032 16.7153 9.49061 16.2058 9.2009 15.7063C9.02108 16.0659 8.85125 17.1149 8.86124 17.9141C8.86124 18.6933 8.98112 19.4525 9.29081 20.1818C9.59051 20.9011 10.06 21.4905 10.6594 21.99C9.86024 21.8501 9.12098 21.5604 8.43167 21.1608C6.36373 19.972 4.92517 18.2637 4.31578 15.9361C3.92617 14.4775 4.16593 13.029 4.61548 11.6104C4.76533 11.1309 4.95514 10.6613 5.15494 10.2018C5.48461 9.42258 5.64445 8.61339 5.65444 7.69431C6.55354 8.41359 7.13297 9.29271 7.58252 10.3916C7.65245 8.95305 8.44166 7.91409 9.07103 6.81518C9.63047 5.84615 9.96014 4.82717 9.85025 3.6983C9.79031 3.12887 9.63047 2.57942 9.52058 2C9.53057 2 9.59051 2 9.64046 2.00999C12.9771 3.13886 15.4447 5.24675 16.8632 8.49351C17.4327 9.8022 17.5825 11.1908 17.4626 12.6194C17.4626 12.6793 17.4626 12.7393 17.4626 12.8092C17.4626 12.8092 17.4726 12.8192 17.5026 12.8392C18.1819 12 18.7014 11.0609 19.1609 9.98202C20.11 12.3796 20.13 14.6973 19.121 16.985C17.9521 19.6523 15.9042 21.2907 13.087 21.98V22Z"/>
</svg>
