<svg width="24" height="24" viewBox="0 0 24 24" fill="black" xmlns="http://www.w3.org/2000/svg">
<path d="M19.1284 11.3363C19.6581 11.103 20 10.5788 20 10C20 9.4212 19.6581 8.89703 19.1284 8.66371L5.70444 2.75076C4.90154 2.39711 4 2.98513 4 3.86246C4 4.35002 4.2915 4.79033 4.74034 4.98075L16.5714 10L4.74034 15.0193C4.2915 15.2097 4 15.65 4 16.1375C4 17.0149 4.90154 17.6029 5.70444 17.2492L19.1284 11.3363Z"/>
<path d="M18.8 22C19.4627 22 20 21.4627 20 20.8C20 20.1373 19.4627 19.6 18.8 19.6H5.2C4.53726 19.6 4 20.1373 4 20.8C4 21.4627 4.53726 22 5.2 22H18.8Z"/>
</svg>
