<svg width="24" height="24" viewBox="0 0 24 24" fill="black" xmlns="http://www.w3.org/2000/svg">
<path d="M20.032 6.81774L14.2777 2.78774C12.7093 1.68774 10.3017 1.74774 8.79321 2.91774L3.78821 6.82774C2.78921 7.60774 2 9.20774 2 10.4677V17.3677C2 19.9177 4.06793 21.9977 6.61538 21.9977H17.3846C19.9321 21.9977 22 19.9277 22 17.3777V10.5977C22 9.24774 21.1309 7.58774 20.032 6.81774ZM12.7493 17.9977C12.7493 18.4077 12.4096 18.7477 12 18.7477C11.5904 18.7477 11.2507 18.4077 11.2507 17.9977V14.9977C11.2507 14.5877 11.5904 14.2477 12 14.2477C12.4096 14.2477 12.7493 14.5877 12.7493 14.9977V17.9977Z"/>
</svg>
