<svg width="24" height="24" viewBox="0 0 24 24" fill="black" xmlns="http://www.w3.org/2000/svg">
<path d="M9.78 19.7778C9.78 21 10.78 22 12.0022 22C13.2244 22 14.2244 21 14.2244 19.7778C14.2244 18.5556 13.2244 17.5556 12.0022 17.5556C10.78 17.5556 9.78 18.5556 9.78 19.7778Z"/>
<path d="M9.78 4.22222C9.78 5.44444 10.78 6.44444 12.0022 6.44444C13.2244 6.44444 14.2244 5.44444 14.2244 4.22222C14.2244 3 13.2244 2 12.0022 2C10.78 2 9.78 3 9.78 4.22222Z"/>
<path d="M9.78 12C9.78 13.2222 10.78 14.2222 12.0022 14.2222C13.2244 14.2222 14.2244 13.2222 14.2244 12C14.2244 10.7778 13.2244 9.77778 12.0022 9.77778C10.78 9.77778 9.78 10.7778 9.78 12Z"/>
</svg>
