<svg width="24" height="24" viewBox="0 0 24 24" fill="black" xmlns="http://www.w3.org/2000/svg">
<path d="M21.8611 11.482C21.7685 11.3258 21.6412 11.1927 21.4792 11.1059L13.2963 6.35473C12.625 5.967 11.7106 6.4126 11.7106 7.25172V11.0712L3.58565 6.35473C2.92014 5.96121 2 6.40681 2 7.24593V16.7482C2 17.5874 2.92014 18.033 3.58565 17.6452L11.7106 12.9288V16.7482C11.7106 17.5874 12.6308 18.033 13.2963 17.6452L21.4792 12.8941C21.6354 12.8015 21.7685 12.6742 21.8611 12.5179C21.9537 12.3617 22 12.1823 22 12.0029C22 11.8235 21.9537 11.6441 21.8611 11.4878V11.482Z"/>
</svg>
