<svg width="24" height="24" viewBox="0 0 24 24" fill="black" xmlns="http://www.w3.org/2000/svg">
<path d="M12 2C6.4878 2 2 6.4878 2 12C2 17.5122 6.4878 22 12 22C17.5122 22 22 17.5122 22 12C22 6.4878 17.5122 2 12 2ZM11.0732 8.37073C11.0732 7.86341 11.4927 7.4439 12 7.4439C12.5073 7.4439 12.9268 7.86341 12.9268 8.37073V12.9073C12.9268 13.4146 12.5073 13.8341 12 13.8341C11.4927 13.8341 11.0732 13.4146 11.0732 12.9073V8.37073ZM13.0634 16.0683C13.0049 16.2244 12.9268 16.3317 12.8293 16.439V16.4585C12.722 16.5561 12.5951 16.6341 12.4585 16.6927C12.322 16.7512 12.1756 16.7805 12.0195 16.7805C11.8634 16.7805 11.7171 16.7415 11.5805 16.6927C11.4439 16.6341 11.3268 16.5561 11.2098 16.4585V16.439C11.1122 16.3317 11.0341 16.2244 10.9756 16.0683C10.9171 15.9317 10.8878 15.7854 10.8878 15.639C10.8878 15.4829 10.9268 15.3268 10.9756 15.2C11.0341 15.0634 11.1122 14.9463 11.2098 14.8293V14.8098C11.3171 14.7122 11.4439 14.6341 11.5805 14.5756C11.8634 14.4585 12.1756 14.4585 12.4585 14.5756C12.5951 14.6341 12.7122 14.7122 12.8293 14.8098V14.8293C12.9268 14.9366 13.0049 15.0634 13.0634 15.2C13.122 15.3366 13.1512 15.4829 13.1512 15.639C13.1512 15.7951 13.1122 15.9415 13.0634 16.078V16.0683Z"/>
</svg>
