<svg width="24" height="24" viewBox="0 0 24 24" fill="black" xmlns="http://www.w3.org/2000/svg">
<path d="M15.5804 16.3019L14.8651 16.1295C14.0724 15.9399 13.5898 15.1213 13.7708 14.3113L13.8914 13.8202L12.4007 12.3294C12.2628 12.8292 12.1249 13.4841 12.1249 14.6474L8.43688 14.8456C8.35933 13.9408 8.16114 13.4583 7.98018 13.0446C7.79922 12.6138 7.62688 12.2519 7.60103 11.5453C7.56657 10.4682 8.01465 9.36519 8.67816 8.61551L6.6704 6.59914C5.48126 8.07264 4.76605 9.95976 4.76605 12.002C4.76605 16.7586 8.62645 20.619 13.383 20.619C15.4252 20.619 17.3124 19.9038 18.7859 18.7146L16.3473 16.276C16.106 16.3536 15.8475 16.3622 15.5804 16.3019ZM10.7635 18.2148L10.031 18.2493C9.22103 18.2838 8.54028 17.6375 8.51443 16.8016L8.47135 15.5694L12.1422 15.3712L12.1853 16.6465C12.2111 17.4824 11.5735 18.1804 10.7635 18.2148Z"/>
<path d="M13.383 3.38501C11.4442 3.38501 9.66049 4.02267 8.22146 5.09979C7.87678 5.3583 7.54933 5.64266 7.24774 5.95287L9.32443 8.03818L19.4235 18.1373C19.7337 17.8443 20.0181 17.5168 20.2852 17.1636C21.3623 15.7245 22 13.9408 22 12.002C22 7.24541 18.1396 3.38501 13.383 3.38501ZM10.7807 7.65903C11.6424 7.7452 12.3059 8.27945 12.5816 9.45998L10.7807 7.65903ZM17.5278 14.4061L16.916 13.7943L17.6312 13.9753L17.5278 14.4061ZM19.2512 10.1924C18.941 11.5625 18.2947 11.5108 17.8035 13.2687L15.9164 12.7947L14.3826 11.2609C14.5291 9.76157 14.1499 9.40828 14.4171 8.2536C14.9082 6.13383 15.994 5.52202 17.2434 5.82361C18.6738 6.16829 19.682 8.34839 19.2512 10.1924Z"/>
<path d="M2.49117 3.38501C2.21542 3.38501 2 3.60043 2 3.86756V4.84128C2 5.1084 2.21542 5.33245 2.49117 5.33245C2.76691 5.33245 2.97372 5.11702 2.97372 4.8499V3.86756C2.97372 3.60043 2.75829 3.38501 2.49117 3.38501Z"/>
<path d="M2.48255 6.96105C2.74968 6.96105 2.9651 6.74563 2.9651 6.4785C2.9651 6.21138 2.74106 5.99595 2.48255 5.99595C2.22404 5.99595 2 6.21999 2 6.4785C2 6.73701 2.22404 6.96105 2.48255 6.96105Z"/>
<path d="M2.48255 14.5095C2.74968 14.5095 2.9651 14.2855 2.9651 14.027V8.12435C2.9651 7.8486 2.74106 7.6418 2.48255 7.6418C2.22404 7.6418 2 7.85722 2 8.12435V14.027C2 14.2941 2.22404 14.5095 2.48255 14.5095Z"/>
<path d="M2.97372 17.2756C2.97372 17.0085 2.74968 16.793 2.49117 16.793C2.23266 16.793 2.00862 17.0171 2.00862 17.2756V20.1278C2.00862 20.3949 2.22404 20.6103 2.49117 20.6103C2.75829 20.6103 2.97372 20.3949 2.97372 20.1278V17.2756Z"/>
<path d="M2.48255 16.1554C2.74968 16.1554 2.9651 15.9399 2.9651 15.6728C2.9651 15.4057 2.74106 15.1903 2.48255 15.1903C2.22404 15.1903 2 15.4143 2 15.6728C2 15.9313 2.22404 16.1554 2.48255 16.1554Z"/>
</svg>
