<svg width="24" height="24" viewBox="0 0 24 24" fill="black" xmlns="http://www.w3.org/2000/svg">
<path d="M18 20.5H5.99999C5.58999 20.5 5.24999 20.84 5.24999 21.25C5.24999 21.66 5.58999 22 5.99999 22H18C18.41 22 18.75 21.66 18.75 21.25C18.75 20.84 18.41 20.5 18 20.5Z"/>
<path d="M12 18.45C14.28 16.73 15.98 15.09 17.09 13.52C18.2 11.95 18.75 10.41 18.75 8.9C18.75 7.77 18.55 6.77 18.14 5.91C17.73 5.05 17.2 4.33 16.55 3.75C15.9 3.17 15.17 2.73 14.37 2.44C13.57 2.15 12.78 2 11.99 2C11.2 2 10.42 2.15 9.60999 2.44C8.80999 2.73 8.08999 3.17 7.43999 3.75C6.78999 4.33 6.25999 5.05 5.84999 5.91C5.43999 6.77 5.23999 7.76 5.23999 8.9C5.23999 10.42 5.78999 11.96 6.89999 13.52C8.00999 15.09 9.69999 16.73 11.99 18.45H12ZM11.93 6.25H12.9V8.24H15.07V6.25H16.04V11.25H15.07V9.09H12.9V11.25H11.93V6.25ZM8.94999 6.25V10.39H11.24V11.25H7.96999V6.25H8.94999Z"/>
</svg>
