<svg width="24" height="24" viewBox="0 0 24 24" fill="black" xmlns="http://www.w3.org/2000/svg">
<path d="M4.87158 11.3363C4.34188 11.103 4 10.5788 4 10C4 9.4212 4.34188 8.89703 4.87158 8.66371L18.2956 2.75076C19.0985 2.39711 20 2.98513 20 3.86246C20 4.35002 19.7085 4.79033 19.2597 4.98075L7.42857 10L19.2597 15.0193C19.7085 15.2097 20 15.65 20 16.1375C20 17.0149 19.0985 17.6029 18.2956 17.2492L4.87158 11.3363Z"/>
<path d="M5.2 22C4.53726 22 4 21.4627 4 20.8C4 20.1373 4.53726 19.6 5.2 19.6H18.8C19.4627 19.6 20 20.1373 20 20.8C20 21.4627 19.4627 22 18.8 22H5.2Z"/>
</svg>
