<svg width="24" height="24" viewBox="0 0 24 24" fill="black" xmlns="http://www.w3.org/2000/svg">
<path d="M10.0728 22C8.83335 22 7.59387 22 6.3544 22C5.83462 22 5.68468 21.7901 5.81462 21.2803C6.16448 19.9409 6.52433 18.6014 6.84419 17.252C7.01412 16.5323 6.90417 15.8326 6.53432 15.1829C6.23445 14.6631 5.90459 14.1633 5.57473 13.6535C4.81505 12.494 4.23529 11.2645 3.94541 9.90509C3.44562 7.5161 4.2053 5.55692 6.01454 3.96759C7.65385 2.54819 9.58304 1.91845 11.7421 2.00842C12.9216 2.0584 14.0711 2.2783 15.1307 2.81808C16.6001 3.56776 17.4897 4.80724 18.0195 6.33659C18.3693 7.34617 18.5193 8.39573 18.5393 9.46528C18.5393 9.58523 18.5792 9.72517 18.6492 9.83512C19.079 10.5148 19.5288 11.1945 19.9687 11.8743C20.2585 12.3241 20.3085 12.7739 19.9987 13.2437C19.9187 13.3636 19.8887 13.5336 19.8487 13.6835C19.5089 14.883 19.169 16.0825 18.5992 17.192C18.4393 17.5119 18.2294 17.8218 18.0295 18.1116C17.6596 18.6314 17.1399 18.8813 16.5001 18.8913C16.1003 18.8913 15.7005 18.8913 15.3006 18.8913C14.7908 18.9013 14.5409 19.0712 14.461 19.571C14.391 20.0608 14.401 20.5706 14.391 21.0804C14.391 21.2103 14.411 21.3503 14.421 21.4802C14.431 21.8101 14.2711 21.98 13.9512 21.99C13.5514 21.99 13.1515 21.99 12.7517 21.99C11.8621 21.99 10.9725 21.99 10.0828 21.99L10.0728 22ZM11.4123 11.3745C12.002 11.6644 12.5718 11.9542 13.1515 12.2241C13.3015 12.2941 13.4914 12.3341 13.6613 12.3141C14.7109 12.1841 15.7205 11.8843 16.6701 11.4045C17.1499 11.1546 17.6197 10.8647 18.0995 10.5948C18.0295 10.4749 17.9895 10.4049 17.9395 10.3349C17.7296 10.085 17.6896 9.79514 17.6696 9.46528C17.6197 8.74558 17.5497 8.01589 17.3997 7.30619C17.1798 6.24663 16.72 5.28704 15.9604 4.49737C15.8704 4.40741 15.8004 4.36742 15.6705 4.4174C15.2806 4.58733 14.8608 4.70728 14.481 4.9072C13.5913 5.39699 13.0516 6.12668 12.9316 7.15625C12.8717 7.69602 12.7817 8.24579 12.6617 8.77557C12.4518 9.72517 12.092 10.6148 11.4223 11.3745H11.4123ZM13.8412 18.7614C13.3914 18.6414 12.9616 18.5415 12.5318 18.4115C12.062 18.2716 11.7221 17.9917 11.5022 17.5319C11.1024 16.6922 10.6426 15.8726 10.2228 15.0429C10.1328 14.863 10.0229 14.803 9.83293 14.813C9.32315 14.843 8.89333 14.6531 8.55347 14.2633C8.53348 14.2433 8.50349 14.2333 8.4835 14.2133C8.19362 14.4732 7.92374 14.7331 7.63386 14.983C7.51391 15.0829 7.50391 15.1729 7.56389 15.3128C7.80379 15.9326 7.89375 16.5723 7.75381 17.212C7.49392 18.4215 7.17405 19.621 6.87418 20.8205C6.85419 20.9205 6.8242 21.0104 6.79421 21.1204H13.5114C13.4714 20.3007 13.4514 19.5011 13.8412 18.7614ZM12.7717 13.0238C12.6517 12.9638 12.5518 12.9138 12.4418 12.8539C11.4622 12.3541 10.4227 11.9442 9.55305 11.2545C9.30316 11.0546 9.09324 11.0846 8.93331 11.3645C8.84335 11.5144 8.79337 11.7143 8.81336 11.8843C8.85334 12.2641 8.9533 12.6439 9.00328 13.0238C9.13323 13.9534 9.48308 13.9834 10.1428 13.9434C10.5226 13.9234 10.7226 14.0633 10.8825 14.4032C11.1824 15.0329 11.5222 15.6527 11.8721 16.3324C12.1819 15.2029 12.4718 14.1333 12.7717 13.0338V13.0238Z"/>
</svg>
