<svg width="24" height="24" viewBox="0 0 24 24" fill="black" xmlns="http://www.w3.org/2000/svg">
<path d="M8.32644 20.3908H4.18851C3.86667 20.3908 3.6092 20.1333 3.6092 19.8207V15.6828C3.6092 15.2414 3.25057 14.8736 2.8092 14.8736C2.36782 14.8736 2 15.2414 2 15.6828V19.8207C2 21.0253 2.98391 22 4.18851 22H8.32644C8.76782 22 9.12644 21.6414 9.12644 21.2C9.12644 20.7586 8.76782 20.3908 8.32644 20.3908Z"/>
<path d="M2.8092 9.12644C3.25057 9.12644 3.6092 8.76782 3.6092 8.32644V4.18851C3.6092 3.87586 3.86667 3.6092 4.18851 3.6092H8.32644C8.76782 3.6092 9.12644 3.25057 9.12644 2.8092C9.12644 2.36782 8.76782 2 8.32644 2H4.18851C2.98391 2 2 2.98391 2 4.18851V8.32644C2 8.76782 2.35862 9.12644 2.8092 9.12644Z"/>
<path d="M19.8207 2H15.6828C15.2322 2 14.8736 2.36782 14.8736 2.8092C14.8736 3.25057 15.2322 3.6092 15.6828 3.6092H19.8207C20.1333 3.6092 20.3908 3.87586 20.3908 4.18851V8.32644C20.3908 8.76782 20.7494 9.12644 21.2 9.12644C21.6506 9.12644 22 8.76782 22 8.32644V4.18851C22 2.98391 21.0253 2 19.8207 2Z"/>
<path d="M18.5977 12.1425V10.0736C18.5977 9.7977 18.5333 9.50345 18.4322 9.2092C18.3862 9.26437 18.331 9.31954 18.2759 9.35632L12.5103 12.6851V15.8207C13.3471 13.6506 15.4621 12.1057 17.9356 12.1057C18.1563 12.1057 18.3862 12.1057 18.5977 12.1425Z"/>
<path d="M17.8713 8.41839C17.8713 8.41839 17.8713 8.41839 17.8805 8.41839C17.9264 8.41839 17.9632 8.4092 18.0092 8.4092C17.7517 8.03218 17.4299 7.71954 17.0805 7.52644L13.4207 5.48506C13.0345 5.27356 12.5379 5.17241 12.0322 5.16322C12.023 5.16322 12.0046 5.16322 11.9954 5.16322C11.9862 5.16322 11.9678 5.16322 11.9586 5.16322C11.4529 5.16322 10.9563 5.27356 10.5701 5.48506L6.91035 7.52644C6.56092 7.71954 6.23908 8.04138 5.98161 8.4092C6.02759 8.4092 6.06437 8.4092 6.11034 8.41839C6.11034 8.41839 6.11034 8.41839 6.11954 8.41839C6.14713 8.41839 6.18391 8.43678 6.21149 8.45517L11.9954 11.8023L17.7793 8.45517C17.7793 8.45517 17.8345 8.42759 17.8713 8.41839Z"/>
<path d="M11.4897 12.6851L5.72414 9.34713C5.65977 9.31034 5.6046 9.25517 5.56782 9.2C5.46667 9.49425 5.4023 9.78851 5.4023 10.0644V13.9448C5.4023 14.892 6.08276 16.0414 6.91035 16.5012L10.5701 18.5425C10.8276 18.6805 11.1402 18.7724 11.4621 18.8184C11.4897 18.8184 11.5172 18.8276 11.5448 18.8368C11.508 18.7724 11.4805 18.6897 11.4805 18.6069V12.6851H11.4897Z"/>
<path d="M17.9356 14.1011C16.731 14.1011 15.7563 15.0759 15.7563 16.2805C15.7563 16.6483 16.0598 16.9609 16.4368 16.9609C16.8138 16.9609 17.1172 16.6575 17.1172 16.2805C17.1172 15.8299 17.4851 15.4529 17.9448 15.4529C18.4046 15.4529 18.7724 15.8207 18.7724 16.2805C18.7724 16.5195 18.6621 16.6667 18.331 16.8966C18.046 17.0989 17.2736 17.6138 17.2736 18.6621V18.8552C17.2736 19.223 17.577 19.5356 17.954 19.5356C18.331 19.5356 18.6345 19.2414 18.6345 18.8552V18.6621C18.6345 18.4046 18.7448 18.2575 19.0943 18.0184C19.3701 17.8253 20.1333 17.3103 20.1333 16.2805C20.1333 15.0759 19.1586 14.1011 17.954 14.1011H17.9356Z"/>
<path d="M17.9356 20.4184C17.5678 20.4184 17.2552 20.7218 17.2552 21.0989C17.2552 21.4759 17.5494 21.7793 17.9356 21.7793C18.3218 21.7793 18.6161 21.4759 18.6161 21.0989C18.6161 20.7218 18.3126 20.4184 17.9356 20.4184Z"/>
</svg>
