<svg width="24" height="24" viewBox="0 0 24 24" fill="black" xmlns="http://www.w3.org/2000/svg">
<path d="M4.22222 9.78003C3 9.78003 2 10.78 2 12.0023C2 13.2245 3 14.2245 4.22222 14.2245C5.44444 14.2245 6.44444 13.2245 6.44444 12.0023C6.44444 10.78 5.44444 9.78003 4.22222 9.78003Z"/>
<path d="M19.7778 9.78003C18.5556 9.78003 17.5556 10.78 17.5556 12.0023C17.5556 13.2245 18.5556 14.2245 19.7778 14.2245C21 14.2245 22 13.2245 22 12.0023C22 10.78 21 9.78003 19.7778 9.78003Z"/>
<path d="M12 9.78003C10.7778 9.78003 9.77778 10.78 9.77778 12.0023C9.77778 13.2245 10.7778 14.2245 12 14.2245C13.2222 14.2245 14.2222 13.2245 14.2222 12.0023C14.2222 10.78 13.2222 9.78003 12 9.78003Z"/>
</svg>
