<svg width="24" height="24" viewBox="0 0 24 24" fill="black" xmlns="http://www.w3.org/2000/svg">
<path d="M12.625 11.24H15.365C15.645 12.42 16.695 13.29 17.955 13.29C19.435 13.29 20.625 12.09 20.625 10.62C20.625 9.15 19.425 7.95 17.955 7.95C16.715 7.95 15.685 8.8 15.385 9.95H12.635V7.25C13.795 6.96 14.655 5.92 14.655 4.67C14.655 3.19 13.455 2 11.985 2C10.515 2 9.315 3.2 9.315 4.67C9.315 5.92 10.175 6.96 11.335 7.25V9.95H8.625C8.335 8.79 7.295 7.93 6.045 7.93C4.565 7.93 3.375 9.13 3.375 10.6C3.375 12.07 4.575 13.27 6.045 13.27C7.295 13.27 8.335 12.41 8.625 11.25H11.335V14.82L9.105 17.05C8.705 16.81 8.235 16.66 7.735 16.66C6.255 16.66 5.065 17.86 5.065 19.33C5.065 20.8 6.265 22 7.735 22C9.205 22 10.405 20.8 10.405 19.33C10.405 18.83 10.255 18.36 10.015 17.96L11.955 16.02L13.895 17.96C13.655 18.36 13.505 18.83 13.505 19.33C13.505 20.81 14.705 22 16.175 22C17.645 22 18.845 20.8 18.845 19.33C18.845 17.86 17.645 16.66 16.175 16.66C15.675 16.66 15.205 16.81 14.805 17.05L12.625 14.87V11.26V11.24Z"/>
</svg>
