<svg width="24" height="24" viewBox="0 0 24 24" fill="black" xmlns="http://www.w3.org/2000/svg">
<path d="M6.17345 12.9247H2.57217C2.25617 12.9247 2 13.1809 2 13.4969V19.8412C2 20.1572 2.25617 20.4134 2.57217 20.4134H6.17345C6.48945 20.4134 6.74561 20.1572 6.74561 19.8412V13.4969C6.74561 13.1809 6.48945 12.9247 6.17345 12.9247Z"/>
<path d="M12.0802 3.58496H8.47894C8.16294 3.58496 7.90677 3.84113 7.90677 4.15713V19.8412C7.90677 20.1572 8.16294 20.4134 8.47894 20.4134H12.0802C12.3962 20.4134 12.6524 20.1572 12.6524 19.8412V4.15713C12.6524 3.84113 12.3962 3.58496 12.0802 3.58496Z"/>
<path d="M18.3909 10.4775C18.5003 10.4775 18.6096 10.4775 18.7106 10.4943V7.86908C18.7106 7.54934 18.4498 7.29692 18.1385 7.29692H14.5372C14.2174 7.29692 13.965 7.54934 13.965 7.86908V12.7325C14.9579 11.361 16.565 10.4775 18.3909 10.4775Z"/>
<path d="M20.1074 13.926C20.6711 13.926 21.1255 13.4717 21.1255 12.9079C21.1255 12.3442 20.6711 11.8898 20.1074 11.8898C19.5436 11.8898 19.0893 12.3442 19.0893 12.9079C19.0893 13.4717 19.5436 13.926 20.1074 13.926Z"/>
<path d="M21.9837 15.4574C21.9501 15.306 21.8491 15.1797 21.7145 15.0956C21.5799 15.0199 21.4284 14.9946 21.2685 15.0283L20.3598 15.2555L19.8213 14.4561C19.6698 14.2289 19.4427 14.0775 19.1734 14.027L17.5158 13.6988C17.297 13.6568 17.0698 13.682 16.8679 13.783C16.666 13.884 16.5061 14.0438 16.4051 14.2458L15.8834 15.2891C15.8161 15.4322 15.7993 15.5836 15.8498 15.7351C15.9003 15.8865 16.0012 16.0043 16.1443 16.0716C16.4304 16.2147 16.7838 16.0969 16.9268 15.8108L17.398 14.8684L17.9197 14.9694L15.8834 18.3603H14.4867C14.1669 18.3603 13.8977 18.6212 13.8977 18.9493C13.8977 19.2775 14.1585 19.5383 14.4867 19.5383H15.9676C16.321 19.5383 16.6576 19.3532 16.8427 19.0419L17.6168 17.7545L19.653 18.1584L20.2757 20.0179C20.3261 20.1694 20.4271 20.2872 20.5702 20.3545C20.6543 20.3966 20.7384 20.4134 20.831 20.4134C20.8899 20.4134 20.9572 20.405 21.0161 20.3797C21.1676 20.3292 21.2854 20.2283 21.3527 20.0852C21.42 19.9422 21.4368 19.7907 21.3863 19.6393L20.7384 17.6956C20.6795 17.5273 20.5786 17.3758 20.4439 17.2581C20.3093 17.1403 20.141 17.0561 19.9728 17.0225L18.8789 16.8037L19.409 15.9286L19.4511 15.9959C19.5689 16.1726 19.7372 16.3072 19.9307 16.383C20.1242 16.4587 20.343 16.4755 20.5449 16.425L21.5546 16.1726C21.7061 16.139 21.8323 16.038 21.9164 15.9034C22.0006 15.7687 22.0174 15.6089 21.9837 15.4574Z"/>
</svg>
