<svg width="24" height="24" viewBox="0 0 24 24" fill="black" xmlns="http://www.w3.org/2000/svg">
<path d="M5.59491 10.554C5.98189 10.554 6.24667 10.3096 6.24667 9.95314C6.24667 9.5967 5.98189 9.36247 5.59491 9.35229C4.61725 9.35229 3.62942 9.35229 2.65177 9.35229C2.26478 9.35229 2 9.5967 2 9.95314C2 10.2994 2.26478 10.5438 2.65177 10.554C3.14059 10.554 3.61924 10.554 4.10806 10.554C4.59689 10.554 5.10608 10.554 5.59491 10.554Z"/>
<path d="M3.94512 8.17096C4.41358 8.17096 4.88204 8.17096 5.36068 8.17096C5.83932 8.17096 6.31796 8.17096 6.7966 8.17096C7.18359 8.17096 7.45855 7.92655 7.45855 7.5803C7.45855 7.22386 7.19377 6.97945 6.78642 6.97945C5.83932 6.97945 4.89222 6.97945 3.94512 6.97945C3.55813 6.97945 3.28317 7.22386 3.28317 7.57011C3.28317 7.92655 3.54795 8.17096 3.9553 8.17096H3.94512Z"/>
<path d="M6.78642 12.9472C7.17341 12.9472 7.44837 12.7028 7.44837 12.3565C7.44837 12.0001 7.18359 11.7557 6.78642 11.7557C6.31796 11.7557 5.8495 11.7557 5.37086 11.7557C4.89222 11.7557 4.41358 11.7557 3.93494 11.7557C3.53776 11.7557 3.27298 11.9899 3.27298 12.3463C3.27298 12.7028 3.53776 12.9472 3.93494 12.9472C4.88204 12.9472 5.82913 12.9472 6.77624 12.9472H6.78642Z"/>
<path d="M17.897 6.3786C19.0219 6.3786 19.9338 5.46671 19.9338 4.34183C19.9338 3.21695 19.0219 2.30505 17.897 2.30505C16.7721 2.30505 15.8602 3.21695 15.8602 4.34183C15.8602 5.46671 16.7721 6.3786 17.897 6.3786Z"/>
<path d="M21.9706 10.4521C21.8382 9.90222 21.2781 9.57634 20.7383 9.70873L18.3451 10.3096L16.9397 8.20151C16.6444 7.75342 16.1759 7.43772 15.6464 7.33588L11.7256 6.55173C11.2877 6.46007 10.8294 6.52118 10.4322 6.71467C10.0351 6.90816 9.70919 7.23405 9.50551 7.63122L8.27326 10.0957C8.01867 10.5947 8.22234 11.2058 8.73154 11.4604C9.23055 11.7149 9.85176 11.5113 10.0962 11.0021L11.3284 8.53758L13.3346 8.93475L8.15106 17.5809H4.65799C4.09788 17.5809 3.6396 18.0391 3.6396 18.5992C3.6396 19.1594 4.09788 19.6176 4.65799 19.6176H8.15106C8.86393 19.6176 9.52588 19.2408 9.90268 18.6298L11.858 15.371L17.123 16.4199L18.6506 21.0026C18.8238 21.5322 19.4042 21.8275 19.9338 21.6442C20.4634 21.4711 20.7587 20.8906 20.5754 20.3611L19.0478 15.7783C18.9358 15.4422 18.7321 15.1367 18.4673 14.8923C18.2025 14.6581 17.8665 14.4951 17.5202 14.4239L14.4243 13.8026L16.2269 10.7984L16.6546 11.4298C16.8888 11.7761 17.2249 12.051 17.6119 12.1936C17.9989 12.3463 18.4368 12.3769 18.8339 12.2751L21.2271 11.6742C21.7771 11.5418 22.103 10.9817 21.9706 10.442V10.4521Z"/>
</svg>
