<svg width="24" height="24" viewBox="0 0 24 24" fill="black" xmlns="http://www.w3.org/2000/svg">
<path d="M20.7374 2.9946C20.3288 2.39322 19.6426 2 18.8485 2H5.1399C3.87544 2 2.85 3.03315 2.85 4.2899V6.57209C2.85 7.83655 3.87544 8.86199 5.1399 8.86199H11.971C11.971 8.86199 11.971 8.86199 11.9788 8.86199H18.8562C20.1283 8.86199 21.1461 7.83655 21.1461 6.57209V4.64456C21.1461 4.64456 21.1461 4.64456 21.1461 4.63685V4.2899C21.1461 3.81187 20.9919 3.36469 20.7451 2.9946H20.7374ZM6.28099 6.97301C5.42517 6.97301 4.73897 6.28682 4.73897 5.43099C4.73897 4.57517 5.42517 3.88897 6.28099 3.88897C7.13681 3.88897 7.82301 4.57517 7.82301 5.43099C7.82301 6.28682 7.13681 6.97301 6.28099 6.97301Z"/>
<path d="M18.8562 10.404H5.1399C3.87544 10.404 2.85 11.4295 2.85 12.6939V14.9838C2.85 16.2483 3.87544 17.2737 5.1399 17.2737H11.2232V20.458H4.28408C3.86002 20.458 3.51307 20.8049 3.51307 21.229C3.51307 21.653 3.86002 22 4.28408 22H19.7043C20.1283 22 20.4753 21.653 20.4753 21.229C20.4753 20.8049 20.1283 20.458 19.7043 20.458H12.7652V17.2737H18.8485C20.1206 17.2737 21.1384 16.2483 21.1384 14.9761V12.6862C21.1384 11.4217 20.1206 10.3963 18.8485 10.3963L18.8562 10.404ZM6.28099 15.377C5.43288 15.377 4.74668 14.6985 4.74668 13.8427C4.74668 12.9869 5.43288 12.293 6.28099 12.293C7.1291 12.293 7.8153 12.9946 7.8153 13.8427C7.8153 14.6908 7.1291 15.377 6.28099 15.377Z"/>
</svg>
