<svg width="24" height="24" viewBox="0 0 24 24" fill="black" xmlns="http://www.w3.org/2000/svg">
<path d="M17.0815 10.5266L4.60741 3.28709C4.35062 3.13894 4.04444 3.05005 3.73827 3.05005C2.87901 3.05005 2 3.69202 2 4.75869V19.2377C2 20.3044 2.87901 20.9463 3.73827 20.9463C4.04444 20.9463 4.34074 20.8673 4.60741 20.7093L17.0815 13.4698C17.3383 13.3217 17.5556 13.1044 17.7037 12.8476C17.8519 12.5908 17.9309 12.2945 17.9309 11.9982C17.9309 11.7019 17.8519 11.4056 17.7037 11.1488C17.5556 10.892 17.3383 10.6747 17.0815 10.5266Z"/>
<path d="M21.1704 3.05005C20.716 3.05005 20.3407 3.42536 20.3407 3.87968V20.1068C20.3407 20.5612 20.716 20.9365 21.1704 20.9365C21.6247 20.9365 22 20.5612 22 20.1068V3.87968C22 3.42536 21.6247 3.05005 21.1704 3.05005Z"/>
</svg>
