<svg width="24" height="24" viewBox="0 0 24 24" fill="black" xmlns="http://www.w3.org/2000/svg">
<path d="M9.98061 17.0035L7.34884 21.2259C7.15699 21.5337 6.81994 21.7207 6.45724 21.7207C5.62342 21.7207 5.12189 20.796 5.57665 20.0971L7.58966 17.0035H3.16317C2.52077 17.0035 2 16.4827 2 15.8403C2 15.1979 2.52077 14.6771 3.16317 14.6771H9.04362L12.5008 9.31364H3.16317C2.52077 9.31364 2 8.79287 2 8.15047C2 7.50807 2.52077 6.98731 3.16317 6.98731H13.9871L16.6188 2.7649C16.8107 2.4571 17.1477 2.27002 17.5104 2.27002C18.3443 2.27002 18.8458 3.19473 18.391 3.89362L16.378 6.98731H20.8368C21.4792 6.98731 22 7.50807 22 8.15047C22 8.79287 21.4792 9.31364 20.8368 9.31364H14.9241L11.4992 14.6771H20.8368C21.4792 14.6771 22 15.1979 22 15.8403C22 16.4827 21.4792 17.0035 20.8368 17.0035H9.98061Z"/>
</svg>
