<svg width="24" height="24" viewBox="0 0 24 24" fill="black" xmlns="http://www.w3.org/2000/svg">
<path d="M17.6943 12.82C17.1648 12.82 16.7453 13.24 16.7453 13.75C16.7453 14.3 17.1748 14.72 17.6943 14.72C18.2138 14.72 18.6434 14.3 18.6434 13.79C18.6434 13.24 18.2138 12.82 17.6943 12.82Z"/>
<path d="M21.9301 10.24C21.9301 10.24 21.9301 10.24 21.9301 10.23L20.032 5.42003C19.952 5.26003 19.7822 5.16003 19.6024 5.16003H4.37762C4.1978 5.16003 4.02797 5.26003 3.94805 5.42003L2.04995 10.22C2.04995 10.22 2.04995 10.22 2.04995 10.23C2.01998 10.29 2 10.36 2 10.43V17.1C2 17.36 2.20979 17.58 2.47952 17.58H4.37762V18.35C4.37762 18.61 4.58741 18.83 4.85714 18.83H7.71429C7.97403 18.83 8.19381 18.62 8.19381 18.35V17.58H15.8062V18.35C15.8062 18.61 16.016 18.83 16.2857 18.83H19.1429C19.4026 18.83 19.6224 18.62 19.6224 18.35V17.58H21.5205C21.7802 17.58 22 17.37 22 17.1V10.43C22 10.36 21.98 10.29 21.95 10.23L21.9301 10.24ZM12.8292 14.73H5.43656C4.84715 14.73 4.37762 14.3 4.37762 13.78C4.37762 13.26 4.84715 12.83 5.43656 12.83H12.8292C13.4186 12.83 13.8881 13.26 13.8881 13.78C13.8881 14.3 13.4186 14.73 12.8292 14.73ZM19.6024 13.8C19.6024 14.84 18.7532 15.69 17.7043 15.69C16.6553 15.69 15.8062 14.85 15.8062 13.8V13.76C15.8062 12.72 16.6553 11.87 17.7043 11.87C18.7532 11.87 19.6024 12.71 19.6024 13.76V13.8ZM3.45854 9.96003L4.88711 6.32003H19.1029L20.5315 9.96003H3.45854Z"/>
</svg>
