<svg width="24" height="24" viewBox="0 0 24 24" fill="black" xmlns="http://www.w3.org/2000/svg">
<path d="M20.5 2H3.5C2.67 2 2 2.67 2 3.5V20.5C2 21.33 2.67 22 3.5 22H20.5C21.33 22 22 21.33 22 20.5V3.5C22 2.67 21.33 2 20.5 2ZM4.46 7.76C4.56 7.66 4.7 7.6 4.84 7.6C4.99 7.6 5.12 7.66 5.22 7.76L6.65 9.23L9.35 5.9C9.44 5.79 9.57 5.72 9.72 5.7C9.86 5.68 10 5.73 10.11 5.83C10.33 6.02 10.37 6.37 10.18 6.6L7.1 10.4C7 10.52 6.86 10.59 6.71 10.6H6.69C6.54 10.6 6.41 10.54 6.3 10.44L4.45 8.54C4.25 8.33 4.24 7.98 4.45 7.77L4.46 7.76ZM10.31 17.9C10.31 18.73 9.64 19.4 8.81 19.4H5.81C4.98 19.4 4.31 18.73 4.31 17.9V14.9C4.31 14.07 4.98 13.4 5.81 13.4H8.81C9.64 13.4 10.31 14.07 10.31 14.9V17.9ZM18.94 17.15H13.01C12.6 17.15 12.26 16.81 12.26 16.4C12.26 15.99 12.6 15.65 13.01 15.65H18.94C19.35 15.65 19.69 15.99 19.69 16.4C19.69 16.81 19.35 17.15 18.94 17.15ZM18.94 8.88H13.01C12.6 8.88 12.26 8.54 12.26 8.13C12.26 7.72 12.6 7.38 13.01 7.38H18.94C19.35 7.38 19.69 7.72 19.69 8.13C19.69 8.54 19.35 8.88 18.94 8.88Z"/>
</svg>
