<svg width="24" height="24" viewBox="0 0 24 24" fill="black" xmlns="http://www.w3.org/2000/svg">
<path d="M15.59 17.33C15.59 17.84 15.18 18.26 14.67 18.26C14.16 18.26 13.74 17.84 13.74 17.33V16.4H10.27V17.33C10.27 17.84 9.85 18.26 9.34 18.26C8.83 18.26 8.41 17.84 8.41 17.33V16.4H2V20.5C2 21.33 2.68 22 3.5 22H20.5C21.33 22 22 21.33 22 20.5V16.4H15.59V17.33Z"/>
<path d="M20.5 2H3.5C2.68 2 2 2.67 2 3.5V7.6H5.75V6.67C5.75 6.16 6.17 5.75 6.68 5.75C7.19 5.75 7.6 6.16 7.6 6.67V7.6H11.08V6.67C11.08 6.16 11.49 5.75 12 5.75C12.51 5.75 12.93 6.16 12.93 6.67V7.6H16.4V6.67C16.4 6.16 16.82 5.75 17.33 5.75C17.84 5.75 18.26 6.16 18.26 6.67V7.6H22V3.5C22 2.67 21.33 2 20.5 2Z"/>
<path d="M18.26 10.38C18.26 10.89 17.84 11.31 17.33 11.31C16.82 11.31 16.4 10.89 16.4 10.38V9.45H12.93V10.38C12.93 10.89 12.52 11.31 12 11.31C11.48 11.31 11.08 10.89 11.08 10.38V9.45H7.6V10.38C7.6 10.89 7.19 11.31 6.68 11.31C6.17 11.31 5.75 10.89 5.75 10.38V9.45H2V14.55H8.41V13.62C8.41 13.11 8.83 12.7 9.34 12.7C9.85 12.7 10.27 13.11 10.27 13.62V14.55H13.74V13.62C13.74 13.11 14.16 12.7 14.67 12.7C15.18 12.7 15.59 13.11 15.59 13.62V14.55H22V9.45H18.26V10.38Z"/>
</svg>
