<svg width="24" height="24" viewBox="0 0 24 24" fill="black" xmlns="http://www.w3.org/2000/svg">
<path fill-rule="evenodd" clip-rule="evenodd" d="M9.14071 20.5714C9.14071 20.9503 8.9902 21.3137 8.72229 21.5816C8.45439 21.8495 8.09102 22 7.71214 22H6.28357C5.90469 22 5.54133 21.8495 5.27342 21.5816C5.00551 21.3137 4.855 20.9503 4.855 20.5714V3.42857C4.855 3.04969 5.00551 2.68633 5.27342 2.41842C5.54133 2.15051 5.90469 2 6.28357 2H7.71214C8.09102 2 8.45439 2.15051 8.72229 2.41842C8.9902 2.68633 9.14071 3.04969 9.14071 3.42857V20.5714ZM19.1407 20.5714C19.1407 20.9503 18.9902 21.3137 18.7223 21.5816C18.4544 21.8495 18.091 22 17.7121 22H16.2836C15.9047 22 15.5413 21.8495 15.2734 21.5816C15.0055 21.3137 14.855 20.9503 14.855 20.5714V3.42857C14.855 3.04969 15.0055 2.68633 15.2734 2.41842C15.5413 2.15051 15.9047 2 16.2836 2H17.7121C18.091 2 18.4544 2.15051 18.7223 2.41842C18.9902 2.68633 19.1407 3.04969 19.1407 3.42857V20.5714Z"/>
</svg>
