<svg width="24" height="24" viewBox="0 0 24 24" fill="black" xmlns="http://www.w3.org/2000/svg">
<path d="M11.72 15.415C11.56 15.445 11.4 15.465 11.24 15.465C11.08 15.465 10.93 15.445 10.78 15.415V18.635H9.15V14.725L7.64 14.035L7.03 16.315C6.97 16.535 6.87 16.735 6.73 16.895V18.635H5.13V17.405C5.07 17.395 5.01 17.365 4.95 17.345C4.23 17.055 3.84 16.265 4.04 15.515L5.22 11.165C5.27 10.985 5.35 10.815 5.46 10.675H5.13V9.67496C5.13 9.52496 5.09 9.37496 5.01 9.25496L4.07 7.72496C4.07 7.72496 4 7.66496 3.95 7.66496C3.91 7.66496 3.87 7.68496 3.84 7.72496L2.85 9.24496C2.76 9.37496 2.72 9.52496 2.72 9.68496V10.675H2.47C2.21 10.675 2 10.885 2 11.145V11.645C2 11.915 2.21 12.125 2.47 12.125H2.72V18.635H2.47C2.21 18.635 2 18.845 2 19.105V19.605C2 19.865 2.21 20.075 2.47 20.075H2.72V21.415C2.72 21.685 2.94 21.915 3.22 21.915H4.63C4.91 21.915 5.13 21.685 5.13 21.415V20.075H6.73V21.415C6.73 21.685 6.96 21.915 7.24 21.915H8.64C8.92 21.915 9.15 21.685 9.15 21.415V20.075H10.78V21.415C10.78 21.685 11 21.915 11.28 21.915H12.7C12.97 21.915 13.2 21.685 13.2 21.415V20.075H13.79L11.78 15.395L11.72 15.415Z"/>
<path d="M8.98 11.035L9.15 10.535V9.67496C9.15 9.52496 9.1 9.37496 9.03 9.25496L8.67 8.67496L8.36 9.24496C8.12 9.68496 7.65 9.96496 7.15 9.96496C7.01 9.96496 6.87 9.94496 6.73 9.90496V10.105C6.9 10.105 7.07 10.155 7.22 10.225L8.98 11.035Z"/>
<path d="M21.52 12.125C21.79 12.125 22 11.915 22 11.645V11.145C22 10.885 21.79 10.675 21.52 10.675H21.28V9.72496C21.03 9.99496 20.67 10.165 20.28 10.165C20.16 10.165 20.04 10.145 19.93 10.115L18.81 9.81496V10.675H17.26V9.68496C17.26 9.58496 17.24 9.48496 17.2 9.39496L15.17 8.85496L15.14 8.90496L14.92 9.24496C14.84 9.37496 14.8 9.52496 14.8 9.68496V10.675H14.54L14.04 12.125H14.8V14.145L17.31 19.985C17.31 19.985 17.33 20.045 17.34 20.075H18.81V21.415C18.81 21.685 19.04 21.915 19.31 21.915H20.78C21.05 21.915 21.28 21.685 21.28 21.415V20.075H21.52C21.79 20.075 22 19.865 22 19.605V19.105C22 18.845 21.79 18.635 21.52 18.635H21.28V12.125H21.52ZM18.81 18.635H17.26V12.125H18.81V18.635Z"/>
<path d="M13.56 12.285L13.61 12.125L14.11 10.675L14.9 8.37496L15.4 8.50496L16.91 8.90496L18.86 9.42496L20.03 9.73496C20.11 9.75496 20.2 9.76496 20.28 9.76496C20.64 9.76496 20.97 9.56496 21.14 9.23496C21.17 9.16496 21.2 9.09496 21.22 9.01496V8.99496C21.34 8.46496 21.02 7.93496 20.5 7.80496L14.36 6.22496L9.25 4.61496C9.14 4.58496 9.02 4.56496 8.91 4.56496C8.49 4.56496 8.09 4.78496 7.88 5.17496L6.29 8.11496C6.01 8.63496 6.24 9.26496 6.77 9.48496C6.78 9.49496 6.8 9.49496 6.81 9.50496C6.92 9.54496 7.04 9.56496 7.15 9.56496C7.5 9.56496 7.83 9.37496 8.01 9.05496L8.43 8.28496L9.28 6.69496L10.72 7.12496L9.52 10.675L9.21 11.585L7.05 10.585C6.95 10.545 6.84 10.505 6.73 10.505C6.69 10.485 6.65 10.485 6.61 10.485C6.4 10.485 6.19 10.555 6.02 10.675C5.82 10.815 5.67 11.015 5.6 11.265L5.37 12.125L4.43 15.615C4.28 16.175 4.57 16.765 5.1 16.975C5.11 16.975 5.12 16.985 5.13 16.985C5.26 17.035 5.4 17.065 5.54 17.065C6.04 17.065 6.51 16.735 6.65 16.215L7.38 13.475L9.15 14.285L10.52 14.915C10.61 14.955 10.69 14.985 10.78 14.995C10.93 15.045 11.08 15.065 11.24 15.065C11.37 15.065 11.5 15.055 11.63 15.025L12.01 14.935L13.2 17.695L13.6 18.635L14.22 20.075L14.67 21.115C14.7 21.195 14.74 21.265 14.8 21.335C15.02 21.675 15.41 21.865 15.81 21.865C15.96 21.865 16.12 21.835 16.27 21.775C16.91 21.515 17.22 20.775 16.94 20.145L13.56 12.285Z"/>
<path d="M13.87 5.50496C14.81 5.50496 15.58 4.73496 15.58 3.79496C15.58 2.85496 14.81 2.08496 13.87 2.08496C12.93 2.08496 12.16 2.84496 12.16 3.79496C12.16 4.74496 12.93 5.50496 13.87 5.50496Z"/>
</svg>
