<svg width="24" height="24" viewBox="0 0 24 24" fill="black" xmlns="http://www.w3.org/2000/svg">
<path d="M19.9414 20.4615H16.3004C16.3004 20.4615 16.3004 20.4308 16.2798 20.4103L12.3311 14.3077H16.8234L18.4439 16.4615C18.7824 16.9128 19.4286 17.0051 19.8798 16.6667C20.3311 16.3282 20.4234 15.6821 20.085 15.2308L18.3516 12.9231C18.0439 12.5026 17.5414 12.2564 17.0183 12.2564H13.3875L10.8747 8.70769L11.0901 8.55385C12.8337 7.41538 13.8798 5.49744 13.8798 3.41538V3.02564C13.8798 2.46154 13.4183 2 12.8542 2C12.2901 2 11.8286 2.46154 11.8286 3.02564V3.41538C11.8286 5.08718 10.8234 6.57436 9.26446 7.2C6.926 8.13333 5.41831 10.3692 5.41831 12.8821V15.8462C5.41831 16.4103 5.87984 16.8718 6.44395 16.8718C7.00805 16.8718 7.46959 16.4103 7.46959 15.8462V12.8821C7.46959 12.4718 7.53113 12.0513 7.66446 11.6513L7.82856 11.1282L13.8696 20.4615H4.0542C3.63369 20.4615 3.28497 20.8103 3.28497 21.2308C3.28497 21.6513 3.63369 22 4.0542 22H19.9414C20.3619 22 20.7106 21.6513 20.7106 21.2308C20.7106 20.8103 20.3619 20.4615 19.9414 20.4615Z"/>
<path d="M5.58241 7.04615C6.74138 7.16923 7.78754 6.33846 7.91061 5.17949C8.03369 4.02051 7.20292 2.97436 6.04395 2.85128C4.88497 2.71795 3.83882 3.55897 3.71574 4.71795C3.59267 5.87692 4.42343 6.92308 5.58241 7.04615Z"/>
</svg>
