<svg width="24" height="24" viewBox="0 0 24 24" fill="black" xmlns="http://www.w3.org/2000/svg">
<path d="M6.91852 10.5266L19.3926 3.28709C19.6494 3.13894 19.9556 3.05005 20.2617 3.05005C21.121 3.05005 22 3.69202 22 4.75869V19.2377C22 20.3044 21.121 20.9463 20.2617 20.9463C19.9556 20.9463 19.6593 20.8673 19.3926 20.7093L6.91852 13.4698C6.66173 13.3217 6.44444 13.1044 6.2963 12.8476C6.14815 12.5908 6.06914 12.2945 6.06914 11.9982C6.06914 11.7019 6.14815 11.4056 6.2963 11.1488C6.44444 10.892 6.66173 10.6747 6.91852 10.5266Z"/>
<path d="M2.82963 3.05005C3.28395 3.05005 3.65926 3.42536 3.65926 3.87968V20.1068C3.65926 20.5612 3.28395 20.9365 2.82963 20.9365C2.37531 20.9365 2 20.5612 2 20.1068V3.87968C2 3.42536 2.37531 3.05005 2.82963 3.05005Z"/>
</svg>
