<svg width="24" height="24" viewBox="0 0 24 24" fill="black" xmlns="http://www.w3.org/2000/svg">
<path d="M10.6455 19.3309C10.5455 19.2609 10.4155 19.3309 10.4155 19.4409V19.8908C10.0156 19.7608 9.62574 19.6608 9.24584 19.5109C8.71598 19.3109 8.22611 19.021 7.84621 18.5911C7.40633 18.0912 7.31636 17.5214 7.55629 16.9815C7.27637 16.6716 7.03643 16.3117 6.83649 15.9418C6.61654 16.1118 6.4166 16.3017 6.23665 16.5317C5.79676 17.0715 5.59682 17.6714 5.78677 18.3712C5.94672 18.951 6.31662 19.3809 6.7765 19.7508C7.57629 20.3906 8.51603 20.7405 9.50577 20.9805C9.80569 21.0604 10.1056 21.1004 10.4255 21.1604V21.8602C10.4255 21.9802 10.5555 22.0402 10.6555 21.9702C11.2153 21.5703 11.7552 21.1704 12.305 20.7705C12.385 20.7105 12.385 20.5906 12.305 20.5406C11.7552 20.1407 11.2053 19.7408 10.6455 19.3309Z"/>
<path d="M18.2434 17.5514C18.1534 17.0215 17.8635 16.5916 17.4836 16.2317C17.2337 15.9918 16.9638 15.7919 16.6838 15.6119C16.5439 15.9418 16.3639 16.2417 16.154 16.5317C16.7038 17.1515 16.7238 17.9213 16.184 18.5411C15.994 18.7611 15.7641 18.951 15.5241 19.121C15.1243 19.3909 14.6844 19.5708 14.2345 19.7008C13.9546 19.7808 13.7646 20.0307 13.7646 20.3206C13.7646 20.7705 14.1245 21.0604 14.5644 20.9505C15.0443 20.8405 15.5242 20.6805 15.974 20.4806C16.6439 20.1807 17.2637 19.8108 17.7336 19.2509C18.1434 18.7611 18.3634 18.2012 18.2534 17.5514H18.2434Z"/>
<path d="M6.70652 11.2331H6.96645V13.3525C6.96645 15.9518 9.07588 18.0612 11.6752 18.0612C14.2745 18.0612 16.3839 15.9518 16.3839 13.3525V11.2331H16.6438C16.9038 11.2331 17.1137 11.0231 17.1137 10.7632V9.98342C17.1137 7.14418 14.9243 4.81481 12.1451 4.57487V3.26522L16.034 3.80508C16.034 3.80508 16.074 3.80508 16.104 3.80508C16.3339 3.80508 16.5339 3.63513 16.5739 3.39519C16.6139 3.13526 16.4339 2.89532 16.174 2.86533L9.94565 2.00556C9.68572 1.96557 9.44578 2.14553 9.41579 2.40546C9.3758 2.66539 9.55575 2.90532 9.81568 2.93531L11.2053 3.12526V4.56488C8.42606 4.81481 6.23665 7.15418 6.23665 9.99342V10.7732C6.23665 11.0331 6.44659 11.2431 6.70652 11.2431V11.2331ZM11.6752 12.8327C12.6249 12.8327 13.4047 13.6124 13.4047 14.5622C13.4047 15.5119 12.6249 16.2917 11.6752 16.2917C10.7254 16.2917 9.94565 15.5119 9.94565 14.5622C9.94565 13.6124 10.7254 12.8327 11.6752 12.8327Z"/>
<path d="M11.6752 15.352C12.1114 15.352 12.465 14.9984 12.465 14.5622C12.465 14.126 12.1114 13.7724 11.6752 13.7724C11.239 13.7724 10.8854 14.126 10.8854 14.5622C10.8854 14.9984 11.239 15.352 11.6752 15.352Z"/>
</svg>
