<svg width="24" height="24" viewBox="0 0 24 24" fill="black" xmlns="http://www.w3.org/2000/svg">
<path d="M4.95473 13.9362V9.48242C4.95473 9.32302 5.06725 9.19175 5.21728 9.18237C5.30166 9.18237 5.37667 9.2105 5.43293 9.26676C5.48919 9.32302 5.51732 9.38865 5.51732 9.46367V13.3174C5.51732 13.4487 5.62046 13.5518 5.75173 13.5518H7.35511C7.48638 13.5518 7.58952 13.4487 7.58952 13.3174V9.24801C7.58952 7.80403 6.41746 6.63197 4.97349 6.63197C3.52951 6.63197 2.46997 7.74777 2.46997 9.12611V13.9269C2.46997 14.6113 3.02318 15.1646 3.70766 15.1646C4.39215 15.1646 4.94536 14.6113 4.94536 13.9269L4.95473 13.9362Z"/>
<path d="M5.7236 14.0019C5.61109 14.0019 5.50795 14.105 5.48919 14.2175C5.35792 14.8926 5.02037 15.3333 4.4484 15.549C4.03584 15.7178 3.64203 15.6896 3.59515 15.6896C3.53889 15.6896 3.46388 15.7084 3.41699 15.7553C3.37011 15.8022 3.34198 15.8678 3.34198 15.9334L3.47325 21.775C3.47325 21.9062 3.57639 22 3.70766 22H6.65187C6.77377 22 6.87691 21.9062 6.88629 21.7843L7.58952 14.255C7.58952 14.1894 7.57077 14.1238 7.53326 14.0769C7.48638 14.03 7.43012 14.0019 7.36449 14.0019H5.7236Z"/>
<path d="M5.50795 6.10689C6.6425 6.10689 7.56139 5.188 7.56139 4.05345C7.56139 2.91889 6.63312 2.00938 5.50795 2.00938C4.38277 2.00938 3.4545 2.92827 3.4545 4.06282C3.4545 5.19737 4.37339 6.11627 5.50795 6.11627V6.10689Z"/>
<path d="M11.9121 13.9362V9.48242C11.9121 9.32302 12.0246 9.19175 12.1746 9.18237C12.259 9.173 12.334 9.2105 12.3903 9.26676C12.4465 9.32302 12.4747 9.38865 12.4747 9.46367V13.3174C12.4747 13.4487 12.5778 13.5518 12.7091 13.5518H14.3124C14.4437 13.5518 14.5469 13.4487 14.5469 13.3174V9.24801C14.5469 7.80403 13.3748 6.63197 11.9308 6.63197C10.4868 6.63197 9.42731 7.75715 9.42731 9.13549V13.9362C9.42731 14.6207 9.98052 15.1739 10.665 15.1739C11.3495 15.1739 11.9027 14.6207 11.9027 13.9362H11.9121Z"/>
<path d="M14.3218 14.0019H12.6809C12.5684 14.0019 12.4653 14.105 12.4465 14.2175C12.3153 14.8926 11.9777 15.3333 11.4057 15.549C10.9932 15.7178 10.5994 15.6896 10.5525 15.6896C10.4775 15.6896 10.4212 15.7084 10.3743 15.7553C10.3274 15.8022 10.2993 15.8678 10.2993 15.9334L10.4306 21.775C10.4306 21.9062 10.5337 22 10.665 22H13.6092C13.7311 22 13.8342 21.9062 13.8436 21.7843L14.5469 14.255C14.5469 14.1894 14.5281 14.1238 14.4906 14.0769C14.4437 14.03 14.3875 14.0019 14.3218 14.0019Z"/>
<path d="M12.4747 6.10689C13.6092 6.10689 14.5281 5.188 14.5281 4.05345C14.5281 2.91889 13.6092 2 12.4747 2C11.3401 2 10.4212 2.91889 10.4212 4.05345C10.4212 5.188 11.3401 6.10689 12.4747 6.10689Z"/>
<path d="M18.8788 13.9362V9.48242C18.8788 9.32302 18.9913 9.19175 19.1413 9.18237C19.2257 9.173 19.3007 9.2105 19.357 9.26676C19.4132 9.32302 19.4414 9.38865 19.4414 9.46367V13.3174C19.4414 13.4487 19.5445 13.5518 19.6758 13.5518H21.2792C21.4104 13.5518 21.5136 13.4487 21.5136 13.3174V9.24801C21.5136 7.80403 20.3415 6.63197 18.8975 6.63197C17.4536 6.63197 16.394 7.75715 16.394 9.13549V13.9362C16.394 14.6207 16.9472 15.1739 17.6317 15.1739C18.3162 15.1739 18.8694 14.6207 18.8694 13.9362H18.8788Z"/>
<path d="M21.4573 14.0769C21.4104 14.03 21.3542 14.0019 21.2885 14.0019H19.657C19.5445 14.0019 19.4414 14.105 19.4226 14.2175C19.2913 14.8833 18.9444 15.3333 18.3912 15.549C17.9693 15.7178 17.5848 15.6896 17.5379 15.6896C17.4723 15.6896 17.4067 15.7084 17.3598 15.7553C17.3129 15.8022 17.2848 15.8678 17.2848 15.9334L17.4161 21.775C17.4161 21.9062 17.5192 22 17.6505 22H20.5947C20.7166 22 20.8197 21.9062 20.8291 21.7843L21.5323 14.255C21.5323 14.1894 21.5136 14.1238 21.4761 14.0769H21.4573Z"/>
<path d="M19.432 6.10689C20.5665 6.10689 21.4854 5.188 21.4854 4.05345C21.4854 2.91889 20.5665 2 19.432 2C18.2974 2 17.3785 2.91889 17.3785 4.05345C17.3785 5.188 18.2974 6.10689 19.432 6.10689Z"/>
</svg>
