<svg width="24" height="24" viewBox="0 0 24 24" fill="black" xmlns="http://www.w3.org/2000/svg">
<path d="M10.6626 7.2064C15.5994 7.2064 18.7418 5.6647 18.7418 4.6032C18.7418 3.5417 15.591 2 10.6626 2C5.73424 2 2.57501 3.5417 2.57501 4.6032C2.57501 5.6647 5.72581 7.2064 10.6626 7.2064Z"/>
<path d="M10.6542 18.8492C7.55395 18.8492 4.42842 18.2426 2.57501 17.0716V19.3968C2.57501 20.4583 5.72581 22 10.6542 22C11.7326 22 12.7182 21.9242 13.6112 21.7978C12.7435 21.0227 12.1032 19.9949 11.8168 18.8239C11.4293 18.8408 11.0417 18.8492 10.6542 18.8492Z"/>
<path d="M3.99034 12.9267C3.45117 12.7161 2.97939 12.4802 2.57501 12.219V14.5611C2.57501 15.6226 5.72581 17.1643 10.6542 17.1643C10.9996 17.1643 11.3282 17.1559 11.6567 17.139C11.6989 15.9343 12.1201 14.8222 12.7941 13.9124C12.1032 13.9798 11.3871 14.0135 10.6542 14.0135C8.14367 14.0135 5.77636 13.6259 3.99034 12.9267Z"/>
<path d="M4.61377 11.3597C6.20601 11.9832 8.35429 12.3286 10.6626 12.3286C12.971 12.3286 15.1445 11.9747 16.7115 11.3597C18.2195 10.77 18.7502 10.1129 18.7502 9.72536V7.11373C16.8968 8.28475 13.7713 8.89132 10.6626 8.89132C7.55395 8.89132 4.42842 8.28475 2.57501 7.11373V9.72536C2.57501 10.1129 3.10576 10.77 4.61377 11.3597Z"/>
<path d="M21.0839 15.5468C20.9575 15.4794 20.6879 15.4035 20.3172 15.6647L19.8202 16.0101C19.7865 15.016 19.3652 14.6116 18.3206 14.6116H15.1192C14.0325 14.6116 13.6112 15.0329 13.6112 16.1196V18.6807C13.6112 19.4136 14.0072 20.1887 15.1192 20.1887H18.3206C19.3652 20.1887 19.7949 19.7928 19.8202 18.7902L20.3088 19.1356C20.511 19.2789 20.6795 19.321 20.8143 19.321C20.9322 19.321 21.0165 19.2873 21.0839 19.262C21.2102 19.1946 21.4293 19.0177 21.4293 18.5628V16.246C21.4293 15.7911 21.2102 15.6142 21.0839 15.5468Z"/>
</svg>
