<svg width="24" height="24" viewBox="0 0 24 24" fill="black" xmlns="http://www.w3.org/2000/svg">
<path d="M12 8.91C11.5 8.91 11.09 9.32 11.09 9.82C11.09 10.32 11.5 10.73 12 10.73C12.5 10.73 12.91 10.32 12.91 9.82C12.91 9.32 12.5 8.91 12 8.91Z"/>
<path d="M12 12.91C11.5 12.91 11.09 13.32 11.09 13.82C11.09 14.32 11.5 14.73 12 14.73C12.5 14.73 12.91 14.32 12.91 13.82C12.91 13.32 12.5 12.91 12 12.91Z"/>
<path d="M15.27 2H8.73003C7.82003 2 7.09003 2.73 7.09003 3.64V16C7.09003 16.9 7.82003 17.64 8.73003 17.64H10.13V20.58C10.13 21.36 10.77 22 11.55 22H12.71C13.49 22 14.13 21.36 14.13 20.58V17.64H15.27C16.17 17.64 16.91 16.91 16.91 16V3.64C16.91 2.74 16.18 2 15.27 2ZM12 4.18C12.9 4.18 13.64 4.91 13.64 5.82C13.64 6.73 12.91 7.46 12 7.46C11.09 7.46 10.36 6.73 10.36 5.82C10.36 4.91 11.09 4.18 12 4.18ZM12 15.45C11.1 15.45 10.36 14.72 10.36 13.81C10.36 12.9 11.09 12.17 12 12.17C12.91 12.17 13.64 12.9 13.64 13.81C13.64 14.72 12.91 15.45 12 15.45ZM12 11.45C11.1 11.45 10.36 10.72 10.36 9.81C10.36 8.9 11.09 8.17 12 8.17C12.91 8.17 13.64 8.9 13.64 9.81C13.64 10.72 12.91 11.45 12 11.45Z"/>
</svg>
