<svg width="24" height="24" viewBox="0 0 24 24" fill="black" xmlns="http://www.w3.org/2000/svg">
<path d="M9.83997 3.14C8.01997 3.58 5.60997 5.98 5.49997 8.46L5.44997 10.34H9.83997V3.14Z"/>
<path d="M18.41 8.46C18.3 5.98 15.89 3.58 14.07 3.14V10.33H18.47L18.42 8.47L18.41 8.46Z"/>
<path d="M13.16 2.49C13.16 2.22 12.94 2 12.67 2H11.23C10.96 2 10.74 2.22 10.74 2.49V10.34H13.16V2.49Z"/>
<path d="M19.77 16.65C19.72 16.38 19.7 16.1 19.62 15.84C19.31 14.72 18.75 13.85 17.98 13.21C18.48 13.06 18.98 12.89 19.49 12.69C19.61 12.64 19.69 12.52 19.69 12.39V11.73C19.69 11.47 19.48 11.25 19.21 11.25H4.65997C4.41997 11.25 4.21997 11.45 4.21997 11.69V12.39C4.21997 12.52 4.29997 12.64 4.41997 12.69C4.69997 12.8 5.25997 13.02 6.04997 13.24C5.24997 13.93 4.66997 14.86 4.41997 15.98C4.33997 16.32 4.31997 16.68 4.30997 17.03C4.28997 17.62 4.30997 18.21 4.30997 18.8C4.30997 20.56 5.73997 21.99 7.49997 22C8.06997 22 8.63997 22 9.19997 22C9.58997 22 9.94997 21.9 10.25 21.65C10.52 21.43 10.76 21.18 11.01 20.94C11.21 20.75 11.4 20.53 11.62 20.35C11.91 20.11 12.16 20.11 12.45 20.35C12.67 20.53 12.87 20.74 13.07 20.95C13.36 21.25 13.63 21.56 13.99 21.77C14.24 21.92 14.5 21.99 14.79 21.99C15.39 21.99 16 21.99 16.6 21.99C18.2 21.98 19.53 20.81 19.74 19.22C19.74 19.19 19.76 19.15 19.77 19.12V16.64V16.65ZM9.26997 17.61C8.56997 18.31 7.85997 19.02 7.15997 19.72C6.99997 19.88 6.72997 19.88 6.56997 19.72C6.40997 19.56 6.40997 19.29 6.56997 19.13C7.26997 18.43 7.97997 17.72 8.67997 17.02C8.83997 16.86 9.10997 16.86 9.26997 17.02C9.42997 17.18 9.42997 17.45 9.26997 17.61ZM17.47 17.6C16.78 18.31 16.09 19.03 15.4 19.74C15.23 19.91 14.96 19.91 14.79 19.74C14.63 19.57 14.62 19.31 14.79 19.14C15.48 18.43 16.17 17.72 16.86 17C17.03 16.83 17.3 16.83 17.47 17C17.63 17.17 17.64 17.43 17.47 17.6ZM18.48 15.38C18.43 15.35 18.38 15.31 18.33 15.28C17.81 14.94 17.24 14.75 16.61 14.75C13.56 14.75 10.51 14.75 7.45997 14.75C6.81997 14.75 6.22997 14.95 5.69997 15.31C5.66997 15.33 5.62997 15.36 5.59997 15.38C5.59997 15.38 5.57997 15.38 5.55997 15.38C5.57997 15.33 5.59997 15.28 5.61997 15.24C6.00997 14.49 6.52997 13.92 7.14997 13.53C9.46997 14.06 12.97 14.46 16.88 13.51C17.52 13.9 18.05 14.47 18.46 15.24C18.48 15.28 18.5 15.32 18.49 15.38H18.48Z"/>
</svg>
