<svg width="24" height="24" viewBox="0 0 24 24" fill="black" xmlns="http://www.w3.org/2000/svg">
<path d="M16.3106 12.8H7.68943V22H16.3106V12.8Z"/>
<path d="M21.2431 8.25217L15.7538 2.76522C15.2579 2.26957 14.6055 2 13.9095 2H4.60983C3.17442 2 2 3.17391 2 4.6087V20.6957C2 21.4174 2.58286 22 3.30492 22H6.38451V12.8C6.38451 12.0783 6.96738 11.4957 7.68943 11.4957H16.3106C17.0326 11.4957 17.6155 12.0783 17.6155 12.8V22H20.6951C21.4171 22 22 21.4174 22 20.6957V10.1043C22 9.4087 21.7303 8.75652 21.2344 8.26087L21.2431 8.25217Z"/>
</svg>
