<svg width="24" height="24" viewBox="0 0 24 24" fill="black" xmlns="http://www.w3.org/2000/svg">
<path d="M16.0333 2H7.96667C6.05833 2 4.5 3.55833 4.5 5.46667V18.5333C4.5 20.4417 6.05833 22 7.96667 22H16.0333C17.9417 22 19.5 20.4417 19.5 18.5333V5.46667C19.5 3.55833 17.9417 2 16.0333 2ZM12 18.3917C10.85 18.3917 9.91667 17.4583 9.91667 16.3083C9.91667 15.1583 10.85 14.225 12 14.225C13.15 14.225 14.0833 15.1583 14.0833 16.3083C14.0833 17.4583 13.15 18.3917 12 18.3917ZM15.475 9.69167H8.525C8.14167 9.69167 7.83333 9.31667 7.83333 8.85833C7.83333 8.4 8.14167 8.025 8.525 8.025H15.4667C15.85 8.025 16.1583 8.4 16.1583 8.85833C16.1583 9.31667 15.85 9.69167 15.4667 9.69167H15.475ZM15.475 6.875H8.525C8.14167 6.875 7.83333 6.5 7.83333 6.04167C7.83333 5.58333 8.14167 5.20833 8.525 5.20833H15.4667C15.85 5.20833 16.1583 5.58333 16.1583 6.04167C16.1583 6.5 15.85 6.875 15.4667 6.875H15.475Z"/>
</svg>
