<svg width="24" height="24" viewBox="0 0 24 24" fill="black" xmlns="http://www.w3.org/2000/svg">
<path d="M2 2.84998V6.17998C2 6.78998 2.21 7.30998 2.65 7.74998C3.08 8.17998 3.61 8.39998 4.22 8.39998H5.33L5.88 10.18C6.03 10.64 6.3 11.02 6.69 11.31C7.05 11.57 7.44 11.71 7.88 11.73H15.99C16.42 11.72 16.79 11.58 17.13 11.33C17.51 11.06 17.77 10.72 17.94 10.29L18.66 8.39998H19.77C20.38 8.39998 20.91 8.17998 21.34 7.74998C21.78 7.30998 22 6.78998 22 6.17998V2.84998H2ZM16 9.50998H8L7.66 8.39998H16.33L16 9.50998Z"/>
<path d="M12.46 16.58C12.25 16.27 12.12 16 12.05 15.73C11.97 15.47 11.94 15.18 11.94 14.83C11.94 14.65 11.94 14.48 11.97 14.32C11.99 14.14 12.03 13.96 12.09 13.78L12.2 13.41C12.24 13.28 12.23 13.14 12.16 13.02C12.11 12.92 11.99 12.79 11.75 12.73H11.69C11.49 12.73 11.26 12.84 11.18 13.1L11.06 13.48C10.99 13.68 10.93 13.91 10.9 14.15C10.87 14.4 10.85 14.63 10.85 14.82C10.87 15.32 10.93 15.76 11.05 16.11C11.17 16.46 11.36 16.86 11.63 17.29C11.83 17.61 11.97 17.92 12.04 18.21C12.11 18.49 12.14 18.79 12.14 19.11C12.14 19.28 12.12 19.45 12.09 19.62C12.06 19.77 12.03 19.91 11.99 20.09L11.88 20.46C11.79 20.74 11.95 21.04 12.22 21.12C12.27 21.14 12.33 21.15 12.38 21.15C12.57 21.15 12.81 21.03 12.89 20.77L13 20.4C13.07 20.19 13.13 19.98 13.16 19.77C13.19 19.55 13.21 19.33 13.21 19.11C13.21 18.63 13.15 18.19 13.03 17.81C12.91 17.42 12.71 17.01 12.44 16.59L12.46 16.58Z"/>
<path d="M7.92 16.59C7.75 16.36 7.62 16.1 7.53 15.82C7.43 15.54 7.39 15.2 7.39 14.82C7.39 14.68 7.39 14.52 7.42 14.34C7.44 14.14 7.48 13.95 7.54 13.77L7.65 13.4C7.69 13.27 7.68 13.13 7.61 13.01C7.56 12.91 7.44 12.78 7.2 12.72H7.14C6.94 12.72 6.71 12.83 6.63 13.09L6.51 13.47C6.44 13.68 6.38 13.89 6.35 14.12C6.32 14.36 6.3 14.6 6.3 14.83C6.3 15.28 6.37 15.71 6.5 16.12C6.63 16.53 6.82 16.92 7.08 17.28C7.26 17.57 7.4 17.86 7.48 18.16C7.56 18.45 7.6 18.77 7.6 19.11C7.6 19.3 7.58 19.47 7.55 19.64C7.52 19.78 7.49 19.92 7.45 20.09L7.34 20.46C7.25 20.74 7.41 21.04 7.68 21.12C7.73 21.14 7.79 21.15 7.84 21.15C8.03 21.15 8.27 21.03 8.35 20.77L8.46 20.4C8.53 20.19 8.59 19.98 8.62 19.77C8.65 19.55 8.67 19.33 8.67 19.12C8.67 18.67 8.61 18.22 8.48 17.8C8.36 17.38 8.17 16.99 7.91 16.62L7.92 16.59Z"/>
<path d="M16.92 16.57C16.74 16.29 16.61 16.01 16.53 15.75C16.45 15.48 16.41 15.17 16.41 14.83C16.41 14.65 16.42 14.49 16.44 14.34C16.46 14.19 16.5 14 16.56 13.78L16.67 13.41C16.71 13.28 16.7 13.14 16.63 13.02C16.58 12.92 16.46 12.79 16.22 12.73H16.16C15.96 12.73 15.73 12.84 15.65 13.1L15.54 13.47C15.46 13.7 15.41 13.93 15.38 14.14C15.35 14.37 15.33 14.61 15.33 14.84C15.33 15.27 15.4 15.7 15.53 16.11C15.66 16.53 15.85 16.92 16.11 17.28C16.29 17.57 16.43 17.87 16.51 18.17C16.59 18.47 16.63 18.78 16.63 19.1C16.63 19.27 16.61 19.44 16.58 19.61C16.55 19.76 16.52 19.9 16.48 20.08L16.37 20.45C16.28 20.73 16.44 21.03 16.71 21.11C16.76 21.13 16.82 21.14 16.87 21.14C17.06 21.14 17.3 21.02 17.38 20.76L17.49 20.39C17.56 20.18 17.62 19.97 17.65 19.76C17.68 19.54 17.7 19.32 17.7 19.11C17.7 18.66 17.64 18.22 17.51 17.8C17.39 17.38 17.19 16.98 16.92 16.58V16.57Z"/>
</svg>
