<svg width="24" height="24" viewBox="0 0 24 24" fill="black" xmlns="http://www.w3.org/2000/svg">
<path d="M4.43849 13.589C4.43849 14.9863 5.54351 16.1096 6.9773 16.1553C6.99557 16.1553 7.02296 16.1553 7.05036 16.1553H7.10516C8.49328 16.1096 9.58004 14.9863 9.58004 13.589C9.58004 12.1735 8.42936 11.0137 7.0047 11.0137C5.58004 11.0137 4.42936 12.1644 4.42936 13.589H4.43849Z"/>
<path d="M9.74442 17.7169C8.28324 16.7397 5.90881 16.7397 4.43849 17.7169C3.75356 18.1735 3.37 18.8128 3.37 19.4977C3.37 20.1826 3.75356 20.8128 4.43849 21.2694C5.14168 21.7443 6.08232 22 7.08689 22C8.09146 22 9.02296 21.7352 9.73529 21.2694C10.4202 20.8128 10.8038 20.1735 10.8038 19.4886C10.8038 18.8037 10.4202 18.1735 9.73529 17.7169H9.74442Z"/>
<path d="M15.2604 13.589C15.2604 14.9863 16.3654 16.1096 17.7992 16.1553C17.8175 16.1553 17.8449 16.1553 17.8723 16.1553H17.9271C19.3152 16.1096 20.402 14.9863 20.402 13.589C20.402 12.1735 19.2513 11.0137 17.8266 11.0137C16.402 11.0137 15.2513 12.1644 15.2513 13.589H15.2604Z"/>
<path d="M20.5663 17.7169C19.1052 16.7397 16.7307 16.7397 15.2604 17.7169C14.5755 18.1735 14.1919 18.8128 14.1919 19.4977C14.1919 20.1826 14.5755 20.8128 15.2604 21.2694C15.9636 21.7443 16.9042 22 17.9088 22C18.9134 22 19.8449 21.7352 20.5572 21.2694C21.2421 20.8128 21.6257 20.1735 21.6257 19.4886C21.6257 18.8037 21.2421 18.1735 20.5572 17.7169H20.5663Z"/>
<path d="M6.93164 8.28311C7.14168 8.49315 7.50698 8.49315 7.71703 8.28311C7.82662 8.18265 7.88141 8.03653 7.88141 7.89041C7.88141 7.74429 7.82662 7.59817 7.71703 7.49772L6.00013 5.78082H18.9956L17.2787 7.49772C17.1691 7.59817 17.1143 7.74429 17.1143 7.89041C17.1143 8.03653 17.1691 8.18265 17.2787 8.28311C17.3791 8.38356 17.5252 8.44749 17.6714 8.44749C17.8175 8.44749 17.9636 8.39269 18.0641 8.28311L20.7125 5.62557L20.7764 5.57078V5.54338C20.8494 5.45205 20.8951 5.33333 20.8951 5.21461C20.8951 5.09589 20.8586 4.97717 20.7855 4.87671L18.0732 2.16438C17.9636 2.06393 17.8266 2 17.6805 2C17.5344 2 17.3883 2.05479 17.2878 2.16438C17.1782 2.27397 17.1234 2.41096 17.1234 2.55708C17.1234 2.7032 17.1782 2.84932 17.2878 2.94977L19.0047 4.66667H6.00013L7.71703 2.94977C7.82662 2.84018 7.88141 2.7032 7.88141 2.55708C7.88141 2.41096 7.82662 2.26484 7.71703 2.16438C7.50698 1.95434 7.14168 1.95434 6.93164 2.16438L4.24671 4.84932L4.21018 4.90411C4.13712 5.00457 4.10059 5.11416 4.10059 5.23288C4.10059 5.3516 4.13712 5.47032 4.21018 5.56164L6.93164 8.29224V8.28311Z"/>
</svg>
