<svg width="24" height="24" viewBox="0 0 24 24" fill="black" xmlns="http://www.w3.org/2000/svg">
<path d="M2.01266 14.7945H2.95494C2.63346 16.3798 2.32306 17.9539 2.00158 19.5281C2.02375 19.5281 2.03483 19.5391 2.04592 19.5391C3.23208 19.5391 4.41824 19.5391 5.6044 19.5391C5.69308 19.5391 5.71525 19.4948 5.73742 19.4172C5.80394 19.0514 5.88154 18.6856 5.95914 18.3197C6.06999 17.7765 6.18085 17.2333 6.2917 16.6791H8.66402V14.7834H12.5107V10.9922H2.01266V14.7945ZM6.66861 14.7945H7.69957V15.7257H6.49124C6.55776 15.4153 6.61319 15.1049 6.6797 14.7945H6.66861Z"/>
<path d="M9.12962 7.16762V6.23643H8.95225C7.76609 6.23643 6.57993 6.23643 5.39377 6.23643C4.2187 6.23643 3.29859 6.96808 3.02145 8.10989C3.01037 8.16532 2.96602 8.22075 2.9106 8.24292C2.12352 8.59766 1.92398 9.2628 2.02375 10.0277H12.5107V8.13207H8.66402C8.58642 7.4891 8.67511 7.30065 9.11853 7.16762H9.12962Z"/>
<path d="M19.284 4.68444C18.9847 4.38513 18.4859 4.38513 18.1866 4.68444C17.8872 4.98376 17.8872 5.48261 18.1866 5.78192C19.6499 7.24522 20.448 9.1852 20.448 11.2471C20.448 13.309 19.6388 15.249 18.1866 16.7123C17.8872 17.0116 17.8872 17.5105 18.1866 17.8098C18.3307 17.9539 18.5302 18.0426 18.7408 18.0426C18.9515 18.0426 19.1399 17.965 19.284 17.8098C21.0356 16.0583 22 13.7303 22 11.2471C22 8.76395 21.0356 6.44705 19.284 4.68444Z"/>
<path d="M17.3662 6.4914C17.2221 6.34728 17.0226 6.2586 16.823 6.2586C16.6124 6.2586 16.4239 6.3362 16.2798 6.48031C16.1357 6.62442 16.047 6.82397 16.047 7.03459C16.047 7.24522 16.1246 7.43367 16.2687 7.57779C17.2443 8.5644 17.7875 9.86142 17.7875 11.2471C17.7875 12.6328 17.2443 13.9187 16.2687 14.9054C16.1246 15.0495 16.047 15.249 16.047 15.4596C16.047 15.6703 16.1246 15.8587 16.2798 16.0139C16.4239 16.158 16.6235 16.2356 16.823 16.2356C17.0226 16.2356 17.2332 16.158 17.3773 16.0028C18.6521 14.728 19.3505 13.0319 19.3505 11.2471C19.3505 9.46234 18.6521 7.76624 17.3773 6.4914H17.3662Z"/>
<path d="M15.4373 8.29835C15.138 7.99904 14.6392 7.99904 14.3398 8.29835C14.0405 8.59766 14.0405 9.09651 14.3398 9.39582C14.8387 9.89468 15.1048 10.5487 15.1048 11.2582C15.1048 11.9677 14.8276 12.6106 14.3288 13.1206C14.1847 13.2647 14.1071 13.4642 14.1071 13.6749C14.1071 13.8855 14.1957 14.0739 14.3398 14.2181C14.484 14.3622 14.6835 14.4398 14.883 14.4398C15.0826 14.4398 15.2932 14.3511 15.4373 14.207C16.2244 13.4088 16.6567 12.3668 16.6567 11.2582C16.6567 10.1496 16.2244 9.08543 15.4373 8.29835Z"/>
</svg>
