<svg width="24" height="24" viewBox="0 0 24 24" fill="black" xmlns="http://www.w3.org/2000/svg">
<path d="M2 10.0836H5.76812V11.2531H2V10.0836Z"/>
<path d="M14.6037 15.471C14.8936 14.7313 14.9635 13.9817 14.7936 13.2221C14.6237 12.4625 14.2439 11.8228 13.6842 11.283C15.0435 10.3335 16.3728 9.34402 18.062 9.05416C18.9315 8.90424 19.8111 8.92423 20.7106 8.92423V11.9727H22V15.4809H14.6137L14.6037 15.471Z"/>
<path d="M11.1354 16.6204C9.70615 16.6204 8.55672 15.471 8.55672 14.0417C8.55672 12.6124 9.70615 11.463 11.1354 11.453C12.5547 11.453 13.7141 12.6124 13.7141 14.0317C13.7141 15.461 12.5647 16.6104 11.1354 16.6104V16.6204Z"/>
<path d="M7.61719 7.39499H11.1154V10.2736C10.5257 10.2935 9.95602 10.4135 9.43628 10.6833C8.90655 10.9532 8.46677 11.333 8.10695 11.8028C7.94703 11.6429 7.78711 11.4929 7.63718 11.333C7.6072 11.303 7.5972 11.2531 7.5972 11.2031C7.5972 9.94372 7.5972 8.68435 7.5972 7.41498C7.5972 7.41498 7.5972 7.40499 7.61719 7.375V7.39499Z"/>
<path d="M5.76812 8.55441H3.49925V7.39499H5.76812V8.55441Z"/>
<path d="M5.77811 12.8223V13.9517H3.49925V12.8223H5.77811Z"/>
</svg>
