<svg width="24" height="24" viewBox="0 0 24 24" fill="black" xmlns="http://www.w3.org/2000/svg">
<path d="M2.61031 8.17505C3.18059 8.17505 3.76088 8.17505 4.33117 8.17505C4.69135 8.17505 4.93147 8.42517 4.93147 8.77535C4.93147 9.19556 4.93147 9.60576 4.93147 10.026C4.93147 10.076 4.93147 10.136 4.94147 10.2061C5.01151 10.166 5.05153 10.146 5.09155 10.116C6.82241 9.03548 8.70335 8.49521 10.7344 8.4752C11.1746 8.4752 11.4047 8.70531 11.4047 9.14553C11.4047 9.40566 11.4047 9.66579 11.4047 9.93593H11.6448C12.2251 9.93593 12.8054 9.93593 13.3857 9.93593C13.6558 9.93593 13.8659 10.036 14.006 10.2661C14.056 10.3561 14.1161 10.4362 14.1761 10.5162C14.2061 10.5662 14.2461 10.6163 14.2761 10.6763C14.3462 10.7964 14.4262 10.8264 14.5563 10.8264C15.957 10.8564 17.3577 10.8764 18.7484 10.9464C19.1586 10.9664 19.5688 11.0065 19.969 11.0665C20.4993 11.1465 21.0195 11.2566 21.5298 11.4167C21.95 11.5467 22.1201 11.9269 21.91 12.3071C21.5298 12.9775 21.1496 13.6578 20.7494 14.3181C20.6793 14.4382 20.5293 14.5883 20.3992 14.5983C20.2591 14.6083 20.1091 14.6183 19.969 14.6183C19.7489 14.6183 19.5288 14.6183 19.2986 14.6183C19.6488 12.9274 18.3182 11.7068 17.0375 11.7068C16.4072 11.7068 15.8469 11.9069 15.3867 12.3471C14.7264 12.9775 14.5363 13.7478 14.6963 14.6383H8.10305C8.10305 14.6383 8.10305 14.6283 8.10305 14.6183C8.17309 14.2481 8.18309 13.8879 8.10305 13.5277C8.08304 13.4277 8.05303 13.3276 8.01301 13.2276C8.01301 13.2276 8.01301 13.2276 8.01301 13.2176C7.81291 12.7173 7.46273 12.3171 7.03252 12.047C6.87244 11.9469 6.71236 11.8669 6.54227 11.8169C6.53227 11.8169 6.51226 11.8169 6.50225 11.8069C6.28214 11.7368 6.05203 11.7068 5.83192 11.7068C5.82191 11.7068 5.8019 11.7068 5.7919 11.7068C5.70185 11.7068 5.61181 11.7068 5.52176 11.7268C5.50175 11.7268 5.48174 11.7268 5.46173 11.7268C5.01151 11.7969 4.5913 11.997 4.24112 12.3171C4.22111 12.3371 4.2011 12.3471 4.1911 12.3671C4.18109 12.3772 4.16108 12.3972 4.15108 12.4072C4.13107 12.4272 4.10105 12.4572 4.08104 12.4772C3.991 12.5672 3.92096 12.6773 3.84092 12.7874C3.82091 12.8174 3.8009 12.8574 3.77089 12.8874C3.76088 12.9074 3.74087 12.9274 3.73087 12.9474C3.41071 12.5973 3.11056 12.2571 2.7904 11.9269C2.42021 11.5467 2.10005 11.1465 2 10.6163V8.60526C2.12006 8.35514 2.30015 8.17505 2.61031 8.17505Z"/>
<path d="M16.9875 12.2971C17.958 12.2971 18.7484 13.0675 18.7584 14.028C18.7684 15.0185 17.988 15.8189 17.0075 15.8189C16.047 15.8189 15.2466 15.0385 15.2366 14.078C15.2266 13.0875 16.007 12.2971 16.9875 12.2871V12.2971ZM16.9875 14.6483C17.3077 14.6483 17.5878 14.3782 17.5778 14.048C17.5778 13.7278 17.3177 13.4677 16.9875 13.4677C16.6673 13.4677 16.4072 13.7278 16.4072 14.048C16.4072 14.3681 16.6673 14.6383 16.9875 14.6383V14.6483Z"/>
<path d="M5.81191 12.2971C6.78239 12.2971 7.58279 13.0775 7.58279 14.058C7.58279 15.0285 6.7924 15.8289 5.82191 15.8289C4.85143 15.8289 4.06103 15.0485 4.05103 14.068C4.05103 13.0875 4.82141 12.3071 5.8019 12.2971H5.81191ZM5.81191 14.6483C6.13207 14.6483 6.41221 14.3782 6.41221 14.058C6.41221 13.7378 6.15208 13.4777 5.83192 13.4777C5.50175 13.4777 5.24162 13.7278 5.24162 14.048C5.24162 14.3681 5.49175 14.6383 5.81191 14.6483Z"/>
</svg>
