<svg width="24" height="24" viewBox="0 0 24 24" fill="black" xmlns="http://www.w3.org/2000/svg">
<path d="M15.8233 10.5116C15.8884 10.5953 15.9628 10.6419 16.0651 10.6698C16.707 10.8465 17.3395 11.0233 17.9814 11.1907C18.2512 11.2651 18.493 11.4047 18.6791 11.6186C18.8372 11.8047 18.9023 12.0279 18.9674 12.2605V13.3767C18.9674 13.3767 18.9581 13.386 18.9581 13.3953C18.8651 14.0372 18.3349 14.5116 17.6372 14.493C17.5628 14.4837 17.5349 14.5209 17.5163 14.5953C17.2837 15.2558 16.6884 15.6837 16.0093 15.6744C15.3302 15.6744 14.7349 15.2465 14.5116 14.5953C14.4837 14.5209 14.4558 14.4837 14.3721 14.493H11.8047L15.814 10.493C15.814 10.493 15.8233 10.5023 15.8233 10.5116ZM14.9953 14.0837C14.986 14.6326 15.4512 15.0977 16.0093 15.0977C16.5674 15.0977 17.0233 14.6512 17.0233 14.093C17.0326 13.5442 16.5674 13.0791 16.0186 13.0698C15.4605 13.0698 15.0047 13.5256 14.9953 14.0837Z"/>
<path d="M12 2C17.5163 2 22 6.48372 22 12C22 17.5163 17.5163 22 12 22C6.48372 22 2 17.5163 2 12C2 6.48372 6.48372 2 12 2ZM12 20.6047C16.7442 20.6047 20.6047 16.7442 20.6047 12C20.6047 10.214 20.0558 8.55814 19.1256 7.1814C18.9488 6.92093 18.7628 6.66977 18.5488 6.43721L6.43721 18.5488C7.93488 19.8326 9.87907 20.6047 12 20.6047ZM9.11628 13.8977C9.02326 13.4419 8.63256 13.0791 8.13953 13.0698C7.5907 13.0698 7.12558 13.5256 7.11628 14.0837C7.11628 14.5674 7.47907 14.9674 7.95349 15.0605L9.11628 13.8977ZM5.44186 17.5721L7.48837 15.5256C7.15349 15.3767 6.85581 15.1163 6.70698 14.7535C6.61395 14.5395 6.51163 14.4837 6.28837 14.4837C5.6093 14.493 5.10698 14.0372 5.03256 13.3674C4.99535 13.0419 5.02326 12.7163 5.01395 12.3907C5.00465 11.786 5.28372 11.3674 5.83256 11.1256C6.13953 10.986 6.44651 10.8465 6.75349 10.6977C6.8186 10.6698 6.88372 10.614 6.92093 10.5488C7.22791 10.0837 7.51628 9.6093 7.81395 9.13488C8.13953 8.60465 8.61395 8.34419 9.22791 8.34419H13.3395C13.7302 8.34419 14.0651 8.45581 14.3442 8.66977L17.5721 5.44186C17.3395 5.24651 17.0884 5.06047 16.8279 4.87442C15.4512 3.94419 13.786 3.39535 12 3.39535C7.25581 3.39535 3.39535 7.25581 3.39535 12C3.39535 13.786 3.94419 15.4419 4.87442 16.8186C5.05116 17.0791 5.24651 17.3302 5.44186 17.5721Z"/>
</svg>
