<svg width="24" height="24" viewBox="0 0 24 24" fill="black" xmlns="http://www.w3.org/2000/svg">
<path d="M3.85103 9.97C3.91103 10.09 4.04103 10.17 4.17103 10.17H5.06103C5.20103 10.17 5.32103 10.09 5.38103 9.96L5.54103 9.63C5.60103 9.51 5.59103 9.37 5.51103 9.25C5.44103 9.14 5.32103 9.07 5.18103 9.07H4.05103C3.91103 9.07 3.79103 9.14 3.71103 9.26C3.64103 9.38 3.63103 9.52 3.69103 9.65L3.85103 9.97Z"/>
<path d="M6.10103 14.18C6.02103 13.64 5.62103 13.25 5.13103 13.25H4.11103C3.62103 13.25 3.22103 13.61 3.15103 14.12L2.92103 15.35C2.87103 15.77 2.99103 16.19 3.27103 16.51C3.55103 16.83 3.95103 17.01 4.37103 17.01H4.87103C5.30103 17.01 5.68103 16.85 5.95103 16.54C6.21103 16.23 6.33103 15.83 6.27103 15.41L6.10103 14.18Z"/>
<path d="M7.10103 6.53C8.35103 6.53 9.37103 5.52 9.37103 4.27C9.37103 3.02 8.35103 2 7.10103 2C5.85103 2 4.84103 3.02 4.84103 4.27C4.84103 5.52 5.85103 6.53 7.10103 6.53Z"/>
<path d="M13.541 10.81L11.481 7.46L14.121 7.44L15.211 9.13C15.371 9.38 15.641 9.55 15.931 9.6C16.231 9.64 16.531 9.56 16.771 9.37C17.181 9.04 17.281 8.45 17.011 8L15.751 5.91C15.551 5.58 15.181 5.37 14.791 5.37L10.791 5.39C10.341 5.4 9.91103 5.53 9.55103 5.79L7.33103 7.3C6.94103 7.57 6.71103 8.01 6.71103 8.48L6.69103 10.74L4.14103 10.72H4.13103C3.86103 10.72 3.60103 10.82 3.41103 11.01C3.22103 11.21 3.12103 11.47 3.12103 11.74V11.77C3.13103 12.33 3.59103 12.78 4.15103 12.78H8.14103C8.48103 12.78 8.75103 12.5 8.75103 12.16V10.71L10.201 12.87L7.83103 14.33C7.48103 14.54 7.27103 14.92 7.27103 15.33V20.68C7.27103 21.4 7.86103 22 8.58103 22H8.59103C8.94103 22 9.27103 21.87 9.52103 21.62C9.77103 21.37 9.91103 21.04 9.91103 20.68V16.01L12.031 14.74C12.411 14.52 12.721 14.28 12.991 14.04C14.151 12.96 14.331 11.9 13.541 10.81Z"/>
<path d="M20.991 15.56C20.711 14.88 20.021 14.56 19.351 14.82L16.491 15.93L15.041 13.44C15.011 13.38 14.951 13.34 14.881 13.35C14.811 13.35 14.761 13.41 14.751 13.47C14.551 14.53 13.181 15.48 13.171 15.49C13.111 15.54 13.081 15.61 13.111 15.68L14.681 18.56C14.791 18.81 14.981 19 15.231 19.11C15.351 19.15 15.481 19.18 15.601 19.18C15.741 19.18 15.871 19.15 15.991 19.1L20.311 17.24C20.961 16.97 21.261 16.21 20.991 15.56Z"/>
</svg>
