<svg width="24" height="24" viewBox="0 0 24 24" fill="black" xmlns="http://www.w3.org/2000/svg">
<path d="M20.4272 5.7006C18.9302 5.55184 17.4332 5.44026 15.9269 5.35658V5.34728L15.7224 4.13854C15.5829 3.28312 15.3783 2 13.2026 2H10.7665C8.60011 2 8.39555 3.22734 8.24678 4.12924L8.05152 5.31939C7.18681 5.37517 6.32209 5.43096 5.45738 5.51464L3.56059 5.7006C3.17007 5.7378 2.89113 6.08182 2.92832 6.46304C2.96552 6.84426 3.30024 7.1232 3.69076 7.08601L5.58755 6.90005C10.4597 6.41655 15.369 6.60251 20.297 7.0953C20.3249 7.0953 20.3435 7.0953 20.3714 7.0953C20.7247 7.0953 21.0315 6.82566 21.0687 6.46304C21.0966 6.08182 20.8177 5.7378 20.4272 5.7006Z"/>
<path d="M18.7163 8.40632C18.4932 8.17387 18.1863 8.0437 17.8702 8.0437H6.11754C5.80141 8.0437 5.48527 8.17387 5.27142 8.40632C5.05757 8.63877 4.93669 8.9549 4.95529 9.28033L5.53176 18.8201C5.63404 20.2334 5.76421 22 9.00922 22H14.9785C18.2235 22 18.3537 20.2427 18.456 18.8201L19.0325 9.28963C19.0511 8.9549 18.9302 8.63877 18.7163 8.40632Z"/>
</svg>
