<svg width="24" height="24" viewBox="0 0 24 24" fill="black" xmlns="http://www.w3.org/2000/svg">
<path d="M3.09403 16.8333C2.49403 16.8333 2.00403 17.3111 2.00403 17.9184V20.9149C2.00403 21.5122 2.49403 22 3.09403 22C3.69403 22 4.18403 21.5122 4.18403 20.9149V17.9184C4.18403 17.3211 3.69403 16.8333 3.09403 16.8333Z"/>
<path d="M10.554 13.8268C9.95403 13.8268 9.46403 14.3146 9.46403 14.9119V20.9149C9.46403 21.5122 9.95403 22 10.554 22C11.154 22 11.644 21.5122 11.644 20.9149V14.9119C11.644 14.3146 11.154 13.8268 10.554 13.8268Z"/>
<path d="M18.004 10.8104C17.404 10.8104 16.914 11.3081 16.914 11.8955V13.5381C17.394 13.3788 17.894 13.3091 18.374 13.3091C18.624 13.3091 18.874 13.3191 19.104 13.3688V11.9054C19.104 11.3081 18.624 10.8203 18.014 10.8203L18.004 10.8104Z"/>
<path d="M3.09403 13.7073C3.18403 13.7073 3.27403 13.7073 3.36403 13.6775C8.56403 12.3833 13.214 9.71528 16.914 5.92235V7.31608C16.914 7.91339 17.404 8.40119 18.004 8.40119C18.604 8.40119 19.094 7.91339 19.094 7.31608V3.08512C19.094 3.08512 19.094 3.05525 19.094 3.0453C19.094 2.96565 19.064 2.89597 19.044 2.81633C19.024 2.7566 19.024 2.69686 18.994 2.63713C18.964 2.5774 18.924 2.52763 18.884 2.47785C18.844 2.41812 18.804 2.34843 18.744 2.29866C18.734 2.2887 18.724 2.27875 18.714 2.26879C18.674 2.22897 18.624 2.21901 18.574 2.18915C18.514 2.14933 18.454 2.10951 18.374 2.07964C18.304 2.04978 18.224 2.03982 18.144 2.02987C18.094 2.02987 18.044 2 17.994 2H13.724C13.124 2 12.634 2.4878 12.634 3.08512C12.634 3.68243 13.124 4.17023 13.724 4.17023H15.554C12.104 7.79393 7.73403 10.3425 2.82403 11.5669C2.24403 11.7163 1.88403 12.3036 2.03403 12.881C2.15403 13.3788 2.60403 13.7073 3.09403 13.7073Z"/>
<path d="M19.094 14.8223C18.864 14.7825 18.614 14.7526 18.364 14.7526C17.854 14.7526 17.364 14.8721 16.904 15.0712C16.894 15.0811 16.864 15.0811 16.844 15.101C15.814 15.5689 15.034 16.5047 14.794 17.6496C14.754 17.8985 14.724 18.1274 14.724 18.3763C14.724 20.1185 15.944 21.562 17.574 21.9104C17.584 21.9104 17.604 21.9204 17.634 21.9204C17.754 21.9602 17.864 21.99 17.994 21.99C18.024 21.99 18.054 21.99 18.084 21.9801C18.174 21.99 18.274 21.99 18.364 21.99C20.384 21.99 22.004 20.3773 22.004 18.3664C22.004 16.6142 20.764 15.1508 19.094 14.8123V14.8223Z"/>
</svg>
