<svg width="24" height="24" viewBox="0 0 24 24" fill="black" xmlns="http://www.w3.org/2000/svg">
<path d="M11.16 9.23751C11.27 9.19751 11.36 9.11751 11.41 9.00751L11.74 8.29751L11.98 9.42751C12.01 9.55751 12.09 9.66751 12.21 9.72751C12.33 9.78751 12.47 9.78751 12.59 9.73751L13.5 9.33751L13.32 10.3775C13.29 10.5375 13.36 10.6975 13.49 10.7975C13.62 10.8975 13.79 10.9175 13.94 10.8475L15.23 10.2475C15.45 10.1475 15.55 9.88751 15.44 9.66751C15.34 9.44751 15.08 9.34751 14.86 9.44751L14.32 9.69751L14.49 8.67751C14.52 8.51751 14.45 8.35751 14.33 8.25751C14.2 8.15751 14.03 8.13751 13.88 8.19751L12.72 8.70751L12.32 6.82751C12.28 6.63751 12.13 6.50751 11.94 6.47751C11.75 6.45751 11.57 6.55751 11.49 6.72751L10.79 8.22751L9.51 7.58751C9.35 7.50751 9.15 7.53751 9.02 7.65751C8.89 7.77751 8.84 7.96751 8.9 8.13751L9.42 9.56751L8.51 9.79751C8.37 9.83751 8.26 9.93751 8.21 10.0675C8.16 10.1975 8.18 10.3575 8.26 10.4675L8.99 11.5275C9.08 11.6475 9.21 11.7175 9.35 11.7175C9.44 11.7175 9.52 11.6975 9.6 11.6375C9.8 11.4975 9.85 11.2275 9.72 11.0275L9.35 10.4775L10.13 10.2775C10.25 10.2475 10.35 10.1675 10.41 10.0575C10.47 9.94751 10.48 9.81751 10.43 9.69751L10.12 8.84751L10.81 9.19751C10.92 9.24751 11.04 9.25751 11.15 9.21751L11.16 9.23751Z"/>
<path d="M15.25 17.5175C15.99 17.4275 16.52 16.7575 16.44 16.0175C16.35 15.2775 15.68 14.7375 14.94 14.8275C14.2 14.9175 13.66 15.5875 13.75 16.3275C13.84 17.0675 14.51 17.6075 15.26 17.5175H15.25Z"/>
<path d="M21.21 9.06751L17.69 9.47751C17.6 9.48751 17.52 9.52751 17.46 9.58751L14.61 12.9475L13.1 13.1275C12.6 13.1975 11.69 13.6875 11.85 15.0375C11.98 16.1575 12.69 16.5675 13.2 16.6675C13.18 16.5775 13.16 16.4875 13.15 16.3975C13.02 15.3275 13.79 14.3475 14.86 14.2275C15.93 14.0975 16.9 14.8675 17.03 15.9375C17.05 16.0775 17.05 16.2075 17.03 16.3475L22 15.7575L21.21 9.06751Z"/>
<path d="M9.1 15.9475C9.1 15.1875 8.48 14.5675 7.72 14.5675C6.96 14.5675 6.34 15.1875 6.34 15.9475C6.34 16.7075 6.96 17.3275 7.72 17.3275C8.48 17.3275 9.1 16.7075 9.1 15.9475Z"/>
<path d="M5.73 15.9475C5.73 14.8475 6.62 13.9575 7.72 13.9575C8.82 13.9575 9.71 14.8475 9.71 15.9475C9.71 16.0675 9.7 16.1775 9.68 16.2875H10.39C10.62 16.2875 10.8 16.1075 10.8 15.8775V13.6575C10.8 13.4275 10.62 13.2475 10.39 13.2475L8.88 12.6375L6.27 9.60751C6.19 9.53751 6.09 9.49751 5.99 9.49751H2V16.3675H5.77C5.74 16.2375 5.73 16.0975 5.73 15.9575V15.9475Z"/>
</svg>
