<svg width="24" height="24" viewBox="0 0 24 24" fill="black" xmlns="http://www.w3.org/2000/svg">
<path d="M15.6697 12.4181C15.7865 12.5098 15.9199 12.5598 16.0784 12.5598C16.2369 12.5598 16.3703 12.5181 16.4871 12.4264C16.6038 12.3347 16.6872 12.2012 16.754 12.0177C16.8207 11.8342 16.8457 11.6174 16.8457 11.3505C16.8457 11.0836 16.8123 10.8584 16.754 10.6833C16.6872 10.4998 16.6038 10.3663 16.4871 10.2746C16.3703 10.1829 16.2369 10.1412 16.0701 10.1412C15.9033 10.1412 15.7781 10.1829 15.6614 10.2746C15.5446 10.3663 15.4529 10.4998 15.3945 10.6749C15.3361 10.8584 15.3028 11.0753 15.3028 11.3422C15.3028 11.609 15.3361 11.8342 15.3945 12.0094C15.4529 12.1845 15.5446 12.3263 15.6614 12.4181H15.6697Z"/>
<path d="M21.583 15.0953H20.2235C20.2986 14.9285 20.3403 14.745 20.3403 14.5532V8.13115C20.3403 7.37219 19.7148 6.755 18.9475 6.755H5.05254C4.28524 6.755 3.65972 7.37219 3.65972 8.13115V14.5532C3.65972 14.745 3.70142 14.9285 3.77648 15.0953H2.41701C2.18349 15.0953 2 15.2788 2 15.5123C2 15.7458 2.18349 15.9293 2.41701 15.9293H4.88574C4.9608 16.6716 5.56964 17.2471 6.32861 17.2471C7.08757 17.2471 7.70475 16.6716 7.77148 15.9293H8.41368C8.48874 16.6716 9.09758 17.2471 9.85655 17.2471C10.6155 17.2471 11.2327 16.6716 11.2994 15.9293H12.7006C12.7756 16.6716 13.3845 17.2471 14.1435 17.2471C14.9024 17.2471 15.5196 16.6716 15.5863 15.9293H16.2285C16.3036 16.6716 16.9124 17.2471 17.6714 17.2471C18.4304 17.2471 19.0475 16.6716 19.1143 15.9293H21.583C21.8165 15.9293 22 15.7458 22 15.5123C22 15.2788 21.8165 15.0953 21.583 15.0953ZM14.6689 10.308C14.8107 10.0161 15.0025 9.79087 15.2444 9.62406C15.4862 9.45726 15.7615 9.38219 16.0784 9.38219C16.3953 9.38219 16.6706 9.4656 16.9124 9.62406C17.1543 9.79087 17.3461 10.0161 17.4879 10.308C17.6297 10.5999 17.7048 10.9418 17.7048 11.3338C17.7048 11.7258 17.6297 12.0678 17.4879 12.3597C17.3461 12.6516 17.1543 12.8851 16.9124 13.0436C16.6706 13.202 16.3953 13.2854 16.0867 13.2854C15.7781 13.2854 15.5029 13.202 15.2611 13.0352C15.0108 12.8684 14.819 12.6432 14.6772 12.343C14.5354 12.0427 14.4604 11.7008 14.4604 11.3171C14.4604 10.9335 14.5271 10.5832 14.6689 10.2913V10.308ZM13.201 11.6341C13.1426 11.5423 13.0676 11.4756 12.9591 11.4256C12.859 11.3755 12.7423 11.3505 12.6088 11.3505C12.4754 11.3505 12.3586 11.3672 12.2502 11.4005C12.1418 11.4339 12.0417 11.4839 11.95 11.5507L11.583 11.2087L11.7665 9.4239H13.9099V10.1412H12.4587L12.3837 10.8084C12.4254 10.7917 12.4671 10.7667 12.5088 10.7583C12.6005 10.7333 12.7006 10.725 12.8257 10.725C13.1093 10.725 13.3428 10.7834 13.5346 10.9001C13.7264 11.0169 13.8682 11.167 13.9683 11.3588C14.0684 11.5507 14.1184 11.7592 14.1184 11.9927C14.1184 12.2429 14.0601 12.4681 13.9349 12.6683C13.8098 12.8684 13.6347 13.0186 13.4178 13.1353C13.201 13.2521 12.9341 13.3021 12.6339 13.3021C12.3753 13.3021 12.1251 13.2604 11.8999 13.1687C11.6747 13.0769 11.4829 12.9435 11.3328 12.7767L11.8832 12.2346C11.95 12.3347 12.05 12.4181 12.1835 12.4764C12.3169 12.5432 12.4587 12.5682 12.6088 12.5682C12.7423 12.5682 12.8674 12.5432 12.9675 12.4931C13.0676 12.4431 13.1426 12.3764 13.201 12.2846C13.2594 12.1929 13.2844 12.0844 13.2844 11.9677C13.2844 11.8509 13.2594 11.7342 13.201 11.6424V11.6341ZM8.93078 9.57402C9.1643 9.44058 9.43119 9.38219 9.73144 9.38219C9.98999 9.38219 10.2235 9.43224 10.4153 9.52398C10.6072 9.62406 10.7573 9.75751 10.8657 9.94099C10.9741 10.1245 11.0242 10.333 11.0242 10.5749C11.0242 10.725 11.0075 10.8668 10.9658 10.9919C10.9241 11.117 10.8657 11.2421 10.774 11.3672C10.6822 11.4923 10.5655 11.6257 10.4237 11.7759L9.67306 12.5265H11.1076V13.2521H8.37198V12.7767L9.83153 11.2671C9.92327 11.1754 9.98999 11.092 10.0484 11.0169C10.0984 10.9418 10.1401 10.8668 10.1651 10.8C10.1902 10.7333 10.2068 10.6666 10.2068 10.5999C10.2068 10.4498 10.1568 10.333 10.0651 10.2496C9.97331 10.1662 9.84821 10.1245 9.68974 10.1245C9.53128 10.1245 9.40617 10.1662 9.28107 10.2496C9.1643 10.333 9.04754 10.4581 8.93078 10.6416L8.36364 10.1495C8.51376 9.89095 8.70559 9.69913 8.93912 9.57402H8.93078ZM6.30359 9.44058H7.8799V13.2437H7.03753V10.1578H6.30359V9.44058ZM6.32861 16.6216C5.91993 16.6216 5.59466 16.3213 5.5196 15.9293H7.12927C7.06255 16.3213 6.73728 16.6216 6.32027 16.6216H6.32861ZM9.85655 16.6216C9.44787 16.6216 9.1226 16.3213 9.04754 15.9293H10.6572C10.5905 16.3213 10.2652 16.6216 9.84821 16.6216H9.85655ZM14.1435 16.6216C13.7348 16.6216 13.4095 16.3213 13.3344 15.9293H14.9441C14.8774 16.3213 14.5521 16.6216 14.1351 16.6216H14.1435ZM17.6714 16.6216C17.2627 16.6216 16.9374 16.3213 16.8624 15.9293H18.4721C18.4053 16.3213 18.0801 16.6216 17.6631 16.6216H17.6714Z"/>
</svg>
