<svg width="24" height="24" viewBox="0 0 24 24" fill="black" xmlns="http://www.w3.org/2000/svg">
<path d="M20.01 10.99V11.99C19.91 11.99 19.83 11.99 19.76 11.99C18.11 11.99 16.47 11.99 14.82 11.99C14.67 11.99 14.59 12.03 14.54 12.18C14.06 13.39 13.56 14.6 13.08 15.81C13.03 15.94 12.97 16 12.82 16.02C11.18 16.28 9.55 16.56 7.91 16.83C7.76 16.86 7.68 16.92 7.63 17.07C7.55 17.36 7.45 17.64 7.35 17.92C7.11 18.6 6.6 18.97 5.88 18.98C5.09 18.98 4.29 18.98 3.5 18.98C2.32 18.97 1.65 17.83 2.21 16.79C2.66 15.97 3.12 15.15 3.57 14.33C3.97 13.61 4.37 12.9 4.76 12.18C4.79 12.12 4.82 12.07 4.86 11.99C4.79 11.99 4.73 11.98 4.68 11.98C4.14 11.98 3.6 11.98 3.06 11.98C2.42 11.99 2 11.57 2 10.92C2 9.64 2 8.36 2 7.08C2 6.41 2.41 6 3.08 5.99C3.64 5.99 4.2 5.99 4.76 5.99C4.83 5.99 4.9 5.99 5 5.99V5H11.99V5.99H20V6.99H22V10.97L20.01 10.99ZM9.17 12.5C8.92 13.24 8.69 13.95 8.44 14.68C9.49 14.53 10.51 14.38 11.53 14.23C11.59 14.23 11.67 14.14 11.69 14.07C11.85 13.6 12 13.14 12.16 12.67C12.23 12.45 12.3 12.23 12.38 12H10.05C10.32 12.34 10.57 12.66 10.83 12.99C10.56 13.19 10.3 13.38 10.03 13.58C9.75 13.22 9.47 12.87 9.18 12.49L9.17 12.5Z"/>
</svg>
