<svg width="24" height="24" viewBox="0 0 24 24" fill="black" xmlns="http://www.w3.org/2000/svg">
<path d="M21.5899 16.0642C21.3198 15.7641 20.9897 15.5741 20.5896 15.474C19.6693 15.234 18.759 14.9839 17.8387 14.7538C17.6887 14.7138 17.5887 14.6438 17.4986 14.5237C16.9585 13.8235 16.4083 13.1433 15.8681 12.4431C15.7881 12.3431 15.7081 12.2631 15.6181 12.183C16.5183 11.1327 17.0585 9.7723 17.0585 8.29185C17.0585 4.98085 14.3677 2.29004 11.0567 2.29004C7.74569 2.29004 5.06488 4.97085 5.06488 8.28185C5.06488 9.73229 5.58504 11.0627 6.4453 12.103C6.28525 12.243 6.1452 12.4031 6.01517 12.6032C5.59504 13.2634 5.16491 13.9236 4.73478 14.5738C4.67476 14.6538 4.58473 14.7338 4.49471 14.7738C4.05457 14.9739 3.61444 15.1739 3.1643 15.364C2.39407 15.7141 2.00395 16.2943 2.00395 17.1345C2.00395 17.5847 1.98395 18.0448 2.03396 18.4949C2.13399 19.4252 2.86421 20.0554 3.8245 20.0454C4.1446 20.0454 4.29464 20.1154 4.42468 20.4255C4.7948 21.2558 5.67506 21.7559 6.56533 21.7059C7.53562 21.6559 8.31586 21.0857 8.63596 20.1955C8.67597 20.0854 8.71598 20.0454 8.83602 20.0454C11.0267 20.0454 13.2273 20.0454 15.418 20.0454C15.538 20.0454 15.5781 20.0854 15.6181 20.1955C15.9382 21.1057 16.7984 21.6959 17.7587 21.7059C18.739 21.7059 19.5893 21.1157 19.9194 20.1955C19.9494 20.0954 19.9894 20.0454 20.0994 20.0554C21.0997 20.0854 21.85 19.4252 21.98 18.535C21.98 18.525 21.99 18.5149 22 18.5049V16.9545C21.91 16.6344 21.8099 16.3243 21.5799 16.0742L21.5899 16.0642ZM9.89634 9.92235L8.83602 8.85202H10.3765L9.89634 9.92235ZM16.0682 8.28185C16.0682 11.0427 13.8275 13.2834 11.0667 13.2834C10.8266 13.2834 10.5966 13.2634 10.3665 13.2233C10.1664 13.2033 9.96636 13.1633 9.7763 13.1033H9.7663L11.6669 8.85202H11.6769L12.177 7.72168L13.7975 4.09058C13.9676 4.20062 14.1276 4.32065 14.2777 4.4607C15.368 5.37097 16.0682 6.74139 16.0682 8.28185ZM11.0667 3.28034C11.6469 3.28034 12.217 3.38037 12.7272 3.57043L10.8766 7.72168H8.83602L10.4065 6.1412C10.5165 6.03117 10.5765 5.89113 10.5765 5.74108C10.5765 5.59104 10.5165 5.45099 10.4165 5.34096C10.1964 5.1309 9.82632 5.1309 9.61625 5.34096L7.07549 7.88173C6.85542 8.1018 6.85542 8.46191 7.07549 8.68197L9.40619 11.0127L8.66597 12.6732C7.1155 11.8129 6.06518 10.1724 6.06518 8.28185C6.06518 5.52102 8.30586 3.28034 11.0667 3.28034ZM6.4753 20.8957C5.67506 20.8957 5.01486 20.2455 5.02487 19.4852C5.03487 18.705 5.69507 18.0748 6.48531 18.0848C7.27555 18.0848 7.94575 18.735 7.93575 19.5052C7.93575 20.2855 7.26554 20.9057 6.4753 20.9057V20.8957ZM17.7687 20.8957C16.9685 20.8957 16.3083 20.2455 16.3183 19.4852C16.3283 18.705 16.9885 18.0748 17.7787 18.0848C18.579 18.0848 19.2392 18.735 19.2292 19.4952C19.2292 20.2655 18.569 20.8957 17.7687 20.8957Z"/>
<path d="M12.3171 8.85202H14.5878C14.8979 8.85202 15.1579 8.59194 15.1579 8.28185C15.1579 7.97176 14.8979 7.72168 14.5878 7.72168H12.8272L12.3171 8.85202Z"/>
</svg>
