<svg width="24" height="24" viewBox="0 0 24 24" fill="black" xmlns="http://www.w3.org/2000/svg">
<path d="M12.2651 13.41L10.8251 11.04L10.3651 13.38L8.13513 15.46C7.79513 15.79 7.78513 16.33 8.11513 16.67C8.28513 16.83 8.49513 16.92 8.71513 16.92C8.90513 16.92 9.10513 16.85 9.26513 16.71L12.1251 14.25L12.2651 13.41Z"/>
<path d="M16.3051 15.92C16.3051 15.76 16.2651 15.59 16.1751 15.44L13.3551 10.68L13.8651 8.13L14.4151 9.46L17.0051 10.68C17.3451 10.84 17.7451 10.65 17.8351 10.28C17.8451 10.23 17.8551 10.18 17.8551 10.13C17.8551 9.91 17.7251 9.7 17.5151 9.6L15.4051 8.61L14.2751 6.07C14.0351 5.51 13.3951 5.25 12.8251 5.48L9.23513 6.93L8.20513 9.67C8.07513 10 8.27513 10.36 8.61513 10.43C8.65513 10.44 8.69513 10.44 8.73513 10.44C8.97513 10.44 9.18513 10.3 9.27513 10.08L10.1251 7.91L11.5751 7.36L10.9951 10.24L14.5551 16.39C14.8651 16.93 15.5951 17.02 16.0351 16.58C16.2151 16.4 16.3051 16.16 16.3051 15.92Z"/>
<path d="M13.9351 4.64C14.6641 4.64 15.2551 4.04902 15.2551 3.32C15.2551 2.59098 14.6641 2 13.9351 2C13.2061 2 12.6151 2.59098 12.6151 3.32C12.6151 4.04902 13.2061 4.64 13.9351 4.64Z"/>
<path d="M6.95513 22C6.95513 22 7.03513 21.98 7.04513 21.94L8.58513 18.43C8.61513 18.36 8.56513 18.29 8.49513 18.29H5.91513C5.91513 18.29 5.83513 18.32 5.82513 18.36L4.54513 21.87C4.52513 21.94 4.56513 22 4.63513 22H6.95513Z"/>
<path d="M11.2951 18.36L10.1051 21.87C10.0851 21.93 10.1351 22 10.1951 22H13.9151C13.9851 22 14.0351 21.93 14.0051 21.87L12.7451 18.36C12.7451 18.36 12.6951 18.29 12.6551 18.29H11.3851C11.3851 18.29 11.3051 18.32 11.2951 18.36Z"/>
<path d="M17.9351 18.29H15.5551C15.4851 18.29 15.4351 18.36 15.4651 18.43L16.9551 21.94C16.9551 21.94 17.0051 22 17.0451 22H19.3651C19.4351 22 19.4851 21.93 19.4551 21.86L18.0251 18.35C18.0251 18.35 17.9751 18.29 17.9351 18.29Z"/>
</svg>
