<svg width="24" height="24" viewBox="0 0 24 24" fill="black" xmlns="http://www.w3.org/2000/svg">
<path fill-rule="evenodd" clip-rule="evenodd" d="M18 19L18 5C18 4.44772 17.5523 4 17 4L7 4C6.44772 4 6 4.44772 6 5L6 19C6 19.5523 6.44772 20 7 20H17C17.5523 20 18 19.5523 18 19ZM20 5C20 3.34315 18.6569 2 17 2L7 2C5.34315 2 4 3.34315 4 5L4 19C4 20.6569 5.34315 22 7 22H17C18.6569 22 20 20.6569 20 19V5Z"/>
<path d="M10.513 7C9.20543 7 8.14241 8.06506 8.14241 9.37513C8.14241 10.6602 9.14555 11.7003 10.4531 11.7453C10.493 11.7403 10.533 11.7403 10.5629 11.7453C10.5729 11.7453 10.5779 11.7453 10.5879 11.7453C10.5929 11.7453 10.5929 11.7453 10.5978 11.7453C11.8755 11.7003 12.8786 10.6602 12.8836 9.37513C12.8836 8.06506 11.8206 7 10.513 7Z"/>
<path d="M13.0488 13.0748C11.6564 12.1447 9.38557 12.1447 7.98317 13.0748C7.34935 13.4998 7 14.0748 7 14.6899C7 15.3049 7.34935 15.8749 7.97818 16.295C8.67689 16.765 9.59518 17 10.5135 17C11.4318 17 12.3501 16.765 13.0488 16.295C13.6776 15.8699 14.0269 15.2999 14.0269 14.6799C14.022 14.0648 13.6776 13.4948 13.0488 13.0748Z"/>
<path d="M15.9975 9.66922C16.0774 10.6393 15.3886 11.4893 14.4354 11.6043C14.4304 11.6043 14.4304 11.6043 14.4254 11.6043H14.4105C14.3805 11.6043 14.3506 11.6043 14.3256 11.6143C13.8415 11.6393 13.3973 11.4843 13.063 11.1993C13.577 10.7393 13.8715 10.0492 13.8116 9.2992C13.7766 8.89418 13.6369 8.52416 13.4273 8.20914C13.6169 8.11413 13.8365 8.05413 14.0611 8.03413C15.0393 7.94913 15.9127 8.67917 15.9975 9.66922Z"/>
<path d="M16.9951 14.2956C16.9552 14.7806 16.6458 15.2006 16.1267 15.4857C15.6276 15.7607 14.9988 15.8907 14.375 15.8757C14.7343 15.5507 14.9439 15.1456 14.9838 14.7156C15.0337 14.0956 14.7393 13.5006 14.1504 13.0255C13.816 12.7605 13.4267 12.5505 13.0025 12.3955C14.1055 12.0755 15.4929 12.2905 16.3463 12.9805C16.8055 13.3505 17.04 13.8156 16.9951 14.2956Z"/>
</svg>
