<svg width="24" height="24" viewBox="0 0 24 24" fill="black" xmlns="http://www.w3.org/2000/svg">
<path fill-rule="evenodd" clip-rule="evenodd" d="M3 18C3 17.4477 3.44772 17 4 17H13.1707C13.5825 15.8348 14.6938 15 16 15C17.3062 15 18.4175 15.8348 18.8293 17H20C20.5523 17 21 17.4477 21 18C21 18.5523 20.5523 19 20 19H18.8293C18.4175 20.1652 17.3062 21 16 21C14.6938 21 13.5825 20.1652 13.1707 19H4C3.44772 19 3 18.5523 3 18ZM3 12C3 11.4477 3.44772 11 4 11H5.17071C5.58254 9.83481 6.69378 9 8 9C9.30622 9 10.4175 9.83481 10.8293 11L20 11C20.5523 11 21 11.4477 21 12C21 12.5523 20.5523 13 20 13H10.8293C10.4175 14.1652 9.30622 15 8 15C6.69378 15 5.58254 14.1652 5.17071 13H4C3.44772 13 3 12.5523 3 12ZM3 6C3 5.44771 3.44772 5 4 5H13.1707C13.5825 3.83481 14.6938 3 16 3C17.3062 3 18.4175 3.83481 18.8293 5H20C20.5523 5 21 5.44771 21 6C21 6.55229 20.5523 7 20 7H18.8293C18.4175 8.16519 17.3062 9 16 9C14.6938 9 13.5825 8.16519 13.1707 7H4C3.44772 7 3 6.55229 3 6ZM7 12C7 12.5523 7.44772 13 8 13C8.55228 13 9 12.5523 9 12C9 11.4477 8.55228 11 8 11C7.44772 11 7 11.4477 7 12ZM15 18C15 18.5523 15.4477 19 16 19C16.5523 19 17 18.5523 17 18C17 17.4477 16.5523 17 16 17C15.4477 17 15 17.4477 15 18ZM15 6C15 6.55229 15.4477 7 16 7C16.5523 7 17 6.55229 17 6C17 5.44771 16.5523 5 16 5C15.4477 5 15 5.44771 15 6Z"/>
</svg>
