<svg width="24" height="24" viewBox="0 0 24 24" fill="black" xmlns="http://www.w3.org/2000/svg">
<path fill-rule="evenodd" clip-rule="evenodd" d="M18.8996 7.79447C18.7191 7.05102 17.6618 7.05102 17.4813 7.79447C17.3647 8.27473 16.8145 8.50265 16.3925 8.24549C15.7391 7.84742 14.9915 8.59506 15.3896 9.24839C15.6467 9.67043 15.4188 10.2207 14.9385 10.3373C14.1951 10.5177 14.1951 11.5751 14.9385 11.7556C15.4188 11.8721 15.6467 12.4224 15.3896 12.8444C14.9915 13.4977 15.7391 14.2454 16.3925 13.8473C16.8145 13.5902 17.3647 13.8181 17.4813 14.2983C17.6618 15.0418 18.7191 15.0418 18.8996 14.2983C19.0162 13.8181 19.5665 13.5902 19.9885 13.8473C20.6418 14.2454 21.3895 13.4977 20.9914 12.8444C20.7342 12.4224 20.9621 11.8721 21.4424 11.7556C22.1859 11.5751 22.1859 10.5177 21.4424 10.3373C20.9621 10.2207 20.7342 9.67043 20.9914 9.24839C21.3895 8.59506 20.6418 7.84742 19.9885 8.24549C19.5665 8.50265 19.0162 8.27473 18.8996 7.79447ZM18.1905 12.475C18.9795 12.475 19.619 11.8354 19.619 11.0464C19.619 10.2574 18.9795 9.61783 18.1905 9.61783C17.4015 9.61783 16.7619 10.2574 16.7619 11.0464C16.7619 11.8354 17.4015 12.475 18.1905 12.475Z"/>
<path fill-rule="evenodd" clip-rule="evenodd" d="M9.61905 4.37974C8.04109 4.37974 6.7619 5.65892 6.7619 7.23688C6.7619 8.81484 8.04109 10.094 9.61905 10.094C11.197 10.094 12.4762 8.81484 12.4762 7.23688C12.4762 5.65892 11.197 4.37974 9.61905 4.37974ZM4.85714 7.23688C4.85714 4.60695 6.98912 2.47498 9.61905 2.47498C12.249 2.47498 14.381 4.60695 14.381 7.23688C14.381 9.86681 12.249 11.9988 9.61905 11.9988C6.98912 11.9988 4.85714 9.86681 4.85714 7.23688ZM3.98377 19.6178H15.2543C14.8009 16.9152 12.4505 14.8559 9.61905 14.8559C6.78762 14.8559 4.43718 16.9152 3.98377 19.6178ZM2 20.5702C2 16.3623 5.41116 12.9512 9.61905 12.9512C13.8269 12.9512 17.2381 16.3623 17.2381 20.5702C17.2381 21.0962 16.8117 21.5226 16.2857 21.5226H2.95238C2.4264 21.5226 2 21.0962 2 20.5702Z"/>
</svg>
