<svg width="32" height="32" viewBox="0 0 32 32" fill="none" xmlns="http://www.w3.org/2000/svg">
<g id="outline/alert">
<g id="Vector">
<path fill-rule="evenodd" clip-rule="evenodd" d="M15.9996 11.1517C16.6694 11.1517 17.2124 11.6944 17.2124 12.3638V18.4244C17.2124 19.0938 16.6694 19.6365 15.9996 19.6365C15.3297 19.6365 14.7867 19.0938 14.7867 18.4244V12.3638C14.7867 11.6944 15.3297 11.1517 15.9996 11.1517ZM15.9996 21.4547C16.6694 21.4547 17.2124 21.9974 17.2124 22.6668V23.2728C17.2124 23.9423 16.6694 24.485 15.9996 24.485C15.3297 24.485 14.7867 23.9423 14.7867 23.2728V22.6668C14.7867 21.9974 15.3297 21.4547 15.9996 21.4547Z" fill="#DB3E41"/>
<path fill-rule="evenodd" clip-rule="evenodd" d="M16.9217 5.70271C16.5077 4.8875 15.4952 4.88606 15.0796 5.70332L5.25701 25.0076C5.24987 25.0232 5.24238 25.0387 5.23455 25.0541C4.75178 26.0021 5.46639 26.9092 6.15484 26.9092H25.8431C26.5321 26.9092 27.2472 26.0022 26.7664 25.0528L16.9217 5.70271ZM3.04446 24.0112C3.0529 23.9923 3.06185 23.9735 3.07131 23.9549L12.9171 4.60502C14.2311 2.02165 17.7709 2.01974 19.0844 4.6048L28.9299 23.9565C30.1003 26.265 28.6179 29.3334 25.8431 29.3334H6.15484C3.4044 29.3334 1.92059 26.3146 3.04446 24.0112Z" fill="#DB3E41"/>
</g>
</g>
</svg>
