<svg width="24" height="24" viewBox="0 0 24 24" fill="black" xmlns="http://www.w3.org/2000/svg">
<path d="M8.9965 5.49825C8.9965 3.56922 7.42729 2 5.49825 2C3.56922 2 2 3.56922 2 5.49825C2 7.07746 3.05947 8.3968 4.49875 8.83658V15.1634C3.05947 15.5932 2 16.9225 2 18.5017C2 20.4308 3.56922 22 5.49825 22C7.42729 22 8.9965 20.4308 8.9965 18.5017C8.9965 16.9225 7.93703 15.6032 6.49775 15.1634V8.83658C7.93703 8.4068 8.9965 7.07746 8.9965 5.49825ZM3.999 5.49825C3.999 4.66867 4.66867 3.999 5.49825 3.999C6.32784 3.999 6.9975 4.66867 6.9975 5.49825C6.9975 6.32784 6.32784 6.9975 5.49825 6.9975C4.66867 6.9975 3.999 6.32784 3.999 5.49825ZM6.9975 18.4918C6.9975 19.3213 6.32784 19.991 5.49825 19.991C4.66867 19.991 3.999 19.3213 3.999 18.4918C3.999 17.6622 4.66867 16.9925 5.49825 16.9925C6.32784 16.9925 6.9975 17.6622 6.9975 18.4918Z"/>
<path d="M19.4913 15.1534V5.998C19.4913 5.44828 19.0415 4.9985 18.4918 4.9985H14.4038L15.6932 3.70915C16.083 3.31934 16.083 2.68966 15.6932 2.29985C15.3033 1.91005 14.6737 1.91005 14.2839 2.29985L11.2854 5.29835C10.8956 5.68816 10.8956 6.31784 11.2854 6.70765L14.2839 9.70615C14.4838 9.90605 14.7336 9.996 14.9935 9.996C15.2534 9.996 15.5032 9.89605 15.7031 9.70615C16.093 9.31634 16.093 8.68666 15.7031 8.29685L14.4138 7.0075H17.5022V15.1634C16.063 15.5932 15.0035 16.9225 15.0035 18.5017C15.0035 20.4308 16.5727 22 18.5017 22C20.4308 22 22 20.4308 22 18.5017C22 16.9225 20.9405 15.6032 19.5012 15.1634L19.4913 15.1534ZM18.4918 19.991C17.6622 19.991 16.9925 19.3213 16.9925 18.4918C16.9925 17.6622 17.6622 16.9925 18.4918 16.9925C19.3213 16.9925 19.991 17.6622 19.991 18.4918C19.991 19.3213 19.3213 19.991 18.4918 19.991Z"/>
</svg>
