<svg width="24" height="24" viewBox="0 0 24 24" fill="black" xmlns="http://www.w3.org/2000/svg">
<path d="M10.0058 20C9.74588 20 9.49601 19.9 9.29611 19.71L2.29961 12.7111C2.19966 12.6112 2.12969 12.5012 2.07972 12.3812C2.02974 12.2612 2.00975 12.1412 1.99976 12.0012H2.00975C2.00975 11.8613 2.03974 11.7313 2.08971 11.6213C2.13969 11.5013 2.20965 11.3913 2.3096 11.2914L9.29611 4.29245C9.68591 3.90252 10.3156 3.90252 10.7054 4.29245C11.0952 4.68239 11.0952 5.31229 10.7054 5.70223L5.41805 11.0014H21.0003C21.55 11.0014 21.9998 11.4513 21.9998 12.0012C21.9998 12.5512 21.55 13.0011 21.0003 13.0011H5.41805L10.7054 18.2903C11.0952 18.6802 11.0952 19.3101 10.7054 19.7C10.5055 19.9 10.2556 19.99 9.99576 19.99L10.0058 20Z"/>
</svg>
