<svg width="24" height="24" viewBox="0 0 24 24" fill="black" xmlns="http://www.w3.org/2000/svg">
<path d="M21.9001 11.6213C21.8502 11.5014 21.7803 11.3914 21.6805 11.2914L16.698 6.29244C16.3085 5.90252 15.6795 5.90252 15.2901 6.29244C14.9006 6.68236 14.9006 7.31223 15.2901 7.70215L18.5751 10.9915H5.41488L8.69995 7.70215C9.08937 7.31223 9.08937 6.68236 8.69995 6.29244C8.31053 5.90252 7.68148 5.90252 7.29206 6.29244L2.29955 11.2914C2.1997 11.3914 2.12981 11.5014 2.07988 11.6213C2.02996 11.7413 2 11.8613 2 12.0012C2 12.1412 2.02996 12.2712 2.07988 12.3812C2.12981 12.5011 2.1997 12.6111 2.29955 12.7111L7.29206 17.7101C7.49176 17.91 7.74139 18 8.001 18C8.26061 18 8.51023 17.9 8.70994 17.7101C9.09935 17.3201 9.09935 16.6903 8.70994 16.3004L5.42486 13.011H18.5751L15.2901 16.3004C14.9006 16.6903 14.9006 17.3201 15.2901 17.7101C15.4898 17.91 15.7394 18 15.999 18C16.2586 18 16.5082 17.9 16.7079 17.7101L21.7004 12.7111C21.8003 12.6111 21.8702 12.5011 21.9201 12.3812C21.97 12.2612 22 12.1412 22 12.0012C22 11.8613 21.97 11.7313 21.9201 11.6213H21.9001Z"/>
</svg>
