<svg width="24" height="24" viewBox="0 0 24 24" fill="black" xmlns="http://www.w3.org/2000/svg">
<path d="M20.71 3.29C20.32 2.9 19.69 2.9 19.3 3.29L16.01 6.58V4.99C16.01 4.44 15.56 3.99 15.01 3.99C14.46 3.99 14.01 4.44 14.01 4.99V9C14.01 9.13 14.04 9.26 14.09 9.38C14.19 9.62 14.39 9.82 14.63 9.92C14.75 9.97 14.88 10 15.01 10H19.01C19.56 10 20.01 9.55 20.01 9C20.01 8.45 19.56 8 19.01 8H17.42L20.71 4.71C21.1 4.32 21.1 3.69 20.71 3.3V3.29Z"/>
<path d="M9.38 14.08C9.26 14.03 9.13 14 9 14H5C4.45 14 4 14.45 4 15C4 15.55 4.45 16 5 16H6.59L3.29 19.29C2.9 19.68 2.9 20.31 3.29 20.7C3.49 20.9 3.74 20.99 4 20.99C4.26 20.99 4.51 20.89 4.71 20.7L8 17.41V19C8 19.55 8.45 20 9 20C9.55 20 10 19.55 10 19V15C10 14.87 9.97 14.74 9.92 14.62C9.82 14.37 9.62 14.18 9.38 14.08Z"/>
</svg>
