<svg width="24" height="24" viewBox="0 0 24 24" fill="black" xmlns="http://www.w3.org/2000/svg">
<path d="M19.2727 4.27502H4.72727C3.22727 4.27502 2 5.5023 2 7.0023V17.0023C2 18.5023 3.22727 19.7296 4.72727 19.7296H19.2727C20.7727 19.7296 22 18.5023 22 17.0023V7.0023C22 5.5023 20.7727 4.27502 19.2727 4.27502ZM20.1818 17.0023C20.1818 17.5023 19.7727 17.9114 19.2727 17.9114H4.72727C4.22727 17.9114 3.81818 17.5023 3.81818 17.0023V7.0023C3.81818 6.5023 4.22727 6.09321 4.72727 6.09321H19.2727C19.7727 6.09321 20.1818 6.5023 20.1818 7.0023V17.0023Z" />
<path d="M17.4545 11.0932C16.9545 11.0932 16.5455 11.5023 16.5455 12.0023V14.275H13.8182C13.3182 14.275 12.9091 14.6841 12.9091 15.1841C12.9091 15.6841 13.3182 16.0932 13.8182 16.0932H16.5455C17.5455 16.0932 18.3636 15.275 18.3636 14.275V12.0023C18.3636 11.5023 17.9545 11.0932 17.4545 11.0932Z" />
<path d="M10.1818 7.91139H7.45455C6.45455 7.91139 5.63636 8.72957 5.63636 9.72957V12.0023C5.63636 12.5023 6.04545 12.9114 6.54545 12.9114C7.04545 12.9114 7.45455 12.5023 7.45455 12.0023V9.72957H10.1818C10.6818 9.72957 11.0909 9.32048 11.0909 8.82048C11.0909 8.32048 10.6818 7.91139 10.1818 7.91139Z" />
</svg>
