<svg width="24" height="24" viewBox="0 0 24 24" fill="black" xmlns="http://www.w3.org/2000/svg">
<path d="M21.589 9.10487C20.9372 6.97237 19.5735 5.09016 17.7385 3.80866C15.9036 2.52716 13.6675 1.88641 11.4315 2.01656C9.19543 2.14671 7.0396 3.02775 5.35504 4.50948L4.02143 5.71089V3.95884C4.02143 3.40819 3.57021 2.95766 3.01872 2.95766C2.46722 2.95766 2.016 3.39818 2.016 3.94883V7.95352C2.016 8.00358 2.03606 8.04363 2.04608 8.09369C2.05611 8.16377 2.06614 8.23385 2.08619 8.30394C2.11627 8.37402 2.15638 8.43409 2.19649 8.49416C2.22657 8.5342 2.2366 8.58426 2.26668 8.6143C2.26668 8.6143 2.27671 8.6143 2.28673 8.63432C2.33687 8.68438 2.40706 8.72443 2.46722 8.76448C2.51736 8.79451 2.55747 8.83456 2.6076 8.85458C2.65774 8.8746 2.7179 8.88462 2.76804 8.89463C2.83823 8.91465 2.91844 8.93467 2.98863 8.93467H7.01954C7.57103 8.93467 8.02225 8.48415 8.02225 7.9335C8.02225 7.38285 7.57103 6.93233 7.01954 6.93233H5.62577L6.67862 5.98121C8.02226 4.79982 9.74692 4.08899 11.5318 3.98887C13.3166 3.88876 15.1114 4.39935 16.5754 5.42055C18.0394 6.44175 19.1323 7.95352 19.6537 9.65552C20.1751 11.3675 20.105 13.2197 19.4532 14.8917C18.8014 16.5536 17.5982 17.9753 16.054 18.8864C14.5098 19.7974 12.6849 20.1679 10.9101 19.9276C9.13527 19.6873 7.47076 18.8563 6.2274 17.5748C4.98403 16.2933 4.19189 14.6113 4.00137 12.8292C3.94121 12.2786 3.45991 11.8881 2.89839 11.9382C2.3469 11.9983 1.94581 12.4888 2.00597 13.0395C2.2366 15.2621 3.22929 17.3646 4.79352 18.9664C6.35775 20.5683 8.43337 21.6095 10.6494 21.9099C11.0906 21.97 11.5318 22 11.9629 22C13.7477 22 15.5226 21.5194 17.0667 20.6084C18.9919 19.477 20.506 17.705 21.3182 15.6225C22.1304 13.5401 22.2207 11.2174 21.5689 9.08485L21.589 9.10487Z"/>
<path d="M10.8299 15.7326V9.05482H9.08513L6.52821 11.5578L7.67131 12.7491L8.80437 11.6278V15.7326H10.8299Z"/>
<path d="M14.5198 15.8528C16.5152 15.8528 17.4879 14.2109 17.4879 12.3987C17.4879 10.5866 16.5152 8.9547 14.5198 8.9547C12.5244 8.9547 11.5518 10.5866 11.5518 12.3987C11.5518 14.2109 12.5244 15.8528 14.5198 15.8528ZM14.5198 10.7368C15.1616 10.7368 15.4524 11.2674 15.4524 12.3987C15.4524 13.5301 15.1616 14.0707 14.5198 14.0707C13.8781 14.0707 13.5873 13.5301 13.5873 12.3987C13.5873 11.2674 13.8781 10.7368 14.5198 10.7368Z"/>
</svg>
