<svg width="24" height="24" viewBox="0 0 24 24" fill="white" xmlns="http://www.w3.org/2000/svg">
<path d="M11.9922 22C9.78377 22 7.99503 20.2109 7.99503 18.002H3.99782C3.5981 18.002 3.22836 17.7621 3.07847 17.3823C2.91858 17.0125 3.00852 16.5827 3.29831 16.2929L4.70733 14.8836C4.89719 14.6937 5.00712 14.4338 5.00712 14.1539V10.9955C5.00712 8.26687 6.59601 5.8081 9.02431 4.65867C9.19419 3.15942 10.4633 2 12.0022 2C13.5411 2 14.8103 3.16942 14.9801 4.65867C17.4084 5.8081 18.9973 8.26687 18.9973 10.9955V14.1539C18.9973 14.4338 19.1072 14.6937 19.2971 14.8836L20.7061 16.2929C20.9959 16.5827 21.0759 17.0125 20.926 17.3823C20.7761 17.7521 20.4063 18.002 20.0066 18.002H16.0094C16.0094 20.2109 14.2207 22 12.0122 22H11.9922ZM9.99363 18.002C9.99363 19.1014 10.893 20.001 11.9922 20.001C13.0915 20.001 13.9908 19.1014 13.9908 18.002H9.99363ZM17.6083 16.003C17.2086 15.4733 16.9887 14.8336 16.9887 14.1639V11.0055C16.9887 8.88656 15.6497 6.9975 13.6611 6.28786C13.2613 6.14793 12.9915 5.76812 12.9915 5.34833V5.0085C12.9915 4.45877 12.5418 4.009 11.9922 4.009C11.4426 4.009 10.9929 4.45877 10.9929 5.0085V5.34833C10.9929 5.76812 10.7231 6.14793 10.3234 6.28786C8.33479 6.9975 6.99573 8.88656 6.99573 11.0055V14.1639C6.99573 14.8336 6.77588 15.4833 6.37616 16.003H17.6083Z"/>
</svg>
