<svg width="24" height="24" viewBox="0 0 24 24" fill="black" xmlns="http://www.w3.org/2000/svg">
<path d="M10.0637 22C9.86382 22 9.673 21.9637 9.49126 21.8819C9.18231 21.7456 8.92788 21.5093 8.77341 21.2004C8.61893 20.9005 8.58258 20.5461 8.66436 20.219L10.1819 14.0945H6.50171C6.27454 14.0945 6.03829 14.04 5.83838 13.9309C5.62938 13.8219 5.44765 13.6583 5.32043 13.4675C5.19322 13.2767 5.10235 13.0495 5.07509 12.8224C5.04783 12.5952 5.07509 12.3498 5.16596 12.1318L8.7098 2.92685C8.81884 2.65425 9.00058 2.41799 9.23683 2.25443C9.47309 2.09087 9.75478 2 10.0546 2H14.9524C15.4431 2 15.8884 2.24534 16.161 2.65425C16.2882 2.85416 16.37 3.08133 16.3881 3.31758C16.4063 3.56293 16.37 3.79918 16.27 4.01726L14.7252 7.52476H17.4967C17.7602 7.52476 18.0056 7.59746 18.2327 7.72467C18.4508 7.86097 18.6416 8.04271 18.7598 8.26988C18.887 8.49705 18.9415 8.75148 18.9324 9.01499C18.9233 9.26942 18.8416 9.52385 18.7053 9.74194L11.2723 21.3185C11.1451 21.5184 10.9633 21.691 10.7543 21.8001C10.5362 21.9182 10.3 21.9727 10.0637 21.9727V22ZM11.345 12.2771C11.6267 12.2771 11.8902 12.4044 12.0628 12.6224C12.2355 12.8405 12.2991 13.1313 12.2264 13.4039L10.9724 18.438L16.8061 9.3512H13.3259C13.0169 9.3512 12.7352 9.19673 12.5626 8.9423C12.399 8.68787 12.3718 8.36074 12.4899 8.07905L14.3618 3.82644H10.3L7.02874 12.2771H11.345Z"/>
</svg>
