<svg width="24" height="24" viewBox="0 0 24 24" fill="black" xmlns="http://www.w3.org/2000/svg">
<path fill-rule="evenodd" clip-rule="evenodd" d="M18.41 7.01L19.11 6.31C19.5 5.92 19.5 5.29 19.11 4.9C18.72 4.51 18.09 4.51 17.7 4.9L17 5.6C16.61 5.99 16.61 6.62 17 7.01C17.39 7.4 18.02 7.4 18.41 7.01Z"/>
<path fill-rule="evenodd" clip-rule="evenodd" d="M12 5C12.55 5 13 4.55 13 4V3C13 2.45 12.55 2 12 2C11.45 2 11 2.45 11 3V4C11 4.55 11.45 5 12 5Z"/>
<path fill-rule="evenodd" clip-rule="evenodd" d="M19 12C19 12.55 19.45 13 20 13H21C21.55 13 22 12.55 22 12C22 11.45 21.55 11 21 11H20C19.45 11 19 11.45 19 12Z"/>
<path fill-rule="evenodd" clip-rule="evenodd" d="M4 11H3C2.45 11 2 11.45 2 12C2 12.55 2.45 13 3 13H4C4.55 13 5 12.55 5 12C5 11.45 4.55 11 4 11Z"/>
<path fill-rule="evenodd" clip-rule="evenodd" d="M11.27 8.07C11.91 7.95 12.57 7.99 13.19 8.18C13.81 8.37 14.37 8.71 14.83 9.17C15.29 9.63 15.63 10.2 15.82 10.82C16.01 11.44 16.05 12.1 15.93 12.74C15.83 13.28 16.19 13.81 16.73 13.91C17.27 14.01 17.8 13.65 17.9 13.11C18.08 12.15 18.02 11.16 17.74 10.23C17.46 9.3 16.94 8.45 16.25 7.76C15.56 7.07 14.72 6.56 13.78 6.27C12.85 5.98 11.86 5.92 10.9 6.1C10.36 6.2 10 6.72 10.1 7.27C10.2 7.81 10.72 8.17 11.27 8.07Z"/>
<path fill-rule="evenodd" clip-rule="evenodd" d="M16.25 14.84L9.23 7.82C9.23 7.82 9.21 7.79 9.2 7.77C9.19 7.76 9.17 7.75 9.15 7.74L6.32 4.91L3.71 2.29C3.32 1.9 2.68 1.9 2.29 2.29C1.9 2.68 1.9 3.32 2.29 3.71L7.11 8.53C6.81 8.95 6.56 9.41 6.38 9.89C6.08 10.7 5.95 11.56 6.01 12.42C6.07 13.28 6.31 14.11 6.73 14.87C7.13 15.6 7.68 16.25 8.34 16.75C8.6 17.02 8.79 17.34 8.91 17.69C9.03 18.06 9.07 18.46 9.01 18.85C9.01 18.9 9 18.95 9 19C9 19.8 9.32 20.56 9.88 21.12C10.44 21.68 11.21 22 12 22C12.79 22 13.56 21.68 14.12 21.12C14.68 20.56 15 19.79 15 19C15 18.95 15 18.9 14.99 18.85C14.93 18.46 14.97 18.07 15.09 17.69C15.18 17.41 15.34 17.16 15.52 16.93L20.29 21.7C20.68 22.09 21.31 22.09 21.7 21.7C22.09 21.31 22.09 20.68 21.7 20.29L16.24 14.83L16.25 14.84ZM8.01 12.28C7.97 11.71 8.05 11.13 8.26 10.6C8.34 10.38 8.45 10.18 8.57 9.98L14.1 15.51C13.96 15.66 13.84 15.83 13.72 16H10.28C10.11 15.75 9.92 15.51 9.7 15.29C9.67 15.26 9.63 15.23 9.6 15.2C9.14 14.86 8.76 14.42 8.49 13.91C8.22 13.41 8.05 12.85 8.01 12.28ZM12.71 19.71C12.52 19.9 12.27 20 12 20C11.73 20 11.48 19.89 11.29 19.71C11.12 19.54 11.01 19.3 11 19.06C11.04 18.71 11.05 18.35 11 18H12.98C12.94 18.35 12.94 18.7 12.98 19.06C12.97 19.3 12.86 19.54 12.69 19.71H12.71Z"/>
</svg>
