<svg width="24" height="24" viewBox="0 0 24 24" fill="black" xmlns="http://www.w3.org/2000/svg">
<path d="M19 22H5C3.35 22 2 20.65 2 19V7C2 5.35 3.35 4 5 4H7V3C7 2.45 7.45 2 8 2C8.55 2 9 2.45 9 3V4H15V3C15 2.45 15.45 2 16 2C16.55 2 17 2.45 17 3V4H19C20.65 4 22 5.35 22 7V19C22 20.65 20.65 22 19 22ZM5 6C4.45 6 4 6.45 4 7V19C4 19.55 4.45 20 5 20H19C19.55 20 20 19.55 20 19V7C20 6.45 19.55 6 19 6H17V7C17 7.55 16.55 8 16 8C15.45 8 15 7.55 15 7V6H9V7C9 7.55 8.55 8 8 8C7.45 8 7 7.55 7 7V6H5ZM17 12H7C6.45 12 6 11.55 6 11C6 10.45 6.45 10 7 10H17C17.55 10 18 10.45 18 11C18 11.55 17.55 12 17 12Z"/>
</svg>
