<svg width="24" height="24" viewBox="0 0 24 24" fill="black" xmlns="http://www.w3.org/2000/svg">
<path d="M19 4H17V3C17 2.45 16.55 2 16 2C15.45 2 15 2.45 15 3V4H9V3C9 2.45 8.55 2 8 2C7.45 2 7 2.45 7 3V4H5C3.35 4 2 5.35 2 7V19C2 20.65 3.35 22 5 22H19C20.65 22 22 20.65 22 19V7C22 5.35 20.65 4 19 4ZM20 19C20 19.55 19.55 20 19 20H5C4.45 20 4 19.55 4 19V7C4 6.45 4.45 6 5 6H7V7C7 7.55 7.45 8 8 8C8.55 8 9 7.55 9 7V6H15V7C15 7.55 15.45 8 16 8C16.55 8 17 7.55 17 7V6H19C19.55 6 20 6.45 20 7V19Z"/>
<path d="M15.75 10.25C15.42 9.92 14.88 9.92 14.55 10.25L12.01 12.8L9.47 10.25C9.14 9.92 8.59 9.92 8.26 10.25C7.93 10.58 7.93 11.13 8.26 11.46L10.8 14.01L8.26 16.55C7.93 16.88 7.93 17.42 8.26 17.75C8.59 18.08 9.13 18.08 9.46 17.75L12 15.2L14.54 17.75C14.87 18.08 15.41 18.08 15.74 17.75C16.07 17.42 16.07 16.88 15.74 16.55L13.2 14L15.74 11.45C16.07 11.12 16.07 10.58 15.74 10.25H15.75Z"/>
</svg>
