<svg width="24" height="24" viewBox="0 0 24 24" fill="black" xmlns="http://www.w3.org/2000/svg">
<path d="M7.70557 15.7975C7.18256 15.7975 6.75464 16.2254 6.75464 16.7484V18.0702L5.84175 17.0622C4.59604 15.6644 3.90186 13.8671 3.90186 11.9938C3.90186 9.95878 4.69113 8.04742 6.12703 6.61152C7.56293 5.17561 9.4743 4.37683 11.5093 4.37683C12.0323 4.37683 12.4602 3.94891 12.4602 3.4259C12.4602 2.90289 12.0323 2.47498 11.5093 2.47498C8.97031 2.47498 6.57397 3.46394 4.78622 5.2612C2.98897 7.06796 2 9.45479 2 11.9938C2 14.3426 2.86534 16.5868 4.42487 18.3365L5.56598 19.6012H3.89235C3.36934 19.6012 2.94142 20.0291 2.94142 20.5521C2.94142 21.0751 3.36934 21.5031 3.89235 21.5031H7.69606C7.74361 21.5031 7.79115 21.484 7.8387 21.4745C7.90527 21.465 7.97183 21.4555 8.0384 21.4365C8.10496 21.408 8.16202 21.3699 8.21907 21.3319C8.25711 21.3034 8.29515 21.2939 8.33318 21.2653C8.33318 21.2653 8.33318 21.2558 8.3522 21.2463C8.40926 21.1988 8.43779 21.1322 8.48533 21.0751C8.51386 21.0276 8.5519 20.9896 8.57092 20.9515C8.58993 20.904 8.59944 20.8469 8.60895 20.7994C8.62797 20.7328 8.64699 20.6662 8.64699 20.5902C8.64699 20.5902 8.64699 20.5711 8.64699 20.5616V16.7579C8.64699 16.2349 8.21907 15.807 7.69606 15.807L7.70557 15.7975Z"/>
<path d="M15.313 8.19006C15.8455 8.19006 16.2639 7.76214 16.2639 7.23913V5.91734L17.1768 6.92532C18.1753 8.04742 18.8314 9.43577 19.0406 10.9192C19.1072 11.3757 19.5066 11.7085 19.9725 11.7085C20.5526 11.7085 20.9996 11.195 20.9235 10.6244C20.6572 8.78914 19.8584 7.06796 18.6032 5.65108L17.4621 4.38634H19.1357C19.6587 4.38634 20.0867 3.95842 20.0867 3.43541C20.0867 2.9124 19.6492 2.48448 19.1262 2.48448H15.313C15.313 2.48448 15.2179 2.5035 15.1704 2.51301C15.1038 2.52252 15.0372 2.53203 14.9802 2.55105C14.9136 2.57958 14.8566 2.61761 14.79 2.66516C14.752 2.68418 14.7139 2.69369 14.6759 2.73173C14.6759 2.73173 14.6664 2.74124 14.6664 2.75074C14.6093 2.79829 14.5808 2.85535 14.5332 2.92191C14.5047 2.95995 14.4667 2.99799 14.4477 3.04553C14.4286 3.09308 14.4286 3.14063 14.4096 3.18817C14.3906 3.26425 14.3716 3.34032 14.3716 3.41639C14.3716 3.41639 14.3621 3.4259 14.3621 3.43541V7.23913C14.3621 7.76214 14.79 8.19006 15.313 8.19006Z"/>
<path d="M21.1802 20.0862L20.2198 20.457L19.402 18.2984L21.1042 17.6518C21.8174 17.3855 22.1787 16.5772 21.9124 15.864L21.0851 13.6959C20.952 13.3441 20.6953 13.0778 20.3529 12.9257C20.0106 12.7735 19.6397 12.764 19.2879 12.8876L13.2019 15.1984C12.8596 15.3315 12.5838 15.5883 12.4317 15.9306C12.3271 16.1588 12.2986 16.4061 12.3271 16.6533L11.5759 16.9386C11.4712 16.7294 11.2335 16.6248 11.0053 16.7104C10.7771 16.7865 10.663 17.0242 10.7295 17.2619H10.72L11.7851 20.0767C11.8706 20.2383 12.0323 20.3334 12.194 20.3334C12.251 20.3334 12.2986 20.3334 12.3556 20.3049C12.5838 20.2193 12.6979 19.9816 12.6314 19.7533L13.3826 19.4681C13.5253 19.6678 13.7154 19.8389 13.9437 19.934C14.1338 20.0196 14.324 20.0576 14.5142 20.0576C14.6759 20.0576 14.847 20.0291 15.0087 19.9721L18.5271 18.6313L19.5066 21.2273C19.5541 21.3604 19.6683 21.465 19.8014 21.5031C19.8489 21.5221 19.887 21.5221 19.9345 21.5221C19.9916 21.5221 20.0391 21.5221 20.0962 21.4935L21.494 20.961C21.7318 20.8754 21.8459 20.5997 21.7603 20.3619C21.6652 20.1242 21.3989 20.0101 21.1612 20.0957L21.1802 20.0862ZM12.3271 18.8785L12.2035 18.5457L11.9182 17.7944L12.6219 17.5282L13.0308 18.6122L12.3271 18.8785Z"/>
</svg>
