<svg width="24" height="24" viewBox="0 0 24 24" fill="none" xmlns="http://www.w3.org/2000/svg">
<path d="M21.8419 9.5326L20.4176 5.76987C19.8968 4.39871 18.3556 3.70781 16.995 4.22864L6.48278 8.21458C5.82378 8.46968 5.29232 8.95862 5.00533 9.607C4.83526 9.97903 4.77149 10.3829 4.78212 10.7868L3.86801 11.1376C3.58102 10.7975 3.11334 10.6487 2.68817 10.8187C2.13545 11.0313 1.85909 11.6372 2.07168 12.1899L3.60228 16.2396L3.85738 16.9092C4.01682 17.3344 4.42072 17.6001 4.85652 17.6001C4.98407 17.6001 5.11162 17.5789 5.22854 17.5257C5.66434 17.3557 5.91944 16.9411 5.89818 16.4947L6.80166 16.1546C7.31186 16.7604 8.06653 17.1218 8.85309 17.1218C9.16134 17.1218 9.48021 17.0687 9.78846 16.9518L13.7638 15.4424L15.22 19.2689C15.3369 19.5878 15.6026 19.811 15.9002 19.9067C15.9959 19.9386 16.1022 19.9492 16.2085 19.9492C16.336 19.9492 16.4636 19.9279 16.5805 19.8748L18.9933 18.9607C19.546 18.7481 19.8224 18.1422 19.6098 17.5895C19.3972 17.0368 18.7914 16.7711 18.2387 16.973L16.825 17.5151L15.7514 14.6771L20.2901 12.9552C20.9491 12.7001 21.4806 12.2112 21.7675 11.5628C22.0545 10.9144 22.0758 10.1916 21.8313 9.5326H21.8419ZM5.20728 14.4858L4.68645 13.104L5.39861 12.8383L5.91944 14.2201L5.20728 14.4858ZM19.546 10.9782L9.04442 14.9641C8.77869 15.0704 8.45981 14.9322 8.35352 14.6559L6.92921 10.8931C6.86543 10.7124 6.90795 10.5636 6.93984 10.4892C6.97173 10.4148 7.05676 10.2766 7.23746 10.2129L17.7391 6.22693C17.8029 6.20567 17.8666 6.19504 17.9304 6.19504C18.143 6.19504 18.3449 6.32259 18.43 6.53517L19.8543 10.2979C19.9606 10.5743 19.8224 10.8825 19.546 10.9782Z" fill="black"/>
</svg>
