<svg width="24" height="24" viewBox="0 0 24 24" fill="black" xmlns="http://www.w3.org/2000/svg">
<path d="M17.9283 4.45839C14.6598 1.18054 9.35192 1.18054 6.08339 4.45839C2.80554 7.72692 2.80554 13.0348 6.08339 16.3033L10.0317 21.1829C11.1212 22.2724 12.8905 22.2724 13.98 21.1829L14.6505 20.5124C14.6505 20.5124 14.6412 20.5217 14.6691 20.4938L17.9283 16.3033C21.1969 13.0348 21.1969 7.72692 17.9283 4.44907V4.45839ZM16.6153 14.9903L12.667 19.8699C12.3039 20.233 11.7172 20.233 11.354 19.8699L7.4057 14.9903C4.86351 12.4481 4.86351 8.31358 7.4057 5.77139C9.9479 3.22919 14.0825 3.22919 16.6247 5.77139C19.1668 8.31358 19.1668 12.4481 16.6247 14.9903H16.6153Z"/>
<path d="M16.2056 9.42172L15.4979 7.55931C15.3861 7.26132 15.1627 7.02852 14.874 6.89815C14.5853 6.76778 14.2594 6.75847 13.9614 6.87021L8.73733 8.85368C8.43934 8.96543 8.20654 9.18892 8.07617 9.47759C7.98305 9.67315 7.96442 9.88732 7.98305 10.1015L7.34052 10.3436C7.25671 10.1667 7.04253 10.0736 6.84698 10.1481C6.65142 10.2132 6.5583 10.4181 6.61417 10.6137H6.60486L7.51745 13.0348C7.59194 13.1745 7.72231 13.2583 7.8713 13.2583C7.91786 13.2583 7.96443 13.2583 8.01099 13.2304C8.20654 13.1559 8.29966 12.951 8.24379 12.7554L8.88632 12.504C9.01669 12.6809 9.17499 12.8206 9.37055 12.9044C9.52885 12.9789 9.69647 13.0069 9.86409 13.0069C10.0038 13.0069 10.1528 12.9789 10.2831 12.9324L13.3096 11.787L14.157 14.0126C14.2035 14.1243 14.2966 14.2174 14.4084 14.2547C14.4456 14.2733 14.4829 14.2733 14.5201 14.2733C14.5667 14.2733 14.6132 14.2733 14.6598 14.2454L15.8611 13.7891C16.0659 13.7146 16.1684 13.4818 16.0846 13.2769C16.0007 13.0721 15.7773 12.9696 15.5724 13.0534L14.7436 13.37L14.0452 11.5169L15.5072 10.9675C16.1218 10.7347 16.4291 10.0456 16.1963 9.43103L16.2056 9.42172ZM7.98305 12.0105L7.88062 11.7218L7.62919 11.07L8.23447 10.8465L8.58833 11.7777L7.98305 12.0012V12.0105Z"/>
</svg>
