<svg width="17" height="16" viewBox="0 0 17 16" fill="none" xmlns="http://www.w3.org/2000/svg">
<path fill-rule="evenodd" clip-rule="evenodd" d="M8.5001 14.3996C12.0347 14.3996 14.9001 11.5342 14.9001 7.99961C14.9001 4.46499 12.0347 1.59961 8.5001 1.59961C4.96548 1.59961 2.1001 4.46499 2.1001 7.99961C2.1001 11.5342 4.96548 14.3996 8.5001 14.3996ZM11.4658 6.96529C11.7782 6.65288 11.7782 6.14634 11.4658 5.83392C11.1534 5.5215 10.6468 5.5215 10.3344 5.83392L7.7001 8.46824L6.66578 7.43392C6.35336 7.1215 5.84683 7.1215 5.53441 7.43392C5.22199 7.74634 5.22199 8.25287 5.53441 8.56529L7.13441 10.1653C7.44683 10.4777 7.95336 10.4777 8.26578 10.1653L11.4658 6.96529Z" fill="#0099ED"/>
</svg>
