<svg width="24" height="24" viewBox="0 0 24 24" fill="black" xmlns="http://www.w3.org/2000/svg">
<path d="M12.0037 7.45455C11.5037 7.45455 11.0946 7.86364 11.0946 8.36364V12.9091C11.0946 13.4091 11.5037 13.8182 12.0037 13.8182C12.5037 13.8182 12.9127 13.4091 12.9127 12.9091V8.36364C12.9127 7.86364 12.5037 7.45455 12.0037 7.45455Z"/>
<path d="M12.0037 4.27273C7.11274 4.27273 3.14001 8.24545 3.14001 13.1364C3.14001 18.0273 7.11274 22 12.0037 22C12.5037 22 12.9127 21.5909 12.9127 21.0909C12.9127 20.5909 12.5037 20.1818 12.0037 20.1818C8.12183 20.1818 4.9582 17.0182 4.9582 13.1364C4.9582 9.25455 8.12183 6.09091 12.0037 6.09091C15.8855 6.09091 19.0491 9.25455 19.0491 13.1364C19.0491 13.6364 19.4582 14.0455 19.9582 14.0455C20.4582 14.0455 20.8673 13.6364 20.8673 13.1364C20.8673 8.24545 16.8946 4.27273 12.0037 4.27273Z"/>
<path d="M9.27638 3.81818H14.7309C15.2309 3.81818 15.64 3.40909 15.64 2.90909C15.64 2.40909 15.2309 2 14.7309 2H9.27638C8.77638 2 8.36729 2.40909 8.36729 2.90909C8.36729 3.40909 8.77638 3.81818 9.27638 3.81818Z"/>
<path d="M18.9673 15.9364L17.1491 14.8818C16.3218 14.4 15.4673 14.3545 14.7855 14.7364C14.1127 15.1273 13.7218 15.8909 13.7218 16.8455V18.9636C13.7218 19.9182 14.1127 20.6909 14.7855 21.0727C15.0855 21.2455 15.4218 21.3273 15.7764 21.3273C16.2218 21.3273 16.6855 21.1909 17.1491 20.9273L18.9673 19.8727C19.7946 19.3909 20.2673 18.6727 20.2673 17.9C20.2673 17.1273 19.7946 16.4091 18.9673 15.9273V15.9364ZM18.0582 18.3091L16.24 19.3636C15.9582 19.5273 15.7582 19.5364 15.7037 19.5C15.64 19.4636 15.5582 19.2909 15.5582 18.9636V16.8455C15.5582 16.5182 15.6491 16.3455 15.7037 16.3091C15.7218 16.3 15.7491 16.2909 15.7855 16.2909C15.8764 16.2909 16.04 16.3273 16.24 16.4455L18.0582 17.5C18.3491 17.6636 18.4491 17.8273 18.4491 17.9C18.4491 17.9727 18.34 18.1364 18.0582 18.3V18.3091Z"/>
</svg>
