<svg width="24" height="24" viewBox="0 0 24 24" fill="black" xmlns="http://www.w3.org/2000/svg">
<path fill-rule="evenodd" clip-rule="evenodd" d="M11.9986 6.09091C8.1098 6.09091 4.95318 9.24753 4.95318 13.1364C4.95318 17.0252 8.1098 20.1818 11.9986 20.1818C15.8875 20.1818 19.0441 17.0252 19.0441 13.1364C19.0441 9.24753 15.8875 6.09091 11.9986 6.09091ZM3.135 13.1364C3.135 8.24338 7.10565 4.27273 11.9986 4.27273C16.8916 4.27273 20.8623 8.24338 20.8623 13.1364C20.8623 18.0294 16.8916 22 11.9986 22C7.10565 22 3.135 18.0294 3.135 13.1364Z"/>
<path fill-rule="evenodd" clip-rule="evenodd" d="M11.9986 7.45455C12.5007 7.45455 12.9077 7.86156 12.9077 8.36364V12.9091C12.9077 13.4112 12.5007 13.8182 11.9986 13.8182C11.4966 13.8182 11.0895 13.4112 11.0895 12.9091V8.36364C11.0895 7.86156 11.4966 7.45455 11.9986 7.45455Z"/>
<path fill-rule="evenodd" clip-rule="evenodd" d="M8.36227 2.90909C8.36227 2.40701 8.76928 2 9.27136 2H14.7259C15.228 2 15.635 2.40701 15.635 2.90909C15.635 3.41117 15.228 3.81818 14.7259 3.81818H9.27136C8.76928 3.81818 8.36227 3.41117 8.36227 2.90909Z"/>
</svg>
