<svg width="24" height="24" viewBox="0 0 24 24" fill="black" xmlns="http://www.w3.org/2000/svg">
<path d="M19.92 9.35C19.69 9.29 19.51 9.14 19.42 8.92C19.33 8.7 19.35 8.47 19.47 8.27C20.14 7.18 19.98 5.83 19.07 4.93C18.16 4.03 16.82 3.86 15.73 4.53C15.53 4.65 15.29 4.67 15.08 4.58C14.86 4.49 14.71 4.31 14.65 4.08C14.35 2.83 13.28 2 12 2C10.72 2 9.66 2.84 9.35 4.08C9.29 4.31 9.14 4.49 8.92 4.58C8.7 4.67 8.47 4.65 8.27 4.53C7.18 3.86 5.83 4.02 4.93 4.93C4.03 5.84 3.86 7.18 4.53 8.27C4.65 8.47 4.67 8.71 4.58 8.92C4.49 9.14 4.31 9.29 4.08 9.35C2.83 9.65 2 10.72 2 12C2 13.28 2.84 14.34 4.08 14.65C4.31 14.71 4.49 14.86 4.58 15.08C4.67 15.3 4.65 15.53 4.53 15.73C3.86 16.82 4.02 18.17 4.93 19.07C5.84 19.97 7.18 20.14 8.27 19.47C8.47 19.35 8.71 19.33 8.92 19.42C9.14 19.51 9.29 19.69 9.35 19.92C9.65 21.17 10.72 22 12 22C13.28 22 14.34 21.16 14.65 19.92C14.71 19.69 14.86 19.51 15.08 19.42C15.29 19.33 15.53 19.35 15.73 19.47C16.82 20.14 18.17 19.98 19.07 19.07C19.98 18.16 20.14 16.82 19.47 15.73C19.35 15.53 19.33 15.29 19.42 15.08C19.51 14.86 19.69 14.71 19.92 14.65C21.17 14.35 22 13.28 22 12C22 10.72 21.16 9.66 19.92 9.35ZM19.45 12.7C18.6 12.91 17.91 13.49 17.58 14.3C17.25 15.11 17.31 16.01 17.77 16.76C18.04 17.21 17.76 17.55 17.66 17.65C17.56 17.75 17.22 18.03 16.77 17.76C16.02 17.3 15.12 17.23 14.31 17.57C13.5 17.91 12.91 18.59 12.71 19.44C12.59 19.95 12.14 19.99 12.01 19.99C11.88 19.99 11.43 19.95 11.31 19.44C11.1 18.59 10.52 17.9 9.71 17.57C9.37 17.43 9.02 17.36 8.66 17.36C8.17 17.36 7.68 17.49 7.25 17.76C6.8 18.04 6.45 17.75 6.36 17.65C6.27 17.56 5.98 17.21 6.25 16.76C6.71 16.01 6.78 15.11 6.44 14.3C6.1 13.49 5.42 12.9 4.57 12.7C4.06 12.58 4.02 12.13 4.02 12C4.02 11.87 4.06 11.42 4.57 11.3C5.42 11.09 6.11 10.51 6.44 9.7C6.77 8.89 6.71 7.99 6.25 7.24C5.98 6.79 6.26 6.45 6.36 6.35C6.46 6.25 6.8 5.97 7.25 6.24C8 6.7 8.9 6.77 9.71 6.43C10.52 6.09 11.11 5.41 11.31 4.56C11.43 4.05 11.88 4.01 12.01 4.01C12.14 4.01 12.59 4.05 12.71 4.56C12.92 5.41 13.5 6.1 14.31 6.43C15.12 6.77 16.02 6.7 16.77 6.24C17.22 5.97 17.56 6.25 17.66 6.35C17.75 6.44 18.04 6.79 17.77 7.24C17.31 7.99 17.24 8.89 17.58 9.7C17.92 10.51 18.6 11.1 19.45 11.3C19.96 11.42 20 11.87 20 12C20 12.13 19.96 12.58 19.45 12.7Z"/>
<path d="M12 8C9.79 8 8 9.79 8 12C8 14.21 9.79 16 12 16C14.21 16 16 14.21 16 12C16 9.79 14.21 8 12 8ZM12 14C10.9 14 10 13.1 10 12C10 10.9 10.9 10 12 10C13.1 10 14 10.9 14 12C14 13.1 13.1 14 12 14Z"/>
</svg>
