<svg width="24" height="24" viewBox="0 0 24 24" fill="black" xmlns="http://www.w3.org/2000/svg">
<path d="M9.75 16.6827H4.45C4 16.6827 3.63 16.3128 3.63 15.8631V6.07796C3.63 5.62819 4 5.25837 4.45 5.25837H6.08V6.07796C6.08 6.52774 6.45 6.89755 6.9 6.89755C7.35 6.89755 7.72 6.52774 7.72 6.07796V5.25837H12.62V6.07796C12.62 6.52774 12.99 6.89755 13.44 6.89755C13.89 6.89755 14.26 6.52774 14.26 6.07796V5.25837H15.89C16.34 5.25837 16.71 5.62819 16.71 6.07796V9.83608C16.71 10.2859 17.08 10.6557 17.53 10.6557C17.98 10.6557 18.35 10.2859 18.35 9.83608V6.07796C18.35 4.72864 17.25 3.62919 15.9 3.62919H14.27V2.81959C14.27 2.36982 13.9 2 13.45 2C13 2 12.63 2.36982 12.63 2.81959V3.63918H7.71V2.81959C7.71 2.36982 7.34 2 6.89 2C6.44 2 6.07 2.36982 6.07 2.81959V3.63918H4.44C3.1 3.62919 2 4.72864 2 6.07796V15.8631C2 17.2124 3.1 18.3118 4.45 18.3118H9.75C10.2 18.3118 10.57 17.942 10.57 17.4923C10.57 17.0425 10.2 16.6727 9.75 16.6727V16.6827Z"/>
<path d="M6.08 8.52674C5.63 8.52674 5.26 8.89655 5.26 9.34633C5.26 9.7961 5.63 10.1659 6.08 10.1659H14.24C14.69 10.1659 15.06 9.7961 15.06 9.34633C15.06 8.89655 14.69 8.52674 14.24 8.52674H6.08Z"/>
<path d="M16.69 11.3853C13.76 11.3853 11.38 13.7641 11.38 16.6927C11.38 19.6212 13.76 22 16.69 22C19.62 22 22 19.6212 22 16.6927C22 13.7641 19.62 11.3853 16.69 11.3853ZM16.69 20.1909C14.75 20.1909 13.18 18.6217 13.18 16.6827C13.18 14.7436 14.75 13.1744 16.69 13.1744C18.63 13.1744 20.2 14.7436 20.2 16.6827C20.2 18.6217 18.63 20.1909 16.69 20.1909Z"/>
<path d="M17.06 16.6427V14.9735C17.06 14.5937 16.75 14.2839 16.37 14.2839C15.99 14.2839 15.68 14.5937 15.68 14.9735V16.9325C15.68 17.1224 15.75 17.2924 15.88 17.4223L17.35 18.8916C17.48 19.0215 17.66 19.0915 17.84 19.0915C18.02 19.0915 18.2 19.0215 18.33 18.8916C18.46 18.7616 18.53 18.5817 18.53 18.4018C18.53 18.2219 18.46 18.042 18.33 17.912L17.06 16.6427Z"/>
</svg>
