<svg width="24" height="24" viewBox="0 0 24 24" fill="black" xmlns="http://www.w3.org/2000/svg">
<path d="M5.5 9.25C5.5 10.2165 4.7165 11 3.75 11C2.7835 11 2 10.2165 2 9.25C2 8.2835 2.7835 7.5 3.75 7.5C4.7165 7.5 5.5 8.2835 5.5 9.25Z"/>
<path d="M11 9.25C11 10.2165 10.2165 11 9.25 11C8.2835 11 7.5 10.2165 7.5 9.25C7.5 8.2835 8.2835 7.5 9.25 7.5C10.2165 7.5 11 8.2835 11 9.25Z"/>
<path d="M16.5 9.25C16.5 10.2165 15.7165 11 14.75 11C13.7835 11 13 10.2165 13 9.25C13 8.2835 13.7835 7.5 14.75 7.5C15.7165 7.5 16.5 8.2835 16.5 9.25Z"/>
<path d="M22 9.25C22 10.2165 21.2165 11 20.25 11C19.2835 11 18.5 10.2165 18.5 9.25C18.5 8.2835 19.2835 7.5 20.25 7.5C21.2165 7.5 22 8.2835 22 9.25Z"/>
<path d="M5.5 14.75C5.5 15.7165 4.7165 16.5 3.75 16.5C2.7835 16.5 2 15.7165 2 14.75C2 13.7835 2.7835 13 3.75 13C4.7165 13 5.5 13.7835 5.5 14.75Z"/>
<path d="M11 14.75C11 15.7165 10.2165 16.5 9.25 16.5C8.2835 16.5 7.5 15.7165 7.5 14.75C7.5 13.7835 8.2835 13 9.25 13C10.2165 13 11 13.7835 11 14.75Z"/>
<path d="M16.5 14.75C16.5 15.7165 15.7165 16.5 14.75 16.5C13.7835 16.5 13 15.7165 13 14.75C13 13.7835 13.7835 13 14.75 13C15.7165 13 16.5 13.7835 16.5 14.75Z"/>
<path d="M22 14.75C22 15.7165 21.2165 16.5 20.25 16.5C19.2835 16.5 18.5 15.7165 18.5 14.75C18.5 13.7835 19.2835 13 20.25 13C21.2165 13 22 13.7835 22 14.75Z"/>
</svg>
