<svg width="24" height="24" viewBox="0 0 24 24" fill="black" xmlns="http://www.w3.org/2000/svg">
<path d="M14.75 5.5C13.7835 5.5 13 4.7165 13 3.75C13 2.7835 13.7835 2 14.75 2C15.7165 2 16.5 2.7835 16.5 3.75C16.5 4.7165 15.7165 5.5 14.75 5.5Z"/>
<path d="M14.75 11C13.7835 11 13 10.2165 13 9.25C13 8.2835 13.7835 7.5 14.75 7.5C15.7165 7.5 16.5 8.2835 16.5 9.25C16.5 10.2165 15.7165 11 14.75 11Z"/>
<path d="M14.75 16.5C13.7835 16.5 13 15.7165 13 14.75C13 13.7835 13.7835 13 14.75 13C15.7165 13 16.5 13.7835 16.5 14.75C16.5 15.7165 15.7165 16.5 14.75 16.5Z"/>
<path d="M14.75 22C13.7835 22 13 21.2165 13 20.25C13 19.2835 13.7835 18.5 14.75 18.5C15.7165 18.5 16.5 19.2835 16.5 20.25C16.5 21.2165 15.7165 22 14.75 22Z"/>
<path d="M9.25 5.5C8.2835 5.5 7.5 4.7165 7.5 3.75C7.5 2.7835 8.2835 2 9.25 2C10.2165 2 11 2.7835 11 3.75C11 4.7165 10.2165 5.5 9.25 5.5Z"/>
<path d="M9.25 11C8.2835 11 7.5 10.2165 7.5 9.25C7.5 8.2835 8.2835 7.5 9.25 7.5C10.2165 7.5 11 8.2835 11 9.25C11 10.2165 10.2165 11 9.25 11Z"/>
<path d="M9.25 16.5C8.2835 16.5 7.5 15.7165 7.5 14.75C7.5 13.7835 8.2835 13 9.25 13C10.2165 13 11 13.7835 11 14.75C11 15.7165 10.2165 16.5 9.25 16.5Z"/>
<path d="M9.25 22C8.2835 22 7.5 21.2165 7.5 20.25C7.5 19.2835 8.2835 18.5 9.25 18.5C10.2165 18.5 11 19.2835 11 20.25C11 21.2165 10.2165 22 9.25 22Z"/>
</svg>
