<svg width="24" height="24" viewBox="0 0 24 24" fill="black" xmlns="http://www.w3.org/2000/svg">
<path fill-rule="evenodd" clip-rule="evenodd" d="M19 4H17V3C17 2.45 16.55 2 16 2C15.45 2 15 2.45 15 3V4H9V3C9 2.45 8.55 2 8 2C7.45 2 7 2.45 7 3V4H5C3.35 4 2 5.35 2 7V19C2 20.65 3.35 22 5 22H19C20.65 22 22 20.65 22 19V7C22 5.35 20.65 4 19 4ZM20 19C20 19.55 19.55 20 19 20H5C4.45 20 4 19.55 4 19V7C4 6.45 4.45 6 5 6H7V7C7 7.55 7.45 8 8 8C8.55 8 9 7.55 9 7V6H15V7C15 7.55 15.45 8 16 8C16.55 8 17 7.55 17 7V6H19C19.55 6 20 6.45 20 7V19Z"/>
<path fill-rule="evenodd" clip-rule="evenodd" d="M13.38 12.44L12.77 10.56C12.53 9.82 11.48 9.82 11.24 10.56L10.63 12.44H8.65C7.87 12.44 7.55 13.44 8.18 13.9L9.78 15.06L9.17 16.94C8.93 17.68 9.78 18.3 10.41 17.84L12.01 16.68L13.61 17.84C14.24 18.3 15.09 17.68 14.85 16.94L14.24 15.06L15.84 13.9C16.47 13.44 16.15 12.44 15.37 12.44H13.38Z"/>
</svg>
