<svg width="24" height="24" viewBox="0 0 24 24" fill="black" xmlns="http://www.w3.org/2000/svg">
<path d="M18.9753 21.0578H5.02466C3.93759 21.0578 2.95118 20.4941 2.40765 19.548C1.86412 18.6018 1.86412 17.4745 2.40765 16.5283L9.38299 4.44982C9.92652 3.50367 10.9029 2.94 12 2.94C13.0871 2.94 14.0735 3.50367 14.617 4.44982L21.5924 16.5283C22.1359 17.4745 22.1359 18.6018 21.5924 19.548C21.0488 20.4941 20.0725 21.0578 18.9753 21.0578ZM12 4.95309C11.8289 4.95309 11.386 5.00341 11.1243 5.45636L4.15903 17.5349C3.89733 17.9878 4.06845 18.3904 4.15903 18.5414C4.24962 18.6924 4.51132 19.0447 5.03473 19.0447H18.9854C19.5088 19.0447 19.7705 18.6924 19.8611 18.5414C19.9517 18.3904 20.1228 17.9878 19.8611 17.5349L12.8757 5.45636C12.614 5.00341 12.1812 4.95309 12 4.95309ZM12.0101 17.0316C11.4565 17.0316 11.0035 16.5787 11.0035 16.0251C11.0035 15.4715 11.4464 15.0185 12 15.0185H12.0101C12.5637 15.0185 13.0166 15.4715 13.0166 16.0251C13.0166 16.5787 12.5637 17.0316 12.0101 17.0316ZM12 13.0054C11.4464 13.0054 10.9935 12.5525 10.9935 11.9989V9.9858C10.9935 9.4322 11.4464 8.97926 12 8.97926C12.5536 8.97926 13.0065 9.4322 13.0065 9.9858V11.9989C13.0065 12.5525 12.5536 13.0054 12 13.0054Z"/>
</svg>
