<svg width="24" height="24" viewBox="0 0 24 24" fill="var(--eventCard-svg-fill-color)" xmlns="http://www.w3.org/2000/svg">
<path d="M4.9985 20C3.34933 20 2 18.65 2 17V7C2 5.35 3.34933 4 4.9985 4H10.9955C11.2654 4 11.5152 4.11 11.7051 4.29L13.4143 6H19.0015C20.6507 6 22 7.35 22 9V17C22 18.65 20.6507 20 19.0015 20H4.9985ZM4.9985 6C4.44878 6 3.999 6.45 3.999 7V17C3.999 17.55 4.44878 18 4.9985 18H18.9915C19.5412 18 19.991 17.55 19.991 17V9C19.991 8.45 19.5412 8 18.9915 8H12.9945C12.7246 8 12.4748 7.89 12.2849 7.71L10.5757 6H4.9985Z"/>
</svg>
