<svg width="24" height="24" viewBox="0 0 24 24" fill="black" xmlns="http://www.w3.org/2000/svg">
<path d="M19 9H18C18 7.34 16.66 6 15 6H11.41L9.71 4.29L9.42 4H5C3.34 4 2 5.34 2 7V17C2 18.66 3.34 20 5 20H19C20.66 20 22 18.66 22 17V12C22 10.34 20.66 9 19 9ZM4 17V7C4 6.45 4.45 6 5 6H8.59L10.59 8H15C15.55 8 16 8.45 16 9H9C7.34 9 6 10.34 6 12V17C6 17.55 5.55 18 5 18C4.45 18 4 17.55 4 17ZM19 18H7.82C7.93 17.69 8 17.35 8 17V12C8 11.45 8.45 11 9 11H19C19.55 11 20 11.45 20 12V17C20 17.55 19.55 18 19 18Z"/>
</svg>
