<svg width="24" height="24" viewBox="0 0 24 24" fill="black" xmlns="http://www.w3.org/2000/svg">
<path d="M2.41103 9.10487C3.0628 6.97237 4.42648 5.09016 6.26145 3.80866C8.09642 2.52716 10.3325 1.88641 12.5685 2.01656C14.8046 2.14671 16.9604 3.02775 18.645 4.50948L19.9786 5.71089V3.95884C19.9786 3.40819 20.4298 2.95766 20.9813 2.95766C21.5328 2.95766 21.984 3.39818 21.984 3.94883V7.95352C21.984 8.00358 21.9639 8.04363 21.9539 8.09369C21.9439 8.16377 21.9339 8.23385 21.9138 8.30393C21.8837 8.37402 21.8436 8.43409 21.8035 8.49416C21.7734 8.5342 21.7634 8.58426 21.7333 8.6143C21.7333 8.6143 21.7233 8.6143 21.7133 8.63432C21.6631 8.68438 21.5929 8.72443 21.5328 8.76447C21.4826 8.79451 21.4425 8.83456 21.3924 8.85458C21.3423 8.8746 21.2821 8.88462 21.232 8.89463C21.1618 8.91465 21.0816 8.93467 21.0114 8.93467H16.9805C16.429 8.93467 15.9777 8.48415 15.9777 7.9335C15.9777 7.38285 16.429 6.93233 16.9805 6.93233H18.3742L17.3214 5.98121C15.9777 4.79982 14.2531 4.08899 12.4682 3.98887C10.6834 3.88876 8.88856 4.39935 7.4246 5.42055C5.96064 6.44175 4.86768 7.95352 4.34627 9.65552C3.82486 11.3675 3.89505 13.2197 4.54681 14.8917C5.19858 16.5536 6.40183 17.9753 7.94601 18.8863C9.49019 19.7974 11.3151 20.1679 13.0899 19.9276C14.8647 19.6873 16.5292 18.8563 17.7726 17.5748C19.016 16.2933 19.8081 14.6113 19.9986 12.8292C20.0588 12.2786 20.5401 11.8881 21.1016 11.9382C21.6531 11.9983 22.0542 12.4888 21.994 13.0395C21.7634 15.2621 20.7707 17.3646 19.2065 18.9664C17.6422 20.5683 15.5666 21.6095 13.3506 21.9099C12.9094 21.97 12.4682 22 12.0371 22C10.2523 22 8.47745 21.5194 6.93327 20.6084C5.00806 19.477 3.49396 17.705 2.68176 15.6225C1.86957 13.5401 1.77932 11.2174 2.43109 9.08485L2.41103 9.10487Z"/>
<path d="M10.3016 15.7327V9.05485H8.55692L6 11.5578L7.14309 12.7492L8.27616 11.6279V15.7327H10.3016Z"/>
<path d="M13.9916 15.8528C15.987 15.8528 16.9597 14.2109 16.9597 12.3988C16.9597 10.5866 15.987 8.95473 13.9916 8.95473C11.9962 8.95473 11.0236 10.5866 11.0236 12.3988C11.0236 14.2109 11.9962 15.8528 13.9916 15.8528ZM13.9916 10.7368C14.6334 10.7368 14.9241 11.2674 14.9241 12.3988C14.9241 13.5301 14.6334 14.0707 13.9916 14.0707C13.3499 14.0707 13.0591 13.5301 13.0591 12.3988C13.0591 11.2674 13.3499 10.7368 13.9916 10.7368Z"/>
</svg>
