<svg width="24" height="24" viewBox="0 0 24 24" fill="black" xmlns="http://www.w3.org/2000/svg">
<path fill-rule="evenodd" clip-rule="evenodd" d="M8.36519 5.63822C6.85627 5.63822 5.63822 6.85627 5.63822 8.36519C5.63822 9.8741 6.85627 11.0921 8.36519 11.0921C9.87411 11.0921 11.0921 9.8741 11.0921 8.36519C11.0921 6.85627 9.87411 5.63822 8.36519 5.63822ZM8.36519 9.27417C7.86524 9.27417 7.4562 8.86513 7.4562 8.36519C7.4562 7.86524 7.86524 7.4562 8.36519 7.4562C8.86513 7.4562 9.27417 7.86524 9.27417 8.36519C9.27417 8.86513 8.86513 9.27417 8.36519 9.27417Z"/>
<path fill-rule="evenodd" clip-rule="evenodd" d="M21.7364 2.26588C21.3819 1.91137 20.8092 1.91137 20.4547 2.26588L19.5548 3.16578C18.3277 2.32042 16.7006 2.00227 14.7372 2.00227H9.28326C6.91081 2.00227 5.02011 2.46586 3.74753 3.74753C2.47495 5.0292 2.00227 6.91081 2.00227 9.27417V14.7281C2.00227 16.7006 2.32951 18.3186 3.16578 19.5457L2.26588 20.4456C1.91137 20.8001 1.91137 21.3728 2.26588 21.7273C2.62038 22.0818 3.19305 22.0818 3.54755 21.7273L21.7364 3.55664C22.0909 3.20214 22.0909 2.62947 21.7364 2.27497V2.26588ZM3.82025 14.7281V9.27417C3.82025 7.0926 4.26565 5.80184 5.0292 5.0292C5.79275 4.25656 7.0926 3.82025 9.27417 3.82025H14.7281C16.3279 3.82025 17.446 4.05658 18.2277 4.48381L4.4929 18.2277C4.06567 17.4369 3.82025 16.3279 3.82025 14.7281Z"/>
<path fill-rule="evenodd" clip-rule="evenodd" d="M22 9.27417C22 8.93785 21.9909 8.61061 21.9727 8.30156C21.9455 7.80161 21.5091 7.41984 21.0092 7.44711C20.5093 7.47438 20.1275 7.91069 20.1548 8.41063C20.1729 8.68333 20.182 8.97421 20.182 9.27417V10.7649C19.1094 9.76503 17.446 9.78321 16.4006 10.8195L11.9557 15.2735C11.6012 15.0553 11.1376 15.1008 10.8376 15.4008C10.4831 15.7553 10.4831 16.3279 10.8376 16.6824C11.4648 17.3096 12.4829 17.3096 13.1192 16.6824L17.6914 12.1011C18.0459 11.7466 18.6186 11.7466 18.964 12.1011L20.182 13.3283V14.7281C20.182 16.9097 19.7366 18.2004 18.9731 18.9731C18.2095 19.7457 16.9097 20.182 14.7281 20.182H9.27417C8.62879 20.182 8.06522 20.1457 7.56528 20.0639C7.06533 19.982 6.60175 20.3184 6.51994 20.8183C6.43813 21.3183 6.77446 21.7818 7.2744 21.8637C7.9016 21.9636 8.57425 22 9.27417 22H14.7281C17.0915 22 18.9822 21.5364 20.2547 20.2547C21.5273 18.9822 22 17.0915 22 14.7281V9.27417Z"/>
</svg>
