<svg width="24" height="24" viewBox="0 0 24 24" fill="black" xmlns="http://www.w3.org/2000/svg">
<path d="M12 22C6.49 22 2 17.51 2 12C2 6.49 6.49 2 12 2C17.51 2 22 6.49 22 12C22 17.51 17.51 22 12 22ZM10.02 13C10.19 17.6 11.52 20 12 20C12.48 20 13.81 17.6 13.98 13H10.02ZM15.98 13C15.89 15.4 15.5 17.79 14.76 19.51C17.51 18.49 19.56 16 19.94 13H15.98ZM4.06 13C4.44 16 6.48 18.49 9.24 19.51C8.5 17.79 8.1 15.4 8.02 13H4.06ZM15.98 11H19.94C19.56 8 17.52 5.51 14.76 4.49C15.5 6.21 15.9 8.6 15.98 11ZM10.02 11H13.98C13.81 6.4 12.48 4 12 4C11.52 4 10.19 6.4 10.02 11ZM4.06 11H8.02C8.11 8.6 8.5 6.21 9.24 4.49C6.49 5.51 4.44 8 4.06 11Z"/>
</svg>
