<svg width="24" height="24" viewBox="0 0 24 24" fill="black" xmlns="http://www.w3.org/2000/svg">
<path d="M12 22C7.31 22 3.5 18.19 3.5 13.5V11.5C3.5 10.12 4.62 9 6 9C6.17 9 6.34 9.02 6.5 9.05V5.5C6.5 4.12 7.62 3 9 3C9.31 3 9.61 3.06 9.89 3.16C10.33 2.46 11.11 2 12 2C12.89 2 13.67 2.46 14.11 3.16C14.39 3.05 14.69 3 15 3C16.38 3 17.5 4.12 17.5 5.5V6.05C17.66 6.02 17.83 6 18 6C19.38 6 20.5 7.12 20.5 8.5V13.5C20.5 18.19 16.69 22 12 22ZM6 11C5.72 11 5.5 11.22 5.5 11.5V13.5C5.5 17.08 8.42 20 12 20C15.58 20 18.5 17.08 18.5 13.5V8.5C18.5 8.22 18.28 8 18 8C17.72 8 17.5 8.22 17.5 8.5V11C17.5 11.55 17.05 12 16.5 12C15.95 12 15.5 11.55 15.5 11V5.5C15.5 5.22 15.28 5 15 5C14.72 5 14.5 5.22 14.5 5.5V11C14.5 11.55 14.05 12 13.5 12C12.95 12 12.5 11.55 12.5 11V4.5C12.5 4.22 12.28 4 12 4C11.72 4 11.5 4.22 11.5 4.5V11C11.5 11.55 11.05 12 10.5 12C9.95 12 9.5 11.55 9.5 11V5.5C9.5 5.22 9.28 5 9 5C8.72 5 8.5 5.22 8.5 5.5V14C8.5 14.55 8.05 15 7.5 15C6.95 15 6.5 14.55 6.5 14V11.5C6.5 11.22 6.28 11 6 11Z"/>
</svg>
