<svg width="24" height="24" viewBox="0 0 24 24" fill="black" xmlns="http://www.w3.org/2000/svg">
<path d="M18.0047 22.0025H5.99568C4.89485 22.0025 3.99418 21.1025 3.99418 20.0025V12.4125L3.70396 12.7025C3.31367 13.0925 2.6832 13.0925 2.2929 12.7025C1.90261 12.3125 1.90261 11.6825 2.2929 11.2925L11.2896 2.2925C11.6799 1.9025 12.3104 1.9025 12.7007 2.2925L21.7075 11.2925C22.0978 11.6825 22.0978 12.3125 21.7075 12.7025C21.3172 13.0925 20.6867 13.0925 20.2964 12.7025L20.0062 12.4125V20.0025C20.0062 21.1025 19.1055 22.0025 18.0047 22.0025ZM15.0024 20.0025H18.0047V10.4125L12.0002 4.4125L5.99568 10.4125V20.0025H8.99793V16.0025C8.99793 14.9025 9.89861 14.0025 10.9994 14.0025H13.0009C14.1018 14.0025 15.0024 14.9025 15.0024 16.0025V20.0025ZM10.9994 20.0025H13.0009V16.0025H10.9994V20.0025Z"/>
</svg>
