<svg width="24" height="24" viewBox="0 0 24 24" fill="black" xmlns="http://www.w3.org/2000/svg">
<path d="M17.9983 7.792V3.73333C17.9983 2.77867 17.2197 2 16.265 2H7.73167C6.777 2 5.99833 2.77867 5.99833 3.73333V7.792C5.12367 9.02933 4.665 10.48 4.665 12C4.665 13.52 5.12367 14.9707 5.99833 16.208V20.2667C5.99833 21.2213 6.777 22 7.73167 22H16.265C17.2197 22 17.9983 21.2213 17.9983 20.2667V16.208C18.873 14.9707 19.3317 13.52 19.3317 12C19.3317 10.48 18.873 9.02933 17.9983 7.792ZM7.33167 3.73333C7.33167 3.51467 7.513 3.33333 7.73167 3.33333H16.265C16.4837 3.33333 16.665 3.51467 16.665 3.73333V6.352C15.3477 5.264 13.705 4.66667 11.9983 4.66667C10.2917 4.66667 8.64367 5.264 7.33167 6.34667V3.73333ZM16.665 20.2667C16.665 20.4853 16.4837 20.6667 16.265 20.6667H7.73167C7.513 20.6667 7.33167 20.4853 7.33167 20.2667V17.6533C8.63833 18.7413 10.281 19.3333 11.9983 19.3333C13.7157 19.3333 15.353 18.736 16.665 17.6533V20.2667ZM17.737 13.744C17.5237 14.464 17.1717 15.1307 16.6917 15.7333C15.545 17.1733 13.833 18 11.9983 18C10.1637 18 8.45167 17.1733 7.305 15.7333C6.83033 15.136 6.47833 14.464 6.25967 13.744C6.089 13.1947 5.99833 12.608 5.99833 12.0053C5.99833 11.4027 6.08367 10.816 6.25967 10.2613C6.47833 9.54133 6.825 8.87467 7.305 8.272C8.45167 6.832 10.1637 6 11.9983 6C13.833 6 15.545 6.82667 16.6917 8.272C17.1663 8.87467 17.5183 9.54133 17.737 10.2613C17.9077 10.8107 17.9983 11.3973 17.9983 12C17.9983 12.6027 17.913 13.1893 17.737 13.744Z"/>
<path d="M8.52633 9.09333C8.185 9.09333 7.90767 9.37067 7.90767 9.712V14.2827C7.90767 14.624 8.185 14.9013 8.52633 14.9013C8.86767 14.9013 9.145 14.624 9.145 14.2827V9.712C9.145 9.37067 8.86767 9.09333 8.52633 9.09333Z"/>
<path d="M13.0437 8.99733C11.2943 8.99733 10.0143 10.2507 10.0143 12C10.0143 13.7493 11.2943 15.0027 13.0437 15.0027C14.793 15.0027 16.0837 13.7493 16.0837 12C16.0837 10.2507 14.8037 8.99733 13.0437 8.99733ZM13.0437 13.904C11.9717 13.904 11.2837 13.0773 11.2837 12C11.2837 10.9227 11.9717 10.096 13.0437 10.096C14.1157 10.096 14.809 10.912 14.809 12C14.809 13.088 14.1103 13.904 13.0437 13.904Z"/>
</svg>
