<svg width="24" height="24" viewBox="0 0 24 24" fill="black" xmlns="http://www.w3.org/2000/svg">
<path fill-rule="evenodd" clip-rule="evenodd" d="M19 4H5C4.44771 4 4 4.44772 4 5V19C4 19.5523 4.44772 20 5 20H19C19.5523 20 20 19.5523 20 19V5C20 4.44771 19.5523 4 19 4ZM5 2C3.34315 2 2 3.34315 2 5V19C2 20.6569 3.34315 22 5 22H19C20.6569 22 22 20.6569 22 19V5C22 3.34315 20.6569 2 19 2H5Z"/>
<path d="M17.3976 5.5H6.6024C5.9992 5.5 5.5 5.9992 5.5 6.6024V14.9328C5.5 15.536 5.9992 16.0352 6.6024 16.0352H7.9648V17.3976C7.9648 18.0008 8.464 18.5 9.0672 18.5H14.9328C15.536 18.5 16.0352 18.0112 16.0352 17.3976V16.0352H17.3976C18.0008 16.0352 18.5 15.536 18.5 14.9328V6.6024C18.5 5.9992 18.0008 5.5 17.3976 5.5ZM16.9712 14.5064H15.6088C15.0056 14.5064 14.5064 15.0056 14.5064 15.6088V16.9712H9.4936V15.6088C9.4936 15.0056 8.9944 14.5064 8.3912 14.5064H7.0288V7.0288H8.0688V8.9424C8.0688 9.5144 8.5368 9.9824 9.1088 9.9824C9.6808 9.9824 10.1488 9.5144 10.1488 8.9424V7.0288H10.96V8.9424C10.96 9.5144 11.428 9.9824 12 9.9824C12.572 9.9824 13.04 9.5144 13.04 8.9424V7.0288H13.8512V8.9424C13.8512 9.5144 14.3192 9.9824 14.8912 9.9824C15.4632 9.9824 15.9312 9.5144 15.9312 8.9424V7.0288H16.9712V14.5168V14.5064Z"/>
</svg>
