<svg width="24" height="24" viewBox="0 0 24 24" fill="black" xmlns="http://www.w3.org/2000/svg">
<path d="M4.00239 20V14C4.00239 9.58172 7.58411 6 12.0024 6C16.4207 6 20.0024 9.58172 20.0024 14V20C20.5547 20 21.0024 20.4477 21.0024 21C21.0024 21.5523 20.5547 22 20.0024 22H4.00239C3.4501 22 3.00239 21.5523 3.00239 21C3.00239 20.4477 3.4501 20 4.00239 20ZM6.00239 20H18.0024V14C18.0024 10.6863 15.3161 8 12.0024 8C8.68868 8 6.00239 10.6863 6.00239 14V20ZM11.0024 3C11.0024 2.44772 11.4501 2 12.0024 2C12.5547 2 13.0024 2.44772 13.0024 3V4C13.0024 4.55228 12.5547 5 12.0024 5C11.4501 5 11.0024 4.55228 11.0024 4V3ZM19.0735 5.5147C19.464 5.12418 20.0972 5.12419 20.4877 5.51472C20.8782 5.90525 20.8782 6.53841 20.4877 6.92894L19.7806 7.63604C19.3901 8.02657 18.7569 8.02658 18.3664 7.63606C17.9758 7.24553 17.9758 6.61233 18.3664 6.22179L19.0735 5.5147ZM3.51711 6.92894C3.12658 6.53841 3.12658 5.90525 3.51711 5.51472C3.90763 5.12419 4.5408 5.12419 4.93133 5.51472L5.63843 6.22182C6.02895 6.61235 6.02895 7.24551 5.63843 7.63604C5.2479 8.02657 4.61473 8.02657 4.22421 7.63604L3.51711 6.92894Z"/>
</svg>
