<svg width="24" height="24" viewBox="0 0 24 24" fill="black" xmlns="http://www.w3.org/2000/svg">
<path d="M7.00125 21.985C5.72157 21.985 4.44189 21.4951 3.46213 20.5254C1.51262 18.5759 1.51262 15.4066 3.46213 13.4571L7.46113 9.44813C8.4009 8.50837 9.66058 7.9885 11.0002 7.9885C12.3399 7.9885 13.5896 8.50837 14.5394 9.44813C14.9293 9.83804 14.9293 10.4679 14.5394 10.8578C14.1495 11.2477 13.5196 11.2477 13.1297 10.8578C12 9.72806 10.0205 9.72806 8.89078 10.8578L4.88178 14.8668C3.71207 16.0365 3.71207 17.936 4.88178 19.1057C6.05149 20.2754 7.95101 20.2754 9.12072 19.1057L10.2204 18.006C10.6103 17.6161 11.2402 17.6161 11.6301 18.006C12.02 18.3959 12.02 19.0257 11.6301 19.4156L10.5304 20.5154C9.56061 21.4851 8.28093 21.975 6.99125 21.975L7.00125 21.985ZM12.9997 15.9865C11.7201 15.9865 10.4404 15.4966 9.46063 14.5269C9.07073 14.137 9.07073 13.5071 9.46063 13.1172C9.85054 12.7273 10.4804 12.7273 10.8703 13.1172C12.04 14.2869 13.9395 14.2869 15.1092 13.1172L19.1082 9.11822C20.2779 7.94851 20.2779 6.04898 19.1082 4.87928C17.9785 3.74956 15.999 3.74956 14.8693 4.87928L13.7696 5.979C13.3797 6.3689 12.7498 6.3689 12.3599 5.979C11.97 5.5891 11.97 4.95926 12.3599 4.56935L13.4596 3.46963C14.3994 2.52986 15.6591 2.00999 16.9987 2.00999C18.3384 2.00999 19.5881 2.52986 20.5379 3.46963C22.4874 5.41914 22.4874 8.58835 20.5379 10.5379L16.5389 14.5369C15.5691 15.5066 14.2894 15.9965 12.9997 15.9965V15.9865Z"/>
</svg>
