<svg width="24" height="24" viewBox="0 0 24 24" fill="black" xmlns="http://www.w3.org/2000/svg">
<path d="M18 22H6C4.35 22 3 20.65 3 19V13C3 11.35 4.35 10 6 10H7V7C7 4.24 9.24 2 12 2C14.76 2 17 4.24 17 7V10H18C19.65 10 21 11.35 21 13V19C21 20.65 19.65 22 18 22ZM6 12C5.45 12 5 12.45 5 13V19C5 19.55 5.45 20 6 20H18C18.55 20 19 19.55 19 19V13C19 12.45 18.55 12 18 12H6ZM9 10H15V7C15 5.35 13.65 4 12 4C10.35 4 9 5.35 9 7V10ZM12 18C11.45 18 11 17.55 11 17V15C11 14.45 11.45 14 12 14C12.55 14 13 14.45 13 15V17C13 17.55 12.55 18 12 18Z"/>
</svg>
