<svg width="24" height="24" viewBox="0 0 24 24" fill="black" xmlns="http://www.w3.org/2000/svg">
<path d="M6.5045 22H3.001C2.45045 22 2 21.5498 2 20.9995V17.4277C2 17.1576 2.11011 16.9075 2.29029 16.7174L14.5325 4.49125C14.5325 4.49125 14.5325 4.49125 14.5325 4.48124L16.024 2.9905C17.3453 1.66983 19.6577 1.66983 20.979 2.9905C21.6396 3.65083 22 4.53127 22 5.46173C22 6.3922 21.6396 7.27264 20.969 7.93297L7.21522 21.7099C7.02502 21.8999 6.77477 22 6.5045 22ZM4.002 19.999H6.09409L17.3654 8.72336L15.2432 6.6023L4.002 17.8479V20.009V19.999ZM16.6647 5.1916L18.7868 7.31266L19.5776 6.52226C19.8579 6.24212 20.018 5.86193 20.018 5.46173C20.018 5.06153 19.8579 4.68134 19.5776 4.4012C19.007 3.83092 18.026 3.83092 17.4555 4.4012L16.6647 5.1916Z"/>
</svg>
