<svg width="24" height="24" viewBox="0 0 24 24" fill="black" xmlns="http://www.w3.org/2000/svg">
<path d="M20.263 16.4644C20.6535 16.8549 20.6535 17.4881 20.263 17.8786C19.8725 18.2692 19.2393 18.2692 18.8487 17.8787L16.0214 15.0513L15.9476 15.125L15.2405 18.6605L13.8263 20.0747L9.58369 15.8321L5.34104 20.0747C4.95052 20.4652 4.31736 20.4652 3.92684 20.0747C3.53631 19.6842 3.53631 19.051 3.92684 18.6605L8.16947 14.4179L3.92683 10.1752L5.34105 8.76101L8.87658 8.0539L8.95029 7.98019L6.12083 5.15073C5.73031 4.7602 5.73031 4.12704 6.12083 3.73652C6.51136 3.34599 7.14452 3.34599 7.53504 3.73651L20.263 16.4644ZM10.3645 9.3944L9.86261 9.89631L7.04072 10.4607L13.5409 16.9608L14.1052 14.1389L14.6071 13.637L10.3645 9.3944ZM18.7761 9.46812L18.1427 10.1015C17.7522 10.492 17.7522 11.1252 18.1427 11.5157C18.5332 11.9062 19.1664 11.9062 19.5569 11.5157L20.1903 10.8823C20.5808 11.2728 21.214 11.2728 21.6045 10.8823C21.995 10.4918 21.995 9.85862 21.6045 9.4681L14.5334 2.39705C14.1429 2.00652 13.5097 2.00653 13.1192 2.39706C12.7287 2.78758 12.7287 3.42074 13.1192 3.81126L12.4858 4.44466C12.0953 4.83518 12.0953 5.46834 12.4858 5.85887C12.8763 6.24939 13.5095 6.24939 13.9 5.85887L14.5334 5.22548L18.7761 9.46812Z"/>
</svg>
