<svg width="24" height="24" viewBox="0 0 24 24" fill="black" xmlns="http://www.w3.org/2000/svg">
<path d="M20.8788 22C20.2684 22 19.7689 21.5 19.7689 20.8889V18.3C17.9043 20.6111 15.0852 22 11.9998 22C6.97202 22 2.71009 18.2333 2.08856 13.2444C2.01087 12.6333 2.44372 12.0778 3.05415 12C3.65349 11.9333 4.21952 12.3556 4.29721 12.9667C4.78556 16.8444 8.093 19.7667 12.0109 19.7667C14.608 19.7667 16.9609 18.5 18.3927 16.4333H15.3405C14.7301 16.4333 14.2306 15.9333 14.2306 15.3222C14.2306 14.7111 14.7301 14.2111 15.3405 14.2111H20.8899C21.5003 14.2111 21.9998 14.7111 21.9998 15.3222V20.8778C21.9998 21.4889 21.5003 21.9889 20.8899 21.9889L20.8788 22ZM20.8122 12C20.2573 12 19.78 11.5889 19.7134 11.0222C19.2251 7.14444 15.9176 4.22222 11.9998 4.22222C9.40265 4.22222 7.04971 5.48889 5.61797 7.55556H8.67013C9.28057 7.55556 9.78001 8.05556 9.78001 8.66667C9.78001 9.27778 9.28057 9.77778 8.67013 9.77778H3.78667C3.78667 9.77778 3.75337 9.77778 3.73118 9.77778H3.10965C2.49921 9.77778 1.99977 9.27778 1.99977 8.66667V3.11111C2.01087 2.5 2.51031 2 3.12074 2C3.73118 2 4.23062 2.5 4.23062 3.11111V5.7C6.09522 3.38889 8.91431 2 11.9998 2C17.0275 2 21.2894 5.76667 21.911 10.7556C21.9887 11.3667 21.5558 11.9222 20.9454 12C20.901 12 20.8566 12 20.8122 12Z"/>
</svg>
