<svg width="24" height="24" viewBox="0 0 24 24" fill="black" xmlns="http://www.w3.org/2000/svg">
<path fill-rule="evenodd" clip-rule="evenodd" d="M10 4C6.68629 4 4 6.68629 4 10C4 13.3137 6.68629 16 10 16C13.3137 16 16 13.3137 16 10C16 6.68629 13.3137 4 10 4ZM2 10C2 5.58172 5.58172 2 10 2C14.4183 2 18 5.58172 18 10C18 11.8487 17.3729 13.551 16.3199 14.9056L21.7071 20.2929C22.0976 20.6834 22.0976 21.3166 21.7071 21.7071C21.3166 22.0976 20.6834 22.0976 20.2929 21.7071L14.9056 16.3199C13.551 17.3729 11.8487 18 10 18C5.58172 18 2 14.4183 2 10ZM7.17157 7.17157C7.5621 6.78105 8.19526 6.78105 8.58579 7.17157L10 8.58579L11.4142 7.17157C11.8047 6.78105 12.4379 6.78105 12.8284 7.17157C13.219 7.5621 13.219 8.19526 12.8284 8.58579L11.4142 10L12.8284 11.4142C13.219 11.8047 13.219 12.4379 12.8284 12.8284C12.4379 13.219 11.8047 13.219 11.4142 12.8284L10 11.4142L8.58579 12.8284C8.19526 13.219 7.5621 13.219 7.17157 12.8284C6.78105 12.4379 6.78105 11.8047 7.17157 11.4142L8.58579 10L7.17157 8.58579C6.78105 8.19526 6.78105 7.5621 7.17157 7.17157Z"/>
</svg>
