<svg width="24" height="24" viewBox="0 0 24 24" fill="black" xmlns="http://www.w3.org/2000/svg">
<path d="M12 22C11.675 22 11.3625 21.875 11.1125 21.6375L6.1125 16.6375C5.625 16.15 5.625 15.3625 6.1125 14.875C6.6 14.3875 7.3875 14.3875 7.875 14.875L11.9875 18.9875L16.1 14.875C16.5875 14.3875 17.375 14.3875 17.8625 14.875C18.35 15.3625 18.35 16.15 17.8625 16.6375L12.8625 21.6375C12.6125 21.8875 12.3 22 11.975 22H12ZM17 9.5C16.675 9.5 16.3625 9.375 16.1125 9.1375L12 5.025L7.8875 9.1375C7.4 9.625 6.6125 9.625 6.125 9.1375C5.6375 8.65 5.6375 7.8625 6.125 7.375L11.1125 2.3625C11.6 1.875 12.3875 1.875 12.875 2.3625L17.875 7.3625C18.3625 7.85 18.3625 8.6375 17.875 9.125C17.625 9.375 17.3125 9.4875 16.9875 9.4875L17 9.5Z"/>
</svg>
