<svg width="24" height="24" viewBox="0 0 24 24" fill="black" xmlns="http://www.w3.org/2000/svg">
<path fill-rule="evenodd" clip-rule="evenodd" d="M19 2H9C7.34 2 6 3.34 6 5V15C6 16.66 7.34 18 9 18H19C20.66 18 22 16.66 22 15V5C22 3.34 20.66 2 19 2ZM20 15C20 15.55 19.55 16 19 16H9C8.45 16 8 15.55 8 15V5C8 4.45 8.45 4 9 4H19C19.55 4 20 4.45 20 5V15Z"/>
<path fill-rule="evenodd" clip-rule="evenodd" d="M16.79 6.79L12.5 11.08L11.21 9.79C10.82 9.4 10.19 9.4 9.8 9.79C9.41 10.18 9.41 10.81 9.8 11.2L11.8 13.2C12.19 13.59 12.82 13.59 13.21 13.2L18.21 8.2C18.6 7.81 18.6 7.18 18.21 6.79C17.82 6.4 17.19 6.4 16.8 6.79H16.79Z"/>
<path fill-rule="evenodd" clip-rule="evenodd" d="M17 20H5C4.45 20 4 19.55 4 19V7C4 6.45 3.55 6 3 6C2.45 6 2 6.45 2 7V19C2 20.66 3.34 22 5 22H17C17.55 22 18 21.55 18 21C18 20.45 17.55 20 17 20Z"/>
</svg>
