<svg width="24" height="24" viewBox="0 0 24 24" fill="black" xmlns="http://www.w3.org/2000/svg">
<path fill-rule="evenodd" clip-rule="evenodd" d="M2.28436 2.52524C2.53953 2.26606 2.91634 2.1678 3.26558 2.26936C9.83671 4.18017 16.0334 7.1989 21.5884 11.1954C21.8468 11.3813 22 11.6801 22 11.9984C22 12.3167 21.8469 12.6156 21.5885 12.8015C16.0339 16.7986 9.83758 19.818 3.26668 21.7296C2.91746 21.8312 2.54065 21.733 2.28545 21.4738C2.03025 21.2147 1.93781 20.8364 2.04473 20.4888L4.65608 11.9986L2.04379 3.51032C1.93681 3.1627 2.02919 2.78441 2.28436 2.52524ZM6.42192 12.9878L4.48553 19.2836C9.74011 17.5714 14.7246 15.1186 19.288 11.9986C14.7243 8.87908 9.73957 6.42679 4.48482 4.71527L6.4218 11.0092H13.111C13.6574 11.0092 14.1003 11.4521 14.1003 11.9985C14.1003 12.5449 13.6574 12.9878 13.111 12.9878H6.42192Z"/>
</svg>
