<svg width="24" height="24" viewBox="0 0 24 24" fill="black" xmlns="http://www.w3.org/2000/svg">
<path d="M14.1912 5.76413C13.7145 5.63879 12.9737 5.73336 12.1158 6.21559C12.4979 6.08201 13.0315 5.93528 13.4942 5.90225C13.456 5.96153 13.4372 6.03246 13.4462 6.10601C13.4676 6.28317 13.638 6.40812 13.8271 6.38523C14.0163 6.36272 14.1521 6.20059 14.1311 6.02383C14.1266 5.98894 14.1153 5.95665 14.1003 5.92625C14.2448 5.97392 14.321 6.06511 14.2872 6.21747C14.4317 6.03322 14.4463 5.83131 14.1912 5.76413Z"/>
<path d="M15.0103 6.16253C15.0831 6.15392 15.1473 6.19444 15.1544 6.25374C15.1608 6.30702 15.1181 6.35657 15.0569 6.37271C15.0606 6.36296 15.0629 6.3532 15.0614 6.34381C15.0561 6.29953 14.9972 6.26987 14.9293 6.27814C14.9158 6.27963 14.9034 6.28302 14.8917 6.28677V6.28526C14.8846 6.22596 14.9379 6.17117 15.0103 6.16253Z"/>
<path d="M14.3004 6.41142C14.1769 6.58142 12.8611 7.36914 12.651 6.72554C12.2982 7.62397 12.9452 7.89455 13.5505 7.44984C13.9382 7.16501 14.223 6.62272 14.3004 6.41142Z"/>
<path d="M11.6124 16.3482V12.7793C11.6124 12.688 11.6376 12.6175 11.6867 12.5661C11.4747 12.7215 11.0949 13.0344 10.8322 13.3204V16.3482C10.8322 16.469 10.7796 16.5599 10.675 16.6203H11.7697C11.665 16.564 11.6124 16.4732 11.6124 16.3482Z"/>
<path d="M11.6867 12.5661C11.7179 12.5432 11.7468 12.5225 11.7697 12.5071C11.7367 12.5225 11.7093 12.5425 11.6867 12.5661Z"/>
<path d="M16.6235 16.6204H17.749C17.749 16.6204 17.3898 15.8128 17.3133 15.6376C17.2364 15.4619 17.1549 15.2735 17.0682 15.072C16.9811 14.8701 16.8633 14.6021 16.7143 14.2674C16.5068 13.7829 16.2767 13.2508 16.0246 12.6713C16.8746 10.4245 17.022 8.69741 16.2595 8.21594C15.8144 7.93484 15.1194 8.11761 14.2877 8.66177C14.2754 8.20955 14.4337 7.73595 14.8124 7.46986C15.0578 7.38994 15.3918 7.2901 15.4834 7.17303C15.575 7.0563 15.915 7.32313 15.8114 7.66277C15.9698 7.46086 16.4584 6.08506 14.8267 5.86778C14.2855 5.44222 13.4092 5.27783 12.4106 5.66589C11.5151 6.01339 10.0834 8.13676 9.50249 10.0631C9.09569 9.53807 8.43181 9.13839 7.55739 9.33164C7.02674 9.44913 6.20299 9.96363 6.40339 11.0876C6.50472 11.6539 6.92653 12.153 7.38814 12.5794C6.85637 13.1674 6.45782 13.7968 6.31221 14.4243C6.10692 15.3081 6.4807 16.5011 8.02913 16.6808C8.77631 16.7675 9.93783 16.4519 10.2463 15.3114C10.6201 13.9285 9.4353 12.8804 8.49221 12.093C8.46782 12.0724 8.42467 12.0405 8.36913 11.9995C8.19499 12.1842 7.86625 12.5711 7.6681 12.8267C7.90116 13.0248 8.13008 13.2046 8.31997 13.3652C10.4805 15.1898 8.59279 16.697 7.34423 16.1325C6.46231 15.734 6.00559 14.5271 7.53261 12.7133C7.533 12.7126 7.53376 12.7118 7.53449 12.7111L7.53412 12.7107C7.59604 12.6206 7.75892 12.4484 7.91729 12.2874C8.07905 12.1238 8.23515 11.9725 8.27833 11.9316C8.27981 11.9301 8.28057 11.9294 8.28169 11.9282C8.28432 11.926 8.28693 11.9234 8.28957 11.9211C8.7827 11.4584 9.39591 10.9645 10.1491 10.4414C9.47997 10.817 8.77595 11.2963 8.15335 11.8355C7.64333 11.4366 6.82371 10.6864 7.28081 10.0361C7.62758 9.54256 8.46182 9.63865 8.85287 9.83678C9.03151 9.92723 9.24166 10.0612 9.44245 10.2721C9.38466 10.4849 9.33811 10.6947 9.30472 10.8981C9.90928 9.07609 10.6749 7.7562 12.352 6.37255C11.9463 6.52792 11.2592 6.93996 11.18 7.04093C11.5271 6.5114 12.0409 5.87754 12.6725 5.69026C13.4362 5.46361 14.302 5.57356 14.6461 5.96272C14.8169 5.94209 16.0929 5.92481 15.7923 7.06269C15.7127 6.86717 15.3029 6.7302 14.7895 6.88593C14.5088 7.06345 14.2344 7.25409 14.0558 7.3738C14.3955 7.23982 14.5951 7.18127 14.7932 7.11185C14.2029 7.49013 13.9744 8.12287 13.9593 8.88993C13.0103 9.58798 11.9137 10.7071 10.8175 12.117C12.5021 10.2331 14.2082 9.2611 15.1152 9.83341C16.0891 10.4481 15.8515 12.6582 14.6746 15.2135C14.6274 15.1399 14.5793 15.0649 14.5305 14.9872C14.5062 14.9549 14.3485 14.714 14.1159 14.6063C14.0408 14.5714 13.9515 14.5455 13.8468 14.5335C13.9556 14.5256 14.0697 14.4993 14.1887 14.455C14.3076 14.4104 14.4176 14.3458 14.5182 14.2614C14.6191 14.1766 14.7028 14.0726 14.7692 13.9499C14.836 13.8268 14.869 13.6846 14.869 13.5232C14.869 13.4226 14.848 13.3127 14.8056 13.1937C14.7632 13.0747 14.6848 12.9648 14.5696 12.8638C14.4547 12.7633 14.2986 12.6784 14.1008 12.6098C13.9031 12.5415 13.6471 12.5069 13.3326 12.5069H12.0259C12.131 12.5595 12.1831 12.6503 12.1831 12.7794V16.3483C12.1831 16.4692 12.131 16.56 12.0259 16.6204H13.121C13.0684 16.5923 13.0272 16.557 12.9968 16.5146C12.9667 16.4722 12.9513 16.417 12.9513 16.3483V12.8154C12.9836 12.8117 13.02 12.8094 13.0606 12.8094C13.0925 12.8094 13.13 12.8087 13.1724 12.8064C13.2148 12.8045 13.258 12.8034 13.3022 12.8034C13.4516 12.8034 13.5755 12.8297 13.6745 12.8818C13.7732 12.934 13.8517 12.9993 13.9102 13.0778C13.9687 13.1562 14.01 13.2395 14.0344 13.3277C14.0584 13.4162 14.0704 13.4947 14.0704 13.563C14.0704 13.7153 14.0453 13.8452 13.995 13.9514C13.9444 14.058 13.6978 14.4276 13.1262 14.4599C13.3961 14.5898 13.6179 14.9448 13.6561 15.0052C13.6944 15.0656 13.7338 15.1264 13.7743 15.1868C13.8832 15.3561 14.0021 15.5437 14.1312 15.7494C14.26 15.955 14.3932 16.1547 14.5305 16.3483C14.9122 16.849 16.0553 16.8568 16.2696 16.5555C15.9232 16.7289 15.5472 16.4917 15.241 16.0669C15.1937 16.0012 15.1483 15.9318 15.1021 15.8612C15.0556 15.7907 14.9963 15.701 14.9235 15.5921C14.9163 15.5816 14.9092 15.5704 14.9021 15.5595C15.0454 15.212 15.2166 14.8003 15.2353 14.7541C15.2654 14.6798 15.2958 14.6051 15.3261 14.5305C15.3562 14.4558 15.3933 14.3642 15.438 14.2554C15.5104 14.0738 15.587 13.8842 15.6677 13.6864C15.7322 13.8441 16.6212 15.9569 16.6539 16.0335C16.6858 16.1104 16.7121 16.1738 16.7323 16.2241C16.7526 16.2748 16.7646 16.3078 16.7687 16.3239C16.7886 16.3885 16.7898 16.4429 16.7717 16.4872C16.7537 16.5319 16.7042 16.5761 16.6235 16.6204Z"/>
<path d="M12.0002 2C6.48613 2 2 6.48577 2 11.9998C2 17.5142 6.48613 22 12.0002 22C17.5142 22 22.0004 17.5142 22.0004 11.9998C22.0004 6.48577 17.5142 2 12.0002 2ZM12.0002 21.32C6.86104 21.32 2.68039 17.1389 2.68039 11.9998C2.68039 6.86105 6.86104 2.68002 12.0002 2.68002C17.1393 2.68002 21.32 6.86105 21.32 11.9998C21.32 17.1389 17.1393 21.32 12.0002 21.32Z"/>
<path d="M3.33365 11.7249C3.33251 11.7632 3.34265 11.7947 3.36441 11.8195C3.38619 11.8442 3.41208 11.857 3.4421 11.8577C3.47287 11.8589 3.4984 11.8502 3.51828 11.8319C3.53855 11.8138 3.55693 11.7909 3.57345 11.7632C3.58996 11.7354 3.6061 11.7054 3.62149 11.6735C3.63725 11.6416 3.65601 11.6116 3.67779 11.5838C3.69992 11.5564 3.72657 11.5335 3.75734 11.5159C3.78812 11.4978 3.82714 11.4896 3.8748 11.4911C3.91646 11.4922 3.95399 11.5012 3.98814 11.5181C4.02229 11.535 4.05119 11.5583 4.07483 11.5879C4.09847 11.6179 4.11611 11.6532 4.12775 11.6938C4.13936 11.7346 4.14463 11.7797 4.14312 11.8296C4.14199 11.8746 4.136 11.9148 4.12512 11.9497C4.11461 11.9846 4.10222 12.0112 4.08722 12.0289C4.05869 12.0199 4.03205 12.012 4.00803 12.0056C3.98439 11.9989 3.95811 11.9932 3.92997 11.9883L3.93072 11.9647C3.94911 11.9617 3.96675 11.9561 3.98288 11.9474C3.9994 11.9388 4.01441 11.9276 4.02717 11.9137C4.03993 11.8998 4.05044 11.8833 4.05795 11.8634C4.06545 11.8439 4.06958 11.8213 4.07032 11.7962C4.07183 11.7467 4.06057 11.7095 4.03617 11.6847C4.01216 11.6603 3.98251 11.6476 3.94761 11.6468C3.91608 11.6457 3.88982 11.6543 3.86955 11.672C3.84891 11.6896 3.83052 11.7121 3.81438 11.7388C3.79824 11.7658 3.78248 11.7955 3.76672 11.8273C3.75134 11.8596 3.73295 11.8889 3.71118 11.9155C3.68979 11.9426 3.66352 11.9647 3.63237 11.982C3.6016 11.9996 3.56257 12.0075 3.51528 12.006C3.47175 12.0049 3.43385 11.9959 3.4012 11.9797C3.36817 11.9632 3.34115 11.9418 3.31938 11.9155C3.29762 11.8889 3.28148 11.8589 3.27097 11.8247C3.26009 11.7909 3.25521 11.7549 3.25633 11.7178C3.25783 11.6727 3.26421 11.6337 3.27623 11.6003C3.28786 11.5669 3.30362 11.5384 3.32351 11.5147C3.34265 11.523 3.36067 11.5298 3.3783 11.5358C3.39632 11.5418 3.41884 11.5493 3.44585 11.5583L3.44548 11.577C3.37305 11.6018 3.3359 11.651 3.33365 11.7249Z"/>
<path d="M3.45559 11.2982C3.40192 11.2941 3.34825 11.2903 3.29421 11.2873C3.29909 11.2501 3.30434 11.2137 3.30998 11.1774C3.31523 11.1413 3.3201 11.1045 3.32424 11.0674C3.33062 11.0062 3.33587 10.9518 3.34 10.9038C3.34375 10.8561 3.34562 10.8242 3.346 10.8073C3.35876 10.8122 3.37603 10.8156 3.39741 10.8178C3.41054 10.8193 3.42106 10.8201 3.42856 10.8201C3.43608 10.8201 3.44432 10.8197 3.45371 10.819C3.44957 10.8426 3.44507 10.8689 3.4402 10.8974C3.43569 10.9255 3.43082 10.9529 3.42632 10.98C3.4218 11.0066 3.41806 11.0306 3.41506 11.052C3.41168 11.0734 3.4098 11.0888 3.40868 11.0978C3.45371 11.106 3.49875 11.1128 3.5434 11.1177C3.58807 11.1229 3.6331 11.1282 3.67851 11.1331C3.68339 11.079 3.68751 11.0302 3.69051 10.9867C3.69351 10.9432 3.69615 10.8978 3.69877 10.8505C3.71266 10.8542 3.72316 10.8572 3.73066 10.8587C3.7378 10.8602 3.74568 10.8617 3.75394 10.8625C3.76069 10.8632 3.76745 10.8632 3.77457 10.8629C3.78171 10.8625 3.79221 10.8621 3.80535 10.8617C3.78809 10.9552 3.77421 11.0486 3.76407 11.1421C3.79071 11.1451 3.81698 11.1481 3.84363 11.1514C3.86989 11.1544 3.89617 11.1574 3.92282 11.1605C3.97648 11.1661 4.02826 11.1706 4.07819 11.1736C4.08343 11.1263 4.08719 11.079 4.08981 11.0317C4.09244 10.9841 4.09319 10.936 4.09282 10.8876C4.10145 10.8903 4.10971 10.8925 4.11719 10.894C4.12434 10.8955 4.13485 10.897 4.14798 10.8985C4.1611 10.9 4.17161 10.9008 4.17913 10.9008C4.18664 10.9008 4.19301 10.9 4.19789 10.8989C4.19489 10.921 4.19113 10.9484 4.18737 10.9811C4.18326 11.0137 4.17837 11.0588 4.17237 11.1158C4.16674 11.1661 4.16262 11.207 4.15925 11.2385C4.15586 11.2693 4.15323 11.2937 4.15098 11.3124C4.1491 11.3308 4.14798 11.3451 4.14722 11.3545C4.14647 11.3642 4.14647 11.3725 4.14647 11.3789C4.09544 11.3706 4.04328 11.3628 3.99037 11.3556C3.93707 11.3485 3.87627 11.3414 3.8076 11.3338L3.63872 11.3158C3.57005 11.3083 3.50924 11.3023 3.45559 11.2982Z"/>
<path d="M4.26079 10.0947C4.27728 10.1034 4.29419 10.1097 4.3107 10.115C4.33095 10.1878 4.33095 10.2741 4.31107 10.3747C4.2968 10.4456 4.27392 10.5068 4.24276 10.559C4.21161 10.6107 4.17409 10.6524 4.13018 10.6839C4.08591 10.7155 4.03712 10.7361 3.98307 10.7466C3.92941 10.7571 3.87349 10.7563 3.81571 10.7447C3.73089 10.7278 3.66145 10.7001 3.60779 10.6618C3.55376 10.6235 3.51285 10.5785 3.4847 10.5267C3.45655 10.4745 3.43966 10.4175 3.43441 10.3555C3.42878 10.2933 3.43254 10.2298 3.44567 10.1657C3.4498 10.1443 3.4558 10.1221 3.46406 10.0992C3.47194 10.0763 3.48095 10.0542 3.49071 10.0332C3.50009 10.0125 3.51059 9.99265 3.52223 9.97426C3.53348 9.9555 3.54474 9.9401 3.55562 9.9281C3.5744 9.9401 3.59353 9.95062 3.61343 9.95925C3.6333 9.96789 3.65395 9.97538 3.67459 9.98101L3.67122 9.99828C3.6258 10.0216 3.59165 10.0478 3.56839 10.0771C3.54512 10.1064 3.52898 10.1428 3.52035 10.1867C3.51359 10.2197 3.51434 10.2538 3.5226 10.2899C3.53048 10.3259 3.547 10.3601 3.57176 10.3931C3.59653 10.4261 3.63068 10.4558 3.67421 10.4816C3.71775 10.5079 3.77217 10.5274 3.83746 10.5406C3.90013 10.5529 3.95568 10.5552 4.00334 10.5469C4.05138 10.5391 4.09229 10.5241 4.12567 10.5023C4.15946 10.4805 4.1861 10.4535 4.20598 10.4216C4.22625 10.3897 4.23976 10.3559 4.24652 10.321C4.25065 10.3015 4.25252 10.2809 4.25176 10.2595C4.2514 10.2385 4.24952 10.2171 4.24577 10.196C4.24164 10.175 4.236 10.1544 4.22813 10.1345C4.22025 10.1146 4.21049 10.097 4.19924 10.0812L4.21237 10.0673C4.22813 10.0771 4.24428 10.0865 4.26079 10.0947Z"/>
<path d="M4.45391 9.74412C4.42912 9.78467 4.39909 9.81731 4.36382 9.8417C4.32854 9.8661 4.28802 9.88149 4.24299 9.88749C4.19796 9.89349 4.1469 9.88788 4.091 9.86985C4.0591 9.85973 4.03095 9.85034 4.00618 9.84209C3.98142 9.83346 3.95815 9.82594 3.93676 9.81919C3.91536 9.81206 3.89473 9.8053 3.87521 9.79894C3.85533 9.79218 3.83506 9.78503 3.81366 9.77828C3.74949 9.75803 3.69732 9.74151 3.65755 9.72988C3.61776 9.71787 3.58737 9.70961 3.5671 9.70473C3.57386 9.68933 3.58061 9.67357 3.58699 9.65745C3.59337 9.6413 3.59938 9.62518 3.60426 9.60942C3.60952 9.59366 3.61402 9.57714 3.61814 9.55987C3.62227 9.54299 3.62602 9.52609 3.6294 9.50996C3.7037 9.5426 3.77388 9.57 3.83956 9.5929C3.90524 9.61542 3.97203 9.63793 4.03996 9.65969C4.11238 9.6826 4.17205 9.69609 4.21972 9.69985C4.26739 9.70397 4.30642 9.69948 4.33718 9.68709C4.36796 9.6747 4.3916 9.65518 4.40924 9.62818C4.42649 9.60154 4.44112 9.56851 4.45352 9.52984C4.4689 9.48218 4.4689 9.44129 4.45391 9.40675C4.43851 9.37223 4.41336 9.34183 4.37809 9.3152C4.34318 9.28853 4.30039 9.26565 4.25048 9.24614C4.20021 9.22662 4.14729 9.20786 4.09213 9.19022C4.03733 9.17259 3.98254 9.15607 3.92775 9.14031C3.87296 9.12455 3.81779 9.10953 3.76225 9.09528C3.76713 9.08477 3.77201 9.07425 3.77651 9.06449C3.78101 9.05437 3.78477 9.04535 3.7874 9.03634C3.79077 9.02622 3.7934 9.0161 3.79528 9.00634C3.79716 8.99619 3.79902 8.98607 3.80053 8.97519C3.81742 8.98231 3.84031 8.99131 3.86921 9.00219C3.8981 9.01346 3.9315 9.02585 3.96941 9.03973C4.00732 9.05361 4.04897 9.06825 4.09512 9.08438C4.1409 9.10052 4.18969 9.11665 4.24111 9.13317C4.37921 9.17708 4.46852 9.23862 4.50943 9.31707C4.54997 9.3955 4.55222 9.49232 4.51543 9.60715C4.49931 9.65782 4.47867 9.7036 4.45391 9.74412Z"/>
<path d="M4.40349 8.73936L4.4504 8.76C4.51346 8.78776 4.56974 8.81179 4.61965 8.83206C4.66919 8.85231 4.71835 8.87146 4.76677 8.88909C4.75964 8.90148 4.75289 8.91498 4.74614 8.93037C4.73938 8.94539 4.7315 8.96264 4.72323 8.98179C4.71498 9.00055 4.7071 9.01782 4.70035 9.03319C4.69395 9.04822 4.68834 9.06285 4.6842 9.07637C4.63843 9.05234 4.59113 9.0287 4.54273 9.00543C4.49431 8.98255 4.43876 8.95664 4.37534 8.92888L4.22036 8.86019C4.1573 8.83242 4.10064 8.80803 4.05111 8.78815C4.0012 8.76788 3.95091 8.74836 3.90025 8.7296C3.90738 8.71721 3.91488 8.70369 3.92276 8.68906C3.93064 8.67442 3.9389 8.65754 3.94753 8.63839C3.95653 8.61775 3.96591 8.59411 3.97567 8.56711C3.98543 8.54008 3.99856 8.50705 4.01582 8.46802C4.0286 8.43914 4.04022 8.41474 4.05111 8.39523C4.06161 8.37532 4.07175 8.35844 4.08113 8.34493C4.09089 8.33141 4.10064 8.32053 4.11039 8.31153C4.12015 8.30253 4.13066 8.29465 4.14193 8.28789C4.16894 8.2725 4.19745 8.2635 4.22824 8.26125C4.25864 8.25898 4.29128 8.26537 4.32543 8.28038C4.38097 8.30514 4.41964 8.34044 4.44103 8.3862C4.4624 8.43199 4.46804 8.48678 4.45716 8.5502C4.53785 8.54233 4.61965 8.53145 4.70259 8.51832C4.78517 8.50481 4.86735 8.49129 4.94915 8.47702C4.93978 8.49393 4.93151 8.51081 4.92402 8.52769C4.91687 8.5442 4.90899 8.56147 4.9015 8.57872C4.89362 8.59636 4.88611 8.61363 4.87859 8.6309C4.87072 8.64778 4.86396 8.66542 4.85759 8.68381L4.408 8.72885L4.40349 8.73936ZM4.18884 8.44099C4.16593 8.43914 4.14642 8.44287 4.12991 8.45263C4.11339 8.46202 4.09877 8.47741 4.08563 8.49842C4.07287 8.51944 4.05937 8.54572 4.04548 8.57687C4.14793 8.6249 4.25112 8.67181 4.35433 8.7176C4.35734 8.71345 4.35958 8.70933 4.36184 8.70521C4.36409 8.70108 4.36597 8.69733 4.36785 8.69357C4.38998 8.64327 4.39336 8.59899 4.37834 8.56035C4.36297 8.52169 4.32806 8.49017 4.27327 8.46614C4.23987 8.45114 4.21172 8.44287 4.18884 8.44099Z"/>
<path d="M4.39018 8.0605C4.34213 8.03686 4.29334 8.01359 4.24418 7.99107C4.25206 7.97946 4.2607 7.96668 4.2697 7.95243C4.27833 7.93855 4.28772 7.92204 4.29748 7.90364C4.30724 7.88564 4.31548 7.86873 4.32224 7.85336C4.329 7.83797 4.335 7.8237 4.34025 7.81058C4.38642 7.8391 4.43258 7.86649 4.47912 7.89313C4.52603 7.91977 4.57968 7.94943 4.6405 7.9817L4.79023 8.06165C4.85138 8.09392 4.90581 8.12205 4.95384 8.14571C5.00226 8.16935 5.04993 8.19186 5.09684 8.21326C5.08857 8.22489 5.08069 8.23802 5.07281 8.25302C5.0653 8.26766 5.0563 8.28417 5.04654 8.30257C5.03678 8.32059 5.02814 8.33711 5.02027 8.35211C5.01238 8.36675 5.00602 8.38063 5.00075 8.39375C4.95684 8.36675 4.91144 8.33972 4.8649 8.31308C4.81838 8.28644 4.76471 8.25678 4.70353 8.2245L4.5538 8.14495C4.493 8.11229 4.43822 8.08416 4.39018 8.0605Z"/>
<path d="M4.66017 7.53127C4.6429 7.52114 4.63014 7.51438 4.62151 7.51063C4.61475 7.52153 4.60723 7.53466 4.59823 7.55078C4.58923 7.56656 4.57947 7.58381 4.56971 7.6022C4.55996 7.6206 4.54983 7.63936 4.54044 7.65887C4.53068 7.67839 4.52205 7.69639 4.51456 7.7133C4.50741 7.70691 4.50065 7.7009 4.49353 7.6949C4.48641 7.68927 4.4789 7.68363 4.47101 7.67875C4.4635 7.67388 4.45525 7.66975 4.44699 7.666C4.43838 7.66226 4.4301 7.65851 4.4211 7.65512C4.43686 7.63148 4.45113 7.61047 4.46389 7.59132C4.47665 7.57218 4.48977 7.55305 4.50253 7.53314C4.51529 7.51326 4.52956 7.4915 4.54456 7.46786C4.55959 7.44459 4.57759 7.41644 4.59823 7.38304C4.61887 7.35001 4.63651 7.3215 4.65078 7.29747C4.66503 7.27383 4.67817 7.25168 4.69017 7.2318C4.7022 7.21192 4.71381 7.19201 4.72471 7.17289C4.7356 7.15374 4.7476 7.1331 4.76036 7.11095C4.76748 7.11697 4.77424 7.12334 4.78138 7.12898C4.78851 7.13498 4.79602 7.14022 4.8039 7.1451C4.81139 7.14998 4.81966 7.15449 4.8279 7.15825C4.83654 7.16201 4.84479 7.16537 4.85342 7.16876C4.84254 7.18189 4.83091 7.19653 4.81815 7.21304C4.80539 7.22955 4.793 7.24607 4.78138 7.26258C4.76936 7.27947 4.75811 7.29522 4.74797 7.31023C4.73748 7.32525 4.72884 7.33838 4.72245 7.34889C4.72545 7.35189 4.72996 7.35526 4.73633 7.35977C4.74235 7.3639 4.74984 7.36877 4.75811 7.37404L4.81439 7.40893L5.07898 7.57405C5.13752 7.61047 5.19007 7.64236 5.23659 7.669C5.28276 7.69603 5.32892 7.72193 5.37432 7.74633C5.36531 7.75757 5.35668 7.76996 5.34805 7.78421C5.33904 7.79812 5.32928 7.81424 5.31804 7.83188C5.30716 7.84952 5.2974 7.86527 5.28838 7.87954C5.27974 7.89342 5.27225 7.90694 5.26625 7.92006C5.22422 7.89006 5.18104 7.86003 5.13601 7.83C5.09173 7.80036 5.03994 7.76733 4.9814 7.73054L4.71645 7.56581C4.69618 7.55305 4.67742 7.54141 4.66017 7.53127Z"/>
<path d="M5.33513 6.82453C5.32086 6.79301 5.30546 6.76073 5.28821 6.72809C5.27131 6.69543 5.25367 6.66316 5.23604 6.63088C5.21803 6.59861 5.20113 6.56746 5.18501 6.53782C5.19213 6.53145 5.19889 6.52469 5.20564 6.51794C5.21239 6.51118 5.21876 6.50366 5.22479 6.49579C5.23079 6.48754 5.23604 6.47966 5.24092 6.47102C5.24543 6.46276 5.25067 6.45375 5.25592 6.444C5.26568 6.46951 5.27958 6.50179 5.29683 6.54157C5.31447 6.58136 5.33361 6.62413 5.35425 6.66991C5.37489 6.7157 5.39592 6.76261 5.41804 6.80991C5.4402 6.85719 5.46083 6.90071 5.47998 6.94013C5.49611 6.95213 5.51187 6.96489 5.52763 6.97765C5.5434 6.9908 5.55953 7.00317 5.57605 7.01592C5.60983 7.04144 5.64398 7.06622 5.67775 7.09023C5.71153 7.11426 5.74869 7.1379 5.78884 7.1608C5.77681 7.17356 5.76557 7.18744 5.75468 7.20169C5.74381 7.21596 5.73329 7.22984 5.72278 7.24372C5.71227 7.25799 5.70177 7.27187 5.6909 7.28614C5.67999 7.30039 5.66986 7.31502 5.66086 7.33005C5.6312 7.30566 5.60195 7.27975 5.57268 7.25235C5.54301 7.22496 5.51262 7.19944 5.48071 7.17544C5.46534 7.1638 5.44995 7.15217 5.43419 7.1409C5.41804 7.12926 5.40228 7.11838 5.38652 7.1075C5.34074 7.09887 5.28934 7.08986 5.23228 7.08086C5.17524 7.07147 5.1197 7.06247 5.06603 7.05347C5.01237 7.04483 4.96321 7.03695 4.9193 7.03056C4.87539 7.0238 4.84348 7.01931 4.8236 7.01668C4.83636 7.00243 4.84875 6.98816 4.86075 6.97428C4.87276 6.96077 4.88439 6.94613 4.89603 6.93074C4.90766 6.91535 4.91818 6.90034 4.92794 6.88534C4.93769 6.87031 4.94781 6.85455 4.95796 6.83843C4.99097 6.84555 5.02812 6.85343 5.06867 6.8617C5.10919 6.86995 5.14897 6.87783 5.18837 6.88571C5.2274 6.89322 5.26306 6.89998 5.29534 6.90522C5.32762 6.91086 5.35201 6.91422 5.36889 6.91574L5.3704 6.91349C5.36101 6.88571 5.34937 6.85607 5.33513 6.82453Z"/>
<path d="M5.74133 6.1459C5.70115 6.10989 5.66064 6.07462 5.61936 6.03971C5.63024 6.03071 5.64187 6.02056 5.65425 6.00932C5.66664 5.99805 5.68015 5.98492 5.69442 5.96989C5.70867 5.95489 5.72106 5.94101 5.73194 5.92825C5.74245 5.91511 5.75182 5.9031 5.76046 5.89186C5.79724 5.93162 5.83476 5.97065 5.87231 6.00856C5.90983 6.04683 5.95373 6.08999 6.00365 6.13766L6.12635 6.25475C6.17629 6.30241 6.22131 6.34406 6.26108 6.38009C6.30123 6.41575 6.34102 6.45027 6.38042 6.48367C6.36954 6.49267 6.35829 6.50318 6.34702 6.51518C6.33539 6.52721 6.32263 6.5407 6.30799 6.55573C6.29375 6.57073 6.28098 6.58424 6.26935 6.59664C6.25771 6.60864 6.24796 6.62027 6.23932 6.63152C6.20441 6.59364 6.16801 6.55534 6.1305 6.51706C6.09259 6.47879 6.04868 6.436 5.99877 6.38836L5.87604 6.27126C5.82613 6.2236 5.7811 6.18156 5.74133 6.1459Z"/>
<path d="M6.02369 5.76665C5.99666 5.73853 5.97263 5.71337 5.95239 5.69162C5.97263 5.67922 5.98802 5.66834 5.99854 5.65895C6.00905 5.64958 6.02181 5.63568 6.03645 5.61731C6.17115 5.63268 6.30401 5.6477 6.43461 5.66195C6.56558 5.67622 6.69919 5.69049 6.83542 5.70437L6.6838 5.5321C6.65677 5.5017 6.63013 5.4717 6.6035 5.44243C6.57722 5.41315 6.55283 5.38612 6.53031 5.36136C6.50816 5.33658 6.48865 5.31557 6.4714 5.2983C6.45449 5.28106 6.44286 5.26979 6.43612 5.26491C6.45637 5.25252 6.47177 5.24164 6.48228 5.23227C6.4928 5.22288 6.50555 5.209 6.52019 5.1906C6.5671 5.2499 6.60987 5.30357 6.64853 5.35085C6.68717 5.39852 6.72359 5.44316 6.75811 5.48482C6.79263 5.52649 6.82717 5.56701 6.86205 5.60716C6.89659 5.64695 6.93374 5.68935 6.97315 5.73438L7.07221 5.84659C7.05872 5.85635 7.04557 5.86687 7.03245 5.8785C7.01854 5.8905 7.00693 5.90177 6.99754 5.91265C6.73708 5.87626 6.46764 5.84586 6.18994 5.82147C6.20531 5.83984 6.2207 5.85862 6.23646 5.87699C6.25222 5.89502 6.26798 5.91378 6.28449 5.93254L6.38058 6.04099C6.41358 6.07854 6.44174 6.11005 6.46501 6.13594C6.48828 6.16184 6.50855 6.1836 6.52507 6.20124C6.54156 6.21888 6.55546 6.23315 6.56596 6.24403C6.57686 6.25491 6.58547 6.26354 6.59223 6.26991C6.58359 6.27518 6.57571 6.28118 6.56822 6.28794C6.56071 6.2943 6.55358 6.3007 6.54683 6.3067C6.53256 6.31946 6.51868 6.3326 6.50516 6.34685C6.50216 6.34048 6.48792 6.32133 6.46313 6.28943C6.43798 6.25715 6.40685 6.21812 6.37043 6.17197C6.33367 6.12618 6.29352 6.07666 6.24961 6.02374C6.20606 5.9712 6.16327 5.9209 6.12124 5.87362C6.08336 5.83047 6.0507 5.7948 6.02369 5.76665Z"/>
<path d="M6.83669 5.14923C6.80479 5.10569 6.77215 5.06292 6.73875 5.02013C6.75151 5.01338 6.76502 5.00586 6.77928 4.99762C6.79391 4.98935 6.80967 4.97922 6.82657 4.96722C6.84946 4.95183 6.87422 4.93344 6.90125 4.91243C6.92788 4.8914 6.96392 4.86552 7.00934 4.83437C7.06825 4.79383 7.12567 4.76231 7.18122 4.73979C7.23674 4.71691 7.2908 4.7064 7.34332 4.70789C7.3955 4.70903 7.44616 4.72479 7.49496 4.75443C7.54336 4.78407 7.59026 4.83137 7.63493 4.89628C7.67396 4.95334 7.69985 5.01113 7.7126 5.07004C7.72536 5.12896 7.72648 5.18601 7.71636 5.2408C7.70624 5.29559 7.6856 5.34663 7.65445 5.39317C7.6233 5.43969 7.58351 5.47985 7.53511 5.51324C7.48369 5.54854 7.43941 5.57818 7.40263 5.60257C7.36584 5.62697 7.33395 5.64836 7.30731 5.66676C7.29005 5.67837 7.27465 5.68888 7.26114 5.69827C7.24726 5.70764 7.23525 5.71703 7.22437 5.72642C7.1981 5.68213 7.17032 5.63748 7.14104 5.59245C7.11216 5.54703 7.078 5.496 7.03897 5.43933L6.94291 5.29935C6.90388 5.24229 6.86821 5.19238 6.83669 5.14923ZM7.24277 5.40966L7.28516 5.47121C7.29868 5.49112 7.31144 5.50912 7.32307 5.52563C7.33471 5.54178 7.3422 5.55227 7.34559 5.55715C7.35647 5.55078 7.36923 5.54291 7.38386 5.53351C7.39887 5.52451 7.4169 5.51251 7.43829 5.49787C7.5156 5.44457 7.55874 5.37627 7.56775 5.2922C7.57675 5.20853 7.54448 5.11283 7.47093 5.00586C7.44166 4.96346 7.41014 4.92931 7.3756 4.90341C7.34108 4.87789 7.30543 4.85989 7.26865 4.85049C7.23186 4.84113 7.19471 4.84 7.15719 4.84674C7.11967 4.85388 7.08325 4.87001 7.04761 4.8944C7.02282 4.91131 7.00334 4.92556 6.98831 4.93719C6.97367 4.94883 6.95904 4.96083 6.94403 4.97286C6.9474 4.97773 6.95455 4.98861 6.96542 5.00513C6.97631 5.02201 6.98907 5.0404 7.00334 5.06104L7.04573 5.12296L7.08101 5.17399L7.24277 5.40966Z"/>
<path d="M8.22367 5.08742C8.17749 5.09869 8.13322 5.10093 8.09082 5.09344C8.04879 5.08593 8.00937 5.06866 7.97297 5.0409C7.93657 5.0135 7.90466 4.97371 7.87727 4.92117C7.86188 4.89189 7.84839 4.86526 7.83636 4.84198C7.82473 4.81873 7.81385 4.79695 7.80333 4.77707C7.79284 4.75719 7.78308 4.73767 7.77369 4.71928C7.76469 4.70052 7.75457 4.68137 7.74442 4.66149C7.71327 4.60182 7.68775 4.5534 7.66748 4.517C7.6476 4.4806 7.63221 4.45357 7.62096 4.43594C7.63635 4.42955 7.65211 4.42318 7.66824 4.41606C7.68439 4.40891 7.69975 4.40179 7.71439 4.39391C7.72942 4.38639 7.74405 4.37776 7.75906 4.36876C7.77406 4.35939 7.78833 4.35036 7.80221 4.34099C7.83224 4.41642 7.86263 4.48548 7.89342 4.54776C7.92382 4.61007 7.9557 4.67312 7.98912 4.73616C8.024 4.80334 8.05704 4.85513 8.08818 4.89153C8.11934 4.92756 8.1501 4.95232 8.18088 4.96471C8.21128 4.97747 8.24204 4.98047 8.2732 4.97371C8.30434 4.96659 8.33813 4.95383 8.37414 4.93507C8.41844 4.9118 8.44732 4.88253 8.46083 4.84762C8.47435 4.81234 8.47811 4.77295 8.47171 4.7294C8.46535 4.68588 8.45108 4.63934 8.42931 4.59018C8.40716 4.54101 8.38277 4.49073 8.35613 4.4393C8.3295 4.38827 8.30211 4.33799 8.27432 4.28808C8.24655 4.23854 8.21804 4.18899 8.18838 4.13947C8.19928 4.13571 8.21016 4.13196 8.22028 4.12784C8.23041 4.12408 8.23943 4.11996 8.24768 4.11581C8.25707 4.11056 8.26607 4.10532 8.27432 4.09968C8.28259 4.09368 8.29122 4.08768 8.30022 4.08129C8.30698 4.09817 8.31711 4.12069 8.32987 4.14884C8.34262 4.17699 8.35765 4.20926 8.37452 4.24566C8.3918 4.28245 8.41131 4.32223 8.43268 4.36612C8.45408 4.40966 8.47735 4.45545 8.50211 4.50349C8.5693 4.63183 8.58956 4.7384 8.56329 4.82286C8.53702 4.90729 8.47059 4.97747 8.36365 5.03338C8.31635 5.05817 8.26983 5.07617 8.22367 5.08742Z"/>
<path d="M8.77372 3.95251C8.73807 3.96678 8.7133 3.98893 8.69939 4.01857C8.68551 4.0486 8.68403 4.07748 8.69527 4.10526C8.70655 4.13378 8.72455 4.15366 8.74933 4.16454C8.7741 4.17581 8.80225 4.18333 8.83452 4.18745C8.8668 4.19157 8.90055 4.19457 8.93583 4.19569C8.97149 4.19721 9.0064 4.20245 9.04055 4.21184C9.07468 4.22084 9.10623 4.23585 9.13474 4.25724C9.16362 4.27827 9.18653 4.31091 9.20417 4.35482C9.21992 4.39348 9.22668 4.43176 9.22481 4.46967C9.22331 4.50755 9.21317 4.54358 9.19553 4.57698C9.17752 4.61077 9.15238 4.64116 9.11974 4.66819C9.08708 4.69483 9.04768 4.71771 9.00113 4.73649C8.95949 4.75301 8.92045 4.7635 8.88403 4.76801C8.84765 4.77252 8.81837 4.77138 8.79624 4.76501C8.79322 4.73498 8.78985 4.70759 8.78609 4.68319C8.78272 4.65843 8.77746 4.63216 8.7707 4.6044L8.79286 4.59576C8.80261 4.61152 8.815 4.62504 8.82925 4.63667C8.84389 4.64828 8.86003 4.65731 8.87804 4.66368C8.89568 4.67007 8.91519 4.67268 8.93622 4.67195C8.95761 4.6708 8.97973 4.66592 9.00264 4.65655C9.04916 4.63779 9.07844 4.61264 9.0912 4.58074C9.10395 4.54846 9.10395 4.51619 9.09083 4.48391C9.07883 4.45464 9.0608 4.434 9.03641 4.42237C9.01201 4.41073 8.98425 4.40285 8.95309 4.39873C8.92195 4.39461 8.88855 4.39197 8.85291 4.39048C8.81725 4.38934 8.78309 4.38409 8.7497 4.37509C8.71667 4.3657 8.6859 4.3507 8.65736 4.3293C8.62924 4.30791 8.60633 4.27527 8.58869 4.23136C8.57257 4.19121 8.56542 4.15293 8.56731 4.11614C8.56918 4.07975 8.57782 4.04596 8.59321 4.01557C8.60897 3.98517 8.62997 3.95814 8.657 3.93487C8.68403 3.91162 8.71479 3.89284 8.74933 3.87896C8.79136 3.86208 8.82964 3.85232 8.86491 3.85007C8.90019 3.84744 8.93246 3.85044 8.9621 3.85944C8.96248 3.87971 8.96323 3.89959 8.96474 3.91799C8.96661 3.93675 8.96849 3.96041 8.9711 3.98893L8.95386 3.99568C8.90243 3.93938 8.84239 3.92475 8.77372 3.95251Z"/>
<path d="M9.36157 3.82124C9.35518 3.80248 9.34993 3.7886 9.34579 3.78035C9.33379 3.78409 9.31916 3.78897 9.30188 3.79536C9.28463 3.80175 9.26624 3.80848 9.24673 3.81563C9.22721 3.82312 9.20769 3.831 9.18742 3.83927C9.16754 3.84751 9.14915 3.85578 9.13227 3.86366C9.13115 3.85427 9.13001 3.84527 9.12851 3.83627C9.12702 3.82687 9.12475 3.81787 9.12214 3.80924C9.1195 3.8006 9.11612 3.79199 9.112 3.78372C9.10824 3.77547 9.10412 3.76684 9.09999 3.75857C9.12702 3.75108 9.15178 3.74432 9.17393 3.73832C9.19606 3.7323 9.21858 3.72593 9.24109 3.71954C9.264 3.7128 9.28876 3.70566 9.3154 3.69778C9.34206 3.6899 9.37434 3.68014 9.41149 3.66851C9.449 3.65687 9.48091 3.64675 9.50716 3.63811C9.53382 3.62947 9.55822 3.6216 9.58034 3.61447C9.60249 3.60696 9.62389 3.59983 9.64452 3.59232C9.66555 3.5852 9.68807 3.57732 9.71246 3.56868C9.71358 3.57807 9.71471 3.58708 9.7162 3.59644C9.7177 3.60547 9.71995 3.6141 9.72258 3.62311C9.72559 3.63174 9.72859 3.64035 9.73272 3.64862C9.73646 3.65726 9.74059 3.66551 9.74473 3.67377C9.72823 3.67602 9.70983 3.67939 9.68919 3.68353C9.66892 3.68802 9.64864 3.69253 9.62877 3.69702C9.60889 3.7019 9.59011 3.70678 9.57247 3.71129C9.55483 3.71617 9.53983 3.7203 9.52782 3.72405C9.52855 3.72817 9.52969 3.73381 9.53119 3.74093C9.53306 3.74845 9.5357 3.75669 9.5387 3.76645L9.65053 4.12749C9.67116 4.19352 9.68994 4.2517 9.70758 4.30237C9.72483 4.3534 9.74286 4.40256 9.76123 4.45098C9.74735 4.45362 9.73234 4.45735 9.71658 4.46223C9.70044 4.46711 9.6828 4.47274 9.66291 4.47913C9.64303 4.48513 9.62501 4.49077 9.60925 4.49565C9.59349 4.50053 9.57885 4.50577 9.5657 4.51177C9.55371 4.46149 9.54058 4.41044 9.52631 4.35865C9.51204 4.30686 9.49479 4.24795 9.47415 4.18228L9.38182 3.8843C9.3747 3.86103 9.36794 3.84002 9.36157 3.82124Z"/>
<path d="M10.1791 3.9367L10.1896 3.98662C10.2043 4.05416 10.2178 4.11383 10.2309 4.16599C10.2437 4.21817 10.2572 4.2692 10.2714 4.31875C10.2572 4.32023 10.2422 4.32248 10.2257 4.32587C10.2095 4.32963 10.1911 4.33338 10.1709 4.33787C10.1506 4.34238 10.1322 4.34614 10.1161 4.34951C10.0996 4.35326 10.0849 4.35739 10.0714 4.3619C10.0639 4.31084 10.0553 4.25869 10.0455 4.20614C10.0358 4.15323 10.0237 4.09319 10.0091 4.02565L9.97347 3.85976C9.95883 3.79222 9.94532 3.73255 9.93217 3.68037C9.91942 3.62821 9.90554 3.57606 9.89089 3.52388C9.90517 3.52239 9.92054 3.52088 9.93706 3.51824C9.95356 3.516 9.97196 3.513 9.99222 3.50849C10.0144 3.50361 10.0391 3.49724 10.0665 3.48936C10.0943 3.48109 10.1288 3.47248 10.1701 3.46384C10.2013 3.45709 10.2279 3.45221 10.2501 3.44921C10.2722 3.44582 10.2917 3.44433 10.3082 3.44433C10.3247 3.44394 10.3397 3.44545 10.3525 3.44808C10.3656 3.4507 10.378 3.45484 10.39 3.45972C10.4185 3.47248 10.4426 3.49048 10.4625 3.51375C10.4823 3.53703 10.4962 3.56703 10.5041 3.60382C10.5169 3.66312 10.5112 3.71491 10.4865 3.75919C10.4621 3.80385 10.4212 3.84025 10.3634 3.86877C10.4174 3.92956 10.4741 3.98962 10.5338 4.04853C10.5931 4.10744 10.6523 4.16599 10.7116 4.22378C10.6925 4.22641 10.6741 4.22941 10.6565 4.23317C10.6385 4.23729 10.6201 4.24105 10.6013 4.24517C10.5829 4.2493 10.5642 4.25305 10.5462 4.2572C10.5278 4.26093 10.5094 4.26581 10.491 4.27145L10.19 3.93444L10.1791 3.9367ZM10.294 3.58767C10.2819 3.56818 10.2673 3.55427 10.2501 3.54678C10.2324 3.5389 10.2114 3.5359 10.187 3.53815C10.1622 3.54003 10.1333 3.54452 10.0999 3.55166C10.1213 3.66273 10.1438 3.77346 10.1675 3.88416C10.1727 3.88377 10.1776 3.8834 10.1821 3.88304C10.1866 3.88228 10.1908 3.88191 10.1949 3.88077C10.2485 3.86913 10.2864 3.84588 10.309 3.81098C10.3311 3.77607 10.336 3.72916 10.3232 3.67061C10.3157 3.63497 10.306 3.60719 10.294 3.58767Z"/>
<path d="M11.0719 3.61207C11.0847 3.5798 11.0967 3.5464 11.1083 3.51151C11.12 3.47622 11.1312 3.44133 11.1417 3.40606C11.1522 3.37078 11.1627 3.337 11.1729 3.30472C11.1822 3.30509 11.1916 3.30548 11.2014 3.30548C11.2112 3.30548 11.2209 3.30472 11.2307 3.3036C11.2408 3.30248 11.2502 3.3006 11.2596 3.29833C11.2689 3.29572 11.2791 3.29309 11.2896 3.29009C11.2783 3.31485 11.2644 3.34751 11.2483 3.38766C11.2318 3.42782 11.2145 3.47134 11.1961 3.51788C11.1774 3.56479 11.159 3.61246 11.1402 3.66125C11.1218 3.7104 11.1049 3.75543 11.0899 3.79671C11.0926 3.81623 11.0944 3.8365 11.0963 3.85677C11.0978 3.87704 11.1001 3.89768 11.1027 3.91832C11.1079 3.96035 11.1136 4.00199 11.12 4.0429C11.1267 4.0842 11.1353 4.12696 11.147 4.17163C11.1293 4.17238 11.1117 4.17351 11.0941 4.17575C11.076 4.17802 11.0588 4.18026 11.0415 4.18251C11.0239 4.18439 11.0066 4.18663 10.9886 4.1889C10.971 4.19114 10.9537 4.19414 10.9364 4.1979C10.9334 4.15999 10.9312 4.12059 10.9304 4.08044C10.9297 4.04029 10.9267 4.0005 10.9218 3.9611C10.9196 3.94195 10.9169 3.92281 10.9139 3.90329C10.9113 3.88416 10.9083 3.86501 10.9049 3.84589C10.879 3.80722 10.8497 3.76444 10.8167 3.71679C10.7833 3.66949 10.751 3.62334 10.7199 3.57867C10.6887 3.53403 10.6602 3.49349 10.6343 3.45746C10.6084 3.42143 10.5897 3.39518 10.5777 3.37903C10.5968 3.37827 10.6156 3.37752 10.634 3.37639C10.652 3.37527 10.6707 3.37378 10.6899 3.37115C10.7086 3.3689 10.727 3.3659 10.7447 3.36251C10.7623 3.35915 10.7803 3.35539 10.7991 3.35127C10.8171 3.38015 10.837 3.41206 10.8595 3.44697C10.882 3.48185 10.9038 3.516 10.9256 3.5494C10.9473 3.58243 10.9676 3.61282 10.986 3.63985C11.0044 3.66688 11.019 3.68676 11.0299 3.69952H11.0325C11.046 3.67325 11.0592 3.64437 11.0719 3.61207Z"/>
<path d="M12.0308 3.73177L12.0304 3.78282C12.0292 3.85186 12.0292 3.91304 12.0304 3.96708C12.0311 4.02074 12.033 4.07329 12.0356 4.12469C12.0218 4.12281 12.0064 4.12208 11.9895 4.12169C11.973 4.12132 11.9542 4.12132 11.9335 4.12093C11.9125 4.12056 11.8938 4.12056 11.8773 4.1202C11.8608 4.11981 11.8453 4.12056 11.8311 4.12208C11.8352 4.07065 11.8382 4.01811 11.8409 3.96444C11.8431 3.91077 11.8446 3.84962 11.8457 3.78056L11.848 3.61055C11.8487 3.54188 11.8487 3.48033 11.848 3.42667C11.8469 3.373 11.845 3.31896 11.8424 3.26493C11.8566 3.26681 11.872 3.26866 11.8885 3.26981C11.905 3.2713 11.9238 3.27242 11.9448 3.27281C11.9673 3.27281 11.9928 3.27205 12.0214 3.27054C12.0503 3.26866 12.0859 3.2683 12.1283 3.26866C12.1599 3.26905 12.1869 3.27054 12.2094 3.27242C12.2315 3.2743 12.251 3.27693 12.2672 3.28069C12.2833 3.28406 12.2976 3.28857 12.3092 3.2942C12.3212 3.29981 12.3328 3.30657 12.3434 3.31408C12.3681 3.33284 12.3876 3.35575 12.4019 3.38276C12.4162 3.41015 12.4229 3.44242 12.4222 3.47997C12.4214 3.54037 12.4042 3.58991 12.3704 3.62745C12.3366 3.66534 12.2886 3.692 12.2259 3.70664C12.2649 3.77794 12.3069 3.84923 12.3516 3.92016C12.3963 3.9911 12.4413 4.06126 12.486 4.13069C12.4668 4.12883 12.4481 4.12769 12.43 4.12769C12.4117 4.12732 12.3929 4.12696 12.3738 4.12696C12.3546 4.12657 12.3359 4.1262 12.3171 4.1262C12.2983 4.12581 12.2796 4.1262 12.2604 4.12769L12.042 3.73177H12.0308ZM12.221 3.41727C12.2139 3.39551 12.2026 3.379 12.1872 3.36736C12.1722 3.35612 12.1523 3.3486 12.1279 3.34485C12.1032 3.34111 12.0739 3.33923 12.0398 3.33885C12.036 3.45182 12.033 3.56476 12.0315 3.6781C12.0368 3.67886 12.0413 3.67961 12.0461 3.67998C12.0506 3.68073 12.0548 3.68073 12.0589 3.68073C12.1141 3.68149 12.1561 3.66761 12.1857 3.63834C12.215 3.60906 12.2304 3.56476 12.2311 3.50473C12.2315 3.46833 12.2282 3.43906 12.221 3.41727Z"/>
<path d="M12.6391 3.45029C12.6428 3.39664 12.6462 3.34298 12.6484 3.28892C12.686 3.29343 12.7224 3.29831 12.7588 3.30356C12.7948 3.30882 12.8316 3.31331 12.8691 3.31707C12.9303 3.32346 12.9847 3.32795 13.0324 3.33171C13.08 3.3351 13.1123 3.33698 13.1292 3.33698C13.1243 3.34973 13.1209 3.36698 13.1191 3.38838C13.1175 3.40189 13.1168 3.41201 13.1172 3.41989C13.1172 3.42741 13.1175 3.43568 13.1183 3.44504C13.0943 3.44092 13.0684 3.4368 13.0399 3.43229C13.0113 3.42741 12.9839 3.42328 12.9573 3.41877C12.9307 3.41428 12.9063 3.41089 12.8849 3.40789C12.8635 3.40489 12.8481 3.40301 12.8391 3.40189C12.8312 3.44729 12.8248 3.49195 12.82 3.53662C12.8151 3.58129 12.8106 3.62632 12.8061 3.67208C12.8597 3.6766 12.9085 3.68035 12.9521 3.68299C12.996 3.6856 13.0414 3.68787 13.0887 3.69011C13.0849 3.70399 13.0819 3.7145 13.0804 3.72202C13.0789 3.72951 13.0778 3.73739 13.077 3.74566C13.0763 3.75202 13.0763 3.75917 13.0766 3.76629C13.0774 3.77342 13.0778 3.78354 13.0782 3.79706C12.9843 3.78017 12.8909 3.76705 12.7975 3.75766C12.7948 3.7843 12.7918 3.81057 12.7888 3.83721C12.7858 3.86348 12.7828 3.89014 12.7802 3.91639C12.7749 3.97006 12.7708 4.02224 12.7685 4.07215C12.8154 4.07664 12.8627 4.0804 12.9104 4.08227C12.9577 4.08452 13.0057 4.08528 13.0545 4.08415C13.0519 4.09316 13.0496 4.10142 13.0481 4.10891C13.0466 4.11606 13.0451 4.12655 13.0436 4.1397C13.0425 4.15282 13.0418 4.16334 13.0421 4.17085C13.0421 4.17834 13.0425 4.18473 13.0436 4.18998C13.0215 4.18661 12.9941 4.18322 12.9614 4.17985C12.9288 4.1761 12.8838 4.17122 12.8267 4.16558C12.7764 4.1607 12.7355 4.15658 12.704 4.15321C12.6732 4.15021 12.6488 4.14795 12.6301 4.14607C12.6113 4.14421 12.5974 4.1427 12.5877 4.14233C12.5783 4.14194 12.57 4.14158 12.5633 4.14194C12.5715 4.09091 12.5787 4.03875 12.5854 3.98545C12.5922 3.93218 12.5993 3.87099 12.606 3.80232L12.6229 3.63381C12.6297 3.56477 12.6353 3.50396 12.6391 3.45029Z"/>
<path d="M13.9364 3.57979C13.9018 3.54939 13.8564 3.52876 13.8001 3.51712C13.7626 3.50963 13.7236 3.51036 13.6834 3.51863C13.6429 3.52688 13.605 3.54415 13.5697 3.57006C13.5344 3.5963 13.5029 3.63121 13.4755 3.67512C13.4478 3.7194 13.4275 3.77346 13.4147 3.838C13.405 3.88679 13.4023 3.9337 13.4076 3.97798C13.4125 4.02226 13.4245 4.06204 13.4436 4.09768C13.4628 4.13335 13.489 4.16374 13.5224 4.18814C13.5555 4.21253 13.5956 4.2298 13.6429 4.23917C13.6538 4.24142 13.6658 4.24293 13.6797 4.24444C13.6932 4.24629 13.7067 4.24744 13.7195 4.24817C13.7326 4.24932 13.7446 4.24932 13.7559 4.24856C13.7667 4.24781 13.7754 4.24629 13.781 4.24405C13.7844 4.23468 13.7877 4.22266 13.7911 4.20802C13.7945 4.19338 13.7983 4.17726 13.8016 4.15923C13.8151 4.09319 13.8238 4.04404 13.8275 4.01213C13.8313 3.98022 13.8339 3.95883 13.8358 3.94719C13.8433 3.95022 13.8538 3.95395 13.8669 3.95771C13.8804 3.96183 13.8996 3.96634 13.9247 3.97159C13.9544 3.97722 13.9761 3.98098 13.9908 3.98286C14.005 3.98435 14.0167 3.9851 14.0253 3.9851C14.0223 3.99149 14.0186 4.00198 14.0144 4.01625C14.0103 4.03052 14.0058 4.04741 14.0013 4.06656C13.9964 4.08531 13.9919 4.10556 13.987 4.12696C13.9821 4.14874 13.978 4.16938 13.9739 4.18889L13.9656 4.22905C13.9615 4.24969 13.9581 4.26844 13.9547 4.28608C13.9518 4.30372 13.9503 4.31648 13.9506 4.32399C13.8936 4.32887 13.8365 4.32999 13.7799 4.32775C13.7228 4.32587 13.6677 4.31911 13.614 4.30823C13.5438 4.29435 13.4808 4.27183 13.4256 4.24181C13.3701 4.21141 13.3247 4.17426 13.289 4.13035C13.2534 4.08607 13.2286 4.03653 13.2143 3.98174C13.2004 3.92656 13.2001 3.86764 13.2124 3.80497C13.2282 3.72728 13.2548 3.662 13.292 3.60906C13.3295 3.55579 13.3749 3.51451 13.4279 3.48485C13.4811 3.45521 13.5404 3.43681 13.6065 3.43006C13.6722 3.42293 13.7412 3.42669 13.8129 3.44094C13.8748 3.45333 13.9273 3.4706 13.9698 3.49236C14.0125 3.51412 14.0534 3.54115 14.0929 3.57379C14.082 3.59369 14.0715 3.61321 14.0613 3.63234C14.0512 3.65148 14.0418 3.67137 14.0336 3.69164L14.0163 3.68825C13.9975 3.64622 13.9709 3.61021 13.9364 3.57979Z"/>
<path d="M14.3293 4.47588C14.2891 4.45075 14.2568 4.42035 14.2325 4.38469C14.2085 4.34905 14.1934 4.3089 14.1878 4.26347C14.1822 4.21844 14.1886 4.16778 14.2073 4.1115C14.2178 4.07996 14.2272 4.05183 14.2358 4.02704C14.2445 4.00228 14.2524 3.97938 14.2595 3.95801C14.2662 3.93661 14.2734 3.91634 14.2805 3.89646C14.2872 3.87694 14.2944 3.85667 14.3011 3.83528C14.3225 3.7711 14.339 3.71931 14.3514 3.67954C14.3638 3.63976 14.3721 3.60973 14.3773 3.58946C14.3923 3.59621 14.4081 3.60297 14.4242 3.60973C14.4408 3.61649 14.4565 3.62249 14.4723 3.62775C14.488 3.633 14.5045 3.63751 14.5214 3.642C14.5383 3.64612 14.5552 3.65027 14.5713 3.65403C14.5383 3.72794 14.5098 3.79737 14.4865 3.86304C14.4633 3.92834 14.4404 3.99516 14.4178 4.06307C14.3942 4.13475 14.3799 4.19441 14.3758 4.24208C14.3713 4.28975 14.3751 4.32914 14.3874 4.35993C14.3995 4.39033 14.419 4.41472 14.4456 4.43236C14.4723 4.44963 14.5049 4.465 14.5436 4.47776C14.5909 4.49354 14.6321 4.4939 14.6667 4.4789C14.7012 4.46426 14.732 4.43948 14.759 4.4046C14.786 4.3693 14.8093 4.3269 14.8292 4.27699C14.8494 4.22744 14.8686 4.17453 14.8866 4.11938C14.9046 4.06495 14.9219 4.01053 14.938 3.95574C14.9545 3.90134 14.9699 3.84616 14.9849 3.79061C14.9954 3.79588 15.0055 3.80076 15.0157 3.80525C15.0254 3.80976 15.0348 3.81352 15.0434 3.81652C15.0536 3.81989 15.0637 3.82252 15.0735 3.8244C15.0836 3.82628 15.0937 3.82816 15.1046 3.83003C15.0971 3.84691 15.0881 3.8698 15.0768 3.89834C15.0656 3.92722 15.0528 3.96025 15.0386 3.99816C15.0243 4.03605 15.0089 4.07771 14.9924 4.1235C14.9759 4.16929 14.9594 4.21769 14.9421 4.26911C14.8967 4.40645 14.8348 4.49539 14.7556 4.53557C14.6768 4.57533 14.58 4.57646 14.4655 4.53857C14.4148 4.52205 14.3694 4.50103 14.3293 4.47588Z"/>
<path d="M15.286 4.08306C15.3063 4.03315 15.3258 3.98323 15.3446 3.9322C15.357 3.93971 15.3705 3.9472 15.3851 3.95511C15.3997 3.96299 15.4166 3.97123 15.4358 3.9795C15.4545 3.98811 15.4722 3.99487 15.4879 4.00051C15.5033 4.00614 15.518 4.01102 15.5318 4.01551C15.5067 4.06356 15.4827 4.1116 15.4594 4.16C15.4361 4.20842 15.4103 4.26396 15.3825 4.32737L15.3134 4.48237C15.2943 4.52552 15.2759 4.56755 15.2586 4.6081C15.241 4.64862 15.226 4.68352 15.2136 4.71355C15.2568 4.73307 15.3007 4.75107 15.3449 4.76795C15.3896 4.78486 15.4347 4.80062 15.4812 4.81487C15.4759 4.82238 15.4714 4.8295 15.4677 4.83589C15.4639 4.84265 15.4594 4.85202 15.4538 4.86404C15.4485 4.87605 15.4448 4.8858 15.4425 4.89293C15.4403 4.90005 15.4388 4.90644 15.4384 4.91169C15.4181 4.90193 15.393 4.88993 15.3633 4.87641C15.3333 4.86253 15.292 4.84414 15.2399 4.82087C15.1933 4.80023 15.1558 4.78371 15.1269 4.77059C15.0988 4.7582 15.0759 4.74807 15.059 4.74056C15.0417 4.73307 15.029 4.72743 15.02 4.72404C15.0109 4.72031 15.0034 4.71768 14.9971 4.7158C15.0211 4.67001 15.0443 4.6231 15.068 4.5747C15.0912 4.52628 15.1168 4.47037 15.1449 4.40731L15.2136 4.25233C15.2417 4.18927 15.2658 4.13299 15.286 4.08306Z"/>
<path d="M16.1722 5.31136C16.1556 5.30009 16.1395 5.29034 16.1237 5.28172C16.1083 5.2727 16.093 5.26409 16.0776 5.25582C16.0622 5.24718 16.0468 5.23855 16.031 5.22993C16.0157 5.2213 15.9999 5.21342 15.9838 5.20627C15.9916 5.16424 15.9999 5.12148 16.0082 5.07757C16.0164 5.03327 16.0239 4.98899 16.031 4.94433C16.0082 4.93083 15.9849 4.91732 15.962 4.90381C15.9391 4.89066 15.9158 4.87753 15.8926 4.86441C15.8734 4.85389 15.8547 4.84375 15.8355 4.83362C15.8164 4.8235 15.7972 4.81335 15.7777 4.80359C15.7428 4.8325 15.7087 4.86214 15.6757 4.89254C15.6426 4.92257 15.6111 4.95259 15.5814 4.98262C15.5732 4.97623 15.5653 4.97099 15.5567 4.96648C15.5484 4.9616 15.5398 4.95708 15.5312 4.95221C15.5225 4.94733 15.5139 4.94245 15.5049 4.93757C15.4963 4.93269 15.4865 4.9282 15.4756 4.92408C15.4948 4.90981 15.521 4.89029 15.5541 4.86477C15.5871 4.83962 15.6242 4.81035 15.6652 4.77808C15.7061 4.74544 15.75 4.71092 15.7969 4.67338C15.8434 4.63622 15.8907 4.5987 15.9384 4.56004C15.9856 4.52176 16.0326 4.48425 16.0783 4.4467C16.1241 4.40955 16.1669 4.37464 16.2059 4.342C16.2123 4.34764 16.2183 4.35288 16.2243 4.35739C16.2303 4.36227 16.2371 4.3664 16.2442 4.37052C16.2513 4.37464 16.2588 4.37803 16.266 4.38028C16.2731 4.38291 16.2806 4.38555 16.2889 4.38816C16.2776 4.46285 16.2656 4.54279 16.2532 4.62798C16.2405 4.71353 16.2284 4.79759 16.2176 4.88053C16.2067 4.96347 16.1969 5.04266 16.1887 5.11772C16.18 5.19278 16.1748 5.25733 16.1722 5.31136ZM16.0889 4.55253C16.0457 4.58556 16.004 4.61895 15.9635 4.65198C15.9233 4.68538 15.8828 4.71953 15.8419 4.75519L16.0416 4.8659C16.0502 4.81299 16.0584 4.76044 16.0667 4.70941C16.0746 4.65798 16.0821 4.60583 16.0889 4.55253Z"/>
<path d="M16.7072 4.81019C16.7181 4.7933 16.7252 4.78055 16.729 4.7723C16.7185 4.76515 16.7054 4.75691 16.69 4.74752C16.6742 4.73815 16.6573 4.728 16.6393 4.71751C16.6213 4.707 16.6029 4.69648 16.5838 4.68636C16.5646 4.67585 16.5466 4.66684 16.5301 4.65857C16.5365 4.65182 16.5428 4.64508 16.5492 4.63833C16.5552 4.63118 16.5609 4.62406 16.5658 4.61654C16.571 4.60905 16.5755 4.60078 16.5796 4.59254C16.5838 4.58427 16.5875 4.57602 16.5913 4.56739C16.6141 4.5839 16.6352 4.59891 16.6536 4.61205C16.6719 4.62557 16.6911 4.63906 16.7106 4.65257C16.7301 4.66609 16.7511 4.68072 16.7744 4.69648C16.7973 4.71263 16.8247 4.73139 16.8573 4.75315C16.89 4.77491 16.9178 4.7933 16.941 4.80833C16.9647 4.8237 16.9861 4.8376 17.0056 4.84997C17.0251 4.86273 17.0442 4.87476 17.063 4.88637C17.0818 4.89801 17.1024 4.9104 17.1242 4.92428C17.1178 4.93067 17.1114 4.93743 17.1054 4.94455C17.099 4.95131 17.0934 4.95882 17.0885 4.96631C17.0832 4.97382 17.0788 4.9817 17.0746 4.98995C17.0709 4.99858 17.0667 5.00685 17.063 5.01549C17.0506 5.00385 17.0363 4.99183 17.0202 4.97834C17.0041 4.96519 16.9879 4.95243 16.9718 4.94004C16.9553 4.92767 16.9399 4.91603 16.9253 4.90515C16.9106 4.89427 16.8979 4.88525 16.8877 4.87849C16.8847 4.88149 16.881 4.886 16.8765 4.892C16.8716 4.89764 16.8667 4.90515 16.8611 4.9134L16.8243 4.96819L16.6509 5.22752C16.6127 5.28493 16.5793 5.33635 16.5507 5.38175C16.5222 5.42717 16.4948 5.4722 16.4689 5.51723C16.4584 5.50784 16.446 5.49847 16.4321 5.48947C16.4183 5.48008 16.4029 5.46957 16.3856 5.45793C16.368 5.44668 16.3526 5.43617 16.3387 5.42678C16.3248 5.41741 16.3117 5.40953 16.2989 5.40314C16.3304 5.36223 16.362 5.31983 16.3931 5.27629C16.4243 5.23238 16.4592 5.1821 16.4974 5.12468L16.6708 4.86537C16.6843 4.84548 16.6963 4.82709 16.7072 4.81019Z"/>
<path d="M17.0635 5.19126C17.1153 5.16423 17.1704 5.14811 17.2286 5.14323C17.2864 5.13835 17.3457 5.14586 17.4061 5.16538C17.4665 5.18526 17.5243 5.2179 17.5803 5.26408C17.6317 5.30648 17.6733 5.35302 17.706 5.40366C17.7386 5.45433 17.7596 5.50724 17.769 5.56242C17.7784 5.61797 17.7746 5.675 17.7578 5.73392C17.7409 5.79285 17.7086 5.85101 17.6609 5.9088C17.6212 5.95686 17.575 5.99401 17.5221 6.02065C17.4695 6.04729 17.414 6.06268 17.3558 6.06717C17.298 6.07131 17.2391 6.06344 17.1802 6.04392C17.1209 6.02401 17.0646 5.99174 17.0106 5.94746C16.9599 5.90543 16.9175 5.86001 16.8833 5.81049C16.8492 5.76131 16.8271 5.70879 16.8169 5.65361C16.8072 5.59845 16.8102 5.5414 16.8271 5.48212C16.8436 5.42318 16.8766 5.36351 16.9265 5.30311C16.9655 5.25581 17.0113 5.21829 17.0635 5.19126ZM17.5972 5.63334C17.614 5.5917 17.623 5.55191 17.6238 5.514C17.6246 5.47573 17.6174 5.4397 17.6016 5.40554C17.5859 5.37178 17.563 5.34214 17.5322 5.3166C17.4992 5.2896 17.4636 5.27308 17.4245 5.26745C17.3855 5.26144 17.3461 5.26481 17.3059 5.27684C17.2658 5.28884 17.226 5.30911 17.1866 5.33763C17.1475 5.36615 17.1108 5.40105 17.077 5.44196C17.0346 5.49336 17.0042 5.54103 16.9858 5.58531C16.9678 5.6296 16.9592 5.67012 16.9599 5.70728C16.9607 5.74406 16.9693 5.77709 16.9858 5.8071C17.0019 5.83676 17.0237 5.86265 17.0507 5.88516C17.0796 5.9088 17.1123 5.9257 17.1487 5.93507C17.1847 5.94483 17.223 5.94522 17.2635 5.9362C17.3037 5.92719 17.3457 5.90843 17.3892 5.87992C17.4328 5.8514 17.4763 5.81086 17.5198 5.75794C17.5544 5.71628 17.5803 5.675 17.5972 5.63334Z"/>
<path d="M17.8885 6.19604L17.8517 6.23171C17.8018 6.27974 17.7586 6.32289 17.7211 6.36117C17.6836 6.39983 17.6475 6.43811 17.6126 6.47638C17.604 6.46514 17.5939 6.4535 17.5826 6.44147C17.571 6.42947 17.5579 6.41596 17.5436 6.40132C17.529 6.38632 17.5158 6.3728 17.5046 6.3608C17.4929 6.34878 17.4817 6.33828 17.4704 6.32928C17.5098 6.29586 17.5496 6.26098 17.589 6.22495C17.6288 6.18892 17.6734 6.14689 17.7233 6.09885L17.8453 5.981C17.8949 5.93297 17.9384 5.88982 17.9755 5.85115C18.0131 5.81251 18.0502 5.77348 18.0866 5.73333C18.0953 5.74496 18.105 5.75697 18.1155 5.76972C18.1264 5.78248 18.1388 5.79636 18.1534 5.81139C18.1688 5.82752 18.1876 5.84515 18.209 5.8643C18.2304 5.88343 18.2559 5.90821 18.2852 5.93897C18.3073 5.96149 18.3253 5.98139 18.3399 5.99903C18.3542 6.01628 18.3658 6.03167 18.3748 6.04594C18.3838 6.05982 18.3902 6.07295 18.3947 6.08534C18.3992 6.09773 18.4026 6.11049 18.4049 6.12361C18.409 6.15401 18.4064 6.18404 18.397 6.21331C18.388 6.24259 18.3696 6.27035 18.3429 6.29625C18.299 6.33865 18.2521 6.3608 18.2015 6.36341C18.1508 6.36644 18.0983 6.35065 18.0435 6.31689C18.0202 6.39456 17.9996 6.4745 17.9808 6.55632C17.962 6.63814 17.9437 6.71918 17.926 6.80024C17.914 6.78524 17.9012 6.77136 17.8889 6.75821C17.8761 6.74509 17.863 6.73157 17.8498 6.71769C17.8363 6.70418 17.8232 6.6903 17.81 6.67715C17.7973 6.66366 17.7834 6.65051 17.7688 6.63775L17.896 6.20431L17.8885 6.19604ZM18.2454 6.10934C18.2559 6.0891 18.2596 6.06919 18.257 6.05043C18.2544 6.03167 18.2457 6.01216 18.2311 5.99227C18.2165 5.97237 18.197 5.94985 18.1733 5.92546C18.0904 6.0024 18.0082 6.08009 17.9267 6.15889C17.9298 6.16301 17.9328 6.16677 17.9354 6.17053C17.9384 6.17392 17.9414 6.17728 17.944 6.18028C17.9823 6.21968 18.0221 6.23959 18.0637 6.23995C18.105 6.24034 18.1474 6.21968 18.1906 6.17804C18.2168 6.15252 18.2349 6.12962 18.2454 6.10934Z"/>
<path d="M18.6348 6.78249C18.6689 6.77649 18.7038 6.769 18.7395 6.76036C18.7755 6.75173 18.8112 6.74272 18.8468 6.73297C18.8825 6.72357 18.9166 6.71457 18.9493 6.70633C18.9538 6.71457 18.9586 6.72245 18.9635 6.73072C18.9688 6.73897 18.9744 6.74685 18.9808 6.75473C18.9868 6.76261 18.9935 6.76973 19.0003 6.77649C19.0074 6.78324 19.0149 6.79 19.0232 6.79751C18.9962 6.80088 18.9613 6.80652 18.9185 6.81403C18.8757 6.82115 18.8295 6.8294 18.78 6.83842C18.7305 6.84706 18.6802 6.85682 18.6291 6.86657C18.5777 6.8767 18.5304 6.88607 18.4877 6.89509C18.4719 6.90785 18.4561 6.91985 18.4396 6.93224C18.4235 6.94425 18.407 6.957 18.3908 6.97013C18.3578 6.99679 18.3255 7.0238 18.294 7.05083C18.2625 7.07785 18.231 7.10825 18.1991 7.14128C18.1893 7.12664 18.1788 7.11237 18.1675 7.09849C18.1563 7.08461 18.145 7.0711 18.1341 7.05722C18.1233 7.0437 18.112 7.03019 18.1007 7.01631C18.0895 7.00243 18.0779 6.98891 18.0655 6.97652C18.0962 6.95364 18.1285 6.93149 18.1623 6.90973C18.1957 6.88758 18.2283 6.86431 18.2591 6.83916C18.2741 6.82715 18.2891 6.81478 18.3041 6.802C18.3188 6.78963 18.3334 6.77688 18.348 6.76412C18.3672 6.7217 18.3882 6.67405 18.4111 6.62075C18.4336 6.56784 18.4557 6.51605 18.4775 6.46614C18.4989 6.41584 18.5184 6.37044 18.5353 6.32916C18.5526 6.28826 18.5646 6.25823 18.5721 6.23947C18.5826 6.25559 18.5935 6.27098 18.604 6.28599C18.6145 6.30101 18.6258 6.31602 18.6378 6.33104C18.6498 6.34568 18.6618 6.35956 18.6742 6.37268C18.6862 6.38583 18.6989 6.39932 18.7125 6.41323C18.6975 6.44362 18.6809 6.47739 18.6629 6.51493C18.6453 6.55245 18.628 6.58923 18.6111 6.62526C18.5942 6.66127 18.5792 6.6943 18.5661 6.72433C18.5526 6.75436 18.5436 6.77724 18.5383 6.793L18.5398 6.79527C18.5691 6.793 18.6006 6.78851 18.6348 6.78249Z"/>
<path d="M18.9466 8.26857C18.938 8.25055 18.9286 8.23403 18.9196 8.21866C18.9102 8.20327 18.9012 8.18824 18.8922 8.17324C18.8832 8.15824 18.8738 8.14321 18.8648 8.12784C18.8554 8.11245 18.8457 8.09781 18.8352 8.08393C18.8633 8.05127 18.8918 8.01826 18.9207 7.98411C18.9496 7.94996 18.9782 7.91542 19.0063 7.87978C18.9932 7.8565 18.98 7.83362 18.9669 7.81072C18.9534 7.78744 18.9399 7.76456 18.926 7.74168C18.9147 7.72329 18.9035 7.70489 18.8918 7.6865C18.8802 7.6685 18.8686 7.6501 18.8569 7.63208C18.8119 7.63959 18.7676 7.64859 18.7241 7.65835C18.6802 7.66811 18.6381 7.67862 18.5972 7.68989C18.5935 7.6805 18.589 7.6715 18.5841 7.66323C18.5792 7.65498 18.574 7.64671 18.5691 7.6381C18.5638 7.62983 18.5586 7.6212 18.5533 7.61256C18.5485 7.60395 18.5421 7.59531 18.5346 7.58631C18.5582 7.58368 18.5909 7.57955 18.6321 7.57392C18.6734 7.56828 18.72 7.56153 18.7718 7.55365C18.8232 7.54613 18.8787 7.53752 18.9376 7.5285C18.9969 7.5195 19.0566 7.51013 19.117 7.50037C19.177 7.49098 19.2363 7.48122 19.2949 7.47183C19.3531 7.46207 19.4075 7.45307 19.4574 7.44407C19.4604 7.45231 19.463 7.45983 19.466 7.46658C19.4687 7.47371 19.4724 7.48085 19.4765 7.48798C19.481 7.4951 19.4855 7.50149 19.4904 7.50749C19.4953 7.51313 19.5009 7.51913 19.5066 7.5255C19.4597 7.5848 19.4097 7.64822 19.3564 7.71577C19.3028 7.78371 19.251 7.85087 19.2003 7.91729C19.1496 7.98372 19.102 8.04751 19.057 8.10869C19.0123 8.16987 18.9755 8.22315 18.9466 8.26857ZM19.2514 7.56865C19.1973 7.5758 19.1448 7.58404 19.0934 7.59268C19.0416 7.60168 18.9894 7.61107 18.9365 7.62195L19.0547 7.81711C19.0885 7.77544 19.1219 7.73417 19.1542 7.69362C19.1864 7.6531 19.2191 7.61144 19.2514 7.56865Z"/>
<path d="M19.9193 8.54598C19.923 8.50022 19.9129 8.45104 19.8885 8.39925C19.8723 8.36473 19.8487 8.33358 19.8179 8.30618C19.7871 8.27879 19.7507 8.25852 19.7091 8.24576C19.667 8.23264 19.6201 8.22812 19.5683 8.23225C19.5165 8.23639 19.461 8.25215 19.4014 8.2803C19.3563 8.30131 19.3173 8.32721 19.2846 8.35761C19.252 8.388 19.2272 8.4214 19.21 8.4578C19.1927 8.49458 19.1841 8.53361 19.1841 8.57489C19.1841 8.61616 19.1942 8.65859 19.2148 8.7025C19.2193 8.71225 19.225 8.72274 19.2321 8.73477C19.2388 8.74677 19.246 8.75802 19.2527 8.76929C19.2599 8.78017 19.267 8.78993 19.2741 8.79856C19.2813 8.80681 19.2876 8.81283 19.2929 8.81583C19.3027 8.8132 19.3143 8.80869 19.3278 8.80307C19.3417 8.79705 19.3567 8.78993 19.3736 8.78241C19.4344 8.7539 19.479 8.73138 19.5068 8.71562C19.5349 8.69986 19.5537 8.68898 19.5642 8.68335C19.5661 8.69159 19.5695 8.70211 19.574 8.71525C19.5789 8.72801 19.5867 8.74641 19.5976 8.76965C19.6104 8.79668 19.6201 8.81656 19.6276 8.82932C19.6348 8.84208 19.6412 8.85184 19.646 8.8586C19.6393 8.85974 19.6292 8.86311 19.6149 8.86835C19.6006 8.87362 19.5849 8.87999 19.5665 8.8875C19.5485 8.89502 19.5293 8.90326 19.5094 8.91226C19.4892 8.92127 19.47 8.9299 19.452 8.93854L19.4148 8.95581C19.3961 8.96481 19.3784 8.97306 19.3623 8.98096C19.3466 8.98884 19.3353 8.99521 19.3293 9.00008C19.2918 8.95693 19.2569 8.9119 19.225 8.86499C19.1927 8.81808 19.1649 8.76965 19.1417 8.72013C19.1113 8.6552 19.0917 8.5914 19.0835 8.5291C19.0745 8.46643 19.0775 8.40752 19.0917 8.35273C19.106 8.29794 19.1311 8.24839 19.1668 8.20448C19.2028 8.16057 19.2497 8.1253 19.3079 8.0979C19.3796 8.06451 19.4475 8.04687 19.5128 8.04536C19.5777 8.04387 19.6378 8.05587 19.6933 8.08063C19.7485 8.10578 19.7988 8.14294 19.8434 8.19173C19.8885 8.24051 19.9264 8.29794 19.9575 8.36436C19.9842 8.4214 20.0014 8.47355 20.0093 8.52085C20.0176 8.56813 20.0198 8.61729 20.0172 8.66834C19.9947 8.67134 19.9729 8.67471 19.9511 8.67771C19.9297 8.68071 19.9084 8.68522 19.887 8.69047L19.8798 8.67471C19.9023 8.63495 19.9155 8.59177 19.9193 8.54598Z"/>
<path d="M20.0066 8.93664C20.0565 8.91752 20.1068 8.89764 20.1567 8.87661C20.1683 8.91227 20.1796 8.94755 20.1901 8.98282C20.2006 9.01771 20.2122 9.053 20.2246 9.08828C20.2453 9.14644 20.264 9.19747 20.2813 9.2425C20.2982 9.28717 20.3102 9.31681 20.3173 9.3322C20.3038 9.33332 20.2865 9.33747 20.2663 9.34496C20.2539 9.3491 20.2441 9.35323 20.2374 9.35623C20.2306 9.35959 20.2231 9.36372 20.2149 9.36823C20.2085 9.34496 20.2014 9.31944 20.1935 9.29168C20.1852 9.26429 20.1777 9.23726 20.1702 9.21137C20.1627 9.18547 20.1559 9.16183 20.1496 9.14119C20.1432 9.12055 20.1383 9.10592 20.1353 9.09728C20.091 9.10928 20.0479 9.1228 20.0051 9.13743C19.9627 9.1517 19.9199 9.16671 19.8767 9.1821C19.8955 9.23274 19.9128 9.27817 19.9289 9.31908C19.945 9.35959 19.9623 9.40163 19.9803 9.44554C19.966 9.44817 19.9555 9.45005 19.948 9.45193C19.9409 9.45342 19.9334 9.45568 19.9255 9.4583C19.9191 9.46056 19.9128 9.46356 19.9068 9.46693C19.9004 9.47069 19.8914 9.4752 19.8794 9.4812C19.8546 9.38962 19.8268 9.29917 19.7957 9.21062C19.7705 9.21925 19.7454 9.22787 19.7203 9.2365C19.6947 9.24514 19.6696 9.25377 19.6444 9.26241C19.5934 9.28041 19.545 9.2988 19.4988 9.31795C19.5146 9.3626 19.5315 9.40689 19.5495 9.4508C19.5679 9.49471 19.5874 9.53824 19.6092 9.58214C19.5998 9.58327 19.5915 9.58515 19.5844 9.58666C19.5769 9.58854 19.5671 9.59154 19.5544 9.59603C19.542 9.60054 19.5322 9.60429 19.5255 9.6073C19.5187 9.61066 19.5131 9.61405 19.5089 9.61742C19.5022 9.59566 19.4939 9.56939 19.4831 9.53824C19.4725 9.50708 19.4579 9.46469 19.4388 9.41063C19.4219 9.3626 19.4084 9.32395 19.3979 9.29393C19.3874 9.26502 19.3791 9.24177 19.3731 9.22413C19.3667 9.20649 19.3618 9.19298 19.3585 9.18434C19.3547 9.17534 19.3513 9.16783 19.3483 9.16183C19.3979 9.14756 19.4485 9.13219 19.4996 9.11567C19.5506 9.09916 19.6088 9.07925 19.6737 9.05637L19.8336 9.00007C19.8989 8.97682 19.9563 8.95579 20.0066 8.93664Z"/>
<path d="M20.2866 9.57783C20.3242 9.56658 20.3572 9.55719 20.3861 9.54895C20.3876 9.57259 20.3902 9.59135 20.3936 9.60486C20.3973 9.61874 20.4037 9.63638 20.4135 9.65816C20.338 9.77035 20.2637 9.88144 20.1909 9.99102C20.1178 10.1006 20.0438 10.2128 19.9691 10.3277L20.0742 10.301L20.1917 10.2718C20.2311 10.262 20.2701 10.2518 20.3084 10.2417C20.3467 10.232 20.3816 10.2226 20.4139 10.2143C20.4461 10.2057 20.4739 10.1978 20.4968 10.1907C20.52 10.1835 20.5354 10.1783 20.543 10.1745C20.5444 10.1982 20.5471 10.2169 20.5504 10.2308C20.5538 10.2443 20.5606 10.262 20.5703 10.2838C20.4956 10.298 20.4285 10.3115 20.3688 10.3239C20.3088 10.3363 20.2525 10.3483 20.1995 10.3599C20.1466 10.3712 20.0948 10.3832 20.0434 10.396C19.992 10.4083 19.9372 10.4219 19.879 10.4361L19.7338 10.4725C19.7316 10.456 19.7282 10.4395 19.7241 10.4222C19.7196 10.4046 19.7147 10.3892 19.7098 10.3757C19.8618 10.161 20.0123 9.93587 20.1617 9.70056C20.138 9.70544 20.1148 9.71068 20.0911 9.71632C20.0674 9.72159 20.0438 9.72759 20.0194 9.73359L19.879 9.76886C19.8307 9.78087 19.7897 9.79138 19.756 9.80038C19.7222 9.80902 19.6937 9.8169 19.6704 9.82365C19.6471 9.83041 19.628 9.83604 19.6134 9.84054C19.5987 9.84505 19.5871 9.8488 19.5785 9.8518C19.5777 9.84166 19.5758 9.8319 19.5736 9.82214C19.5709 9.81238 19.5687 9.80302 19.5665 9.79438C19.5619 9.77562 19.5563 9.75723 19.5503 9.73922C19.5571 9.73922 19.5803 9.73547 19.6205 9.72795C19.6607 9.72044 19.7098 9.71107 19.7672 9.6998C19.825 9.68817 19.8873 9.67504 19.9541 9.66041C20.0213 9.64577 20.0855 9.63077 20.147 9.61537C20.2026 9.60149 20.2491 9.5891 20.2866 9.57783Z"/>
<path d="M19.9407 11.3163C19.9223 11.3137 19.9043 11.3125 19.887 11.3133C19.8442 11.251 19.8161 11.1692 19.803 11.0678C19.7932 10.9958 19.7951 10.9305 19.8078 10.8712C19.8206 10.8123 19.8424 10.7605 19.8743 10.7166C19.9054 10.6727 19.9452 10.637 19.9929 10.6096C20.0401 10.5822 20.0934 10.565 20.152 10.5571C20.2375 10.5458 20.3122 10.5496 20.3756 10.5687C20.4391 10.5875 20.4923 10.6168 20.5359 10.6569C20.579 10.6967 20.6136 10.7455 20.6387 10.8025C20.6638 10.8596 20.6807 10.9207 20.6894 10.986C20.692 11.0074 20.6935 11.0303 20.6935 11.0543C20.6931 11.0787 20.692 11.1024 20.6894 11.1256C20.6871 11.1485 20.6834 11.1707 20.6789 11.1917C20.674 11.2131 20.6684 11.2311 20.662 11.2461C20.6402 11.2405 20.6188 11.2371 20.597 11.2352C20.5753 11.2334 20.5539 11.2334 20.5321 11.2345L20.5299 11.2172C20.5651 11.1804 20.5892 11.1448 20.6019 11.1095C20.6143 11.0742 20.6177 11.0344 20.6117 10.9898C20.6076 10.9568 20.5956 10.9245 20.5764 10.893C20.5573 10.8618 20.5303 10.8344 20.4965 10.8112C20.4623 10.7879 20.4203 10.771 20.3708 10.7605C20.3212 10.75 20.263 10.7489 20.1974 10.7575C20.134 10.7661 20.0807 10.7819 20.0379 10.8051C19.9955 10.8284 19.9617 10.8558 19.9369 10.887C19.9121 10.9185 19.8953 10.9526 19.8866 10.9894C19.8784 11.0262 19.8761 11.0622 19.881 11.0975C19.8836 11.1174 19.8885 11.1373 19.8956 11.1572C19.9031 11.1774 19.9118 11.1969 19.9223 11.2157C19.9328 11.2341 19.9448 11.2517 19.9587 11.2679C19.9726 11.284 19.9876 11.2979 20.0034 11.3092L19.9955 11.3268C19.9775 11.3223 19.9591 11.3189 19.9407 11.3163Z"/>
<path d="M20.4388 11.8423C20.4695 11.8581 20.5018 11.8731 20.5356 11.8877C20.5694 11.9023 20.6035 11.917 20.6377 11.9305C20.6718 11.9444 20.7044 11.9579 20.7356 11.971C20.7345 11.9804 20.7334 11.9898 20.7322 11.9995C20.7315 12.0089 20.7311 12.0187 20.7315 12.0288C20.7315 12.0386 20.7326 12.0483 20.7341 12.0581C20.7356 12.0675 20.7375 12.0776 20.7394 12.0885C20.7157 12.075 20.6846 12.0585 20.6463 12.0382C20.6076 12.0183 20.566 11.9969 20.521 11.9744C20.4763 11.9519 20.4305 11.929 20.3832 11.9057C20.3363 11.8828 20.2932 11.8622 20.2534 11.8434C20.2335 11.8442 20.2132 11.8442 20.1929 11.8442C20.1723 11.8438 20.152 11.8442 20.131 11.8449C20.0886 11.8464 20.0466 11.8483 20.0053 11.8509C19.9636 11.8536 19.9201 11.8584 19.8747 11.8656C19.8758 11.8483 19.8758 11.8307 19.8755 11.8127C19.8747 11.7946 19.8743 11.777 19.8736 11.7597C19.8732 11.7421 19.8725 11.7245 19.8721 11.7064C19.8713 11.6888 19.8698 11.6712 19.8676 11.6535C19.9059 11.6543 19.9453 11.6558 19.9854 11.6588C20.0252 11.6614 20.0653 11.6622 20.1051 11.661C20.1243 11.6603 20.1434 11.6595 20.1629 11.6584C20.1824 11.6573 20.202 11.6562 20.2211 11.6546C20.262 11.6325 20.3074 11.607 20.3577 11.5785C20.408 11.5496 20.4568 11.5218 20.5041 11.4952C20.5517 11.4682 20.5945 11.4434 20.6328 11.4209C20.6711 11.3983 20.6988 11.3818 20.7161 11.3713C20.715 11.3905 20.7142 11.4092 20.7135 11.4276C20.7131 11.446 20.7131 11.4648 20.7135 11.4839C20.7142 11.503 20.7154 11.5214 20.7172 11.5391C20.7191 11.5571 20.721 11.5755 20.7232 11.5946C20.6932 11.6096 20.6594 11.6269 20.6227 11.646C20.5859 11.6652 20.5498 11.6839 20.5146 11.7027C20.4797 11.7211 20.4478 11.7383 20.4189 11.7545C20.3904 11.7703 20.3693 11.783 20.3554 11.7924V11.795C20.3802 11.8108 20.408 11.8265 20.4388 11.8423Z"/>
<path d="M4.4755 13.7606L4.63085 13.8638L4.73294 13.7088L4.60533 13.6221L4.68939 13.4926L4.53554 13.3909L4.43196 13.5444L4.56069 13.6311L4.4755 13.7606Z"/>
<path d="M3.5935 14.5449L3.43024 14.4586L3.34206 14.6214L3.47866 14.695L3.40623 14.8324L3.57098 14.9202L3.65767 14.7558L3.52107 14.6822L3.5935 14.5449Z"/>
<path d="M4.93275 14.7733L4.85755 14.9437L5.02785 15.0188L5.10305 14.8485L4.93275 14.7733Z"/>
<path d="M4.87262 16.1704C5.02647 16.0871 5.12029 15.9095 5.0156 15.7054C4.93416 15.547 4.75291 15.4487 4.54575 15.5553L4.38363 15.6382L4.20424 15.2869L4.7165 15.0907L4.68649 15.0126C4.67034 14.9702 4.62079 14.9481 4.57876 14.9646L4.16145 15.1244L4.00759 14.7203L4.51534 14.5656L4.49096 14.4853C4.47782 14.4422 4.43015 14.4166 4.38663 14.4298L3.95918 14.56L3.81845 14.1427C3.83496 14.1359 3.85222 14.1303 3.87137 14.1266L4.40202 14.0192C4.36824 13.9858 4.33446 13.9367 4.31233 13.8669L4.22826 13.8838C4.27366 13.8747 4.30294 13.8305 4.29357 13.7851L4.24778 13.5584C4.20199 13.3309 4.0121 13.2506 3.83758 13.2859C3.66196 13.3212 3.51785 13.4679 3.56401 13.6965L3.6263 14.0054L3.70811 13.9888C3.66271 13.9978 3.63344 14.0418 3.64282 14.0872L3.67134 14.2298L3.67434 14.2422C3.67472 14.2433 3.67472 14.244 3.6751 14.2452L3.67547 14.2466L3.67584 14.247L3.84884 14.7687L3.88938 14.7563C3.87099 14.7788 3.86348 14.8096 3.87474 14.8385L4.06614 15.3399L4.10029 15.3267C4.0774 15.3519 4.07027 15.3901 4.08641 15.4217L4.39488 16.024C4.50372 16.236 4.71388 16.2574 4.87262 16.1704ZM3.72801 13.6635C3.70475 13.5486 3.77942 13.4713 3.86273 13.4514C3.9498 13.4296 4.05976 13.4709 4.08377 13.5914L4.14608 13.9003L3.79031 13.9719L3.72801 13.6635ZM4.54276 15.9482L4.45943 15.7864L4.62155 15.7031C4.72925 15.648 4.82722 15.705 4.86662 15.7819C4.92177 15.8897 4.86586 15.9868 4.7878 16.027C4.71088 16.0664 4.59791 16.0559 4.54276 15.9482Z"/>
<path d="M5.79807 16.1117L5.88138 16.1004L5.8048 15.9905C5.75453 15.9188 5.86447 15.8422 5.91441 15.9139L5.95156 15.9672C5.95717 15.9477 5.97068 15.924 5.99771 15.9027L5.97595 15.8711C5.90314 15.7683 5.77855 15.8051 5.73201 15.888C5.71361 15.8719 5.69261 15.8591 5.66595 15.852L5.65207 15.9267C5.66558 15.9304 5.67683 15.9383 5.68359 15.9477L5.79807 16.1117Z"/>
<path d="M5.87494 16.7481C5.88206 16.6603 5.90158 16.5458 5.95224 16.4291L5.17841 16.9691L5.07407 16.8198C5.02453 16.7488 5.02004 16.6355 5.1191 16.5661L5.54205 16.2711L5.57133 16.3131C5.57809 16.2246 5.5976 16.1101 5.649 15.9927L5.06395 16.401C4.81363 16.5755 4.84964 16.7819 4.93522 16.9046L5.00464 17.0037L5.17165 16.9736L5.04179 17.0641C4.94347 17.1328 4.83915 17.0904 4.78924 17.0187L4.6834 16.8667L4.59333 17.0303L4.65188 17.1144C4.75394 17.2604 4.94722 17.3343 5.1375 17.2014L5.84603 16.7068L5.87494 16.7481Z"/>
<path d="M6.22272 16.7736L5.37345 17.49L5.48151 17.618L6.14165 17.0607L6.17429 17.099C6.17317 17.0112 6.18254 16.8952 6.22272 16.7736Z"/>
<path d="M7.02592 17.7688L7.03528 17.9238L7.22144 17.9133L7.21054 17.7279L7.05592 17.7351L7.04617 17.5808L6.86192 17.5921L6.87092 17.7767L7.02592 17.7688Z"/>
<path d="M7.10923 18.6603L7.00716 18.8111L6.73734 18.625C6.74634 18.6092 6.75685 18.5935 6.77073 18.5781L7.13138 18.1746C7.08447 18.1683 7.02741 18.1491 6.96813 18.1067L6.91107 18.1705C6.94186 18.136 6.93886 18.0831 6.90432 18.0523L6.73207 17.8981C6.55906 17.7434 6.35905 17.7926 6.24008 17.9255C6.12074 18.0591 6.09296 18.2628 6.26672 18.4182L6.50164 18.628L6.55758 18.5657C6.52642 18.6002 6.52942 18.6531 6.56394 18.6839L6.69267 18.7909V18.7905C6.69755 18.7961 6.70206 18.8018 6.70806 18.8062L7.50666 19.3508L7.6684 19.2596L7.14489 18.9046L7.24696 18.7537C7.3149 18.6535 7.42823 18.6565 7.4999 18.7053L7.72882 18.8607C7.72921 18.8036 7.74309 18.75 7.77498 18.6907L7.59336 18.5676C7.44587 18.4677 7.24021 18.4674 7.10923 18.6603ZM6.61312 18.5034L6.37857 18.2936C6.29111 18.2156 6.30463 18.1086 6.35941 18.0429C6.41645 17.9735 6.52867 17.9408 6.62061 18.0227L6.85516 18.2328L6.61312 18.5034Z"/>
<path d="M8.93063 18.8018L8.75488 18.8633L8.81632 19.039L8.99207 18.9775L8.93063 18.8018Z"/>
<path d="M10.6824 20.3353L10.2141 20.2903L10.2704 20.115C10.3248 19.9458 10.2662 19.748 10.0452 19.6771L9.44626 19.4846C9.36859 19.4598 9.25561 19.4669 9.15655 19.5664L9.19819 19.4369L9.01356 19.4647L8.89048 19.8632L8.71033 19.7964L8.57559 19.7405L8.81502 19.2429L8.7396 19.2069C8.69907 19.187 8.64765 19.205 8.62814 19.2459L8.43412 19.6486L8.05321 19.465C8.05545 19.4606 8.05697 19.4564 8.05958 19.4515L8.39134 18.85L8.43525 18.8744C8.40298 18.7925 8.36995 18.6811 8.36431 18.5531L7.82766 19.5258L8.0517 19.6493L8.05133 19.6489L8.51293 19.8707L8.53283 19.8291C8.52832 19.8681 8.55159 19.9064 8.59022 19.9188L10.1638 20.4468L10.1754 20.4108C10.1856 20.4378 10.2085 20.4599 10.2392 20.4648L10.8209 20.5267L10.9605 19.6741L11.0112 19.6824C10.9523 19.6159 10.8836 19.5217 10.8352 19.4031L10.6824 20.3353ZM10.112 20.0644L10.0565 20.2378L9.04884 19.9143C9.10363 19.7446 9.19331 19.578 9.39559 19.6429L9.99418 19.8355C10.1098 19.8722 10.1383 19.9818 10.112 20.0644Z"/>
<path d="M11.1656 20.5656L11.3322 20.5802L11.4084 19.7197L11.4583 19.7242C11.3957 19.6623 11.3206 19.5737 11.2636 19.4589L11.1656 20.5656Z"/>
<path d="M13.8018 20.7096L13.6727 20.6237L13.5703 20.7772L13.723 20.8815L13.8104 20.7531L13.9395 20.8391L14.0435 20.6845L13.8889 20.5813L13.8018 20.7096Z"/>
<path d="M14.6788 19.1064L14.5121 19.0254L14.4303 19.1924L14.598 19.2738L14.6788 19.1064Z"/>
<path d="M15.567 18.5543L15.5096 18.7315L15.6869 18.7888L15.7442 18.6116L15.567 18.5543Z"/>
<path d="M16.2566 18.6653C16.218 18.6889 16.2056 18.7418 16.2292 18.7805L16.4638 19.1607L16.0952 19.3963L15.8483 18.913L15.774 18.9512C15.7335 18.9719 15.717 19.0233 15.7376 19.0638L15.9406 19.4616L15.5353 19.7014L15.4772 19.5329C15.4186 19.3637 15.2542 19.2406 15.0336 19.3168L14.4811 19.5078C14.3622 19.5491 14.2781 19.6519 14.2669 19.7911L14.1472 19.4455L14.1956 19.4286C14.113 19.3978 14.0083 19.3475 13.9096 19.2665L14.2188 20.1608L13.8927 20.2467L13.7872 19.7089L13.7054 19.7247C13.6608 19.7337 13.6308 19.7787 13.6394 19.823L13.725 20.2614L13.2784 20.3548L13.2656 20.1859C13.2525 20.0084 13.1237 19.8463 12.8911 19.8636C12.7136 19.8771 12.5526 20.0054 12.5698 20.2381L12.5837 20.4194L12.4659 20.4284C12.2884 20.4415 12.127 20.5691 12.1446 20.8018L12.1521 20.9038L12.3244 20.9748L12.3105 20.7894C12.3011 20.6685 12.392 20.6006 12.4783 20.5942L13.2082 20.5394C13.2532 20.5361 13.2889 20.4948 13.2855 20.4498L13.2847 20.4434C13.296 20.4858 13.338 20.5128 13.3816 20.5042L13.9212 20.3923L13.8991 20.2786L13.9152 20.3259C13.9302 20.3694 13.9779 20.3927 14.0218 20.3777L14.3513 20.291C14.3915 20.2771 14.4173 20.2264 14.4035 20.1855L14.4305 20.2636L15.5909 19.8624L15.5759 19.8189C15.6002 19.8362 15.6329 19.8403 15.6618 19.8256L16.1654 19.5337L16.1399 19.4838C16.1666 19.513 16.2097 19.5213 16.2446 19.4999L16.6931 19.2147L16.3279 18.6214L16.2566 18.6653ZM12.7492 20.407L12.7357 20.2257C12.7267 20.1049 12.8175 20.0369 12.9038 20.0306C13.0243 20.0215 13.0922 20.1109 13.099 20.1983L13.1125 20.3799L12.7492 20.407ZM14.3757 20.1056C14.3742 20.1011 14.3551 20.0459 14.3532 20.0373C14.3111 19.8864 14.3536 19.7288 14.5359 19.6658L15.0884 19.4748C15.2028 19.4354 15.2914 19.5048 15.3199 19.5873L15.3792 19.7585L14.3757 20.1056Z"/>
<path d="M16.049 18.4499L16.2002 18.4852L16.2438 18.3047L16.0625 18.2615L16.0257 18.4124L15.8745 18.3771L15.8332 18.5572L16.0126 18.6008L16.049 18.4499Z"/>
<path d="M20.2748 14.3795L20.3014 14.2988C20.3014 14.2988 20.3146 14.2639 20.3232 14.235C20.3247 14.2313 20.3255 14.2268 20.3262 14.223L20.3292 14.2129L20.4493 13.6319C20.4977 13.3985 20.3476 13.2499 20.1693 13.218C19.9971 13.1865 19.8128 13.2657 19.7663 13.4905C19.7299 13.665 19.8091 13.8552 20.0376 13.9025L20.2159 13.9393L20.1348 14.3255C20.1296 14.3243 20.1247 14.324 20.1187 14.3221L19.9457 14.265C19.7768 14.2091 19.5786 14.2662 19.5055 14.4876C19.4323 14.7101 19.5595 14.8741 19.7303 14.9285C19.8988 14.983 20.0947 14.9255 20.1671 14.7056L20.2215 14.5412C20.357 14.6264 20.3866 14.7792 20.3457 14.9034L20.3424 14.9135C20.3878 14.9008 20.4467 14.8951 20.5172 14.9113C20.5645 14.7113 20.4981 14.4883 20.2748 14.3795ZM20.0095 14.6538C19.9716 14.7676 19.8639 14.7964 19.7806 14.769C19.6972 14.7424 19.6256 14.6546 19.6635 14.5398C19.7014 14.4245 19.8113 14.3968 19.8935 14.4238L20.0665 14.4808L20.0095 14.6538ZM20.2497 13.7764L20.0714 13.7396C19.9528 13.7149 19.9123 13.609 19.9299 13.5242C19.9547 13.4056 20.0594 13.3651 20.1453 13.3828C20.2302 13.4004 20.3112 13.4796 20.2864 13.5982L20.2497 13.7764Z"/>
<path d="M19.2298 14.5572C19.2347 14.5828 19.2429 14.6053 19.2594 14.6248L19.339 14.5839C19.318 14.5636 19.3123 14.5306 19.3199 14.5073L19.3897 14.296L19.3217 14.2281L19.2564 14.4262C19.2268 14.5159 19.0894 14.4705 19.1191 14.3808L19.1611 14.2536C19.1394 14.2623 19.1086 14.2675 19.0688 14.2566L19.0369 14.3538C18.9911 14.4919 19.1217 14.5839 19.2298 14.5572Z"/>
<path d="M17.0553 17.6971L17.2099 17.7084L17.2246 17.5226L17.0392 17.5087L17.026 17.6626L16.8718 17.6521L16.8579 17.836L17.0425 17.8517L17.0553 17.6971Z"/>
<path d="M19.647 15.1994L19.5295 15.1375C19.4931 15.1183 19.4571 15.1059 19.4165 15.0992C19.3801 15.0921 19.3452 15.0906 19.3103 15.0954L19.3618 15.2639C19.394 15.2639 19.4263 15.2722 19.4515 15.2857L19.5689 15.3476C19.6763 15.4039 19.686 15.5161 19.6451 15.5934L19.5607 15.7537L19.1174 15.5199L19.1133 15.7071L19.4826 15.9019L19.3126 16.2239L18.9872 16.052L18.9835 16.2382L19.2353 16.371L19.1129 16.6L18.9872 16.8172L18.7407 16.6097C18.681 16.5594 18.6101 16.5279 18.5354 16.5219L18.5496 16.6971C18.5812 16.7043 18.6108 16.7193 18.633 16.7377L18.8735 16.9403L18.6397 17.2184L18.2573 16.8961L18.213 17.0773L18.532 17.346L18.2975 17.6248L18.016 17.3877L17.9728 17.5689L18.1905 17.7521C18.1905 17.7521 18.177 17.8065 17.8816 18.1101C17.8614 18.0962 17.8415 18.0797 17.8235 18.0583L17.4718 17.6466C17.4591 17.6924 17.4324 17.7461 17.3821 17.7994L17.4381 17.8647C17.4077 17.8294 17.3551 17.8252 17.3198 17.8553L17.1442 18.0054C16.9675 18.1566 16.99 18.3612 17.1055 18.4966C17.2219 18.6329 17.42 18.6877 17.5976 18.536L17.8366 18.3315L17.7826 18.2677C17.8126 18.303 17.8651 18.3071 17.9004 18.2771L18.0246 18.1698C18.0783 18.1266 18.4247 17.7318 18.4247 17.7318L18.3624 17.6793C18.3962 17.7078 18.4461 17.7037 18.4761 17.671L18.7669 17.3254L18.7046 17.2728C18.7392 17.3017 18.7898 17.2969 18.8202 17.2623L19.015 17.0308C19.0169 17.0293 19.0188 17.0282 19.0206 17.0259C19.0889 16.952 19.1644 16.8281 19.1644 16.8281L19.4597 16.3016L19.3877 16.2633C19.4278 16.2847 19.4781 16.2689 19.4999 16.228L19.7085 15.8318L19.6357 15.7935C19.6755 15.8145 19.7254 15.7983 19.7468 15.7574L19.7922 15.6711C19.8117 15.6347 19.8237 15.5987 19.8309 15.5582C19.8553 15.4249 19.8057 15.2831 19.647 15.1994ZM17.4887 18.4088C17.3998 18.485 17.2958 18.4572 17.238 18.3942C17.1768 18.3285 17.1592 18.2126 17.2527 18.1326L17.4921 17.9281L17.7281 18.2043L17.4887 18.4088Z"/>
</svg>
