<svg width="24" height="24" viewBox="0 0 24 24" fill="black" xmlns="http://www.w3.org/2000/svg">
<path fill-rule="evenodd" clip-rule="evenodd" d="M12 2C12.5021 2 12.9091 2.40701 12.9091 2.90909V3.81818C12.9091 4.32026 12.5021 4.72727 12 4.72727C11.4979 4.72727 11.0909 4.32026 11.0909 3.81818V2.90909C11.0909 2.40701 11.4979 2 12 2ZM18.5519 4.53899C18.9069 4.89402 18.9069 5.46962 18.5519 5.82464L18.0974 6.27919C17.7423 6.63421 17.1667 6.63421 16.8117 6.27919C16.4567 5.92417 16.4567 5.34856 16.8117 4.99354L17.2663 4.53899C17.6213 4.18397 18.1969 4.18397 18.5519 4.53899ZM4.92899 4.92899C5.28402 4.57397 5.85962 4.57397 6.21464 4.92899L6.85737 5.57172C7.21239 5.92674 7.21239 6.50235 6.85737 6.85737C6.50235 7.21239 5.92674 7.21239 5.57172 6.85737L4.92899 6.21464C4.57397 5.85962 4.57397 5.28402 4.92899 4.92899ZM12 8.36364C11.0356 8.36364 10.1107 8.74675 9.4287 9.4287C8.74675 10.1107 8.36364 11.0356 8.36364 12V16.5455H11.0909C11.5 16.5455 12 16.5455 12 16.5455C12 16.5455 12 16.5455 12.9091 16.5455H15.6364V12C15.6364 11.0356 15.2532 10.1107 14.5713 9.4287C13.8893 8.74675 12.9644 8.36364 12 8.36364ZM17.4545 16.7014V12C17.4545 10.5534 16.8799 9.16598 15.8569 8.14305C14.834 7.12013 13.4466 6.54545 12 6.54545C10.5534 6.54545 9.16598 7.12013 8.14305 8.14305C7.12013 9.16598 6.54545 10.5534 6.54545 12V16.7014C6.16554 16.8358 5.81644 17.0539 5.52607 17.3443C5.01461 17.8557 4.72727 18.5494 4.72727 19.2727V21.0909C4.72727 21.593 5.13429 22 5.63636 22H18.3636C18.8657 22 19.2727 21.593 19.2727 21.0909V19.2727C19.2727 18.5494 18.9854 17.8557 18.4739 17.3443C18.1836 17.0539 17.8345 16.8358 17.4545 16.7014ZM7.45455 18.3636C7.21344 18.3636 6.98221 18.4594 6.81172 18.6299C6.64123 18.8004 6.54545 19.0316 6.54545 19.2727V20.1818H17.4545V19.2727C17.4545 19.0316 17.3588 18.8004 17.1883 18.6299C17.0178 18.4594 16.7866 18.3636 16.5455 18.3636H7.45455ZM2 12C2 11.4979 2.40701 11.0909 2.90909 11.0909H3.81818C4.32026 11.0909 4.72727 11.4979 4.72727 12C4.72727 12.5021 4.32026 12.9091 3.81818 12.9091H2.90909C2.40701 12.9091 2 12.5021 2 12ZM19.2727 12C19.2727 11.4979 19.6797 11.0909 20.1818 11.0909H21.0909C21.593 11.0909 22 11.4979 22 12C22 12.5021 21.593 12.9091 21.0909 12.9091H20.1818C19.6797 12.9091 19.2727 12.5021 19.2727 12Z"/>
</svg>
