<svg width="24" height="24" viewBox="0 0 24 24" fill="black" xmlns="http://www.w3.org/2000/svg">
<path fill-rule="evenodd" clip-rule="evenodd" d="M18 4H6C5.44771 4 5 4.44772 5 5V19C5 19.5523 5.44772 20 6 20H18C18.5523 20 19 19.5523 19 19V5C19 4.44772 18.5523 4 18 4ZM6 2C4.34315 2 3 3.34315 3 5V19C3 20.6569 4.34315 22 6 22H18C19.6569 22 21 20.6569 21 19V5C21 3.34315 19.6569 2 18 2H6Z" />
<path fill-rule="evenodd" clip-rule="evenodd" d="M10.4142 6.58579C11.1953 5.80474 12.4616 5.80474 13.2426 6.58579L15.364 8.70711C15.7545 9.09763 15.7545 9.7308 15.364 10.1213C14.9734 10.5118 14.3403 10.5118 13.9497 10.1213L11.8284 8L9.70711 10.1213C9.31658 10.5118 8.68342 10.5118 8.29289 10.1213C7.90237 9.7308 7.90237 9.09763 8.29289 8.70711L10.4142 6.58579Z" />
<path fill-rule="evenodd" clip-rule="evenodd" d="M10.4142 17.4142C11.1953 18.1953 12.4616 18.1953 13.2426 17.4142L15.364 15.2929C15.7545 14.9024 15.7545 14.2692 15.364 13.8787C14.9734 13.4882 14.3403 13.4882 13.9497 13.8787L11.8284 16L9.70711 13.8787C9.31658 13.4882 8.68342 13.4882 8.29289 13.8787C7.90237 14.2692 7.90237 14.9024 8.29289 15.2929L10.4142 17.4142Z" />
</svg>
