<svg width="24" height="24" viewBox="0 0 24 24" fill="black" xmlns="http://www.w3.org/2000/svg">
<path d="M12 2C6.475 2 2 6.475 2 12C2 17.525 6.475 22 12 22C17.525 22 22 17.525 22 12C22 6.475 17.525 2 12 2ZM12 20.3333C7.40833 20.3333 3.66667 16.5917 3.66667 12C3.66667 7.40833 7.40833 3.66667 12 3.66667C16.5917 3.66667 20.3333 7.40833 20.3333 12C20.3333 16.5917 16.5917 20.3333 12 20.3333Z"/>
<path d="M12 5.33333V18.6667C15.6833 18.6667 18.6667 15.6833 18.6667 12C18.6667 8.31667 15.6833 5.33333 12 5.33333Z"/>
</svg>
