<svg width="24" height="24" viewBox="0 0 24 24" fill="black" xmlns="http://www.w3.org/2000/svg">
<path d="M16.14 22H7.86C6.29 22 4.98 20.78 4.87 19.21L4.07 8H4C3.45 8 3 7.55 3 7C3 6.45 3.45 6 4 6H4.99C4.99 6 5 6 5.01 6H8V4C8 2.9 8.9 2 10 2H14C15.1 2 16 2.9 16 4V6H20C20.55 6 21 6.45 21 7C21 7.55 20.55 8 20 8H19.93L19.13 19.21C19.02 20.77 17.7 22 16.14 22ZM6.07 8L6.86 19.07C6.9 19.59 7.34 20 7.86 20H16.14C16.66 20 17.1 19.59 17.14 19.07L17.93 8H6.07ZM10 6H14V4H10V6ZM14 18C13.45 18 13 17.55 13 17V11C13 10.45 13.45 10 14 10C14.55 10 15 10.45 15 11V17C15 17.55 14.55 18 14 18ZM10 18C9.45 18 9 17.55 9 17V11C9 10.45 9.45 10 10 10C10.55 10 11 10.45 11 11V17C11 17.55 10.55 18 10 18Z"/>
</svg>
