<svg width="24" height="24" viewBox="0 0 24 24" fill="black" xmlns="http://www.w3.org/2000/svg">
<path d="M12 22C8.98 22 6.26 20.65 4.43 18.52C4.38 18.47 4.34 18.42 4.3 18.36C2.87 16.63 2 14.41 2 11.99C2 6.49 6.49 2 12 2C17.51 2 22 6.49 22 12C22 14.42 21.14 16.64 19.7 18.37C19.66 18.43 19.62 18.48 19.57 18.53C17.74 20.66 15.02 22.01 12 22.01V22ZM6.81 18.08C8.21 19.28 10.02 20 12 20C13.98 20 15.8 19.28 17.19 18.08C13.93 16.66 10.06 16.66 6.8 18.08H6.81ZM12 15C14.29 15 16.55 15.52 18.59 16.52C19.48 15.23 20 13.67 20 12C20 7.59 16.41 4 12 4C7.59 4 4 7.59 4 12C4 13.68 4.52 15.24 5.41 16.52C7.45 15.52 9.71 15 12 15ZM12 14C9.79 14 8 12.21 8 10C8 7.79 9.79 6 12 6C14.21 6 16 7.79 16 10C16 12.21 14.21 14 12 14ZM12 8C10.9 8 10 8.9 10 10C10 11.1 10.9 12 12 12C13.1 12 14 11.1 14 10C14 8.9 13.1 8 12 8Z"/>
</svg>
