<svg width="24" height="24" viewBox="0 0 24 24" fill="black" xmlns="http://www.w3.org/2000/svg">
<path fill-rule="evenodd" clip-rule="evenodd" d="M12.0182 6.00002C10.6139 5.99682 9.23353 6.36333 8.01578 7.06271C6.79803 7.76209 5.78583 8.76969 5.08092 9.98424C4.37601 11.1988 4.00322 12.5775 4.00002 13.9818C3.99682 15.3861 4.36333 16.7665 5.06271 17.9842C5.33776 18.4631 5.1725 19.0744 4.69358 19.3494C4.21466 19.6245 3.60344 19.4592 3.32839 18.9803C2.45417 17.4581 1.99603 15.7326 2.00003 13.9772C2.00402 12.2219 2.47001 10.4985 3.35115 8.9803C4.23229 7.46211 5.49754 6.20261 7.01972 5.32839C8.54191 4.45417 10.2674 3.99603 12.0228 4.00003C13.7781 4.00402 15.5015 4.47001 17.0197 5.35115C18.5379 6.23229 19.7974 7.49754 20.6716 9.01972C21.5458 10.5419 22.004 12.2674 22 14.0228C21.996 15.7781 21.53 17.5015 20.6489 19.0197C20.3716 19.4974 19.7597 19.6598 19.282 19.3826C18.8043 19.1054 18.6419 18.4934 18.9191 18.0158C19.624 16.8012 19.9968 15.4225 20 14.0182C20.0032 12.6139 19.6367 11.2335 18.9373 10.0158C18.2379 8.79803 17.2303 7.78583 16.0158 7.08092C14.8012 6.37601 13.4225 6.00322 12.0182 6.00002Z"/>
<path fill-rule="evenodd" clip-rule="evenodd" d="M15.6644 9.75259C16.0771 10.1195 16.1143 10.7516 15.7474 11.1644L11.7474 15.6644C11.3805 16.0771 10.7484 16.1143 10.3356 15.7474C9.92285 15.3805 9.88567 14.7484 10.2526 14.3356L14.2526 9.83564C14.6195 9.42285 15.2516 9.38567 15.6644 9.75259Z"/>
</svg>
