<svg width="24" height="24" viewBox="0 0 24 24" fill="black" xmlns="http://www.w3.org/2000/svg">
<path d="M21.4911 5.1798C21.1913 4.9072 20.8005 4.78907 20.3916 4.8345L17.7383 5.17071C13.94 5.64323 10.0509 5.64323 6.24353 5.17071L3.59927 4.8345C3.19945 4.78907 2.80872 4.9072 2.49977 5.1798C2.18174 5.46149 2 5.87039 2 6.29747V17.6923C2 18.1285 2.18174 18.5374 2.49977 18.8191C2.79964 19.0826 3.20854 19.2098 3.59927 19.1644L6.2617 18.8281C10.06 18.3556 13.9219 18.3556 17.7383 18.8281L20.4007 19.1644C20.4552 19.1644 20.5189 19.1734 20.5734 19.1734C20.9096 19.1734 21.2458 19.0462 21.5002 18.8191C21.8183 18.5374 22 18.1285 22 17.6923V6.29747C22 5.86131 21.8183 5.4524 21.5002 5.1798H21.4911ZM12.9041 11.0953V7.33337C14.5943 7.29702 16.2935 7.17889 17.9655 6.9699L20.1736 6.69729V11.0953H12.9041ZM20.2099 17.3106L17.9564 17.029C16.2844 16.82 14.5852 16.7018 12.9041 16.6655V12.9036H20.1826L20.2099 17.3016V17.3106ZM11.0868 12.9126V16.6746C9.40572 16.7109 7.7065 16.829 6.03453 17.038L3.81736 17.3106V12.9126H11.0868ZM11.0868 7.34245V11.0953H3.80827L3.78101 6.69729L6.01636 6.97898C7.68832 7.18798 9.38755 7.31519 11.0777 7.34245H11.0868Z"/>
</svg>
