<svg width="32" height="32" viewBox="0 0 32 32" fill="none" xmlns="http://www.w3.org/2000/svg">
<g id="Icon/Outline/video-slash">
<path id="Vector" fill-rule="evenodd" clip-rule="evenodd" d="M3.05703 3.05727C3.57773 2.53657 4.42195 2.53657 4.94265 3.05727L28.9426 27.0573C29.4633 27.578 29.4633 28.4222 28.9426 28.9429C28.4219 29.4636 27.5777 29.4636 27.057 28.9429L21.0138 22.8996C20.8151 23.3666 20.5274 23.796 20.1616 24.1618C19.4115 24.912 18.394 25.3334 17.3332 25.3334H6.6665C5.60564 25.3334 4.58822 24.912 3.83808 24.1618C3.08793 23.4117 2.6665 22.3943 2.6665 21.3334V10.6667C2.6665 9.60588 3.08793 8.58847 3.83808 7.83832C4.2039 7.4725 4.63328 7.18485 5.10027 6.98613L3.05703 4.94289C2.53633 4.42219 2.53633 3.57797 3.05703 3.05727ZM7.44755 9.33342H6.6665C6.31288 9.33342 5.97374 9.47389 5.72369 9.72394C5.47365 9.97399 5.33317 10.3131 5.33317 10.6667V21.3334C5.33317 21.687 5.47365 22.0262 5.72369 22.2762C5.97374 22.5263 6.31288 22.6667 6.6665 22.6667H17.3332C17.6868 22.6667 18.0259 22.5263 18.276 22.2762C18.526 22.0262 18.6665 21.687 18.6665 21.3334V20.5524L7.44755 9.33342ZM11.9998 8.00008C11.9998 7.2637 12.5968 6.66675 13.3332 6.66675H17.3332C18.394 6.66675 19.4115 7.08818 20.1616 7.83832C20.9117 8.58847 21.3332 9.60588 21.3332 10.6667V11.1762L25.4743 9.10613C25.8808 8.90302 26.3326 8.80705 26.7865 8.82749C27.2404 8.84794 27.6816 8.98403 28.0681 9.22285C28.4547 9.46167 28.7738 9.7953 28.9952 10.1921C29.2166 10.5889 29.3329 11.0357 29.3332 11.49V20.509C29.3332 20.5089 29.3332 20.5092 29.3332 20.509C29.3333 21.0645 29.1599 21.6065 28.8372 22.0587C28.5145 22.511 28.0586 22.8511 27.5332 23.0317C26.8368 23.271 26.0782 22.9005 25.8389 22.2041C25.5996 21.5077 25.9701 20.7491 26.6665 20.5098V11.4915L21.3332 14.1575V14.6667C21.3332 15.4031 20.7362 16.0001 19.9998 16.0001C19.2635 16.0001 18.6665 15.4031 18.6665 14.6667V10.6667C18.6665 10.3131 18.526 9.97399 18.276 9.72394C18.0259 9.47389 17.6868 9.33342 17.3332 9.33342H13.3332C12.5968 9.33342 11.9998 8.73646 11.9998 8.00008Z" fill="#5F6F94"/>
</g>
</svg>
