<svg width="24" height="24" viewBox="0 0 24 24" fill="black" xmlns="http://www.w3.org/2000/svg">
<path fill-rule="evenodd" clip-rule="evenodd" d="M10.9653 3C10.9653 2.44772 11.4144 2 11.9685 2C13.2858 2 14.5903 2.25866 15.8074 2.7612C17.0244 3.26375 18.1303 4.00035 19.0618 4.92893C19.9933 5.85752 20.7323 6.95991 21.2364 8.17317C21.7405 9.38642 22 10.6868 22 12C22 13.3132 21.7405 14.6136 21.2364 15.8268C20.7323 17.0401 19.9933 18.1425 19.0618 19.0711C18.1303 19.9997 17.0244 20.7362 15.8074 21.2388C14.5903 21.7413 13.2858 22 11.9685 22C11.4144 22 10.9653 21.5523 10.9653 21C10.9653 20.4477 11.4144 20 11.9685 20C13.0223 20 14.0659 19.7931 15.0396 19.391C16.0132 18.989 16.8979 18.3997 17.6432 17.6569C18.3884 16.914 18.9795 16.0321 19.3828 15.0615C19.7861 14.0909 19.9937 13.0506 19.9937 12C19.9937 10.9494 19.7861 9.90914 19.3828 8.93853C18.9795 7.96793 18.3884 7.08602 17.6432 6.34315C16.8979 5.60028 16.0132 5.011 15.0396 4.60896C14.0659 4.20693 13.0223 4 11.9685 4C11.4144 4 10.9653 3.55228 10.9653 3Z"/>
<path fill-rule="evenodd" clip-rule="evenodd" d="M3.04575 13.6986C3.57513 13.5357 4.13673 13.8315 4.30012 14.3592C4.61091 15.363 5.117 16.296 5.7895 17.1049C6.46201 17.9138 7.28775 18.5827 8.21958 19.0735C8.70944 19.3315 8.89675 19.9365 8.63794 20.4248C8.37914 20.9131 7.77222 21.0998 7.28236 20.8419C6.11757 20.2284 5.08539 19.3923 4.24476 18.3812C3.40414 17.3701 2.77152 16.2038 2.38303 14.949C2.21965 14.4213 2.51636 13.8614 3.04575 13.6986Z"/>
<path fill-rule="evenodd" clip-rule="evenodd" d="M9.44404 3.3013C9.65583 3.81164 9.41251 4.3965 8.90056 4.60763C7.58254 5.15119 6.43366 6.0351 5.5722 7.16836C4.71074 8.30162 4.16784 9.64328 3.99939 11.0552C3.93396 11.6036 3.43493 11.9953 2.88478 11.9301C2.33463 11.8649 1.94169 11.3674 2.00712 10.819C2.21768 9.0541 2.89631 7.37702 3.97314 5.96045C5.04996 4.54387 6.48606 3.43898 8.13359 2.75954C8.64554 2.54841 9.23224 2.79097 9.44404 3.3013Z"/>
<path d="M15.9955 11.6432C15.9313 11.5353 15.8431 11.4433 15.7308 11.3833L10.0582 8.10004C9.59686 7.8281 8.95899 8.13603 8.95899 8.7159V15.2824C8.95899 15.8623 9.59686 16.1702 10.0582 15.9023L15.7308 12.619C15.8391 12.555 15.9313 12.4671 15.9955 12.3591C16.0597 12.2511 16.0918 12.1271 16.0918 12.0032C16.0918 11.8792 16.0597 11.7552 15.9955 11.6472V11.6432Z"/>
</svg>
