<svg width="24" height="24" viewBox="0 0 24 24" fill="black" xmlns="http://www.w3.org/2000/svg">
<path d="M12 2C9.33 2 6.81 3.04 4.93 4.93C3.04 6.82 2 9.33 2 12C2 14.47 2.91 16.83 4.55 18.67L5.75 20H3.99C3.44 20 2.99 20.45 2.99 21C2.99 21.55 3.44 22 3.99 22H7.99C8.04 22 8.09 21.98 8.14 21.97C8.21 21.96 8.28 21.95 8.35 21.93C8.42 21.9 8.48 21.86 8.54 21.82C8.58 21.79 8.62 21.78 8.66 21.75C8.66 21.75 8.66 21.74 8.68 21.73C8.74 21.68 8.77 21.61 8.82 21.55C8.85 21.5 8.89 21.46 8.91 21.42C8.93 21.37 8.94 21.31 8.95 21.26C8.97 21.19 8.99 21.12 8.99 21.04C8.99 21.04 8.99 21.02 8.99 21.01V17.01C8.99 16.46 8.54 16.01 7.99 16.01C7.44 16.01 6.99 16.46 6.99 17.01V18.4L6.03 17.34C4.72 15.87 3.99 13.98 3.99 12.01C3.99 9.87 4.82 7.86 6.33 6.35C7.84 4.84 9.85 4 11.99 4C12.54 4 12.99 3.55 12.99 3C12.99 2.45 12.54 2 11.99 2H12Z"/>
<path d="M16 8C16.56 8 17 7.55 17 7V5.61L17.96 6.67C19.01 7.85 19.7 9.31 19.92 10.87C19.99 11.35 20.41 11.7 20.9 11.7C21.51 11.7 21.98 11.16 21.9 10.56C21.62 8.63 20.78 6.82 19.46 5.33L18.26 4H20.02C20.57 4 21.02 3.55 21.02 3C21.02 2.45 20.56 2 20.01 2H16C16 2 15.9 2.02 15.85 2.03C15.78 2.04 15.71 2.05 15.65 2.07C15.58 2.1 15.52 2.14 15.45 2.19C15.41 2.21 15.37 2.22 15.33 2.26C15.33 2.26 15.32 2.27 15.32 2.28C15.26 2.33 15.23 2.39 15.18 2.46C15.15 2.5 15.11 2.54 15.09 2.59C15.07 2.64 15.07 2.69 15.05 2.74C15.03 2.82 15.01 2.9 15.01 2.98C15.01 2.98 15 2.99 15 3V7C15 7.55 15.45 8 16 8Z"/>
<path d="M14.47 17.94H15.82C16.57 17.94 17.17 18.55 17.17 19.29V20.64C17.17 21.39 16.56 21.99 15.82 21.99H14.47C13.72 21.99 13.12 21.38 13.12 20.64V19.29C13.12 18.54 13.73 17.94 14.47 17.94Z"/>
<path d="M14.47 13.11H15.82C16.57 13.11 17.17 13.72 17.17 14.46V15.81C17.17 16.56 16.56 17.16 15.82 17.16H14.47C13.72 17.16 13.12 16.55 13.12 15.81V14.46C13.12 13.71 13.73 13.11 14.47 13.11Z"/>
<path d="M20.65 17.94H19.29C18.5444 17.94 17.94 18.5444 17.94 19.29V20.65C17.94 21.3956 18.5444 22 19.29 22H20.65C21.3956 22 22 21.3956 22 20.65V19.29C22 18.5444 21.3956 17.94 20.65 17.94Z"/>
<path d="M20.65 13.11H19.29C18.5444 13.11 17.94 13.7144 17.94 14.46V15.82C17.94 16.5656 18.5444 17.17 19.29 17.17H20.65C21.3956 17.17 22 16.5656 22 15.82V14.46C22 13.7144 21.3956 13.11 20.65 13.11Z"/>
</svg>
