<svg width="24" height="24" viewBox="0 0 24 24" fill="black" xmlns="http://www.w3.org/2000/svg">
<path fill-rule="evenodd" clip-rule="evenodd" d="M2 7.55611C2 6.94246 2.49746 6.445 3.11111 6.445H20.8889C21.5025 6.445 22 6.94246 22 7.55611C22 8.16976 21.5025 8.66722 20.8889 8.66722H3.11111C2.49746 8.66722 2 8.16976 2 7.55611ZM2 12.0006C2 11.3869 2.49746 10.8894 3.11111 10.8894H20.8889C21.5025 10.8894 22 11.3869 22 12.0006C22 12.6142 21.5025 13.1117 20.8889 13.1117H3.11111C2.49746 13.1117 2 12.6142 2 12.0006ZM2 16.445C2 15.8313 2.49746 15.3339 3.11111 15.3339H20.8889C21.5025 15.3339 22 15.8313 22 16.445C22 17.0586 21.5025 17.5561 20.8889 17.5561H3.11111C2.49746 17.5561 2 17.0586 2 16.445Z"/>
</svg>
