<svg width="24" height="24" viewBox="0 0 24 24" fill="black" xmlns="http://www.w3.org/2000/svg">
<path fill-rule="evenodd" clip-rule="evenodd" d="M2 5.33333C2 3.49238 3.49238 2 5.33333 2H7.55556C9.3965 2 10.8889 3.49238 10.8889 5.33333V7.55556C10.8889 9.3965 9.3965 10.8889 7.55556 10.8889H5.33333C3.49238 10.8889 2 9.3965 2 7.55556V5.33333ZM5.33333 4.22222C4.71968 4.22222 4.22222 4.71968 4.22222 5.33333V7.55556C4.22222 8.16921 4.71968 8.66667 5.33333 8.66667H7.55556C8.16921 8.66667 8.66667 8.16921 8.66667 7.55556V5.33333C8.66667 4.71968 8.16921 4.22222 7.55556 4.22222H5.33333ZM13.1111 5.33333C13.1111 3.49238 14.6035 2 16.4444 2H18.6667C20.5076 2 22 3.49238 22 5.33333V7.55556C22 9.3965 20.5076 10.8889 18.6667 10.8889H16.4444C14.6035 10.8889 13.1111 9.3965 13.1111 7.55556V5.33333ZM16.4444 4.22222C15.8308 4.22222 15.3333 4.71968 15.3333 5.33333V7.55556C15.3333 8.16921 15.8308 8.66667 16.4444 8.66667H18.6667C19.2803 8.66667 19.7778 8.16921 19.7778 7.55556V5.33333C19.7778 4.71968 19.2803 4.22222 18.6667 4.22222H16.4444ZM2 16.4444C2 14.6035 3.49238 13.1111 5.33333 13.1111H7.55556C9.3965 13.1111 10.8889 14.6035 10.8889 16.4444V18.6667C10.8889 20.5076 9.3965 22 7.55556 22H5.33333C3.49238 22 2 20.5076 2 18.6667V16.4444ZM5.33333 15.3333C4.71968 15.3333 4.22222 15.8308 4.22222 16.4444V18.6667C4.22222 19.2803 4.71968 19.7778 5.33333 19.7778H7.55556C8.16921 19.7778 8.66667 19.2803 8.66667 18.6667V16.4444C8.66667 15.8308 8.16921 15.3333 7.55556 15.3333H5.33333ZM13.1111 16.4444C13.1111 14.6035 14.6035 13.1111 16.4444 13.1111H18.6667C20.5076 13.1111 22 14.6035 22 16.4444V18.6667C22 20.5076 20.5076 22 18.6667 22H16.4444C14.6035 22 13.1111 20.5076 13.1111 18.6667V16.4444ZM16.4444 15.3333C15.8308 15.3333 15.3333 15.8308 15.3333 16.4444V18.6667C15.3333 19.2803 15.8308 19.7778 16.4444 19.7778H18.6667C19.2803 19.7778 19.7778 19.2803 19.7778 18.6667V16.4444C19.7778 15.8308 19.2803 15.3333 18.6667 15.3333H16.4444Z"/>
</svg>
