<svg width="24" height="24" viewBox="0 0 24 24" fill="black" xmlns="http://www.w3.org/2000/svg">
<path fill-rule="evenodd" clip-rule="evenodd" d="M9.58579 3.58584C10.8457 2.32591 13 3.21825 13 5.00006V19.0001C13 20.7819 10.8457 21.6742 9.58579 20.4143L5.17157 16.0001H4C2.89543 16.0001 2 15.1046 2 14.0001V10.0001C2 8.89549 2.89543 8.00006 4 8.00006H5.17157L9.58579 3.58584ZM11 5.00006L6.29289 9.70716C6.10536 9.8947 5.851 10.0001 5.58579 10.0001H4V14.0001H5.58579C5.851 14.0001 6.10536 14.1054 6.29289 14.293L11 19.0001V5.00006ZM17.6569 4.92889C18.0474 4.53836 18.6806 4.53836 19.0711 4.92889C22.9764 8.83413 22.9764 15.1658 19.0711 19.071C18.6806 19.4615 18.0474 19.4615 17.6569 19.071C17.2664 18.6805 17.2664 18.0473 17.6569 17.6568C20.7811 14.5326 20.7811 9.46729 17.6569 6.3431C17.2664 5.95257 17.2664 5.31941 17.6569 4.92889ZM14.8284 7.75738C15.2189 7.36685 15.8521 7.36685 16.2426 7.75738C18.5858 10.1005 18.5858 13.8995 16.2426 16.2427C15.8521 16.6332 15.2189 16.6332 14.8284 16.2427C14.4379 15.8521 14.4379 15.219 14.8284 14.8284C16.3905 13.2663 16.3905 10.7337 14.8284 9.17159C14.4379 8.78107 14.4379 8.1479 14.8284 7.75738Z"/>
</svg>
