<svg width="24" height="24" viewBox="0 0 24 24" fill="black" xmlns="http://www.w3.org/2000/svg">
<path fill-rule="evenodd" clip-rule="evenodd" d="M9.58579 3.58584C10.8457 2.32591 13 3.21825 13 5.00006V19.0001C13 20.7819 10.8457 21.6742 9.58579 20.4143L5.17157 16.0001H4C2.89543 16.0001 2 15.1046 2 14.0001V10.0001C2 8.89549 2.89543 8.00006 4 8.00006H5.17157L9.58579 3.58584ZM11 5.00006L6.29289 9.70716C6.10536 9.8947 5.851 10.0001 5.58579 10.0001H4V14.0001H5.58579C5.851 14.0001 6.10536 14.1054 6.29289 14.293L11 19.0001V5.00006ZM16.2929 9.2929C16.6834 8.90237 17.3166 8.90237 17.7071 9.2929L19 10.5858L20.2929 9.2929C20.6834 8.90237 21.3166 8.90237 21.7071 9.2929C22.0976 9.68342 22.0976 10.3166 21.7071 10.7071L20.4142 12L21.7071 13.2929C22.0976 13.6834 22.0976 14.3166 21.7071 14.7071C21.3166 15.0976 20.6834 15.0976 20.2929 14.7071L19 13.4142L17.7071 14.7071C17.3166 15.0976 16.6834 15.0976 16.2929 14.7071C15.9024 14.3166 15.9024 13.6834 16.2929 13.2929L17.5858 12L16.2929 10.7071C15.9024 10.3166 15.9024 9.68342 16.2929 9.2929Z"/>
</svg>
