<svg width="24" height="24" viewBox="0 0 24 24" fill="black" xmlns="http://www.w3.org/2000/svg">
<path fill-rule="evenodd" clip-rule="evenodd" d="M4.35148 4.35148C4.82013 3.88284 5.58919 3.88284 6.05783 4.35148L12.006 10.2997L17.9542 4.35148C18.4228 3.88284 19.1799 3.88284 19.6485 4.35148C20.1172 4.82013 20.1172 5.57717 19.6485 6.04581L13.7003 11.994L19.6485 17.9422C20.1172 18.4108 20.1172 19.1679 19.6485 19.6365C19.1799 20.1051 18.4228 20.1051 17.9542 19.6365L12.006 13.6883L6.05783 19.6485C5.58919 20.1172 4.83214 20.1172 4.3635 19.6485C3.89486 19.1799 3.89486 18.4228 4.3635 17.9542L10.3117 12.006L4.35148 6.05783C3.88284 5.58919 3.88284 4.82013 4.35148 4.35148Z"/>
</svg>
