<?xml version="1.0" standalone="no"?>
<!DOCTYPE svg PUBLIC "-//W3C//DTD SVG 20010904//EN"
 "http://www.w3.org/TR/2001/REC-SVG-20010904/DTD/svg10.dtd">
<svg version="1.0" xmlns="http://www.w3.org/2000/svg"
 width="673.000000pt" height="668.000000pt" viewBox="0 0 673.000000 668.000000"
 preserveAspectRatio="xMidYMid meet">

<g transform="translate(0.000000,668.000000) scale(0.100000,-0.100000)"
fill="#000000" stroke="none">
<path d="M6500 6673 l195 -3 -3 -3335 c-2 -3331 -2 -3335 18 -3335 20 0 20 5
20 3340 l0 3340 -212 -2 -213 -3 195 -2z"/>
<path d="M1047 5111 l-42 -40 -3 -380 -3 -380 358 -3 c347 -3 359 -4 403 -25
63 -31 128 -98 159 -163 l26 -55 0 -750 0 -750 -28 -56 c-32 -66 -99 -132
-165 -162 -45 -21 -63 -22 -400 -25 l-353 -3 3 -379 3 -378 25 -27 c55 -59
-116 -55 2312 -55 2211 0 2233 0 2266 20 18 11 41 34 52 52 19 31 20 51 20
400 l0 367 -352 3 c-338 3 -355 4 -400 25 -66 30 -141 104 -169 166 l-24 52 0
755 0 755 25 50 c30 62 95 126 157 157 47 23 54 23 406 26 l357 3 0 365 c0
406 -1 415 -65 454 -32 20 -44 20 -2279 20 l-2247 0 -42 -39z m614 -221 c17
-10 19 -23 19 -153 0 -98 -4 -147 -12 -155 -17 -17 -289 -17 -306 0 -8 8 -12
56 -12 149 0 112 3 141 16 153 12 13 41 16 145 16 72 0 139 -5 150 -10z m910
0 c17 -10 19 -23 19 -153 0 -98 -4 -147 -12 -155 -8 -8 -57 -12 -155 -12
l-143 0 -10 26 c-6 14 -10 79 -10 145 0 161 -2 159 166 159 69 0 134 -5 145
-10z m910 0 c17 -10 19 -23 19 -153 0 -98 -4 -147 -12 -155 -8 -8 -56 -12
-149 -12 -112 0 -141 3 -153 16 -13 12 -16 41 -16 145 0 173 -4 169 166 169
69 0 134 -5 145 -10z m910 0 c17 -10 19 -23 19 -159 0 -127 -2 -150 -16 -155
-30 -12 -279 -7 -292 6 -8 8 -12 57 -12 155 0 125 2 143 18 152 23 14 258 14
283 1z m920 -11 c19 -19 20 -30 17 -155 -2 -106 -6 -137 -18 -144 -23 -15
-283 -13 -298 2 -8 8 -12 57 -12 155 0 172 -11 161 168 162 111 1 124 -1 143
-20z m-1146 -601 c66 -34 137 -111 161 -173 18 -48 19 -85 19 -785 0 -680 -1
-739 -18 -786 -21 -60 -74 -125 -129 -160 -86 -55 -94 -55 -890 -52 l-733 3
-57 28 c-72 35 -141 110 -165 180 -17 48 -18 102 -18 787 0 699 1 737 19 784
32 83 126 171 207 195 21 6 322 9 794 8 l760 -2 50 -27z m-2497 -2220 c17 -17
17 -279 0 -296 -17 -17 -289 -17 -306 0 -8 8 -12 56 -12 148 0 92 4 140 12
148 8 8 57 12 153 12 96 0 145 -4 153 -12z m910 0 c18 -18 17 -282 -2 -297 -9
-8 -60 -11 -157 -9 l-144 3 -3 145 c-1 79 0 150 2 157 7 18 286 19 304 1z
m920 -142 c2 -113 -1 -151 -10 -158 -7 -4 -77 -8 -155 -8 -131 0 -143 2 -153
19 -13 26 -13 257 0 282 10 18 21 19 163 17 l152 -3 3 -149z m907 -6 l0 -155
-135 -3 c-198 -4 -180 -20 -180 157 0 110 3 151 13 155 6 2 77 4 157 3 l145
-2 0 -155z m910 0 l0 -155 -144 -3 c-97 -2 -148 1 -157 9 -19 15 -20 279 -2
297 9 9 53 12 158 10 l145 -3 0 -155z"/>
</g>
</svg>
