<svg width="70" height="40" viewBox="0 0 70 40" fill="none" xmlns="http://www.w3.org/2000/svg">
<g id="Vector">
<path fill-rule="evenodd" clip-rule="evenodd" d="M5.07653 1.42475C6.82637 1.42475 8.2449 2.86 8.2449 4.63045C8.2449 6.40091 6.82637 7.83615 5.07653 7.83615C3.32669 7.83615 1.90816 6.40091 1.90816 4.63045C1.90816 2.86 3.32669 1.42475 5.07653 1.42475ZM5.07653 0C7.60408 0 9.65306 2.07312 9.65306 4.63045C9.65306 7.18778 7.60408 9.26091 5.07653 9.26091C2.54898 9.26091 0.5 7.18778 0.5 4.63045C0.5 2.07312 2.54898 0 5.07653 0Z" fill="#C92629"/>
<path d="M6.83673 4.63045C6.83673 3.64687 6.04866 2.84951 5.07653 2.84951C4.1044 2.84951 3.31633 3.64687 3.31633 4.63045C3.31633 5.61404 4.1044 6.4114 5.07653 6.4114C6.04866 6.4114 6.83673 5.61404 6.83673 4.63045Z" fill="#C92629"/>
<path d="M5.07653 4.45236C5.07653 4.74744 4.84011 4.98664 4.54847 4.98664C4.25683 4.98664 4.02041 4.74744 4.02041 4.45236C4.02041 4.15728 4.25683 3.91808 4.54847 3.91808C4.84011 3.91808 5.07653 4.15728 5.07653 4.45236Z" fill="black"/>
<path d="M53.4821 20.0534L49.6097 10.4363H57.1786L53.4821 20.0534Z" fill="#C92629"/>
<path d="M0.5 10.4363H9.30102V40H0.5V10.4363Z" fill="black"/>
<path d="M36.0561 32.1638V40H11.7653V32.1638L36.0561 32.1638Z" fill="black"/>
<path d="M29.1913 10.2582H11.7653V18.0944H26.111C27.2289 18.0944 28.1352 19.0113 28.1352 20.1425C28.1352 21.2736 27.2289 22.1906 26.111 22.1906H11.7653V29.8486H29.1913C33.0799 29.8486 36.2321 26.6592 36.2321 22.7248V17.382C36.2321 13.4477 33.0799 10.2582 29.1913 10.2582Z" fill="black"/>
<path d="M48.5536 40L36.9362 10.6144H46.2653L53.4821 28.9581L60.699 10.6144H69.5L58.0587 40H48.5536Z" fill="black"/>
</g>
</svg>
