<svg width="44" height="26" viewBox="0 0 44 26" fill="black" xmlns="http://www.w3.org/2000/svg">
<path fill-rule="evenodd" clip-rule="evenodd" d="M2.91837 0.926091C4.03421 0.926091 4.93878 1.859 4.93878 3.00979C4.93878 4.16059 4.03421 5.0935 2.91837 5.0935C1.80253 5.0935 0.897959 4.16059 0.897959 3.00979C0.897959 1.859 1.80253 0.926091 2.91837 0.926091ZM2.91837 0C4.53014 0 5.83673 1.34753 5.83673 3.00979C5.83673 4.67206 4.53014 6.01959 2.91837 6.01959C1.3066 6.01959 0 4.67206 0 3.00979C0 1.34753 1.3066 0 2.91837 0Z" fill="#C92629"/>
<path d="M4.04082 3.00979C4.04082 2.37046 3.53828 1.85218 2.91837 1.85218C2.29846 1.85218 1.79592 2.37046 1.79592 3.00979C1.79592 3.64913 2.29846 4.16741 2.91837 4.16741C3.53828 4.16741 4.04082 3.64913 4.04082 3.00979Z" fill="#C92629"/>
<path d="M2.91837 2.89403C2.91837 3.08583 2.76761 3.24132 2.58163 3.24132C2.39566 3.24132 2.2449 3.08583 2.2449 2.89403C2.2449 2.70223 2.39566 2.54675 2.58163 2.54675C2.76761 2.54675 2.91837 2.70223 2.91837 2.89403Z" />
<path d="M33.7857 13.0347L31.3163 6.78361H36.1428L33.7857 13.0347Z" fill="#C92629"/>
<path d="M0 6.78361H5.61225V26H0V6.78361Z" />
<path d="M22.6735 20.9065V26H7.18367V20.9065L22.6735 20.9065Z" />
<path d="M18.2959 6.66785H7.18367V11.7614H16.3316C17.0445 11.7614 17.6224 12.3574 17.6224 13.0926C17.6224 13.8278 17.0445 14.4239 16.3316 14.4239H7.18367V19.4016H18.2959C20.7756 19.4016 22.7857 17.3285 22.7857 14.7711V11.2983C22.7857 8.74098 20.7756 6.66785 18.2959 6.66785Z" />
<path d="M30.6429 26L23.2347 6.89937H29.1837L33.7857 18.8228L38.3878 6.89937H44L36.7041 26H30.6429Z" />
</svg>
